<svg width="117" height="41" viewBox="0 0 117 41" fill="none" xmlns="http://www.w3.org/2000/svg">
<path d="M46.7114 23.1965H51.5436C51.6 24.3025 52.5288 24.979 54.8537 24.9978C56.9074 25.0193 57.855 24.4367 57.855 23.6824C57.855 23.1455 57.5651 22.6086 55.9758 22.3831L53.8845 22.0529C50.8054 21.5482 47.1087 21.1804 47.1087 17.0139C47.1087 13.7925 49.7235 11.822 54.8939 11.822C59.5624 11.822 62.8134 13.1213 62.7141 17.771H57.9221C57.7261 16.6972 56.8188 16.0072 54.7651 16.0072C52.9825 16.0072 52.2496 16.5441 52.2496 17.2878C52.2496 17.7495 52.5369 18.3133 53.7772 18.5066L55.5006 18.7938C58.7221 19.3307 63.1704 19.4327 63.1704 23.8945C63.1704 27.4381 60.4188 29.2045 54.8483 29.183C49.2778 29.1616 46.5799 27.4193 46.7168 23.1965" fill="#96172E"/>
<path d="M64.1959 12.3643H73.4308C77.8657 12.3643 80.4993 14.3428 80.4993 18.7213C80.4993 23.0998 77.8657 25.073 73.4496 25.073H69.5597V28.6407H64.1906L64.1959 12.3643ZM72.9664 20.6193C74.263 20.6193 75.0979 19.9777 75.0979 18.7213C75.0979 17.4649 74.263 16.8233 72.9852 16.8233H69.5597V20.6193H72.9664Z" fill="#96172E"/>
<path d="M81.3691 20.5012C81.3691 15.3039 84.9905 11.814 90.5852 11.814C96.1798 11.814 99.8039 15.3039 99.8039 20.5012C99.8039 25.6985 96.1798 29.1831 90.5852 29.1831C84.9905 29.1831 81.3691 25.7146 81.3691 20.5012ZM94.4778 20.5012C94.4778 17.9267 92.7167 16.4529 90.5852 16.4529C88.4536 16.4529 86.6953 17.9267 86.6953 20.5012C86.6953 23.0757 88.4563 24.5522 90.5852 24.5522C92.714 24.5522 94.4778 23.0811 94.4778 20.5012Z" fill="#96172E"/>
<path d="M116.958 16.8395H111.109V28.6409H105.745V16.8395H99.9006V12.3671H116.958V16.8395Z" fill="#96172E"/>
<path d="M9.81749 2.78586C8.86523 3.35043 7.96106 3.99242 7.11413 4.70532L22.4 20.0073L7.11413 35.3093C7.96034 36.0239 8.86458 36.6669 9.81749 37.2314L27.0228 20.0019L9.81749 2.78586Z" fill="#96172E"/>
<path d="M4.70072 7.12134C3.9872 7.96718 3.34602 8.87148 2.78395 9.82469L12.9504 20.0019L2.78395 30.179C3.34602 31.1322 3.9872 32.0365 4.70072 32.8824L17.5732 19.9965L4.70072 7.12134Z" fill="#96172E"/>
<path d="M1.22421 13.0972C-0.408071 17.5566 -0.408071 22.45 1.22421 26.9093L8.12622 20.0019L1.22421 13.0972Z" fill="#96172E"/>
<path d="M24.7114 27.1427L22.4 29.4568L30.1557 37.2179C31.109 36.654 32.0133 36.011 32.8591 35.2958L24.7114 27.1427Z" fill="#96172E"/>
<path d="M27.1141 24.7294L35.2618 32.8824C35.9747 32.0355 36.6167 31.1313 37.1812 30.179L29.4363 22.418L27.1141 24.7294Z" fill="#96172E"/>
<path d="M38.749 13.0944L31.847 20.0018L38.749 26.9065C40.3813 22.4472 40.3813 17.5538 38.749 13.0944Z" fill="#96172E"/>
<path d="M19.9866 8.1334L26.8886 1.2314C22.4333 -0.408024 17.5399 -0.408024 13.0846 1.2314L19.9866 8.1334Z" fill="#96172E"/>
<path d="M19.9866 31.8703L13.0846 38.7777C17.5412 40.4099 22.432 40.4099 26.8886 38.7777L19.9866 31.8703Z" fill="#96172E"/>
<path d="M29.4363 17.5885L37.192 9.82744C36.6268 8.87389 35.9848 7.96799 35.2725 7.11872L27.1141 15.2771L29.4363 17.5885Z" fill="#96172E"/>
<path d="M24.7114 12.861L32.8591 4.70801C32.012 3.99449 31.1078 3.35162 30.1557 2.78586L22.4 10.5496L24.7114 12.861Z" fill="#96172E"/>
</svg>
