<svg width="20" height="22" viewBox="0 0 20 22" fill="none" xmlns="http://www.w3.org/2000/svg">
<path fill-rule="evenodd" clip-rule="evenodd" d="M18.8399 12.8134C18.3713 12.248 17.5375 12.1707 16.9763 12.6427L11.2057 17.4867V1.66671C11.2057 0.930707 10.6128 0.333374 9.88221 0.333374C9.15162 0.333374 8.55868 0.930707 8.55868 1.66671V17.4867L2.78809 12.6427C2.22559 12.1707 1.39176 12.248 0.924557 12.8134C0.456028 13.3787 0.531469 14.22 1.09397 14.6907L9.03515 21.3574C9.09735 21.4107 9.17147 21.436 9.24029 21.476C9.29456 21.508 9.3422 21.5454 9.40176 21.5694C9.55662 21.6307 9.71809 21.6667 9.88221 21.6667C10.0463 21.6667 10.2078 21.6307 10.3626 21.5694C10.4222 21.5454 10.4699 21.508 10.5241 21.476C10.5929 21.436 10.6671 21.4107 10.7293 21.3574L18.6704 14.6907C19.2316 14.22 19.3084 13.3787 18.8399 12.8134Z" fill="#FFFFFF"/>
</svg>
