<svg width="40" height="44" viewBox="0 0 40 44" fill="none" xmlns="http://www.w3.org/2000/svg">
<path fill-rule="evenodd" clip-rule="evenodd" d="M1.38775 18.2603C2.36125 19.4263 4.09375 19.5858 5.25975 18.6123L17.2497 8.62152V41.2503C17.2497 42.7683 18.4817 44.0003 19.9997 44.0003C21.5177 44.0003 22.7497 42.7683 22.7497 41.2503V8.62152L34.7397 18.6123C35.9085 19.5858 37.641 19.4263 38.6117 18.2603C39.5852 17.0943 39.4285 15.359 38.2597 14.3883L21.7598 0.638275C21.6305 0.528275 21.4765 0.476025 21.3335 0.393525C21.2207 0.327525 21.1218 0.250525 20.998 0.201025C20.6763 0.0745247 20.3407 0.000274658 19.9997 0.000274658C19.6587 0.000274658 19.3232 0.0745247 19.0015 0.201025C18.8777 0.250525 18.7788 0.327525 18.666 0.393525C18.523 0.476025 18.369 0.528275 18.2397 0.638275L1.73975 14.3883C0.57375 15.359 0.41425 17.0943 1.38775 18.2603" fill="white"/>
</svg>
