<svg width="48" height="48" viewBox="0 0 48 48" fill="none"
  xmlns="http://www.w3.org/2000/svg">
  <path fill-rule="evenodd" clip-rule="evenodd" d="M38 32.8046L26 35.5006V15.1946L38 12.5006V32.8046ZM10 12.5006L22 15.1946V35.5006L10 32.8046V12.5006ZM41.25 8.43657C40.774 8.05857 40.154 7.91457 39.56 8.04857L24 11.5446L8.44 8.04857C7.844 7.91257 7.226 8.05857 6.75 8.43657C6.276 8.81857 6 9.39257 6 10.0006V34.4046C6 35.3406 6.648 36.1506 7.56 36.3546L23.56 39.9506C23.708 39.9846 23.854 40.0006 24 40.0006C24.146 40.0006 24.292 39.9846 24.44 39.9506L40.44 36.3546C41.352 36.1506 42 35.3406 42 34.4046V10.0006C42 9.39257 41.724 8.81857 41.25 8.43657Z" fill="white"/>
</svg>
