<svg width="48" height="48" viewBox="0 0 48 48" fill="none"
  xmlns="http://www.w3.org/2000/svg">
  <path fill-rule="evenodd" clip-rule="evenodd" d="M14 14C14 12.894 14.896 12 16 12C17.104 12 18 12.894 18 14C18 15.106 17.104 16 16 16C14.896 16 14 15.106 14 14ZM22 14C22 12.894 22.896 12 24 12C25.104 12 26 12.894 26 14C26 15.106 25.104 16 24 16C22.896 16 22 15.106 22 14ZM10 18V12C10 10.896 10.898 10 12 10H36C37.102 10 38 10.896 38 12V18H10ZM38 36C38 37.104 37.102 38 36 38H12C10.898 38 10 37.104 10 36V22H38V36ZM36 6H12C8.692 6 6 8.692 6 12V18V22V36C6 39.308 8.692 42 12 42H36C39.308 42 42 39.308 42 36V22V18V12C42 8.692 39.308 6 36 6Z" fill="white"/>
</svg>
