<svg width="49" height="48" viewBox="0 0 49 48" fill="none"
  xmlns="http://www.w3.org/2000/svg">
  <path d="M46.8008 18.5857V10.5889C46.8008 9.06121 46.1939 7.59613 45.1137 6.51592C44.0335 5.43571 42.5684 4.82886 41.0408 4.82886H7.95919C6.43154 4.82886 4.96646 5.43571 3.88625 6.51592C2.80604 7.59613 2.19919 9.06121 2.19919 10.5889V37.4113C2.19919 38.9389 2.80604 40.404 3.88625 41.4842C4.96646 42.5644 6.43154 43.1713 7.95919 43.1713H41.0408C42.5684 43.1713 44.0335 42.5644 45.1137 41.4842C46.1939 40.404 46.8008 38.9389 46.8008 37.4113C46.8008 37.1567 46.6996 36.9125 46.5196 36.7324C46.3396 36.5524 46.0954 36.4513 45.8408 36.4513C45.5862 36.4513 45.342 36.5524 45.162 36.7324C44.9819 36.9125 44.8808 37.1567 44.8808 37.4113C44.8808 38.4297 44.4762 39.4064 43.7561 40.1266C43.0359 40.8467 42.0592 41.2513 41.0408 41.2513H7.95919C6.94076 41.2513 5.96404 40.8467 5.2439 40.1266C4.52376 39.4064 4.11919 38.4297 4.11919 37.4113V10.5889C4.11919 9.57043 4.52376 8.59371 5.2439 7.87357C5.96404 7.15343 6.94076 6.74886 7.95919 6.74886H41.0408C42.0592 6.74886 43.0359 7.15343 43.7561 7.87357C44.4762 8.59371 44.8808 9.57043 44.8808 10.5889V18.5857C44.8808 18.8403 44.9819 19.0844 45.162 19.2645C45.342 19.4445 45.5862 19.5457 45.8408 19.5457C46.0954 19.5457 46.3396 19.4445 46.5196 19.2645C46.6996 19.0844 46.8008 18.8403 46.8008 18.5857Z" fill="#FFFFFF"/>
  <path d="M10.3448 11.544C10.3448 11.2592 10.2604 10.9808 10.1021 10.744C9.9439 10.5072 9.719 10.3226 9.45588 10.2136C9.19275 10.1046 8.90322 10.0761 8.62388 10.1317C8.34455 10.1872 8.08797 10.3244 7.88658 10.5258C7.68519 10.7272 7.54805 10.9837 7.49248 11.2631C7.43692 11.5424 7.46544 11.8319 7.57443 12.0951C7.68342 12.3582 7.86799 12.5831 8.10479 12.7413C8.3416 12.8996 8.62001 12.984 8.90481 12.984C9.28673 12.984 9.653 12.8323 9.92305 12.5622C10.1931 12.2922 10.3448 11.9259 10.3448 11.544Z" fill="#FFFFFF"/>
  <path d="M16.556 11.544C16.556 11.2592 16.4715 10.9808 16.3133 10.744C16.1551 10.5072 15.9302 10.3226 15.6671 10.2136C15.4039 10.1046 15.1144 10.0761 14.8351 10.1317C14.5557 10.1872 14.2991 10.3244 14.0978 10.5258C13.8964 10.7272 13.7592 10.9837 13.7037 11.2631C13.6481 11.5424 13.6766 11.8319 13.7856 12.0951C13.8946 12.3582 14.0792 12.5831 14.316 12.7413C14.5528 12.8996 14.8312 12.984 15.116 12.984C15.4979 12.984 15.8642 12.8323 16.1342 12.5622C16.4043 12.2922 16.556 11.9259 16.556 11.544Z" fill="#FFFFFF"/>
  <path d="M22.7672 11.544C22.7672 11.2592 22.6828 10.9808 22.5245 10.744C22.3663 10.5072 22.1414 10.3226 21.8783 10.2136C21.6151 10.1046 21.3256 10.0761 21.0463 10.1317C20.7669 10.1872 20.5104 10.3244 20.309 10.5258C20.1076 10.7272 19.9704 10.9837 19.9149 11.2631C19.8593 11.5424 19.8878 11.8319 19.9968 12.0951C20.1058 12.3582 20.2904 12.5831 20.5272 12.7413C20.764 12.8996 21.0424 12.984 21.3272 12.984C21.7091 12.984 22.0754 12.8323 22.3454 12.5622C22.6155 12.2922 22.7672 11.9259 22.7672 11.544Z" fill="#FFFFFF"/>
  <path d="M31.22 19.3777H7.4792C7.22459 19.3777 6.98041 19.4788 6.80037 19.6589C6.62034 19.8389 6.5192 20.0831 6.5192 20.3377C6.5192 20.5923 6.62034 20.8365 6.80037 21.0165C6.98041 21.1965 7.22459 21.2977 7.4792 21.2977H31.22C31.4746 21.2977 31.7188 21.1965 31.8988 21.0165C32.0789 20.8365 32.18 20.5923 32.18 20.3377C32.18 20.0831 32.0789 19.8389 31.8988 19.6589C31.7188 19.4788 31.4746 19.3777 31.22 19.3777Z" fill="#FFFFFF"/>
  <path d="M31.22 25.6943H7.4792C7.22459 25.6943 6.98041 25.7955 6.80037 25.9755C6.62034 26.1555 6.5192 26.3997 6.5192 26.6543C6.5192 26.9089 6.62034 27.1531 6.80037 27.3332C6.98041 27.5132 7.22459 27.6143 7.4792 27.6143H31.22C31.4746 27.6143 31.7188 27.5132 31.8988 27.3332C32.0789 27.1531 32.18 26.9089 32.18 26.6543C32.18 26.3997 32.0789 26.1555 31.8988 25.9755C31.7188 25.7955 31.4746 25.6943 31.22 25.6943Z" fill="#FFFFFF"/>
  <path d="M31.22 32.0112H7.4792C7.22459 32.0112 6.98041 32.1124 6.80037 32.2924C6.62034 32.4724 6.5192 32.7166 6.5192 32.9712C6.5192 33.2258 6.62034 33.47 6.80037 33.65C6.98041 33.8301 7.22459 33.9312 7.4792 33.9312H31.22C31.4746 33.9312 31.7188 33.8301 31.8988 33.65C32.0789 33.47 32.18 33.2258 32.18 32.9712C32.18 32.7166 32.0789 32.4724 31.8988 32.2924C31.7188 32.1124 31.4746 32.0112 31.22 32.0112Z" fill="#FFFFFF"/>
  <path d="M46.3064 24.1727L37.6952 18.2399C37.6392 18.2009 37.5734 18.1781 37.5052 18.1742C37.4371 18.1703 37.3691 18.1853 37.309 18.2176C37.2488 18.2499 37.1988 18.2983 37.1644 18.3573C37.1301 18.4163 37.1128 18.4837 37.1144 18.5519L37.3592 29.0063C37.3596 29.0943 37.3842 29.1804 37.4302 29.2554C37.4762 29.3303 37.542 29.3912 37.6202 29.4313C37.6985 29.4714 37.7862 29.4892 37.874 29.4829C37.9617 29.4765 38.046 29.4462 38.1176 29.3951L41.1656 27.3071L44.4584 33.3167C44.4885 33.3723 44.5294 33.4214 44.5785 33.4612C44.6277 33.5009 44.6842 33.5306 44.7449 33.5484C44.8056 33.5662 44.8691 33.5719 44.932 33.5651C44.9949 33.5583 45.0558 33.5392 45.1112 33.5087L45.8936 33.0863C45.951 33.0575 46.0021 33.0174 46.0437 32.9684C46.0853 32.9194 46.1167 32.8626 46.136 32.8012C46.1552 32.7399 46.162 32.6753 46.1558 32.6113C46.1496 32.5473 46.1306 32.4853 46.1 32.4287L42.8024 26.4239L46.2152 25.0175C46.2965 24.9854 46.3676 24.9316 46.4206 24.862C46.4736 24.7924 46.5065 24.7097 46.5159 24.6227C46.5253 24.5357 46.5108 24.4478 46.4738 24.3685C46.4369 24.2892 46.379 24.2215 46.3064 24.1727Z" fill="#FFFFFF"/>
</svg>
