<svg width="48" height="48" viewBox="0 0 48 48" fill="none"
  xmlns="http://www.w3.org/2000/svg">
  <path d="M30.9729 38.314L30.94 38.2943L30.9598 38.2613C30.9993 38.2107 31.0282 38.1526 31.0448 38.0905C31.0615 38.0285 31.0655 37.9637 31.0567 37.9001C31.0479 37.8365 31.0265 37.7752 30.9936 37.72C30.9607 37.6648 30.9171 37.6168 30.8654 37.5787C30.7759 37.5041 30.6636 37.4623 30.5471 37.4602C30.4164 37.463 30.2907 37.5111 30.1916 37.5963C30.1266 37.6472 30.0677 37.7054 30.016 37.7697C29.9903 37.7443 29.9615 37.7222 29.9304 37.7038C29.8064 37.6296 29.6644 37.5909 29.5199 37.5919C29.2993 37.5924 29.0858 37.6701 28.9163 37.8114C28.8885 37.7424 28.8464 37.6801 28.7926 37.6286C28.7389 37.5771 28.6748 37.5377 28.6047 37.5129C28.5271 37.4851 28.4456 37.4703 28.3632 37.469C28.241 37.479 28.1232 37.5197 28.0208 37.5872C27.9184 37.6547 27.8346 37.7469 27.7772 37.8553C27.6938 37.9694 27.6433 38.0309 27.5884 38.0506C27.5463 37.9767 27.4837 37.9166 27.4081 37.8777C27.3325 37.8387 27.2472 37.8225 27.1626 37.8311H27.1275C26.9735 37.8091 26.8166 37.8407 26.6831 37.9207C26.5497 38.0006 26.4477 38.124 26.3944 38.2701C26.3944 38.2899 26.322 38.3272 26.2781 38.3513L26.2013 38.3974C26.1902 38.2881 26.1475 38.1843 26.0784 38.0989C26.0456 38.0589 26.0044 38.0265 25.9578 38.0042C25.9111 37.9818 25.8601 37.9699 25.8084 37.9694C25.7459 37.9693 25.6845 37.986 25.6306 38.0177C25.4247 38.1499 25.186 38.2221 24.9414 38.2262C24.899 38.2284 24.8565 38.2284 24.8141 38.2262H24.7834C24.7279 38.2311 24.674 38.2473 24.6249 38.2737C24.5758 38.3001 24.5327 38.3362 24.498 38.3799C24.4767 38.4079 24.4465 38.428 24.4124 38.4369C24.3586 38.4233 24.3104 38.3934 24.2742 38.3513C24.1893 38.2554 24.0704 38.1963 23.9427 38.1867C23.8264 38.1867 23.6684 38.2438 23.5784 38.5203C23.3952 38.4205 23.19 38.3677 22.9814 38.3667C22.7913 38.364 22.6037 38.4107 22.4371 38.5023C22.2705 38.5939 22.1306 38.7271 22.031 38.8891C21.9412 38.7937 21.8173 38.7376 21.6864 38.7332C21.5992 38.7397 21.5149 38.7673 21.4407 38.8136C21.3666 38.8598 21.3047 38.9234 21.2606 38.9988C21.2049 38.9917 21.1504 38.9777 21.0982 38.9571C20.9976 38.9193 20.8916 38.8978 20.7843 38.8935C20.6811 38.8932 20.5806 38.9261 20.4976 38.9874C20.4146 39.0487 20.3535 39.135 20.3234 39.2337C20.2948 39.3083 20.2729 39.3237 20.2575 39.3237C20.2206 39.3224 20.1839 39.318 20.1478 39.3105L20.0117 39.2929C19.9414 39.2929 19.869 39.2798 19.7922 39.2688C19.6517 39.2501 19.5103 39.2391 19.3686 39.2359C19.2003 39.2275 19.0331 39.2663 18.8857 39.3478C18.5906 39.5101 18.2699 39.6208 17.9375 39.6748C17.7614 39.7067 17.6043 39.8049 17.4985 39.9492C17.4665 40.0007 17.4454 40.0583 17.4367 40.1184C17.428 40.1785 17.4319 40.2397 17.4481 40.2982C17.4794 40.4091 17.5221 40.5165 17.5754 40.6186C17.638 40.7305 17.6783 40.8535 17.6939 40.9808C17.7202 41.4417 18.8242 41.4966 18.8352 41.4966C18.9172 41.5006 18.9992 41.4887 19.0767 41.4615L19.1096 41.4812C19.214 41.5552 19.3373 41.5979 19.4652 41.6042C19.5159 41.603 19.5659 41.5917 19.6123 41.571C19.6587 41.5503 19.7004 41.5205 19.7351 41.4834C19.7879 41.4165 19.8267 41.3397 19.8493 41.2575C19.872 41.1753 19.8779 41.0895 19.8668 41.005C19.8668 40.9215 19.8888 40.9106 19.9349 40.8952C20.0996 40.852 20.2413 40.7465 20.3299 40.6011C20.4594 40.868 20.6889 41.0731 20.9687 41.1718C21.0213 41.1981 21.0762 41.2222 21.1267 41.2508C21.1825 41.2818 21.2451 41.2983 21.3089 41.2991C21.3905 41.2955 21.4697 41.27 21.5381 41.2252C21.6065 41.1803 21.6615 41.1179 21.6974 41.0445C21.7391 40.9545 21.7852 40.9479 21.8312 40.9479C21.9138 40.954 21.9944 40.9764 22.0683 41.0137C22.186 41.075 22.3155 41.1102 22.448 41.1169C22.8211 41.1169 22.887 40.7284 22.9265 40.5835C22.9583 40.5028 23.0133 40.4333 23.0845 40.3838C23.2163 40.4891 23.3812 40.5443 23.5498 40.5396C23.6233 40.5384 23.6966 40.5326 23.7693 40.5221C23.8176 40.5221 23.8659 40.5111 23.9098 40.5111C23.9537 40.5111 23.9756 40.5111 23.98 40.5243C24.0206 40.5551 24.0696 40.5727 24.1205 40.5748H24.272C24.3473 40.5822 24.4234 40.5728 24.4947 40.5474C24.5661 40.522 24.6309 40.4811 24.6846 40.4277C24.7427 40.4613 24.8084 40.4794 24.8756 40.4804C24.926 40.481 24.9758 40.4689 25.0204 40.4453C25.138 40.3946 25.2635 40.3649 25.3914 40.3575C25.5096 40.3475 25.6266 40.3254 25.7403 40.2916C25.825 40.2631 25.9078 40.2294 25.9884 40.1906C26.054 40.1573 26.1223 40.1294 26.1925 40.1072C26.3192 40.1767 26.4607 40.2151 26.6051 40.2192C26.7232 40.2153 26.8385 40.1817 26.9401 40.1215C27.0418 40.0612 27.1266 39.9763 27.1868 39.8746C27.3453 40.0328 27.551 40.1353 27.7728 40.1665C27.86 40.1861 27.949 40.1964 28.0384 40.1972C28.1331 40.2036 28.2278 40.1837 28.3119 40.1395C28.396 40.0953 28.4662 40.0287 28.5147 39.947C28.5754 39.9743 28.6412 39.9885 28.7078 39.9887C28.7837 39.9868 28.8584 39.97 28.9277 39.9391C28.9971 39.9082 29.0596 39.8639 29.1117 39.8087C29.1267 39.7936 29.1429 39.7797 29.16 39.767C29.1973 39.7857 29.2332 39.8069 29.2675 39.8307C29.3495 39.8829 29.4447 39.9103 29.5419 39.9097C29.648 39.9053 29.7526 39.8831 29.8514 39.8439C29.9058 39.8205 29.9636 39.8057 30.0226 39.8C30.0361 39.7957 30.0507 39.7957 30.0643 39.8C30.1015 39.8218 30.144 39.8332 30.1872 39.8329C30.2279 39.8323 30.2678 39.8218 30.3035 39.8021C30.34 39.7818 30.3706 39.7523 30.3922 39.7165C30.4138 39.6807 30.4256 39.6398 30.4264 39.598C30.4264 39.5212 30.4264 39.508 30.6174 39.4422C30.758 39.4039 30.8855 39.328 30.9861 39.2227C31.0666 39.1497 31.1303 39.06 31.1727 38.96C31.2151 38.8599 31.2354 38.7519 31.2319 38.6432C31.2166 38.5723 31.1853 38.5058 31.1404 38.4488C31.0955 38.3917 31.0383 38.3457 30.9729 38.314Z" fill="#FFFFFF"/>
  <path d="M31.0541 44.3676C31.0366 44.3043 30.9978 44.2489 30.9442 44.211C30.8906 44.173 30.8256 44.1546 30.76 44.159C30.7084 44.161 30.6579 44.1753 30.613 44.2007C30.5799 44.2242 30.5413 44.2385 30.501 44.2424C30.4396 44.2424 30.3606 44.17 30.2815 44.0954C30.2188 44.0349 30.1504 43.9806 30.0774 43.933C29.9726 43.8575 29.8485 43.8134 29.7196 43.8057C29.619 43.808 29.5223 43.8448 29.4456 43.9099C29.3688 43.975 29.3168 44.0645 29.2982 44.1634C29.2114 44.0456 29.0903 43.9575 28.9514 43.911C28.9004 43.8909 28.8461 43.8804 28.7912 43.8803C28.6994 43.8874 28.6114 43.9202 28.5372 43.9749C28.4631 44.0296 28.4059 44.1041 28.372 44.1898L28.3566 44.2161C28.2809 44.3471 28.1862 44.4662 28.0757 44.5695C28.0336 44.4897 27.9704 44.4229 27.893 44.3765C27.8156 44.33 27.727 44.3057 27.6367 44.3061C27.5315 44.3096 27.4286 44.3374 27.336 44.3873C27.2851 44.3826 27.2349 44.3715 27.1867 44.3544C27.1224 44.3316 27.0552 44.3183 26.987 44.3149C26.9321 44.3136 26.8779 44.3277 26.8305 44.3556C26.7832 44.3835 26.7447 44.4242 26.7192 44.4729C26.7075 44.4973 26.6927 44.5202 26.6753 44.5409C26.6383 44.5344 26.6016 44.5256 26.5656 44.5146C26.4945 44.4909 26.4208 44.4762 26.3461 44.4707H26.2451C26.0604 44.4621 25.8784 44.5171 25.7293 44.6266C25.6554 44.5689 25.5641 44.5379 25.4703 44.5388H25.4133C25.1455 44.5695 24.8777 44.6178 24.6209 44.6617C24.4014 44.699 24.1819 44.7363 23.9625 44.767C23.8478 44.7805 23.7389 44.8244 23.647 44.8943C23.5551 44.9642 23.4837 45.0574 23.4401 45.1643C23.3355 45.0742 23.2046 45.0204 23.0669 45.0107C23.0063 45.0094 22.9465 45.0246 22.8939 45.0548C22.8413 45.085 22.7979 45.1289 22.7684 45.1819C22.7165 45.2714 22.6562 45.3559 22.5885 45.4343C22.5402 45.4899 22.4919 45.5491 22.4436 45.6121C22.3897 45.5362 22.3279 45.4663 22.2592 45.4035C22.2285 45.3728 22.2 45.3465 22.1758 45.3179C22.1361 45.2649 22.0848 45.2215 22.0259 45.1911C21.9669 45.1607 21.9019 45.144 21.8356 45.1423C21.5942 45.1423 21.4471 45.3618 21.3571 45.4935H21.3286C21.2996 45.5002 21.2716 45.5105 21.2452 45.5243C21.2157 45.5038 21.1885 45.4803 21.164 45.454C21.1185 45.3969 21.0617 45.3498 20.9971 45.3158C20.9325 45.2818 20.8615 45.2616 20.7887 45.2565H20.7338H20.6548C20.5957 45.251 20.5361 45.2602 20.4814 45.2832C20.4267 45.3061 20.3784 45.3422 20.3409 45.3882C20.3148 45.4241 20.2974 45.4656 20.2902 45.5094C20.2829 45.5533 20.286 45.5982 20.2992 45.6406H20.196H20.139C20.139 45.6406 20.1148 45.5967 20.1038 45.5813C20.0615 45.5003 19.9987 45.4318 19.9217 45.3825C19.8447 45.3332 19.7562 45.3049 19.6649 45.3004C19.5912 45.3023 19.5193 45.3236 19.4565 45.3621C19.3937 45.4007 19.3422 45.4551 19.3071 45.5199C19.2522 45.6077 19.2083 45.6143 19.16 45.6143H19.1096H19.0196C18.83 45.6254 18.6487 45.696 18.5016 45.8162C18.4303 45.8756 18.3449 45.9157 18.2536 45.9325C18.2419 45.9345 18.2301 45.9345 18.2184 45.9325H18.168C17.9924 45.9325 17.909 46.0927 17.8453 46.242C17.8453 46.2574 17.8277 46.2837 17.8321 46.2837C17.7384 46.3052 17.6505 46.3471 17.5747 46.4062C17.4988 46.4654 17.4369 46.5404 17.3932 46.6261C17.3653 46.6936 17.3528 46.7664 17.3566 46.8393C17.3604 46.9122 17.3804 46.9833 17.4151 47.0475C17.4893 47.1937 17.6018 47.3171 17.7405 47.4044C17.8793 47.4918 18.0392 47.5399 18.2031 47.5436H18.2953C18.335 47.5397 18.3741 47.5309 18.4116 47.5172C18.4014 47.5984 18.4172 47.6808 18.4566 47.7525C18.496 47.8243 18.5571 47.8817 18.6311 47.9167C18.7261 47.9689 18.8322 47.9975 18.9406 48.0001C19.0209 47.9986 19.0996 47.9779 19.1703 47.9397C19.2409 47.9015 19.3014 47.847 19.3466 47.7806C19.3716 47.7526 19.4033 47.7314 19.4388 47.7191C19.5745 47.7897 19.7249 47.8273 19.8778 47.8289C20.0988 47.8167 20.3151 47.7608 20.5143 47.6643C20.618 47.6173 20.7261 47.5806 20.8369 47.5545C20.9191 47.5346 21.0028 47.5221 21.0872 47.5172C21.1259 47.5142 21.1646 47.5242 21.1969 47.5458C21.3036 47.6339 21.4361 47.6848 21.5744 47.6906C21.647 47.6891 21.7185 47.672 21.784 47.6406C21.8495 47.6092 21.9075 47.5641 21.9541 47.5084C22.0406 47.5815 22.1504 47.6212 22.2636 47.6204C22.2848 47.6226 22.3061 47.6226 22.3273 47.6204C22.4204 47.6032 22.5061 47.5585 22.5735 47.4919C22.6408 47.4254 22.6865 47.3401 22.7048 47.2472C22.7122 47.2202 22.7217 47.1938 22.7333 47.1682C22.7618 47.1252 22.7805 47.0766 22.7882 47.0256H22.8387L22.8914 47.0629C23.0493 47.1491 23.2272 47.1923 23.4072 47.188C23.5805 47.188 23.6749 47.2034 23.7452 47.2868C23.7687 47.3122 23.7972 47.3326 23.8289 47.3466C23.8606 47.3605 23.8949 47.3678 23.9295 47.368C23.9953 47.3614 24.059 47.3414 24.1167 47.3093C24.1744 47.2773 24.225 47.2337 24.2654 47.1814C24.3224 47.1002 24.3597 47.1002 24.3817 47.1002C24.4582 47.1101 24.5325 47.1331 24.6012 47.1682C24.6704 47.1986 24.7451 47.2143 24.8207 47.2143C24.9434 47.209 25.063 47.1744 25.1696 47.1134L25.2465 47.0695C25.2713 47.0517 25.2978 47.0362 25.3255 47.0234C25.3973 47.0416 25.4709 47.0512 25.545 47.0519C25.6167 47.0553 25.6882 47.043 25.7546 47.0157C25.821 46.9883 25.8806 46.9468 25.9291 46.8939C25.9967 46.813 26.038 46.7135 26.0476 46.6085C26.0586 46.6327 26.0696 46.6568 26.0805 46.6766C26.1195 46.7611 26.1812 46.8332 26.2587 46.8847C26.3362 46.9362 26.4265 46.9653 26.5195 46.9685C26.5458 46.9707 26.5722 46.9707 26.5985 46.9685C26.7142 46.9471 26.8221 46.8951 26.9108 46.8179C26.9996 46.7407 27.0661 46.6411 27.1033 46.5295C27.1367 46.4476 27.186 46.373 27.2482 46.31C27.3068 46.4099 27.3879 46.4946 27.4851 46.5575C27.5823 46.6204 27.6928 46.6597 27.8079 46.6722C27.9735 46.6603 28.1317 46.5991 28.2622 46.4966C28.2788 46.4847 28.2964 46.4744 28.3149 46.4659C28.3737 46.4371 28.4272 46.3985 28.473 46.3517C28.5641 46.4405 28.6859 46.4907 28.8132 46.4922C28.934 46.49 29.0507 46.4475 29.1446 46.3715C29.2511 46.2924 29.3807 46.2507 29.5133 46.253C29.636 46.2563 29.7577 46.2755 29.8755 46.31L29.9479 46.3342C30.0252 46.3669 30.1077 46.3855 30.1916 46.389C30.304 46.3898 30.4124 46.3474 30.4944 46.2705C30.5662 46.211 30.6177 46.1307 30.6421 46.0408C30.6665 45.9508 30.6624 45.8555 30.6305 45.7679C31.1244 45.7679 31.1814 45.4387 31.1836 45.2982C31.1773 45.0706 31.1412 44.8448 31.0761 44.6266C31.0893 44.5212 31.0695 44.4444 31.0541 44.3676Z" fill="#FFFFFF"/>
  <path d="M31.0541 31.6918C31.0366 31.6287 30.9976 31.5736 30.944 31.536C30.8904 31.4984 30.8253 31.4805 30.76 31.4855C30.7085 31.4866 30.6581 31.5002 30.613 31.525C30.5799 31.5484 30.5413 31.5627 30.501 31.5667C30.4396 31.5667 30.3606 31.4964 30.2815 31.4196C30.2182 31.3598 30.1499 31.3054 30.0774 31.2572C29.9726 31.1818 29.8485 31.1376 29.7196 31.1299C29.619 31.1322 29.5223 31.169 29.4455 31.2341C29.3688 31.2992 29.3168 31.3887 29.2982 31.4877C29.2114 31.3698 29.0903 31.2817 28.9514 31.2352C28.9002 31.2159 28.846 31.2055 28.7912 31.2045C28.6995 31.2121 28.6117 31.2451 28.5377 31.2998C28.4637 31.3544 28.4063 31.4286 28.372 31.514L28.3566 31.5403C28.2809 31.6713 28.1862 31.7904 28.0757 31.8937C28.0336 31.8139 27.9704 31.7471 27.893 31.7007C27.8156 31.6543 27.727 31.6299 27.6367 31.6303C27.5312 31.6336 27.4281 31.6622 27.336 31.7137C27.285 31.7081 27.2349 31.6963 27.1867 31.6786C27.1224 31.6558 27.0552 31.6425 26.987 31.6391C26.9321 31.6378 26.8779 31.6519 26.8305 31.6798C26.7832 31.7078 26.7446 31.7484 26.7192 31.7971C26.7082 31.8219 26.6934 31.8449 26.6753 31.8652C26.6378 31.8607 26.601 31.8519 26.5656 31.8388C26.4943 31.8161 26.4207 31.8014 26.3461 31.7949H26.2451C26.0604 31.7863 25.8784 31.8413 25.7293 31.9508C25.6552 31.8937 25.5639 31.8635 25.4703 31.8652H25.4133C25.1455 31.8981 24.8777 31.9442 24.6209 31.9881C24.4014 32.0254 24.1819 32.0649 23.9625 32.0934C23.8485 32.1063 23.7401 32.1492 23.6483 32.2179C23.5564 32.2866 23.4846 32.3785 23.4401 32.4841C23.3346 32.3959 23.2041 32.343 23.0669 32.3327C23.0065 32.3309 22.9467 32.3458 22.8941 32.3756C22.8415 32.4054 22.798 32.449 22.7684 32.5017C22.7152 32.5875 22.6542 32.6684 22.5863 32.7431C22.538 32.798 22.4897 32.8573 22.4414 32.9231C22.3885 32.8431 22.3267 32.7695 22.257 32.7036C22.2276 32.6768 22.1997 32.6482 22.1736 32.618C22.1336 32.5654 22.0823 32.5224 22.0234 32.4924C21.9645 32.4624 21.8995 32.446 21.8334 32.4446C21.592 32.4446 21.4449 32.6641 21.3549 32.7936H21.3264C21.2974 32.8003 21.2694 32.8106 21.243 32.8243C21.2135 32.8039 21.1863 32.7803 21.1618 32.7541C21.1162 32.6973 21.0593 32.6505 20.9947 32.6169C20.9301 32.5833 20.8591 32.5635 20.7865 32.5588H20.6526C20.5936 32.553 20.5342 32.5619 20.4795 32.5844C20.4248 32.607 20.3764 32.6427 20.3387 32.6883C20.3125 32.7246 20.2952 32.7665 20.2879 32.8107C20.2807 32.8548 20.2838 32.9001 20.297 32.9429H20.1938H20.1368L20.1016 32.8836C20.0593 32.8026 19.9965 32.734 19.9195 32.6848C19.8425 32.6355 19.754 32.6072 19.6627 32.6027C19.589 32.6046 19.5172 32.6259 19.4543 32.6644C19.3915 32.7029 19.34 32.7573 19.3049 32.8221C19.25 32.9099 19.2061 32.9165 19.1578 32.9165H19.1074H19.0174C18.8278 32.9276 18.6465 32.9983 18.4994 33.1185C18.4286 33.1788 18.343 33.219 18.2514 33.2348H18.2162C18.1995 33.2325 18.1825 33.2325 18.1658 33.2348C17.9902 33.2348 17.9068 33.395 17.8431 33.5443C17.8431 33.5596 17.8256 33.5882 17.8299 33.5882C17.7364 33.6095 17.6487 33.651 17.5728 33.7097C17.497 33.7685 17.4349 33.8431 17.391 33.9284C17.3631 33.9958 17.3506 34.0687 17.3544 34.1415C17.3582 34.2144 17.3782 34.2856 17.4129 34.3498C17.4871 34.496 17.5996 34.6194 17.7383 34.7067C17.8771 34.7941 18.037 34.8421 18.2009 34.8458H18.2931C18.3328 34.842 18.3719 34.8331 18.4094 34.8195C18.3992 34.9007 18.415 34.9831 18.4544 35.0548C18.4938 35.1265 18.5549 35.184 18.6289 35.219C18.7239 35.2712 18.83 35.2998 18.9384 35.3024C19.0187 35.3012 19.0976 35.2807 19.1683 35.2425C19.239 35.2043 19.2995 35.1495 19.3444 35.0829C19.3694 35.0548 19.4011 35.0337 19.4366 35.0214C19.5723 35.0919 19.7227 35.1295 19.8756 35.1312C20.0963 35.1187 20.3124 35.0635 20.5121 34.9687C20.6154 34.9201 20.7235 34.8826 20.8347 34.8568C20.9169 34.8369 21.0006 34.8244 21.085 34.8195C21.124 34.8169 21.1627 34.8277 21.1947 34.8502C21.3015 34.9379 21.4341 34.988 21.5722 34.9929C21.6446 34.9912 21.7158 34.9743 21.7812 34.9433C21.8467 34.9123 21.9048 34.8679 21.9519 34.8129C22.0392 34.8844 22.1486 34.9232 22.2614 34.9226H22.3251C22.4183 34.9051 22.5042 34.8599 22.5715 34.793C22.6388 34.7261 22.6845 34.6405 22.7026 34.5473C22.7095 34.5208 22.7191 34.4951 22.7311 34.4705C22.7592 34.4265 22.7779 34.3772 22.786 34.3256H22.8365L22.8892 34.363C23.0471 34.4492 23.225 34.4924 23.405 34.4881C23.5784 34.4881 23.6727 34.5056 23.743 34.5868C23.7661 34.6127 23.7946 34.6334 23.8264 34.6474C23.8582 34.6614 23.8926 34.6684 23.9273 34.668C23.9928 34.6613 24.0563 34.6416 24.1139 34.6099C24.1716 34.5782 24.2224 34.5353 24.2632 34.4837C24.3202 34.4025 24.3575 34.4025 24.3795 34.4025C24.4559 34.4114 24.5302 34.4337 24.599 34.4683C24.6682 34.4987 24.7429 34.5144 24.8185 34.5144C24.9413 34.5101 25.0612 34.4754 25.1674 34.4134L25.2443 34.3695C25.2696 34.3526 25.296 34.3372 25.3233 34.3234C25.3951 34.3417 25.4687 34.3512 25.5428 34.352C25.6145 34.3554 25.686 34.343 25.7524 34.3157C25.8188 34.2884 25.8784 34.2468 25.9269 34.1939C25.9945 34.1131 26.0358 34.0136 26.0454 33.9086C26.0564 33.9328 26.0674 33.9569 26.0783 33.9767C26.1173 34.0612 26.179 34.1332 26.2565 34.1848C26.334 34.2363 26.4243 34.2653 26.5173 34.2686C26.5436 34.2708 26.57 34.2708 26.5963 34.2686C26.712 34.2472 26.8199 34.1952 26.9086 34.118C26.9974 34.0408 27.0639 33.9412 27.1011 33.8296C27.1342 33.7474 27.1835 33.6728 27.246 33.6101C27.3042 33.7103 27.3852 33.7953 27.4825 33.8583C27.5797 33.9212 27.6905 33.9603 27.8057 33.9723C27.9829 33.9688 28.1544 33.9088 28.2952 33.8011L28.3478 33.7703C28.4066 33.7416 28.4601 33.703 28.5059 33.6562C28.5971 33.7449 28.7189 33.7952 28.8461 33.7967C28.9665 33.7943 29.0829 33.7527 29.1775 33.6781C29.2835 33.5981 29.4135 33.5564 29.5462 33.5596C29.6689 33.563 29.7906 33.5821 29.9084 33.6167C29.9332 33.6228 29.9574 33.6308 29.9808 33.6408C30.0586 33.6718 30.1409 33.6896 30.2245 33.6935C30.3369 33.6942 30.4453 33.6518 30.5274 33.575C30.6003 33.5168 30.6527 33.437 30.6772 33.347C30.7017 33.257 30.6969 33.1616 30.6634 33.0746C31.1573 33.0746 31.2144 32.7431 31.2166 32.6027C31.2102 32.375 31.1741 32.1492 31.109 31.931C31.0893 31.8454 31.0695 31.7686 31.0541 31.6918Z" fill="#FFFFFF"/>
  <path d="M41.5655 18.0968C41.5304 17.9652 41.4096 17.8971 41.2692 17.8269L41.2055 17.7962C41.177 17.7764 41.1463 17.7566 41.1177 17.7325C41.1024 17.72 41.0907 17.7036 41.0838 17.6851C41.0768 17.6666 41.0749 17.6466 41.0782 17.6271C41.0817 17.6074 41.0904 17.589 41.1036 17.5739C41.1168 17.5589 41.1338 17.5476 41.1528 17.5415C41.243 17.5092 41.32 17.4483 41.3723 17.3681C41.4003 17.3247 41.418 17.2754 41.4241 17.224C41.4302 17.1727 41.4245 17.1206 41.4075 17.0718C41.3399 16.9065 41.3097 16.7283 41.3192 16.5499C41.3287 16.3715 41.3776 16.1975 41.4623 16.0402C41.4785 16.0059 41.487 15.9684 41.487 15.9305C41.487 15.8925 41.4785 15.8551 41.4623 15.8208C41.4528 15.792 41.4365 15.766 41.4147 15.7449C41.3929 15.7239 41.3663 15.7085 41.3372 15.7C41.1616 15.6539 41.1177 15.5332 41.0519 15.3203C41.0128 15.1716 40.9433 15.0326 40.8478 14.9121C40.831 14.8845 40.8255 14.8516 40.8325 14.8201C40.8394 14.7886 40.8583 14.761 40.8851 14.7431C41.0804 14.6048 41.324 14.2887 41.2801 14.0473C41.1944 13.6093 41.0466 13.1858 40.8412 12.7896C40.817 12.7413 40.7885 12.693 40.76 12.6447C40.6818 12.533 40.6266 12.407 40.5975 12.2738C40.4944 11.6461 40.0576 11.2729 39.6735 10.9437C39.6596 10.9316 39.649 10.9162 39.6425 10.899C39.6359 10.8818 39.6338 10.8632 39.6362 10.8449C39.6382 10.8245 39.6461 10.8051 39.659 10.7891C39.6718 10.7731 39.6891 10.7613 39.7086 10.7549C39.7868 10.7107 39.8531 10.6482 39.9018 10.5728C39.9512 10.5149 39.9862 10.4461 40.0038 10.3721C40.0213 10.298 40.021 10.2209 40.0027 10.147C39.9767 10.081 39.9371 10.0213 39.8864 9.97174C39.8357 9.92218 39.7751 9.88391 39.7086 9.85944C39.694 9.85248 39.6811 9.84238 39.6709 9.82985C39.6606 9.81733 39.6533 9.8027 39.6493 9.787C39.6451 9.77131 39.6445 9.75486 39.6475 9.7389C39.6506 9.72293 39.6572 9.70786 39.6669 9.69482C39.7298 9.61024 39.7602 9.50584 39.7525 9.4007C39.7473 9.35673 39.7314 9.31472 39.7061 9.27835C39.6809 9.24199 39.647 9.2124 39.6076 9.19219C39.4518 9.10878 39.4123 8.9727 39.3596 8.7993C39.345 8.74663 39.3274 8.69395 39.3069 8.64127C39.2126 8.38228 39.0655 8.3274 38.9601 8.32521C38.9443 8.32466 38.9287 8.32087 38.9144 8.31408C38.9 8.30729 38.8872 8.29763 38.8767 8.2857C38.866 8.27358 38.858 8.25922 38.8535 8.24366C38.8489 8.2281 38.8479 8.21173 38.8504 8.19571C38.8574 8.09385 38.8431 7.99164 38.8083 7.89563C38.7735 7.79963 38.7191 7.71195 38.6485 7.63821C38.5018 7.46041 38.3054 7.33048 38.0844 7.26508C38.0667 7.261 38.0502 7.25267 38.0365 7.24082C38.0227 7.22897 38.012 7.21394 38.0054 7.19704C37.9987 7.18013 37.9964 7.1618 37.9987 7.14376C38.001 7.12572 38.0078 7.10856 38.0185 7.09388C38.0586 7.03722 38.0847 6.97187 38.0946 6.9032C38.1045 6.83452 38.098 6.76447 38.0756 6.6988C38.0473 6.57877 37.9809 6.47114 37.8864 6.392C37.7918 6.31287 37.6742 6.26649 37.551 6.25982C37.5233 6.25766 37.4954 6.25766 37.4676 6.25982C37.4479 6.26198 37.4281 6.26198 37.4084 6.25982C37.3829 6.26129 37.3578 6.25404 37.337 6.23927C37.3163 6.22451 37.3012 6.20311 37.2942 6.17861C37.2942 6.14788 37.2767 6.10398 37.2635 6.04033C37.2108 5.80548 37.0572 5.64745 36.875 5.64745C36.8218 5.64904 36.7696 5.66271 36.7225 5.68743C36.6753 5.71215 36.6344 5.74726 36.6028 5.79011C36.5905 5.80311 36.5755 5.8132 36.5588 5.81965C36.5421 5.8261 36.5241 5.82876 36.5063 5.82743H36.4931C36.4728 5.82358 36.454 5.81383 36.4392 5.79939C36.4243 5.78494 36.4141 5.76645 36.4097 5.74622C36.3542 5.57871 36.2576 5.42779 36.1287 5.30724C36.1122 5.28717 36.1031 5.26194 36.1031 5.2359C36.1031 5.20986 36.1122 5.18464 36.1287 5.16457C36.1796 5.10491 36.2149 5.03367 36.2318 4.95713C36.2486 4.88058 36.2464 4.80108 36.2253 4.72559C36.1924 4.62463 36.0848 4.44684 35.7205 4.3788C35.696 4.37562 35.6732 4.36442 35.6558 4.34695C35.6383 4.32948 35.6271 4.30672 35.6239 4.28223C35.6132 4.1029 35.5328 3.93488 35.4 3.81393C35.2671 3.69299 35.0923 3.62869 34.9128 3.63473H34.8206C34.7797 3.63692 34.7386 3.63692 34.6977 3.63473C34.5396 3.63473 34.4782 3.58864 34.4453 3.51621C34.3966 3.43738 34.3261 3.3743 34.2424 3.33458C34.1587 3.29486 34.0652 3.28019 33.9734 3.29233C33.9295 3.29233 33.8856 3.29233 33.8241 3.29233H33.7561C33.6723 3.29687 33.5935 3.33387 33.5366 3.39549C33.5215 3.41283 33.5075 3.43116 33.4949 3.45036C33.4841 3.46883 33.4682 3.48382 33.4491 3.49354C33.4301 3.50327 33.4086 3.50733 33.3873 3.50524C33.3647 3.50101 33.3439 3.48989 33.3277 3.47339C33.3116 3.45689 33.301 3.43581 33.2973 3.41305C33.2842 3.32087 33.2732 3.22868 33.2578 3.11016C33.2425 2.99163 33.2249 2.84677 33.203 2.71727C33.1843 2.60851 33.1417 2.50525 33.0783 2.41492C33.015 2.32459 32.9323 2.24944 32.8364 2.19489C32.7873 2.16338 32.7302 2.14662 32.6718 2.1466C32.6068 2.15318 32.5439 2.17269 32.4866 2.20398C32.4293 2.23526 32.3788 2.2777 32.3382 2.32878C32.328 2.33949 32.3158 2.34795 32.3022 2.35362C32.2885 2.3593 32.2739 2.36205 32.2592 2.3617C32.2009 2.35553 32.1443 2.3384 32.0923 2.31122L32.0089 2.2761C31.9802 2.26482 31.9529 2.25008 31.9277 2.2322C31.8611 2.18997 31.7863 2.16229 31.7082 2.15099C31.6552 2.15117 31.6026 2.14078 31.5537 2.12043C31.5047 2.10008 31.4602 2.07018 31.4229 2.03247C31.3824 1.95133 31.3753 1.85757 31.4032 1.77127C31.4162 1.72481 31.4198 1.67622 31.4137 1.62835C31.4077 1.58049 31.3922 1.53431 31.368 1.49252C31.3425 1.45599 31.31 1.42493 31.2723 1.40118C31.2346 1.37743 31.1925 1.36147 31.1485 1.35425C31.0875 1.35163 31.0282 1.33302 30.9766 1.30028C30.9249 1.26754 30.8828 1.22181 30.8544 1.16768C30.828 1.11627 30.7877 1.07335 30.738 1.04384C30.6883 1.01433 30.6313 0.999439 30.5735 1.00087C30.5256 0.998878 30.4781 1.00986 30.436 1.03266C30.3939 1.05546 30.3587 1.08922 30.3342 1.13037C30.2574 1.27084 30.1367 1.28401 29.9699 1.30157C29.8909 1.30899 29.8124 1.32146 29.735 1.33888C29.7114 1.3383 29.6885 1.33066 29.6692 1.31693C29.656 1.30717 29.645 1.29467 29.637 1.28027C29.6291 1.26587 29.6243 1.24993 29.6231 1.23353C29.6189 1.14744 29.593 1.06382 29.5477 0.9905C29.5024 0.917178 29.4392 0.856553 29.3641 0.814303C29.289 0.769635 29.2035 0.745419 29.1161 0.744067C29.0091 0.744826 28.9061 0.784633 28.8264 0.856006C28.8038 0.87517 28.7746 0.884639 28.7451 0.882345C28.7298 0.88134 28.715 0.876865 28.7017 0.869259C28.6884 0.861653 28.677 0.851116 28.6683 0.838447C28.604 0.735125 28.5153 0.649109 28.4101 0.587898C28.3049 0.526687 28.1863 0.492139 28.0647 0.487265C28.0216 0.484716 27.9784 0.484716 27.9352 0.487265C27.9139 0.487065 27.893 0.48076 27.8751 0.469092C27.8572 0.457425 27.8431 0.440883 27.8343 0.421418C27.7157 0.169006 27.5533 0.114134 27.4392 0.114134C27.3554 0.121752 27.2743 0.147245 27.2012 0.188895C27.1281 0.230544 27.0648 0.287381 27.0156 0.355572C26.9734 0.411667 26.92 0.458385 26.8588 0.492766C26.7975 0.527148 26.7299 0.548445 26.66 0.555307C26.5151 0.555307 26.3769 0.445562 26.2693 0.245827C26.2427 0.176593 26.1966 0.116538 26.1367 0.0729153C26.0767 0.0292927 26.0054 0.00396818 25.9313 0C25.8123 0.00789194 25.7011 0.0622903 25.6218 0.151447C25.4531 0.295443 25.2379 0.373418 25.016 0.370936C24.8573 0.377904 24.7014 0.327233 24.5771 0.228268C24.4471 0.1025 24.2749 0.0297162 24.0942 0.0241438C23.9336 0.0265013 23.7787 0.0838268 23.6552 0.186565C23.5458 0.275832 23.4078 0.322597 23.2667 0.318259C23.1456 0.313452 23.0252 0.298029 22.9067 0.272166L22.7202 0.237048C22.631 0.220288 22.5408 0.210018 22.4502 0.206319C22.3707 0.200464 22.2911 0.216371 22.2199 0.252333C22.1488 0.288295 22.0888 0.342954 22.0463 0.410444C22.0356 0.426247 22.0212 0.439264 22.0044 0.448423C21.9876 0.457581 21.9689 0.462619 21.9498 0.463121C21.9236 0.463627 21.898 0.455102 21.8773 0.438978C21.7829 0.361861 21.6689 0.312471 21.5481 0.29631C21.5255 0.2942 21.5027 0.2942 21.4801 0.29631C21.4213 0.296388 21.3634 0.30941 21.3103 0.334449C21.2571 0.359487 21.2102 0.395926 21.1728 0.441172C21.1103 0.521629 21.0756 0.620235 21.074 0.722118C21.0728 0.737739 21.0685 0.75296 21.0613 0.7669C21.0541 0.780839 21.0443 0.793221 21.0323 0.803329C21.0099 0.820962 20.9817 0.829575 20.9533 0.827473H20.8567C20.7725 0.82231 20.6884 0.839738 20.6131 0.877955C20.5971 0.887368 20.579 0.892648 20.5604 0.893319C20.5409 0.893591 20.5216 0.888649 20.5047 0.879003C20.4877 0.869358 20.4736 0.855358 20.4638 0.838447C20.3747 0.717605 20.2469 0.630868 20.1017 0.59262C20.0739 0.583363 20.0468 0.572366 20.0205 0.559696C19.9727 0.535601 19.9203 0.522124 19.8668 0.520188C19.7856 0.520188 19.6825 0.544332 19.6166 0.755041C19.6129 0.773227 19.6054 0.79043 19.5947 0.805524L19.5508 0.864786C19.5401 0.878878 19.5264 0.890308 19.5106 0.89818C19.4947 0.906051 19.4773 0.910148 19.4597 0.910148C19.442 0.910148 19.4246 0.906051 19.4088 0.89818C19.393 0.890308 19.3792 0.878878 19.3686 0.864786C19.3379 0.804427 19.2916 0.753427 19.2344 0.717128C19.1773 0.680829 19.1114 0.660568 19.0437 0.658466C18.9301 0.667625 18.8206 0.705377 18.7255 0.768211C18.5915 0.848553 18.4805 0.96191 18.4028 1.09744C18.3621 1.18382 18.3011 1.25911 18.225 1.31693L18.1526 1.35864C18.0484 1.40447 17.9561 1.47354 17.8826 1.56057C17.8722 1.57464 17.8586 1.58613 17.843 1.59412C17.8274 1.60211 17.8102 1.6064 17.7927 1.60666C17.7745 1.60687 17.7566 1.60256 17.7405 1.59414C17.7244 1.58571 17.7106 1.57342 17.7005 1.55837C17.6214 1.44526 17.502 1.36672 17.3668 1.33888C17.3294 1.33054 17.2911 1.32613 17.2527 1.32571C17.2122 1.32447 17.172 1.33141 17.1342 1.34612C17.0965 1.36083 17.0622 1.383 17.0332 1.41131C16.9926 1.46486 16.9637 1.52629 16.9482 1.59168C16.9327 1.65706 16.931 1.72496 16.9432 1.79103C16.9435 1.81154 16.939 1.83183 16.9301 1.85029C16.9064 1.88517 16.8775 1.91625 16.8445 1.94248L16.794 1.98857C16.7161 2.06228 16.6428 2.14071 16.5745 2.22342C16.4187 2.41438 16.2826 2.57899 16.0741 2.57899C15.9813 2.57531 15.8902 2.55291 15.8063 2.51315C15.7519 2.48848 15.6926 2.47648 15.6329 2.47803C15.4761 2.49025 15.3225 2.52884 15.1785 2.59216L15.1171 2.61411C15.055 2.63706 14.9986 2.67331 14.952 2.72033C14.9054 2.76734 14.8696 2.82398 14.8471 2.88628C14.8296 2.93431 14.8222 2.98549 14.8256 3.03652C14.829 3.08755 14.8431 3.13731 14.8669 3.18259C14.8744 3.19757 14.8783 3.21411 14.8783 3.23087C14.8783 3.24764 14.8744 3.26418 14.8669 3.27916C14.8604 3.29459 14.8506 3.30834 14.838 3.31937C14.8255 3.3304 14.8106 3.33842 14.7944 3.34281L14.812 3.41525L14.7571 3.35159C14.6626 3.36865 14.5727 3.40541 14.4933 3.45949C14.4139 3.51356 14.3467 3.58374 14.2962 3.66546C14.2793 3.69998 14.2681 3.73706 14.2633 3.77521C14.26 3.79144 14.2535 3.80682 14.2441 3.82042C14.2346 3.83401 14.2225 3.84552 14.2084 3.85422C14.1919 3.86439 14.1729 3.86972 14.1535 3.86959C14.1398 3.87285 14.1255 3.87285 14.1118 3.86959C14.0666 3.85394 14.0192 3.84579 13.9714 3.84544C13.885 3.85112 13.8012 3.87715 13.7268 3.9214C13.6524 3.96564 13.5896 4.02686 13.5434 4.10005C13.4628 4.19696 13.3595 4.27238 13.2427 4.31954L13.0495 4.4227C12.8156 4.56842 12.56 4.67586 12.2923 4.74096C12.2216 4.77038 12.1611 4.82003 12.1186 4.88368C12.076 4.94734 12.0532 5.02215 12.053 5.09872C12.0925 5.49819 11.8621 5.60355 11.4758 5.72866C11.3525 5.78258 11.2521 5.878 11.192 5.9983C11.1318 6.11861 11.1157 6.25619 11.1465 6.38712C11.1456 6.41058 11.1399 6.43359 11.1297 6.45474C11.1195 6.47588 11.1051 6.49471 11.0873 6.51004L11.0434 6.54954C11.0206 6.56451 10.9938 6.57217 10.9666 6.57149H10.927C10.8618 6.54984 10.7938 6.53728 10.7251 6.53418C10.6646 6.53298 10.605 6.54907 10.5533 6.58056C10.5016 6.61205 10.4599 6.65764 10.4332 6.71197C10.3743 6.81038 10.3473 6.92462 10.356 7.03899C10.3646 7.15335 10.4085 7.26224 10.4815 7.35068C10.4932 7.36903 10.4994 7.39036 10.4994 7.41214C10.4994 7.43392 10.4932 7.45524 10.4815 7.47359C10.4708 7.49177 10.4553 7.50668 10.4367 7.51673C10.4182 7.52679 10.3972 7.5316 10.3761 7.53066C10.33 7.53066 10.2796 7.53066 10.2313 7.53066C9.83399 7.53066 9.73083 7.73917 9.7023 7.86428C9.68768 7.93382 9.68918 8.00577 9.70668 8.07464C9.72418 8.1435 9.75722 8.20744 9.80326 8.26156C9.80326 8.26156 9.82521 8.29229 9.81643 8.36033C9.80727 8.39725 9.78455 8.42938 9.75278 8.45032C9.60745 8.5646 9.49694 8.71723 9.43372 8.89097C9.37051 9.06472 9.3571 9.25267 9.39502 9.43363C9.3951 9.45226 9.39123 9.4707 9.38367 9.48772C9.3761 9.50475 9.36501 9.51998 9.35112 9.5324C9.31993 9.55654 9.28056 9.56756 9.24137 9.56313H9.22162C9.13737 9.56589 9.05484 9.58765 8.98018 9.62678C8.95882 9.63917 8.93595 9.64876 8.91214 9.65531C8.8236 9.67505 8.74336 9.72174 8.68244 9.78895C8.62151 9.85616 8.58291 9.94059 8.57193 10.0306C8.55876 10.1009 8.54998 10.1733 8.53901 10.2501C8.50609 10.5091 8.47755 10.733 8.2844 10.8888C8.21379 10.9359 8.15425 10.9978 8.10992 11.0702C8.06558 11.1426 8.03749 11.2238 8.0276 11.3081C8.02725 11.3733 8.03987 11.4379 8.06474 11.4982C8.08961 11.5585 8.12623 11.6132 8.17246 11.6592C8.18947 11.6791 8.19881 11.7044 8.19881 11.7306C8.19881 11.7567 8.18947 11.782 8.17246 11.8019C8.11142 11.8848 8.06195 11.9756 8.02541 12.0719C8.00759 12.1246 7.98168 12.1742 7.94858 12.2189C7.86531 12.2841 7.79752 12.3669 7.75008 12.4614C7.70264 12.5559 7.67673 12.6598 7.67422 12.7655C7.68959 12.963 7.82567 13.1013 8.03857 13.2571C8.0537 13.2685 8.06571 13.2835 8.07347 13.3007C8.08123 13.318 8.0845 13.3369 8.08296 13.3557C8.08143 13.3746 8.07514 13.3927 8.06469 13.4085C8.05425 13.4243 8.03997 13.4371 8.02321 13.4459C7.36474 13.7905 7.18476 14.3238 7.43498 15.1052C7.50138 15.2835 7.52032 15.4759 7.48992 15.6637C7.45952 15.8515 7.38084 16.0281 7.26158 16.1763C7.1645 16.2818 7.09395 16.4089 7.05578 16.5471C7.01761 16.6852 7.01292 16.8305 7.0421 16.9709C7.06637 17.0983 7.0573 17.2299 7.01576 17.3528C7.00266 17.3822 6.99759 17.4145 7.00106 17.4465C7.00453 17.4785 7.01642 17.509 7.03551 17.535C7.07158 17.5813 7.11658 17.62 7.16785 17.6486C7.21913 17.6773 7.27563 17.6953 7.33402 17.7018C7.35007 17.7032 7.36564 17.708 7.37966 17.7159C7.39367 17.7239 7.40581 17.7348 7.41523 17.7479C7.4241 17.7609 7.43006 17.7757 7.43271 17.7912C7.43536 17.8067 7.43464 17.8226 7.43059 17.8379L7.40645 17.9213C7.30329 18.2439 7.3428 18.4283 7.53814 18.5183C7.55487 18.5257 7.56946 18.5373 7.58058 18.5519C7.5917 18.5664 7.59899 18.5836 7.60179 18.6017C7.60503 18.6201 7.6035 18.639 7.59736 18.6567C7.59121 18.6744 7.58065 18.6902 7.56667 18.7026L7.52717 18.74C7.40954 18.8411 7.33012 18.9794 7.30216 19.132C7.27421 19.2846 7.29939 19.4421 7.37352 19.5784C7.38715 19.6019 7.39178 19.6295 7.38653 19.6562C7.38128 19.6829 7.36651 19.7067 7.34499 19.7233C7.29264 19.763 7.24988 19.814 7.21988 19.8725C7.1712 19.9646 7.15954 20.0718 7.18729 20.1721C7.21503 20.2725 7.28009 20.3585 7.36913 20.4125C7.44157 20.4739 7.51839 20.5332 7.61057 20.6012C7.82273 20.7302 8.00047 20.9087 8.12857 21.1214C8.13158 21.1466 8.14061 21.1707 8.1549 21.1916C8.16082 21.2055 8.16387 21.2205 8.16387 21.2355C8.16387 21.2506 8.16082 21.2656 8.1549 21.2794C8.15068 21.2938 8.14365 21.3072 8.13424 21.3189C8.12482 21.3306 8.1132 21.3403 8.10003 21.3475C8.03488 21.3807 7.97676 21.4261 7.92883 21.4814C7.87597 21.5324 7.83499 21.5945 7.80882 21.6631C7.78264 21.7318 7.77191 21.8054 7.77738 21.8786C7.78756 21.9445 7.81262 22.0072 7.85065 22.062C7.88868 22.1168 7.93869 22.1621 7.99687 22.1947C8.01161 22.2047 8.02371 22.2181 8.03212 22.2337C8.04053 22.2494 8.04501 22.2669 8.04516 22.2847C8.0463 22.3023 8.0431 22.3199 8.03583 22.336C8.02855 22.3521 8.01744 22.3661 8.00346 22.3769C7.95915 22.4088 7.92447 22.4523 7.90318 22.5027C7.88189 22.553 7.87482 22.6082 7.88274 22.6622C7.89518 22.7205 7.92598 22.7733 7.97062 22.8128C8.01526 22.8523 8.07138 22.8764 8.13076 22.8817C8.17821 22.9112 8.21986 22.9492 8.25367 22.9936C8.29776 23.046 8.34703 23.0938 8.40073 23.1363C8.42106 23.1497 8.43625 23.1696 8.44382 23.1927C8.4514 23.2158 8.45091 23.2408 8.44243 23.2636C8.39373 23.4511 8.40839 23.6494 8.48414 23.8277C8.50324 23.9165 8.54327 23.9995 8.60092 24.0698C8.65857 24.14 8.73216 24.1955 8.81556 24.2316C8.83453 24.2376 8.85159 24.2484 8.86507 24.263C8.87854 24.2777 8.88796 24.2956 8.89239 24.315C8.96479 24.5487 9.12117 24.7473 9.33136 24.8725C9.3509 24.8875 9.36493 24.9085 9.37128 24.9324C9.37763 24.9562 9.37594 24.9814 9.36648 25.0042C9.14699 25.5375 9.23479 25.7658 9.77473 26.0687C9.79962 26.0822 9.81845 26.1047 9.82741 26.1316C9.83637 26.1585 9.8348 26.1878 9.82302 26.2135C9.78559 26.2775 9.76495 26.3499 9.76303 26.4239C9.76111 26.498 9.77797 26.5714 9.81204 26.6372C9.84799 26.691 9.89616 26.7355 9.95261 26.7672C10.0091 26.7989 10.0722 26.8167 10.1369 26.8193C10.1648 26.8226 10.1904 26.8366 10.2084 26.8582C10.2264 26.8799 10.2353 26.9076 10.2335 26.9357C10.2285 27.0262 10.254 27.1159 10.3059 27.1903C10.6992 27.7552 11.1801 28.2538 11.7304 28.6674L11.8467 28.7421C12.0464 28.865 12.1364 28.9374 12.0991 29.0581C12.0656 29.1354 12.0511 29.2195 12.0568 29.3036C12.0626 29.3876 12.0884 29.469 12.132 29.541C12.1697 29.5902 12.2187 29.6294 12.2749 29.6554C12.3311 29.6814 12.3928 29.6934 12.4547 29.6902C12.5761 29.6919 12.6934 29.6462 12.7817 29.5629C12.7928 29.5514 12.8061 29.5424 12.8208 29.5363C12.8356 29.5303 12.8514 29.5274 12.8673 29.5278C12.8836 29.5286 12.8995 29.533 12.9139 29.5406C12.9283 29.5481 12.9409 29.5588 12.9507 29.5717C12.9905 29.6296 13.0378 29.682 13.0912 29.7276C13.1115 29.7446 13.125 29.7683 13.1294 29.7945C13.1338 29.8206 13.1289 29.8474 13.1153 29.8702C13.0812 29.9221 13.0585 29.9806 13.0487 30.0419C13.0388 30.1032 13.0421 30.1659 13.0583 30.2258C13.0708 30.2577 13.0906 30.2862 13.1162 30.3091C13.1417 30.332 13.1722 30.3485 13.2053 30.3575C13.3594 30.4068 13.4938 30.5036 13.5894 30.634C13.9125 30.9984 14.3657 31.2214 14.8515 31.2552C15.0034 31.2556 15.1534 31.2219 15.2905 31.1564C15.8765 30.8733 16.3243 30.1534 16.0258 29.4817C15.9951 29.3703 15.9397 29.2673 15.8637 29.1803C15.7877 29.0932 15.6931 29.0245 15.5868 28.9791C15.522 28.9564 15.4535 28.9459 15.3849 28.9484H15.2641H15.1566C15.0161 28.9484 14.9612 28.9111 14.9371 28.8013C14.9249 28.6879 14.869 28.5838 14.7814 28.5109C14.6937 28.4379 14.5811 28.402 14.4674 28.4106C14.4465 28.412 14.4256 28.4077 14.407 28.398C14.3884 28.3883 14.3729 28.3737 14.362 28.3558C14.3513 28.3386 14.3457 28.3189 14.3457 28.2987C14.3457 28.2785 14.3513 28.2587 14.362 28.2416C14.3901 28.2042 14.4103 28.1615 14.4216 28.1162C14.4329 28.0708 14.4351 28.0236 14.4279 27.9774C14.4208 27.9312 14.4045 27.8869 14.38 27.8471C14.3555 27.8073 14.3232 27.7728 14.2852 27.7456C14.1763 27.6413 14.0321 27.5818 13.8814 27.5788C13.8147 27.5787 13.7485 27.5906 13.686 27.6139C13.6737 27.6161 13.661 27.6161 13.6487 27.6139C13.624 27.6136 13.6001 27.6051 13.5807 27.5897C13.5658 27.5782 13.5539 27.5631 13.5463 27.5459C13.5386 27.5286 13.5354 27.5098 13.5368 27.491C13.5503 27.3832 13.5246 27.2741 13.4643 27.1837C13.415 27.1137 13.3491 27.057 13.2725 27.0187C13.1959 26.9803 13.111 26.9616 13.0254 26.9642V27.0388L12.9749 26.9642H12.9266C12.9021 26.961 12.8793 26.9498 12.8619 26.9323C12.8444 26.9149 12.8332 26.8921 12.83 26.8676C12.8285 26.8406 12.8285 26.8135 12.83 26.7864C12.8388 26.7191 12.8337 26.6508 12.8153 26.5855C12.7968 26.5202 12.7652 26.4594 12.7225 26.4067C12.6884 26.3749 12.6484 26.3504 12.6046 26.3345C12.5608 26.3187 12.5143 26.3119 12.4679 26.3145C12.3978 26.3166 12.328 26.3246 12.2593 26.3387C12.1298 26.3387 12.0399 26.1982 12.0069 26.1192C12.0004 26.0992 12.0004 26.0777 12.0069 26.0577C12.0297 25.8851 12.007 25.7096 11.9411 25.5485C11.9071 25.4638 11.8878 25.374 11.884 25.2829C11.886 25.2295 11.8771 25.1763 11.8579 25.1265C11.8386 25.0767 11.8094 25.0313 11.7721 24.9932C11.7373 24.9574 11.6957 24.929 11.6497 24.9098C11.6036 24.8905 11.5542 24.8808 11.5043 24.8812C11.4586 24.8818 11.4134 24.89 11.3704 24.9054C11.2642 24.9463 11.1525 24.9714 11.039 24.98C10.8766 24.98 10.8393 24.8132 10.8195 24.631C10.795 24.4409 10.7191 24.261 10.6 24.1108C10.5902 24.097 10.5836 24.0812 10.5805 24.0645C10.5775 24.0478 10.5782 24.0307 10.5824 24.0143C10.5874 23.9978 10.5962 23.9826 10.608 23.9701C10.6198 23.9575 10.6343 23.9479 10.6505 23.9418C10.707 23.9219 10.7571 23.887 10.7954 23.8409C10.8185 23.8158 10.8356 23.7857 10.8451 23.753C10.8546 23.7202 10.8564 23.6857 10.8502 23.6521C10.8412 23.5888 10.8353 23.5251 10.8327 23.4612C10.8437 23.3532 10.8296 23.2441 10.7916 23.1424C10.7535 23.0408 10.6924 22.9493 10.6132 22.8751C10.5485 22.8303 10.495 22.7711 10.4569 22.7022C10.4189 22.6333 10.3972 22.5565 10.3937 22.4778C10.4008 22.3482 10.3705 22.2192 10.3063 22.1063C10.242 21.9934 10.1467 21.9014 10.0315 21.8413C10.0161 21.8349 10.0024 21.825 9.99133 21.8125C9.98029 21.7999 9.97228 21.785 9.96788 21.7689C9.96359 21.7525 9.96294 21.7353 9.96598 21.7187C9.96901 21.702 9.97565 21.6862 9.98544 21.6723C10.019 21.6291 10.0423 21.5788 10.0535 21.5253C10.0547 21.4401 10.0379 21.3555 10.0043 21.2773C9.97062 21.199 9.92082 21.1287 9.85814 21.0709C9.8318 21.0336 9.80546 20.9941 9.78132 20.9546L9.75278 20.9041C9.7394 20.8794 9.73581 20.8505 9.74272 20.8233C9.74964 20.796 9.76655 20.7724 9.79009 20.7571C9.84936 20.7249 9.89881 20.6774 9.93321 20.6194C9.9676 20.5614 9.98565 20.4952 9.98544 20.4278C9.98544 20.3554 9.93496 20.2215 9.72205 20.1425C9.50915 20.0635 9.52451 19.9449 9.51793 19.7035C9.51793 19.664 9.51793 19.6245 9.51793 19.5872C9.45981 19.2451 9.3214 18.9216 9.11407 18.6434C9.10315 18.6292 9.09584 18.6127 9.09278 18.5951C9.08972 18.5775 9.091 18.5594 9.09651 18.5424C9.10178 18.5254 9.11114 18.5098 9.12376 18.4972C9.13638 18.4846 9.15189 18.4753 9.16894 18.47C9.24823 18.4484 9.32161 18.4092 9.38357 18.3552C9.44553 18.3012 9.49447 18.2339 9.52671 18.1583C9.59521 18.0292 9.62266 17.8823 9.60541 17.7372C9.58815 17.592 9.527 17.4556 9.43013 17.3462C9.28747 17.2167 9.31161 17.1443 9.43013 16.9511C9.54866 16.758 9.43013 16.3431 9.32478 16.1236C9.27764 16.0251 9.20674 15.9399 9.11846 15.8756C9.1039 15.8663 9.09175 15.8537 9.08297 15.8389C9.0742 15.824 9.06906 15.8073 9.06798 15.79C9.06683 15.7724 9.07004 15.7548 9.07731 15.7387C9.08458 15.7226 9.0957 15.7086 9.10968 15.6978C9.15746 15.6563 9.20806 15.6182 9.26113 15.5837C9.37946 15.4928 9.47512 15.3758 9.54062 15.2417C9.60612 15.1077 9.63967 14.9603 9.63865 14.8111C9.63865 14.7606 9.65401 14.7101 9.66279 14.6597C9.68255 14.5587 9.66279 14.3699 9.36429 14.236C9.22601 14.1768 9.1448 14.1 9.12504 14.0166C9.12228 13.9668 9.13116 13.9171 9.15097 13.8714C9.17078 13.8256 9.20099 13.7852 9.23918 13.7532L9.2743 13.7115C9.28416 13.6973 9.29728 13.6857 9.31257 13.6777C9.32785 13.6697 9.34483 13.6654 9.36209 13.6654C9.37978 13.6653 9.39719 13.6698 9.41257 13.6785C9.4712 13.7077 9.53585 13.7227 9.60133 13.7224C9.6383 13.7223 9.67512 13.7178 9.71108 13.7093C10.104 13.6215 10.1698 13.2944 10.2093 12.9411C10.2395 12.763 10.2118 12.5799 10.1303 12.4187C10.1164 12.3958 10.111 12.3687 10.115 12.3423C10.119 12.3158 10.1322 12.2915 10.1523 12.2738C10.2223 12.2002 10.2753 12.1121 10.3075 12.0158C10.3398 11.9195 10.3504 11.8172 10.3388 11.7163C10.3271 11.6205 10.338 11.5233 10.3708 11.4326C10.4036 11.3418 10.4573 11.2601 10.5276 11.1939C10.7471 10.9942 10.9666 10.7154 10.78 10.316C10.772 10.3004 10.7682 10.283 10.769 10.2655C10.7707 10.2247 10.7796 10.1846 10.7954 10.147C10.8028 10.1259 10.8164 10.1075 10.8344 10.0942C10.8524 10.0809 10.874 10.0733 10.8963 10.0723C11.3704 10.0592 11.4867 9.7453 11.5745 9.39631C11.5945 9.29169 11.6292 9.19044 11.6777 9.09561C11.7241 9.01879 11.7666 8.93968 11.805 8.85857C11.9147 8.63908 12.0113 8.43715 12.244 8.40642C12.3807 8.36985 12.5088 8.30636 12.6208 8.21968C12.7327 8.133 12.8262 8.02486 12.8959 7.9016C12.966 7.80842 13.0169 7.7022 13.0455 7.58915C13.0742 7.47609 13.08 7.35846 13.0627 7.24313C13.0473 7.19045 13.0254 7.13558 13.0012 7.07412C12.9737 7.01373 12.953 6.9504 12.9398 6.88536C12.936 6.863 12.9392 6.84002 12.9491 6.81958C12.9589 6.79914 12.9748 6.78225 12.9946 6.77123C13.0335 6.75071 13.0748 6.73523 13.1175 6.72514C13.1869 6.71275 13.2527 6.68504 13.31 6.64403C13.3674 6.60303 13.4148 6.54975 13.449 6.48809C13.5006 6.37131 13.5045 6.23899 13.4599 6.11935C13.4527 6.09499 13.454 6.0689 13.4636 6.04536C13.4732 6.02183 13.4905 6.00225 13.5126 5.98985C13.5289 5.98137 13.5469 5.97685 13.5653 5.97668C13.5817 5.97616 13.5979 5.97947 13.6128 5.98632C13.6276 5.99318 13.6407 6.00341 13.6509 6.01619C13.6794 6.04911 13.708 6.09081 13.7365 6.12813L13.7716 6.17861C13.8117 6.23787 13.8656 6.28645 13.9287 6.32012C13.9919 6.35378 14.0622 6.37151 14.1338 6.37176C14.2252 6.36936 14.3147 6.34529 14.395 6.30152C14.4476 6.27435 14.4941 6.23681 14.5319 6.19117C14.5696 6.14552 14.5977 6.09272 14.6145 6.03594C14.6285 5.98466 14.6323 5.93109 14.6255 5.87834C14.6187 5.82559 14.6016 5.77471 14.575 5.72866C14.5633 5.70827 14.5585 5.68469 14.5613 5.66138C14.5641 5.63807 14.5742 5.61626 14.5903 5.59916C14.6035 5.5881 14.6191 5.58018 14.6358 5.576C14.6526 5.57182 14.67 5.57148 14.6869 5.57501C14.7029 5.57497 14.7187 5.57873 14.733 5.58599C14.8216 5.62782 14.9181 5.65027 15.0161 5.65184C15.2183 5.63569 15.4067 5.54307 15.5429 5.39284C15.5982 5.33942 15.6593 5.29231 15.7251 5.25237C15.808 5.21736 15.8756 5.1539 15.9159 5.07341C15.9561 4.99292 15.9663 4.90071 15.9446 4.81339C15.9401 4.78463 15.947 4.75526 15.9637 4.7315C15.9805 4.70773 16.0059 4.69144 16.0345 4.68609C16.1005 4.67433 16.1632 4.64868 16.2184 4.61084C16.2737 4.573 16.3202 4.52383 16.355 4.4666C16.3657 4.45137 16.3798 4.43886 16.3962 4.43009C16.4126 4.42133 16.4308 4.41654 16.4494 4.41611C16.4638 4.41282 16.4788 4.41282 16.4933 4.41611C16.5342 4.43367 16.5783 4.44264 16.6228 4.44245C16.718 4.44028 16.8086 4.40088 16.8752 4.33271C16.8995 4.31715 16.9252 4.30392 16.952 4.2932C17.0464 4.26596 17.1272 4.20455 17.1787 4.12096C17.2302 4.03737 17.2488 3.93758 17.2308 3.84105C17.2237 3.7731 17.2304 3.70442 17.2505 3.63912C17.2579 3.61503 17.2731 3.59413 17.2939 3.57979C17.3146 3.56545 17.3395 3.55852 17.3647 3.56011H17.4546C17.568 3.55753 17.681 3.54653 17.7927 3.52718C17.8829 3.51562 17.9738 3.51048 18.0648 3.51182C18.1233 3.51193 18.1815 3.51931 18.2382 3.53377C18.2617 3.54078 18.2861 3.54448 18.3106 3.54474C18.366 3.54314 18.4203 3.52861 18.4691 3.50231C18.5178 3.47602 18.5598 3.43869 18.5916 3.3933C18.6342 3.33985 18.656 3.27281 18.6531 3.20454C18.6509 3.18867 18.6525 3.17252 18.6576 3.15734C18.6626 3.14215 18.6711 3.12832 18.6823 3.1169C18.6935 3.10547 18.7072 3.09675 18.7223 3.0914C18.7374 3.08605 18.7535 3.08421 18.7694 3.08601H18.7957C18.8183 3.08955 18.8412 3.08955 18.8638 3.08601C18.963 3.07608 19.0566 3.03541 19.1315 2.96968C19.1515 2.95622 19.1756 2.95002 19.1996 2.95212H19.2281C19.2442 2.95652 19.2591 2.96454 19.2717 2.97557C19.2842 2.9866 19.2941 3.00035 19.3005 3.01578C19.313 3.04628 19.3348 3.07205 19.3628 3.0894C19.3908 3.10676 19.4235 3.11479 19.4564 3.11235V3.03772L19.4959 3.11016C19.5617 3.11016 19.6298 3.11016 19.6956 3.11016C20.2668 3.1293 20.8258 2.9432 21.2716 2.58558C21.2922 2.56912 21.3176 2.55987 21.344 2.55924C21.3578 2.55673 21.3719 2.55673 21.3857 2.55924L21.4406 2.58777C21.5106 2.63174 21.5906 2.6574 21.6732 2.6624C21.7239 2.66157 21.7737 2.64929 21.8189 2.62649C21.8641 2.60368 21.9036 2.57094 21.9344 2.53071C22.019 2.44003 22.0667 2.32108 22.0683 2.19708C22.071 2.17508 22.0801 2.15436 22.0946 2.13756C22.109 2.12076 22.1281 2.10863 22.1495 2.1027C22.164 2.09941 22.179 2.09941 22.1934 2.1027C22.222 2.10253 22.2496 2.11356 22.2702 2.13343C22.3432 2.2168 22.4383 2.27771 22.5446 2.30902C22.6163 2.32701 22.6901 2.33586 22.7641 2.33536C22.9677 2.32403 23.1676 2.27646 23.3545 2.19489C23.5074 2.12348 23.6715 2.07893 23.8396 2.06319C23.898 2.06398 23.9562 2.07135 24.013 2.08514H24.0678H24.1161C24.1369 2.08477 24.1574 2.09008 24.1754 2.10051C24.1884 2.10832 24.1997 2.11882 24.2084 2.1313C24.2171 2.14379 24.2231 2.15798 24.2259 2.17294C24.2321 2.29812 24.2865 2.41603 24.3778 2.50196C24.469 2.58788 24.59 2.63515 24.7153 2.63387C24.7898 2.63755 24.8637 2.61854 24.9272 2.57935C24.9907 2.54016 25.0408 2.48264 25.0709 2.41438C25.08 2.39639 25.0937 2.38119 25.1107 2.37037C25.1277 2.35955 25.1473 2.35352 25.1675 2.35292C25.1879 2.35254 25.208 2.35764 25.2257 2.36767C25.2435 2.37771 25.2582 2.39232 25.2684 2.40999C25.3453 2.55046 25.4243 2.60972 25.5318 2.60972C25.6088 2.60657 25.6817 2.57442 25.736 2.51973C25.7861 2.47035 25.8459 2.43182 25.9116 2.40652C25.9773 2.38122 26.0475 2.3697 26.1179 2.37267C26.2127 2.37501 26.3073 2.38381 26.401 2.39901C26.4961 2.41471 26.5922 2.42351 26.6885 2.42535H26.7983C26.8407 2.4231 26.8832 2.4231 26.9256 2.42535C27.0236 2.43009 27.1214 2.4117 27.211 2.37166C27.3006 2.33163 27.3795 2.27107 27.4414 2.19489C27.4514 2.18099 27.4646 2.16974 27.4799 2.16209C27.4951 2.15444 27.5121 2.15063 27.5292 2.15099C27.5436 2.1477 27.5586 2.1477 27.5731 2.15099C27.5962 2.1606 27.6153 2.1778 27.6272 2.19976C27.6392 2.22171 27.6433 2.2471 27.6389 2.27171C27.631 2.33987 27.6392 2.40893 27.6629 2.47335C27.6865 2.53777 27.7249 2.59575 27.775 2.64264C27.8214 2.71141 27.8833 2.7683 27.9558 2.80871C28.0282 2.84913 28.1091 2.87194 28.192 2.8753C28.3379 2.86247 28.4775 2.81011 28.5959 2.72386C28.6768 2.66313 28.7721 2.62455 28.8724 2.61192H28.9229C28.9477 2.61223 28.9716 2.62072 28.991 2.63606C29.0059 2.64642 29.0178 2.66072 29.0251 2.67737C29.0325 2.69403 29.0351 2.71239 29.0327 2.73044C29.0204 2.81251 29.0383 2.89625 29.0831 2.9661C29.1279 3.03594 29.1966 3.08713 29.2763 3.11016L29.3136 3.12333C29.409 3.15699 29.5089 3.17622 29.6099 3.18039C29.6787 3.17884 29.7466 3.16393 29.8097 3.13649C29.8241 3.13328 29.8391 3.13328 29.8536 3.13649C29.8756 3.13633 29.8972 3.14326 29.915 3.15625C29.9306 3.16651 29.9435 3.18053 29.9523 3.19701C29.9611 3.2135 29.9656 3.23193 29.9655 3.25063C29.9631 3.30241 29.9745 3.3539 29.9984 3.39988C30.0203 3.44056 30.0517 3.47537 30.0899 3.50135C30.1281 3.52733 30.172 3.54372 30.2179 3.54913C30.3408 3.5645 30.3672 3.62156 30.3935 3.7335C30.4374 3.93982 30.5954 3.98811 30.7908 4.01445H30.8325C30.9077 4.01497 30.9822 4.00081 31.052 3.97275C31.0664 3.96966 31.0814 3.96966 31.0959 3.97275C31.1131 3.97282 31.1301 3.97705 31.1454 3.98507C31.1607 3.99309 31.1738 4.00468 31.1837 4.01884C31.3097 4.14524 31.4712 4.23023 31.6468 4.26247C31.6999 4.27461 31.752 4.29075 31.8026 4.31076C31.837 4.32959 31.87 4.35086 31.9014 4.37441C31.985 4.44963 32.0903 4.49649 32.2021 4.5083C32.2703 4.50775 32.3361 4.48372 32.3887 4.44026C32.4028 4.43044 32.4198 4.42579 32.4369 4.42709C32.4566 4.42421 32.4766 4.42421 32.4962 4.42709C32.5157 4.43605 32.5331 4.44912 32.5471 4.46541C32.5611 4.48169 32.5715 4.50082 32.5774 4.52147C32.5951 4.57338 32.6069 4.62713 32.6125 4.6817C32.6186 4.73763 32.6303 4.79279 32.6477 4.84631C32.6571 4.87425 32.6645 4.90287 32.6696 4.93191C32.7047 5.1097 32.7706 5.29407 32.9747 5.29407C33.0162 5.29437 33.0572 5.28615 33.0954 5.26993C33.137 5.25507 33.1807 5.24692 33.2249 5.24578C33.3466 5.26283 33.4589 5.3209 33.5432 5.4104C33.6036 5.46345 33.669 5.5105 33.7385 5.55087C33.8849 5.62288 34.0388 5.67881 34.1972 5.71768C34.2872 5.74402 34.3728 5.76817 34.4519 5.79889C34.4667 5.80437 34.4802 5.81314 34.4912 5.82454C34.5022 5.83594 34.5105 5.84968 34.5155 5.86474C34.522 5.87963 34.5253 5.89569 34.5253 5.91193C34.5253 5.92816 34.522 5.94423 34.5155 5.95912C34.47 6.04785 34.4488 6.14706 34.454 6.24665C34.454 6.53418 34.8008 6.90512 34.9084 7.01267C35.1981 7.30459 35.4703 7.46481 35.692 7.46481C35.7108 7.4644 35.7294 7.46884 35.746 7.4777C35.7627 7.48657 35.7767 7.49957 35.7869 7.51545C35.797 7.53132 35.8029 7.54954 35.804 7.56835C35.805 7.58716 35.8012 7.60593 35.7929 7.62284C35.7641 7.68207 35.7534 7.74851 35.7622 7.8138C35.8061 8.20669 35.9356 8.40642 36.1441 8.40642H36.2012C36.2333 8.40336 36.2656 8.40336 36.2978 8.40642C36.4536 8.40642 36.5502 8.5008 36.6731 8.62591C36.7279 8.67859 36.7828 8.73126 36.8553 8.79053C36.887 8.83654 36.9121 8.88678 36.9299 8.93978C36.9891 9.08903 37.0616 9.2317 37.2328 9.2317C37.2625 9.23146 37.2921 9.22703 37.3206 9.21853C37.3674 9.2019 37.416 9.19085 37.4654 9.18561C37.4889 9.18546 37.5118 9.19285 37.5308 9.20667C37.5497 9.2205 37.5637 9.24004 37.5708 9.26243C37.5708 9.29315 37.5905 9.33266 37.6015 9.36998C37.6146 9.43025 37.6314 9.48963 37.652 9.54776C37.7152 9.68497 37.7328 9.83877 37.7025 9.98674C37.3776 10.9218 37.4303 11.1456 38.1151 11.7031C38.1321 11.7181 38.1444 11.7377 38.1507 11.7595C38.1569 11.7812 38.1567 11.8044 38.1502 11.8261C38.116 11.9738 38.1338 12.1289 38.2007 12.265C38.2556 12.4033 38.2797 12.4845 38.2227 12.5482C38.2051 12.571 38.1927 12.5973 38.1863 12.6253C38.1798 12.6533 38.1795 12.6824 38.1854 12.7106C38.2014 12.8124 38.2546 12.9047 38.3346 12.9696C38.5146 13.0837 38.5036 13.2264 38.4641 13.5073L38.4531 13.6017C38.4266 13.7165 38.4441 13.837 38.5022 13.9395C38.5604 14.0419 38.6549 14.1188 38.767 14.1548L38.8109 14.1768C38.8281 14.1854 38.8427 14.1985 38.8532 14.2148C38.8636 14.231 38.8694 14.2497 38.8702 14.269C38.8715 14.2882 38.8678 14.3075 38.8593 14.3248C38.8508 14.3422 38.8379 14.357 38.8219 14.3677C38.7717 14.3917 38.7291 14.4289 38.6985 14.4753C38.6679 14.5217 38.6506 14.5756 38.6485 14.6311C38.6485 14.7255 38.7121 14.7935 38.8394 14.8616C38.855 14.8706 38.8683 14.883 38.8786 14.8978C38.8888 14.9126 38.8957 14.9294 38.8987 14.9472C38.9008 14.9649 38.8987 14.9829 38.8926 14.9996C38.8865 15.0164 38.8766 15.0315 38.8636 15.0438C38.8212 15.077 38.786 15.1184 38.76 15.1656C38.734 15.2127 38.7177 15.2646 38.7121 15.3181C38.714 15.398 38.7348 15.4764 38.773 15.5466C38.8112 15.6168 38.8656 15.677 38.9316 15.722C38.9486 15.7372 38.9608 15.757 38.9667 15.779C38.9687 15.7988 38.9687 15.8186 38.9667 15.8383C38.948 15.9545 38.975 16.0733 39.0422 16.17C39.1093 16.2666 39.2113 16.3334 39.3267 16.3563C39.3463 16.3613 39.3644 16.3711 39.3794 16.3848C39.4 16.4107 39.4149 16.4406 39.4233 16.4726C39.4803 16.646 39.5242 16.7909 39.5572 16.9379C39.56 16.9541 39.5593 16.9708 39.5552 16.9867C39.551 17.0026 39.5434 17.0174 39.533 17.0301C39.5226 17.0428 39.5096 17.0531 39.4948 17.0603C39.48 17.0675 39.4638 17.0715 39.4474 17.0718C39.3393 17.067 39.2317 17.089 39.134 17.1357C39.0364 17.1824 38.9518 17.2524 38.8877 17.3396C38.8655 17.3763 38.8525 17.4178 38.8498 17.4606C38.8471 17.5034 38.8549 17.5463 38.8724 17.5854C38.9182 17.6769 38.9964 17.7481 39.0918 17.7852C39.1066 17.7916 39.1198 17.8013 39.1304 17.8134C39.141 17.8256 39.1488 17.8399 39.1533 17.8554C39.1586 17.8706 39.1604 17.8868 39.1585 17.9028C39.1566 17.9188 39.1511 17.9341 39.1423 17.9476C39.0541 18.102 39.003 18.2749 38.9931 18.4524C38.9841 18.5324 38.9694 18.6116 38.9492 18.6895C38.912 18.8334 38.912 18.9845 38.9492 19.1284C38.9755 19.209 38.9755 19.2959 38.9492 19.3765L38.8899 19.4599C38.8464 19.5046 38.813 19.5581 38.7918 19.6167C38.7706 19.6754 38.7621 19.7379 38.767 19.8001C38.7833 19.8802 38.8267 19.9523 38.8899 20.0042C38.9011 20.0155 38.91 20.0288 38.916 20.0435C38.922 20.0582 38.9251 20.0739 38.925 20.0898C38.9251 20.1053 38.9219 20.1205 38.9154 20.1346C38.909 20.1486 38.8995 20.161 38.8877 20.171C38.5673 20.4498 38.6068 20.8295 38.6375 21.117L38.6485 21.2399C38.6638 21.4331 38.6046 21.5516 38.4751 21.5845C38.3972 21.598 38.3231 21.6278 38.2576 21.6721C38.1921 21.7164 38.1368 21.7741 38.0954 21.8413C38.0588 21.9181 38.0385 22.0016 38.0359 22.0866C38.0332 22.1716 38.0483 22.2563 38.08 22.3352C38.0876 22.3606 38.086 22.388 38.0756 22.4124C38.0652 22.4368 38.0465 22.4569 38.0229 22.4691C37.9456 22.5001 37.8762 22.5482 37.82 22.6098C37.7637 22.6714 37.7221 22.7448 37.6981 22.8246C37.6823 22.917 37.6888 23.0118 37.7171 23.1011C37.7453 23.1905 37.7945 23.2718 37.8605 23.3382C37.9025 23.3885 37.9393 23.4429 37.9703 23.5007C37.9809 23.5182 37.9866 23.5383 37.9866 23.5588C37.9866 23.5793 37.9809 23.5995 37.9703 23.617C37.9583 23.6327 37.9425 23.6451 37.9245 23.6531C37.9065 23.6612 37.8868 23.6646 37.8671 23.6631H37.7969C37.6879 23.6631 37.5821 23.6994 37.4962 23.7662C37.3579 23.8716 37.3469 24.0143 37.461 24.2052L37.4808 24.236C37.4917 24.2634 37.4917 24.2941 37.4808 24.3216C37.477 24.3356 37.4704 24.3486 37.4613 24.36C37.4523 24.3713 37.441 24.3806 37.4281 24.3874C37.1691 24.5279 37.0572 24.6596 37.0484 24.8264C37.0476 24.8413 37.0438 24.8559 37.0372 24.8693C37.0307 24.8827 37.0215 24.8947 37.0102 24.9045C36.999 24.9143 36.9859 24.9218 36.9717 24.9265C36.9575 24.9311 36.9426 24.9329 36.9277 24.9317H36.8509C36.795 24.9272 36.739 24.9369 36.6879 24.96C36.6369 24.983 36.5925 25.0186 36.5589 25.0634C36.5325 25.105 36.5172 25.1527 36.5145 25.2019C36.5119 25.2511 36.5219 25.3001 36.5436 25.3444C36.5653 25.4057 36.5815 25.4689 36.5919 25.5331C36.5952 25.5497 36.5948 25.5667 36.5906 25.5831C36.5864 25.5994 36.5786 25.6146 36.5677 25.6275C36.5571 25.6391 36.5443 25.6485 36.5299 25.6549C36.5156 25.6613 36.5 25.6647 36.4843 25.6648H36.4338C36.386 25.665 36.3382 25.6694 36.2912 25.678C36.2207 25.6891 36.1537 25.7159 36.0952 25.7566C36.0367 25.7973 35.9881 25.8507 35.9532 25.9128C35.9226 25.9738 35.9067 26.0411 35.9067 26.1093C35.9067 26.1775 35.9226 26.2447 35.9532 26.3057C35.98 26.35 35.9977 26.3993 36.0053 26.4505C36.0128 26.5018 36.01 26.5541 35.9971 26.6042C35.951 26.7206 35.7776 26.804 35.6371 26.8654C35.6115 26.8769 35.5851 26.8865 35.5581 26.894C35.4907 26.9078 35.427 26.936 35.3714 26.9765C35.3157 27.017 35.2694 27.0689 35.2354 27.1288C35.1213 27.3236 34.9484 27.4773 34.7416 27.5678C34.6216 27.6314 34.5071 27.7048 34.3992 27.7873C34.2719 27.8935 34.1813 28.0371 34.1402 28.1977C34.1322 28.2232 34.1155 28.245 34.093 28.2595C34.0706 28.2739 34.0438 28.28 34.0173 28.2767C33.9858 28.2679 33.9533 28.2635 33.9207 28.2636C33.8196 28.2692 33.7224 28.3048 33.6415 28.3658C33.5606 28.4267 33.4997 28.5103 33.4663 28.606L33.44 28.6608C33.4193 28.7151 33.3896 28.7656 33.3522 28.8101C33.1174 29.0296 33.0318 29.2271 33.0735 29.4269C33.081 29.4531 33.0787 29.4812 33.067 29.5058C33.0553 29.5305 33.0349 29.55 33.0098 29.5607C32.9565 29.5844 32.9081 29.6179 32.8671 29.6595C32.8469 29.6783 32.8201 29.6885 32.7925 29.688C32.7608 29.6885 32.7301 29.6767 32.7069 29.6551C32.6192 29.5666 32.5038 29.5108 32.3799 29.4971C32.2614 29.4971 32.1077 29.5673 32.0572 29.9053C32.0456 29.978 32.039 30.0513 32.0375 30.1248C32.0376 30.1409 32.0344 30.1569 32.028 30.1716C32.0215 30.1864 32.0121 30.1996 32.0002 30.2104C31.9763 30.2286 31.9468 30.2379 31.9168 30.2368C31.8773 30.2335 31.8377 30.2335 31.7982 30.2368H31.6314C31.5771 30.2376 31.5227 30.2339 31.469 30.2258C31.4315 30.218 31.3932 30.2143 31.3549 30.2148C31.2515 30.2144 31.1509 30.2478 31.0684 30.3101C30.986 30.3723 30.9262 30.4599 30.8983 30.5594C30.8831 30.601 30.8742 30.6447 30.872 30.6889C30.8667 30.7076 30.8573 30.7248 30.8443 30.7393C30.8314 30.7537 30.8153 30.765 30.7974 30.7723C30.783 30.776 30.7679 30.776 30.7535 30.7723C30.7272 30.7728 30.7014 30.766 30.6788 30.7526C30.6185 30.7164 30.5494 30.6975 30.4791 30.6977C30.399 30.7015 30.3206 30.7217 30.2486 30.757L30.1806 30.7855C30.1669 30.7888 30.1526 30.7888 30.1389 30.7855C30.1237 30.7886 30.108 30.7886 30.0928 30.7855C30.0192 30.7507 29.9393 30.7313 29.858 30.7284C29.8092 30.7269 29.7608 30.7368 29.7165 30.7574C29.6723 30.778 29.6335 30.8086 29.6033 30.847C29.4607 31.0247 29.5134 31.3825 29.6341 31.6283C29.645 31.6558 29.645 31.6864 29.6341 31.7139C29.6289 31.728 29.6211 31.7408 29.6109 31.7517C29.6007 31.7627 29.5884 31.7715 29.5748 31.7776C29.1973 31.9576 29.048 32.3658 29.1731 32.875C29.1762 32.8881 29.1827 32.9 29.192 32.9097C29.2012 32.9193 29.2129 32.9263 29.2258 32.9299C29.4135 32.9747 29.6058 32.9968 29.7987 32.9957C30.3827 32.9744 30.9569 32.8387 31.4888 32.5963C32.066 32.357 32.4611 32.1244 32.5269 31.9751C32.5459 31.9047 32.5702 31.8357 32.5994 31.7688C32.6213 31.7161 32.6433 31.6569 32.663 31.5932C32.6682 31.5784 32.6763 31.5647 32.6869 31.553C32.6975 31.5413 32.7102 31.5319 32.7245 31.5252C32.7541 31.5134 32.7871 31.5134 32.8167 31.5252L32.8606 31.5449L33.1437 31.6744C33.2396 31.7298 33.347 31.7621 33.4576 31.7688C33.721 31.7688 33.8044 31.523 33.8439 31.3101C33.8516 31.2365 33.8457 31.162 33.8263 31.0906L33.7517 31.1038L33.8153 31.0445C33.8138 31.0278 33.8157 31.011 33.821 30.9952C33.8263 30.9793 33.8348 30.9647 33.8461 30.9523C33.8581 30.9394 33.8728 30.9293 33.889 30.9225C33.9053 30.9157 33.9228 30.9124 33.9404 30.9128C34.0497 30.9069 34.1559 30.8745 34.2499 30.8184C34.3071 30.783 34.3717 30.7612 34.4387 30.7548C34.4809 30.7561 34.5223 30.7674 34.5594 30.7877C34.6221 30.8189 34.6913 30.8347 34.7613 30.8338C34.9194 30.8289 35.0715 30.7721 35.1941 30.6721C35.3167 30.5721 35.403 30.4346 35.4396 30.2807C35.4631 30.1709 35.4516 30.0565 35.4066 29.9536C35.4003 29.9205 35.4051 29.8863 35.4201 29.8561C35.4352 29.826 35.4598 29.8016 35.49 29.7868C35.6113 29.7099 35.7382 29.6424 35.8697 29.5849C36.1819 29.4642 36.4493 29.2504 36.6358 28.9725C36.6791 28.9019 36.718 28.8286 36.7521 28.753C36.8509 28.5335 36.9057 28.437 37.0682 28.437C37.1287 28.4393 37.1889 28.4466 37.2481 28.4589C37.3038 28.4521 37.3568 28.4312 37.4022 28.3982C37.4475 28.3651 37.4836 28.3211 37.5071 28.2702C37.5395 28.2146 37.558 28.1521 37.5611 28.0879C37.5641 28.0237 37.5516 27.9598 37.5247 27.9014C37.513 27.8718 37.513 27.8388 37.5247 27.8092C37.5402 27.7788 37.5658 27.7548 37.5971 27.7412C37.8978 27.6139 38.1788 27.4515 38.012 26.9774C38.0045 26.9563 38.0036 26.9334 38.0095 26.9119C38.0154 26.8903 38.0277 26.871 38.0449 26.8566L38.1129 26.8018C38.2439 26.7218 38.3402 26.5958 38.3829 26.4484C38.3898 26.4193 38.4069 26.3936 38.4312 26.376C38.4512 26.3647 38.4741 26.3593 38.497 26.3606H38.519C38.5561 26.3711 38.5945 26.3763 38.6331 26.376C38.7281 26.3817 38.8218 26.3521 38.8963 26.293C38.9708 26.2338 39.0209 26.1493 39.037 26.0555C39.0575 25.928 39.0861 25.8019 39.1226 25.678C39.2031 25.4485 39.236 25.2051 39.2191 24.9625C39.2166 24.9468 39.2177 24.9307 39.2223 24.9155C39.2268 24.9003 39.2348 24.8864 39.2455 24.8747C39.2557 24.863 39.2682 24.8535 39.2821 24.8467C39.296 24.8399 39.3112 24.836 39.3267 24.8352C39.3997 24.8335 39.471 24.8123 39.533 24.7737C39.6727 24.7003 39.7777 24.5746 39.825 24.4241C39.8723 24.2736 39.8581 24.1104 39.7854 23.9704C39.7424 23.8869 39.7188 23.7947 39.7166 23.7008C39.7143 23.6069 39.7333 23.5137 39.7723 23.4282C39.8174 23.3471 39.8803 23.2773 39.9564 23.224C40.0324 23.1708 40.1196 23.1355 40.2112 23.1209C40.4066 23.077 40.5997 22.9936 40.5756 22.6951C40.541 22.467 40.5877 22.234 40.7073 22.0367C40.7483 21.972 40.7738 21.8988 40.7818 21.8226C40.7898 21.7464 40.7801 21.6695 40.7534 21.5977C40.7257 21.5256 40.6776 21.4631 40.6151 21.4177C40.6031 21.4089 40.593 21.3977 40.5855 21.3849C40.5779 21.3721 40.5731 21.3579 40.5712 21.3431C40.5688 21.3284 40.5695 21.3134 40.5732 21.299C40.577 21.2847 40.5838 21.2712 40.5931 21.2597C40.6239 21.218 40.659 21.1763 40.7073 21.1148C41.0387 20.711 41.2823 20.3334 40.896 19.8242C40.8835 19.8087 40.8756 19.79 40.8732 19.7702C40.8709 19.7503 40.8742 19.7303 40.8829 19.7123C40.8906 19.6938 40.9033 19.6779 40.9196 19.6662C40.9359 19.6546 40.9551 19.6478 40.9751 19.6464C41.1748 19.6311 41.2758 19.5104 41.3043 19.2558C41.3031 19.2367 41.3031 19.2177 41.3043 19.1987C41.3077 19.1828 41.3144 19.1678 41.324 19.1548C41.3526 19.1206 41.3719 19.0796 41.3799 19.0357C41.388 18.9919 41.3846 18.9467 41.3701 18.9046C41.3538 18.8623 41.3236 18.8267 41.2845 18.8036C41.2685 18.7939 41.2552 18.7804 41.2456 18.7644C41.236 18.7483 41.2306 18.7301 41.2297 18.7114C41.2292 18.6931 41.2332 18.675 41.2412 18.6586C41.2492 18.6422 41.2611 18.6279 41.2758 18.617C41.3626 18.5485 41.4369 18.4653 41.4952 18.3712C41.5276 18.3342 41.5509 18.2901 41.5631 18.2424C41.5753 18.1947 41.5761 18.1449 41.5655 18.0968Z" fill="#FFFFFF"/>
</svg>
