<svg width="48" height="48" viewBox="0 0 48 48" fill="none"
  xmlns="http://www.w3.org/2000/svg">
  <path fill-rule="evenodd" clip-rule="evenodd" d="M26 10C26 11.106 25.104 12 24 12C22.896 12 22 11.106 22 10V6C22 4.894 22.896 4 24 4C25.104 4 26 4.894 26 6V10ZM26 30.9196C26 30.2056 26.382 29.5436 27.002 29.1856C28.852 28.1236 30 26.1356 30 23.9996C30 20.6916 27.308 17.9996 24 17.9996C20.692 17.9996 18 20.6916 18 23.9996C18 26.1356 19.148 28.1236 20.998 29.1856C21.618 29.5436 22 30.2056 22 30.9196V39.9996H26V30.9196ZM14 23.9996C14 18.4856 18.486 13.9996 24 13.9996C29.514 13.9996 34 18.4856 34 23.9996C34 27.1576 32.492 30.1236 30 31.9916V39.9996C30 42.2056 28.206 43.9996 26 43.9996H22C19.794 43.9996 18 42.2056 18 39.9996V31.9916C15.506 30.1236 14 27.1576 14 23.9996ZM42 22H38C36.894 22 36 22.894 36 24C36 25.106 36.894 26 38 26H42C43.106 26 44 25.106 44 24C44 22.894 43.106 22 42 22ZM6 22H10C11.104 22 12 22.894 12 24C12 25.106 11.104 26 10 26H6C4.896 26 4 25.106 4 24C4 22.894 4.896 22 6 22ZM15.3194 12.836L12.4414 10.056C11.6474 9.29 10.3834 9.314 9.6134 10.108C8.8454 10.9 8.8674 12.168 9.6614 12.936L12.5394 15.714C12.9294 16.09 13.4294 16.276 13.9294 16.276C14.4534 16.276 14.9754 16.07 15.3674 15.664C16.1354 14.872 16.1134 13.604 15.3194 12.836ZM35.5588 10.0594C36.3508 9.2934 37.6228 9.3154 38.3848 10.1074C39.1528 10.8994 39.1308 12.1674 38.3368 12.9334L35.4588 15.7134C35.0728 16.0874 34.5708 16.2754 34.0708 16.2754C33.5468 16.2754 33.0228 16.0694 32.6328 15.6634C31.8648 14.8714 31.8868 13.6034 32.6808 12.8374L35.5588 10.0594Z" fill="white"/>
</svg>
