<svg width="295" height="285" viewBox="0 0 295 285" fill="none"
  xmlns="http://www.w3.org/2000/svg">
  <path d="M88.6046 168.998C88.1142 168.998 87.6223 168.5 87.1398 168.488C86.6479 168.475 86.1653 168.289 85.6827 168.266C85.1908 168.242 84.7486 167.617 84.2676 167.581C83.7772 167.543 83.2512 168.041 82.7717 167.991C82.2814 167.941 81.76 168.186 81.2805 168.124C80.7918 168.061 80.2456 168.36 79.7692 168.285C79.282 168.208 78.8971 167.503 78.4223 167.414C77.9366 167.323 77.5239 166.924 77.0537 166.821C76.5711 166.716 76.0994 166.629 75.6339 166.513C75.1529 166.393 74.4313 167.193 73.9689 167.062C73.4926 166.924 73.0953 166.493 72.6391 166.346C72.1674 166.191 71.84 165.622 71.3916 165.456C70.9229 165.285 70.5086 165.013 70.068 164.83C69.6056 164.64 69.32 164.113 68.8871 163.909C68.434 163.695 67.7109 164.077 67.292 163.852C66.8482 163.614 66.1934 163.739 65.7899 163.49C65.3617 163.225 65.1537 162.604 64.7736 162.327C64.3608 162.028 64.502 161.096 64.1498 160.788C63.765 160.451 62.6834 160.882 62.3731 160.535C62.0286 160.15 61.5196 159.816 61.2729 159.425C60.9967 158.989 61.2822 158.222 61.1333 157.785C60.9703 157.303 60.6941 156.817 60.6941 156.34C60.6941 156.055 60.3962 155.603 60.4552 155.314C60.6119 154.792 61.6143 155.123 61.799 154.609C61.9836 154.191 61.9898 153.774 62.2862 153.36C62.5515 152.991 62.3405 152.165 62.6927 151.802C63.0124 151.472 64.1172 151.998 64.5036 151.677C64.8589 151.382 64.4182 149.993 64.8279 149.708C65.208 149.444 65.7682 149.358 66.1934 149.105C66.5937 148.867 67.1135 148.773 67.5527 148.547C67.9654 148.331 68.7956 148.975 69.2425 148.772C69.6676 148.576 69.6164 147.235 70.0695 147.05C70.504 146.875 70.9354 146.587 71.3962 146.422C71.8385 146.264 72.3148 146.096 72.7803 145.949C73.2303 145.806 73.6958 145.604 74.1644 145.471C74.6206 145.344 75.1218 145.274 75.5951 145.158C76.0544 145.046 76.8318 146.304 77.3082 146.204C77.7706 146.104 78.1259 145.483 78.6039 145.394C79.0694 145.31 79.4744 144.808 79.9538 144.733C80.4225 144.663 80.8538 144.195 81.3349 144.134C81.8066 144.075 82.4009 145.038 82.8819 144.989C83.3567 144.941 83.8207 144.828 84.3048 144.794C84.7781 144.756 85.2576 144.863 85.7417 144.841C86.2165 144.816 86.6898 144.886 87.1755 144.875C87.6518 144.863 88.1204 143.823 88.6046 143.823C89.0887 143.823 89.562 144.583 90.0383 144.595C90.5209 144.606 90.9818 144.908 91.4566 144.93C91.9392 144.955 92.445 144.464 92.9183 144.498C93.4009 144.533 93.9533 143.832 94.4265 143.881C94.9076 143.929 95.3545 144.394 95.8246 144.455C96.3057 144.516 96.6269 145.655 97.0955 145.729C97.5765 145.804 98.222 144.816 98.6906 144.903C99.1685 144.989 99.4913 145.835 99.9537 145.934C100.43 146.035 101.048 145.469 101.507 145.582C101.979 145.699 102.193 146.756 102.647 146.883C103.118 147.016 103.703 146.669 104.153 146.811C104.618 146.958 105.2 146.73 105.644 146.888C106.106 147.055 106.322 147.83 106.758 148.007C107.214 148.192 107.563 148.534 107.99 148.73C108.438 148.934 109.107 148.608 109.523 148.825C109.961 149.052 110.448 149.161 110.848 149.402C111.275 149.655 111.936 149.549 112.316 149.812C112.727 150.098 112.451 151.269 112.806 151.564C113.194 151.885 114.437 151.244 114.757 151.574C115.109 151.937 114.74 152.936 115.005 153.305C115.302 153.718 115.736 154.008 115.921 154.424C116.104 154.939 115.977 154.979 116.133 155.503C116.192 155.791 116.138 156.055 116.138 156.34C116.138 156.818 116.385 157.358 116.22 157.839C116.071 158.28 115.325 158.424 115.047 158.864C114.799 159.254 114.364 159.416 114.018 159.8C113.71 160.147 113.658 160.707 113.272 161.045C112.921 161.353 112.536 161.603 112.125 161.902C111.744 162.179 111.556 162.755 111.126 163.021C110.724 163.27 110.196 163.315 109.753 163.553C109.335 163.777 109.05 164.291 108.598 164.505C108.168 164.707 107.735 164.946 107.275 165.137C106.834 165.32 106.533 165.938 106.066 166.108C105.616 166.274 105.025 166.097 104.551 166.249C104.095 166.397 103.713 166.871 103.237 167.009C102.775 167.14 102.036 166.266 101.557 166.386C101.09 166.504 100.801 167.42 100.317 167.526C99.8466 167.628 99.2647 167.228 98.7791 167.318C98.3058 167.406 97.938 168.191 97.4508 168.267C96.9744 168.342 96.3988 167.825 95.91 167.887C95.4321 167.95 94.9681 168.2 94.4778 168.249C93.9967 168.3 93.5281 168.646 93.0362 168.683C92.5536 168.719 92.0028 167.717 91.5109 167.742C91.0268 167.765 90.5644 168.339 90.0725 168.352C89.5868 168.364 89.098 168.998 88.6046 168.998ZM88.5968 69.6903C89.3199 69.6809 88.9801 70.985 89.2051 71.6777C89.4301 72.3704 89.2718 72.422 89.4968 73.1162C89.7202 73.8105 89.1601 73.995 89.3851 74.6893C89.6101 75.382 90.1206 75.2131 90.3456 75.9074C90.5706 76.6 90.8561 76.5062 91.0795 77.1989C91.3045 77.8916 91.6568 77.7759 91.8818 78.4686C92.1052 79.1613 91.5109 79.3583 91.7359 80.0495C91.9609 80.7437 91.6692 80.8391 91.8926 81.5318C92.1176 82.2261 92.1393 82.2182 92.3643 82.9109C92.5893 83.6052 93.4955 83.3065 93.719 84.0008C93.944 84.6935 93.6647 84.7873 93.8897 85.48C94.1131 86.1711 93.7066 86.3056 93.93 86.9999C94.155 87.691 94.0572 87.7223 94.2822 88.415C94.5057 89.1045 94.1612 89.2187 94.3847 89.9098C94.6096 90.601 95.2365 90.393 95.46 91.0857C95.685 91.7753 96.0962 91.6392 96.3196 92.3319C96.5446 93.0215 96.166 93.1466 96.391 93.8377C96.6144 94.5288 95.8417 94.7837 96.0651 95.4748C96.2901 96.1675 97.3003 95.8345 97.5253 96.5272C97.7487 97.2214 97.9411 97.1573 98.1661 97.85C98.3911 98.5443 97.8263 98.7304 98.0513 99.4262C98.2763 100.119 98.4594 100.058 98.6844 100.752C98.9094 101.445 99.2508 101.334 99.4758 102.025C99.6992 102.718 98.6922 103.049 98.9172 103.742C99.1422 104.435 99.3423 104.367 99.5673 105.06C99.7923 105.753 100.452 105.535 100.677 106.228C100.902 106.922 99.828 107.276 100.053 107.97C100.278 108.664 101.58 108.237 101.805 108.932C102.03 109.624 101.813 109.696 102.038 110.39C102.263 111.083 102.1 111.136 102.325 111.829C102.55 112.525 101.659 112.817 101.882 113.512C102.109 114.206 103.293 113.816 103.518 114.511C103.743 115.207 103.852 115.169 104.077 115.865C104.302 116.559 104.306 116.558 104.531 117.25C104.756 117.946 104.814 117.927 105.039 118.62C105.265 119.317 105.208 119.335 105.433 120.03C105.658 120.725 104.336 121.159 104.561 121.855C104.786 122.551 105.295 122.382 105.521 123.078C105.745 123.769 106.148 123.638 106.373 124.33C106.598 125.025 106.977 124.901 107.203 125.595C107.428 126.29 106.46 126.609 106.685 127.301C106.91 127.996 106.978 127.974 107.203 128.668C107.43 129.364 107.301 129.406 107.528 130.102C107.753 130.796 107.67 130.824 107.895 131.518C108.12 132.216 109.096 131.894 109.323 132.591C109.548 133.287 108.837 133.522 109.064 134.219C109.289 134.913 109.02 135.002 109.245 135.698C109.472 136.394 109.964 136.233 110.19 136.929C110.417 137.628 111.121 137.396 111.348 138.095C111.574 138.794 111.418 138.983 111.429 139.718C110.994 139.529 110.496 138.646 110.044 138.469C109.602 138.294 108.774 139.135 108.316 138.972C107.869 138.813 107.655 137.933 107.194 137.784C106.741 137.639 106.081 138.158 105.616 138.023C105.158 137.89 104.942 136.829 104.474 136.707C104.015 136.586 103.419 136.958 102.948 136.849C102.485 136.743 101.931 137.037 101.457 136.94C100.99 136.846 100.633 136.116 100.157 136.031C99.6884 135.948 99.2306 135.693 98.7511 135.622C98.2794 135.548 97.7162 136.064 97.2367 136.001C96.765 135.94 96.2731 136.025 95.7936 135.975C95.3203 135.925 94.8067 136.325 94.3257 136.285C93.8493 136.245 93.449 135.109 92.9648 135.079C92.49 135.049 91.9454 136.342 91.4644 136.324C90.9864 136.303 90.538 135.356 90.0539 135.346C89.5744 135.337 89.0887 135.565 88.6046 135.565C88.122 135.565 87.6394 135.437 87.163 135.448C86.6805 135.457 86.1948 135.382 85.7184 135.403C85.2358 135.421 84.7734 135.789 84.297 135.817C83.816 135.848 83.29 135.268 82.8136 135.307C82.3326 135.348 81.819 135.148 81.3442 135.198C80.8631 135.248 80.4178 135.67 79.943 135.731C79.4635 135.792 78.9732 135.817 78.5014 135.889C78.022 135.962 77.6046 136.413 77.1344 136.496C76.658 136.58 76.1429 136.45 75.6758 136.544C75.2025 136.641 74.8006 137.068 74.3382 137.174C73.865 137.285 73.4134 137.44 72.9526 137.56C72.4824 137.682 72.1503 138.255 71.6926 138.388C71.2271 138.522 70.6778 138.311 70.2247 138.458C69.7638 138.605 69.4302 139.079 68.9818 139.24C68.5271 139.401 67.7218 138.599 67.2811 138.772C66.8296 138.949 66.1499 139.529 65.7154 139.718C65.7248 138.99 66.4385 139.065 66.6635 138.372C66.8885 137.679 66.2166 137.459 66.4416 136.766C66.6666 136.07 67.2284 136.256 67.4533 135.562C67.6783 134.869 67.4937 134.808 67.7187 134.114C67.9437 133.421 67.6566 133.328 67.8816 132.633C68.1066 131.942 69.0826 132.263 69.3076 131.57C69.5311 130.877 69.0081 130.705 69.2331 130.011C69.4581 129.32 69.7809 129.425 70.0043 128.732C70.2293 128.041 69.4395 127.78 69.6645 127.086C69.8895 126.393 70.7554 126.679 70.9804 125.983C71.2054 125.29 70.9819 125.217 71.2069 124.524C71.4319 123.832 70.698 123.591 70.9229 122.898C71.1479 122.205 72.3319 122.596 72.5569 121.905C72.7803 121.212 71.8943 120.922 72.1193 120.231C72.3428 119.539 73.1589 119.808 73.3824 119.119C73.6074 118.426 72.9681 118.217 73.1931 117.525C73.4165 116.836 73.235 116.776 73.46 116.084C73.6834 115.393 74.0186 115.504 74.2436 114.812C74.467 114.118 73.7129 113.871 73.9363 113.178C74.1613 112.484 74.1474 112.48 74.3724 111.787C74.5974 111.093 75.1172 111.263 75.3422 110.569C75.5672 109.874 75.5703 109.876 75.7953 109.183C76.0187 108.491 76.4439 108.631 76.6689 107.937C76.8939 107.246 77.0103 107.284 77.2353 106.592C77.4587 105.898 77.108 105.782 77.333 105.091C77.558 104.399 77.0413 104.228 77.2647 103.535C77.4897 102.84 78.3897 103.137 78.6147 102.444C78.8397 101.748 78.4565 101.622 78.6814 100.927C78.9064 100.233 79.088 100.294 79.313 99.5997C79.538 98.907 79.4728 98.8852 79.6978 98.1925C79.9228 97.4982 79.9306 97.4998 80.1556 96.8071C80.3821 96.1128 80.1214 96.0268 80.3464 95.3325C80.5714 94.6367 80.3464 94.5632 80.5714 93.869C80.7964 93.1747 81.4217 93.3811 81.6467 92.6853C81.8717 91.991 82.1681 92.088 82.3931 91.3937C82.6181 90.6995 82.0781 90.5212 82.3031 89.8254C82.5281 89.1327 83.1984 89.3516 83.425 88.6573C83.65 87.9631 83.2791 87.8411 83.5057 87.1453C83.7291 86.4526 83.5196 86.3838 83.7446 85.6927C83.9696 84.9953 84.0534 85.0234 84.2784 84.3292C84.5034 83.6349 84.0938 83.4989 84.3188 82.8062C84.5438 82.1119 85.3258 82.3699 85.5508 81.6741C85.7758 80.9783 85.2607 80.8094 85.4857 80.112C85.7122 79.4177 85.945 79.4959 86.1715 78.7985C86.3965 78.1043 86.2243 78.0464 86.4493 77.3522C86.6758 76.6532 86.8574 76.7126 87.0839 76.0168C87.3089 75.321 87.4749 75.3757 87.6999 74.6814C87.9265 73.9825 87.4191 73.8167 87.6456 73.1209C87.8722 72.4204 87.3942 72.4376 87.4299 71.7027C87.4858 70.5675 87.866 69.6997 88.5968 69.6903ZM206.047 168.998C205.556 168.998 205.064 168.5 204.582 168.488C204.09 168.475 203.607 168.289 203.125 168.266C202.633 168.242 202.191 167.617 201.71 167.581C201.218 167.543 200.693 168.041 200.214 167.991C199.723 167.941 199.202 168.186 198.723 168.124C198.234 168.061 197.688 168.36 197.211 168.285C196.722 168.208 196.339 167.503 195.866 167.414C195.38 167.323 194.966 166.924 194.496 166.821C194.012 166.716 193.541 166.629 193.074 166.513C192.595 166.393 191.873 167.193 191.411 167.062C190.935 166.924 190.536 166.493 190.081 166.346C189.608 166.191 189.282 165.622 188.832 165.456C188.365 165.285 187.951 165.013 187.51 164.83C187.048 164.64 186.76 164.113 186.329 163.909C185.876 163.695 185.153 164.077 184.734 163.852C184.29 163.614 183.634 163.739 183.232 163.49C182.802 163.225 182.596 162.604 182.214 162.327C181.803 162.028 181.942 161.096 181.59 160.788C181.205 160.451 180.125 160.882 179.815 160.535C179.471 160.15 178.962 159.816 178.715 159.425C178.439 158.989 178.724 158.222 178.575 157.785C178.412 157.303 178.136 156.817 178.136 156.34C178.136 156.055 177.838 155.603 177.897 155.314C178.054 154.792 179.056 155.123 179.241 154.609C179.426 154.191 179.43 153.774 179.728 153.36C179.993 152.991 179.782 152.165 180.135 151.802C180.454 151.472 181.558 151.998 181.946 151.677C182.301 151.382 181.86 149.993 182.27 149.708C182.65 149.444 183.209 149.358 183.635 149.105C184.036 148.867 184.555 148.773 184.993 148.547C185.407 148.331 186.238 148.975 186.684 148.772C187.11 148.576 187.057 147.235 187.511 147.05C187.946 146.875 188.377 146.587 188.837 146.422C189.28 146.264 189.757 146.096 190.222 145.949C190.671 145.806 191.138 145.604 191.606 145.471C192.061 145.344 192.564 145.274 193.036 145.158C193.496 145.046 194.274 146.304 194.749 146.204C195.213 146.104 195.568 145.483 196.046 145.394C196.511 145.31 196.915 144.808 197.394 144.733C197.864 144.663 198.296 144.195 198.777 144.134C199.249 144.075 199.843 145.038 200.324 144.989C200.797 144.941 201.263 144.828 201.745 144.794C202.22 144.756 202.7 144.863 203.182 144.841C203.658 144.816 204.132 144.886 204.616 144.875C205.094 144.863 205.562 143.823 206.047 143.823C206.531 143.823 207.004 144.583 207.479 144.595C207.963 144.606 208.424 144.908 208.899 144.93C209.381 144.955 209.885 144.464 210.36 144.498C210.843 144.533 211.395 143.832 211.869 143.881C212.351 143.929 212.795 144.394 213.267 144.455C213.748 144.516 214.067 145.655 214.537 145.729C215.018 145.804 215.664 144.816 216.131 144.903C216.611 144.989 216.933 145.835 217.396 145.934C217.872 146.035 218.49 145.469 218.947 145.582C219.421 145.699 219.635 146.756 220.088 146.883C220.558 147.016 221.145 146.669 221.595 146.811C222.06 146.958 222.642 146.73 223.086 146.888C223.548 147.055 223.764 147.83 224.2 148.007C224.655 148.192 225.005 148.534 225.432 148.73C225.879 148.934 226.549 148.608 226.965 148.825C227.403 149.052 227.89 149.161 228.29 149.402C228.715 149.655 229.378 149.549 229.758 149.812C230.168 150.098 229.893 151.269 230.248 151.564C230.635 151.885 231.879 151.244 232.199 151.574C232.551 151.937 232.182 152.936 232.447 153.305C232.744 153.718 233.178 154.008 233.363 154.424C233.546 154.939 233.419 154.979 233.574 155.503C233.633 155.791 233.58 156.055 233.58 156.34C233.58 156.818 233.825 157.358 233.662 157.839C233.513 158.28 232.765 158.424 232.489 158.864C232.241 159.254 231.805 159.416 231.46 159.8C231.15 160.147 231.1 160.707 230.714 161.045C230.362 161.353 229.978 161.603 229.567 161.902C229.185 162.179 228.998 162.755 228.568 163.021C228.166 163.27 227.638 163.315 227.195 163.553C226.777 163.777 226.492 164.291 226.04 164.505C225.61 164.707 225.176 164.946 224.717 165.137C224.276 165.32 223.973 165.938 223.506 166.108C223.058 166.274 222.465 166.097 221.993 166.249C221.537 166.397 221.155 166.871 220.679 167.009C220.217 167.14 219.478 166.266 218.999 166.386C218.532 166.504 218.241 167.42 217.759 167.526C217.289 167.628 216.707 167.228 216.221 167.318C215.748 167.406 215.378 168.191 214.891 168.267C214.415 168.342 213.841 167.825 213.353 167.887C212.874 167.95 212.41 168.2 211.92 168.249C211.439 168.3 210.969 168.646 210.478 168.683C209.994 168.719 209.443 167.717 208.953 167.742C208.469 167.765 208.006 168.339 207.513 168.352C207.029 168.364 206.538 168.998 206.047 168.998ZM229.189 139.712C228.754 139.523 227.607 139.499 227.156 139.321C226.714 139.146 226.324 138.822 225.868 138.66C225.42 138.5 225.145 137.779 224.684 137.631C224.231 137.485 223.607 137.861 223.143 137.726C222.685 137.593 222.147 137.759 221.678 137.637C221.218 137.518 220.676 137.77 220.206 137.662C219.742 137.556 219.411 136.84 218.938 136.741C218.471 136.647 218.052 136.253 217.576 136.169C217.106 136.084 216.621 136.028 216.143 135.955C215.672 135.883 215.068 136.768 214.589 136.707C214.117 136.646 213.687 136.295 213.208 136.245C212.733 136.194 212.298 135.72 211.817 135.678C211.341 135.639 210.866 135.501 210.382 135.473C209.907 135.443 209.44 135.052 208.958 135.032C208.48 135.013 207.974 135.664 207.49 135.654C207.01 135.643 206.531 136.075 206.047 136.075C205.564 136.075 205.086 135.679 204.61 135.689C204.127 135.698 203.617 134.893 203.14 134.913C202.658 134.934 202.229 136.026 201.753 136.056C201.27 136.086 200.817 136.324 200.342 136.363C199.86 136.402 199.334 135.851 198.859 135.901C198.378 135.951 197.926 136.2 197.453 136.261C196.972 136.324 196.555 136.749 196.083 136.821C195.604 136.893 194.96 135.917 194.489 136C194.013 136.084 193.572 136.388 193.105 136.482C192.632 136.578 192.309 137.363 191.847 137.47C191.374 137.578 190.637 136.586 190.176 136.707C189.707 136.829 189.602 138.288 189.144 138.419C188.678 138.555 188.169 138.47 187.718 138.614C187.255 138.763 186.756 138.75 186.309 138.91C185.853 139.072 185.069 138.358 184.628 138.531C184.178 138.71 183.421 139.526 182.988 139.715C182.998 138.988 183.131 138.819 183.356 138.126C183.581 137.432 183.576 137.432 183.801 136.738C184.026 136.044 183.969 136.025 184.194 135.332C184.419 134.638 184.476 134.657 184.701 133.964C184.925 133.27 186.248 133.706 186.473 133.013C186.698 132.321 186.188 132.153 186.413 131.459C186.638 130.768 186.234 130.635 186.459 129.941C186.684 129.248 186.304 129.123 186.529 128.432C186.754 127.738 187.721 128.055 187.946 127.362C188.171 126.67 188.103 126.646 188.328 125.953C188.553 125.259 188.681 125.303 188.906 124.609C189.13 123.916 189.212 123.944 189.437 123.251C189.662 122.56 188.686 122.238 188.911 121.546C189.135 120.856 189.845 121.089 190.07 120.398C190.294 119.708 190.562 119.796 190.786 119.105C191.011 118.414 190.517 118.253 190.742 117.56C190.966 116.87 190.261 116.639 190.485 115.946C190.71 115.257 191.097 115.383 191.322 114.694C191.546 113.999 192.57 114.337 192.795 113.646C193.02 112.952 192.001 112.616 192.226 111.923C192.451 111.229 193.174 111.466 193.399 110.772C193.624 110.078 192.972 109.864 193.197 109.169C193.422 108.478 194.336 108.778 194.561 108.086C194.786 107.395 194.313 107.238 194.538 106.545C194.761 105.853 194.379 105.728 194.606 105.035C194.829 104.342 195.442 104.544 195.667 103.851C195.892 103.157 196.058 103.212 196.283 102.518C196.508 101.823 195.954 101.64 196.179 100.946C196.404 100.252 196.271 100.208 196.496 99.5138C196.721 98.8211 196.297 98.6819 196.522 97.9892C196.747 97.2949 197.79 97.6374 198.015 96.9447C198.24 96.2504 196.997 95.8407 197.222 95.1465C197.447 94.4507 198.325 94.7399 198.55 94.0457C198.775 93.3514 198.556 93.2795 198.781 92.5852C199.006 91.8894 199.131 91.9316 199.357 91.2374C199.582 90.5415 199.666 90.5697 199.891 89.8738C200.116 89.1796 199.793 89.0733 200.02 88.379C200.245 87.6832 200.825 87.874 201.05 87.1797C201.275 86.487 201.509 86.5636 201.734 85.8725C201.959 85.1782 201.615 85.0625 201.84 84.3682C202.065 83.674 202.105 83.6865 202.33 82.9938C202.555 82.2995 202.2 82.1823 202.425 81.488C202.651 80.7922 202.862 80.8625 203.087 80.1652C203.314 79.4709 202.999 79.3677 203.224 78.6719C203.451 77.9761 203.409 77.962 203.634 77.2662C203.86 76.5703 203.421 76.4249 203.648 75.7291C203.873 75.0317 204.214 75.1459 204.441 74.4485C204.666 73.7526 204.343 73.6463 204.569 72.9489C204.796 72.25 205.773 72.5721 206 71.8731C206.227 71.1742 205.311 69.9545 206.042 69.9452C206.765 69.9358 206.166 71.0694 206.391 71.7605C206.614 72.4548 207.286 72.2343 207.51 72.9286C207.735 73.6213 207.175 73.8058 207.4 74.4985C207.625 75.1943 207.808 75.1333 208.033 75.826C208.258 76.5187 208.545 76.4249 208.77 77.1176C208.993 77.8119 208.017 78.1324 208.242 78.8251C208.467 79.5178 208.99 79.3458 209.215 80.0369C209.44 80.7312 209.117 80.8375 209.342 81.5302C209.566 82.2229 210.356 81.9634 210.581 82.656C210.804 83.3503 209.94 83.6349 210.165 84.3292C210.39 85.0219 210.613 84.9484 210.837 85.6411C211.062 86.3353 211.796 86.093 212.019 86.7857C212.244 87.4768 211.06 87.8677 211.284 88.5604C211.507 89.25 212.393 88.9576 212.616 89.6503C212.84 90.3398 212.025 90.6088 212.249 91.3015C212.474 91.991 213.111 91.7799 213.335 92.4726C213.558 93.1622 213.741 93.1028 213.965 93.7939C214.188 94.4866 213.853 94.5961 214.078 95.2872C214.302 95.9799 215.057 95.7313 215.282 96.4224C215.507 97.1167 215.521 97.1104 215.746 97.8047C215.971 98.4989 215.453 98.6694 215.678 99.3652C215.903 100.058 215.898 100.059 216.123 100.752C216.348 101.446 215.923 101.586 216.148 102.278C216.373 102.969 216.255 103.01 216.48 103.701C216.704 104.395 217.056 104.278 217.279 104.971C217.504 105.664 218.021 105.495 218.246 106.186C218.471 106.88 217.571 107.177 217.796 107.87C218.021 108.566 218.404 108.439 218.629 109.135C218.854 109.828 218.674 109.887 218.899 110.581C219.124 111.274 219.188 111.252 219.413 111.948C219.638 112.641 219.63 112.642 219.855 113.336C220.08 114.032 220.339 113.946 220.564 114.64C220.791 115.336 221.016 115.261 221.241 115.956C221.466 116.648 220.842 116.855 221.067 117.549C221.292 118.243 220.996 118.342 221.221 119.036C221.447 119.73 221.986 119.553 222.212 120.248C222.437 120.944 221.767 121.164 221.992 121.858C222.217 122.554 222.588 122.432 222.813 123.126C223.038 123.819 223.247 123.75 223.472 124.443C223.697 125.137 223.613 125.165 223.838 125.861C224.063 126.554 224.475 126.421 224.7 127.114C224.925 127.808 224.142 128.064 224.367 128.759C224.594 129.454 225.109 129.286 225.334 129.981C225.561 130.676 225.326 130.754 225.551 131.448C225.776 132.146 225.95 132.089 226.175 132.783C226.402 133.481 226.22 133.54 226.447 134.238C226.672 134.934 226.506 134.988 226.731 135.682C226.957 136.381 227.463 136.214 227.69 136.91C227.916 137.61 228.225 137.301 228.666 137.887C229.218 138.619 229.178 138.979 229.189 139.712ZM185.864 197.17C186.517 197.509 186.12 198.261 186.545 198.866C186.97 199.47 186.833 199.567 187.257 200.172C187.682 200.776 187.2 201.12 187.625 201.725C188.05 202.33 188.487 202.017 188.914 202.624C189.338 203.231 189.585 203.054 190.01 203.661C190.433 204.266 190.736 204.05 191.161 204.657C191.585 205.26 191.074 205.626 191.499 206.231C191.925 206.836 191.675 207.015 192.1 207.621C192.525 208.228 192.544 208.214 192.969 208.821C193.391 209.424 194.17 208.869 194.593 209.471C195.017 210.076 194.775 210.247 195.2 210.852C195.625 211.457 195.275 211.707 195.701 212.314C196.125 212.92 196.043 212.978 196.468 213.585C196.893 214.189 196.595 214.401 197.02 215.006C197.447 215.613 197.985 215.228 198.412 215.837C198.839 216.443 199.191 216.192 199.616 216.797C200.043 217.405 199.719 217.635 200.144 218.243C200.569 218.848 199.905 219.322 200.329 219.926C200.755 220.534 201.623 219.915 202.049 220.523C202.476 221.133 202.642 221.015 203.069 221.624C203.497 222.234 203.011 222.581 203.44 223.191C203.869 223.8 204.801 223.843 204.472 224.513C204.149 225.172 203.558 224.993 202.828 224.993C202.101 224.993 202.101 223.924 201.373 223.924C200.644 223.924 200.644 224.138 199.916 224.138C199.188 224.138 199.188 224.839 198.459 224.839C197.729 224.839 197.729 223.699 197 223.699C196.272 223.699 196.272 225.079 195.543 225.079C194.814 225.079 194.814 224.85 194.084 224.85C193.354 224.85 193.354 224.676 192.624 224.676C191.893 224.676 191.893 223.732 191.163 223.732C190.433 223.732 190.433 224.987 189.702 224.987C188.973 224.987 188.973 225.101 188.242 225.101C187.515 225.101 187.515 225.108 186.784 225.108C186.054 225.108 186.054 225.167 185.327 225.167C184.597 225.167 184.597 225.108 183.868 225.108C183.139 225.108 183.139 223.703 182.411 223.703C181.682 223.703 181.682 224.244 180.952 224.244C180.223 224.244 180.223 224.671 179.495 224.671C178.765 224.671 178.765 225.073 178.037 225.073C177.307 225.073 177.308 224.049 176.578 224.049C175.849 224.049 175.849 224.121 175.118 224.121C174.389 224.121 174.389 223.985 173.658 223.985C172.929 223.985 172.929 223.896 172.198 223.896C171.467 223.896 171.467 224.931 170.736 224.931C170.005 224.931 170.005 224.177 169.276 224.177C168.547 224.177 168.547 223.893 167.817 223.893C167.088 223.893 167.088 224.415 166.357 224.415C165.628 224.415 165.628 225.162 164.899 225.162C164.169 225.162 164.169 224.749 163.44 224.749C162.711 224.749 162.711 223.664 161.981 223.664C161.251 223.664 161.251 224.743 160.521 224.743C159.79 224.743 159.79 223.979 159.06 223.979C158.33 223.979 158.33 224.67 157.598 224.67C156.869 224.67 156.869 223.699 156.136 223.699C155.407 223.699 155.407 224.201 154.678 224.201C153.947 224.201 153.947 224.606 153.217 224.606C152.487 224.606 152.487 223.955 151.757 223.955C151.028 223.955 151.028 223.778 150.297 223.778C149.568 223.778 149.568 224.366 148.837 224.366C148.106 224.366 148.106 224.509 147.375 224.509C146.644 224.509 146.644 224.956 145.914 224.956C145.183 224.956 145.183 223.85 144.453 223.85C143.724 223.85 143.724 225.17 142.995 225.17C142.267 225.17 142.267 224.237 141.539 224.237C140.812 224.237 140.812 224.471 140.084 224.471C139.356 224.471 139.356 224.34 138.628 224.34C137.901 224.34 137.901 224.249 137.173 224.249C136.443 224.249 136.443 224.592 135.716 224.592C134.986 224.592 134.986 223.975 134.257 223.975C133.526 223.975 133.526 223.727 132.795 223.727C132.065 223.727 132.065 224.093 131.332 224.093C130.601 224.093 130.601 224.051 129.87 224.051C129.141 224.051 129.141 224.426 128.412 224.426C127.683 224.426 127.683 224.204 126.953 224.204C126.224 224.204 126.224 224.537 125.493 224.537C124.764 224.537 124.764 224.581 124.035 224.581C123.302 224.581 123.302 225.045 122.571 225.045C121.839 225.045 121.839 224.682 121.108 224.682C120.377 224.682 120.377 225.025 119.646 225.025C118.915 225.025 118.915 223.99 118.185 223.99C117.454 223.99 117.454 224.815 116.724 224.815C115.992 224.815 115.992 224.309 115.26 224.309C114.529 224.309 114.529 225.018 113.796 225.018C113.066 225.018 113.066 224.424 112.333 224.424C111.602 224.424 111.602 224.62 110.871 224.62C110.138 224.62 110.138 224.925 109.405 224.925C108.674 224.925 108.674 223.888 107.942 223.888C107.209 223.888 107.209 224.443 106.477 224.443C105.745 224.443 105.745 224.101 105.014 224.101C104.281 224.101 104.281 224.937 103.547 224.937C102.818 224.937 102.818 224.019 102.086 224.019C101.356 224.019 101.356 224.257 100.626 224.257C99.8916 224.257 99.8916 225.034 99.1592 225.034C98.4268 225.034 98.4268 223.778 97.6944 223.778C96.962 223.778 96.962 224.717 96.2296 224.717C95.4941 224.717 95.4941 223.852 94.7617 223.852C94.0278 223.852 94.0278 224.529 93.2954 224.529C92.5614 224.529 92.5614 224.721 91.8259 224.721C91.0904 224.721 91.0904 224.365 90.3549 224.365C89.6194 224.365 88.5658 225.422 88.226 224.764C87.8892 224.105 88.6915 223.375 89.1166 222.771C89.5402 222.166 89.9871 222.484 90.4107 221.879C90.8344 221.275 90.8375 221.277 91.2626 220.671C91.6878 220.066 92.0524 220.326 92.4776 219.719C92.9028 219.114 93.0036 219.186 93.4288 218.581C93.8524 217.974 93.5514 217.762 93.9766 217.155C94.4017 216.55 93.9579 216.234 94.3831 215.627C94.8083 215.022 95.581 215.572 96.0062 214.964C96.4313 214.361 96.1024 214.124 96.5275 213.521C96.9496 212.917 97.1063 213.027 97.5284 212.423C97.952 211.821 97.8977 211.781 98.3213 211.179C98.7465 210.57 98.7542 210.575 99.1794 209.968C99.6046 209.363 99.3811 209.205 99.8063 208.599C100.231 207.993 100.037 207.856 100.463 207.251C100.889 206.642 101.425 207.024 101.851 206.417C102.277 205.811 102.531 205.992 102.956 205.385C103.381 204.779 102.919 204.449 103.346 203.84C103.769 203.235 104.345 203.646 104.769 203.041C105.195 202.435 104.879 202.208 105.306 201.601C105.732 200.991 105.552 200.863 105.979 200.253C106.407 199.644 106.48 199.695 106.907 199.084C107.337 198.474 106.837 197.884 107.495 197.54C108.151 197.196 108.341 198.343 109.079 198.343C109.819 198.343 109.819 197.795 110.56 197.795C111.298 197.795 111.298 198.042 112.037 198.042C112.775 198.042 112.775 197.861 113.512 197.861C114.251 197.861 114.251 198.053 114.99 198.053C115.73 198.053 115.73 198.228 116.47 198.228C117.209 198.228 117.209 197.692 117.949 197.692C118.687 197.692 118.687 197.02 119.426 197.02C120.166 197.02 120.166 198.114 120.905 198.114C121.645 198.114 121.645 198.468 122.387 198.468C123.125 198.468 123.125 198.486 123.864 198.486C124.606 198.486 124.606 197.048 125.346 197.048C126.084 197.048 126.084 198.302 126.824 198.302C127.565 198.302 127.565 198.02 128.305 198.02C129.043 198.02 129.043 197.805 129.782 197.805C130.521 197.805 130.521 198.479 131.259 198.479C132.001 198.479 132.001 197.631 132.741 197.631C133.481 197.631 133.481 197.659 134.22 197.659C134.962 197.659 134.962 197.831 135.703 197.831C136.445 197.831 136.445 198.421 137.185 198.421C137.927 198.421 137.927 197.972 138.667 197.972C139.409 197.972 139.409 197.802 140.152 197.802C140.895 197.802 140.895 197.309 141.639 197.309C142.382 197.309 142.838 196.965 143.376 197.481C143.889 197.97 142.813 198.458 142.813 199.17C142.813 199.88 142.47 199.88 142.47 200.588C142.47 201.299 143.651 201.299 143.651 202.009C143.651 202.721 143.761 202.721 143.761 203.432C143.761 204.144 142.92 204.144 142.92 204.854C142.92 205.567 143.221 205.567 143.221 206.278C143.221 206.991 143.729 206.991 143.729 207.704C143.729 208.417 143.76 208.417 143.76 209.13C143.76 209.607 142.985 210.136 143.124 210.564C143.268 211.01 143.378 211.584 143.645 211.956C143.916 212.328 144.303 212.781 144.674 213.053C145.041 213.322 145.572 213.599 146.014 213.745C146.44 213.884 147.029 214.253 147.502 214.253C147.974 214.253 148.508 213.716 148.935 213.576C149.377 213.432 150.098 213.512 150.466 213.241C150.837 212.969 150.705 212.048 150.975 211.674C151.242 211.304 151.85 211.047 151.995 210.602C152.131 210.173 151.261 209.607 151.261 209.13C151.261 208.42 152.319 208.42 152.319 207.709C152.319 207 152.545 207 152.545 206.291C152.545 205.581 151.312 205.581 151.312 204.868C151.312 204.156 151.422 204.156 151.422 203.445C151.422 202.735 152.398 202.735 152.398 202.025C152.398 201.313 152.145 201.313 152.145 200.6C152.145 199.887 151.582 199.887 151.582 199.174C151.582 198.461 151.197 198.066 151.708 197.569C152.232 197.056 152.611 197.434 153.341 197.434C154.072 197.434 154.072 198.463 154.803 198.463C155.534 198.463 155.534 197.192 156.265 197.192C156.994 197.192 156.994 198.471 157.725 198.471C158.457 198.471 158.457 198.465 159.19 198.465C159.921 198.465 159.921 198.246 160.653 198.246C161.384 198.246 161.384 197.737 162.116 197.737C162.847 197.737 162.847 197.501 163.578 197.501C164.312 197.501 164.312 197.045 165.044 197.045C165.775 197.045 165.775 198.02 166.508 198.02C167.24 198.02 167.24 197.084 167.972 197.084C168.705 197.084 168.705 197.114 169.437 197.114C170.168 197.114 170.168 197.752 170.902 197.752C171.633 197.752 171.633 198.436 172.364 198.436C173.095 198.436 173.095 197.548 173.824 197.548C174.558 197.548 174.558 197.808 175.292 197.808C176.023 197.808 176.023 197.867 176.755 197.867C177.489 197.867 177.489 198.482 178.221 198.482C178.955 198.482 178.955 198.472 179.689 198.472C180.422 198.472 180.422 198.338 181.154 198.338C181.89 198.338 181.89 197.078 182.624 197.078C183.359 197.078 183.28 197.648 183.974 197.403C184.892 197.076 185.21 196.829 185.864 197.17ZM170.238 156.34C170.238 156.843 169.777 157.322 169.833 157.813C169.887 158.308 169.807 158.818 169.917 159.303C170.028 159.786 169.608 160.463 169.772 160.934C169.934 161.401 170.631 161.688 170.845 162.139C171.053 162.585 171.546 162.873 171.802 163.304C172.052 163.727 172.612 163.902 172.907 164.31C173.194 164.707 172.995 165.468 173.321 165.85C173.638 166.222 173.757 166.805 174.111 167.162C174.455 167.509 174.847 167.847 175.224 168.18C175.59 168.503 176.567 168.07 176.965 168.378C177.349 168.68 177.551 169.196 177.964 169.484C178.366 169.761 178.538 170.392 178.965 170.658C179.379 170.916 179.759 171.257 180.197 171.503C180.622 171.742 180.903 172.303 181.351 172.53C181.786 172.749 182.523 172.366 182.979 172.574C183.423 172.775 184.036 172.566 184.498 172.757C184.95 172.941 185.255 173.492 185.722 173.665C186.182 173.836 186.386 174.775 186.86 174.935C187.324 175.09 188.117 174.219 188.595 174.362C189.063 174.503 189.578 174.438 190.059 174.567C190.533 174.694 190.857 175.393 191.341 175.509C191.817 175.621 192.339 175.54 192.826 175.642C193.306 175.742 193.85 175.48 194.341 175.57C194.823 175.659 195.132 176.794 195.625 176.872C196.109 176.947 196.639 176.808 197.132 176.874C197.618 176.938 198.19 176.303 198.684 176.356C199.173 176.409 199.559 177.591 200.054 177.634C200.544 177.676 201.139 176.336 201.637 176.369C202.127 176.398 202.597 176.655 203.095 176.675C203.586 176.697 204.068 176.885 204.566 176.896C205.058 176.905 205.548 177.854 206.047 177.854C206.545 177.854 207.027 176.594 207.519 176.584C208.017 176.573 208.495 176.444 208.985 176.423C209.482 176.401 209.961 176.372 210.452 176.34C210.948 176.309 211.422 176.212 211.91 176.172C212.407 176.129 212.888 176.142 213.377 176.089C213.872 176.036 214.527 177.369 215.014 177.304C215.507 177.24 215.931 176.633 216.415 176.556C216.907 176.478 217.321 175.975 217.804 175.887C218.294 175.798 218.69 175.31 219.171 175.21C219.658 175.107 220.358 176.001 220.834 175.887C221.32 175.771 221.792 175.577 222.263 175.451C222.746 175.321 223.269 175.315 223.737 175.172C224.217 175.029 224.729 174.96 225.193 174.805C225.666 174.645 225.795 173.506 226.253 173.334C226.721 173.16 227.449 173.684 227.902 173.499C228.365 173.309 228.942 173.366 229.387 173.165C229.842 172.957 230.075 172.267 230.512 172.047C230.959 171.822 231.035 170.935 231.46 170.697C231.899 170.453 232.511 170.569 232.925 170.311C233.35 170.045 234.364 170.677 234.764 170.399C235.177 170.111 234.953 168.938 235.338 168.638C235.734 168.327 236.601 168.6 236.967 168.277C237.344 167.944 237.242 167.096 237.586 166.749C237.939 166.391 238.992 166.672 239.309 166.3C239.635 165.919 239.576 165.187 239.861 164.793C240.154 164.385 240.094 163.747 240.344 163.325C240.6 162.895 241.407 162.748 241.615 162.304C241.827 161.85 242.198 161.405 242.359 160.939C242.522 160.468 242.111 159.791 242.221 159.308C242.33 158.824 242.276 158.313 242.331 157.819C242.386 157.328 241.97 156.842 241.97 156.34C241.97 155.905 243.042 155.416 242.999 154.987C242.957 154.557 241.601 154.334 241.515 153.912C241.432 153.486 242.228 152.865 242.103 152.451C241.978 152.038 241.613 151.701 241.45 151.299C241.213 150.603 241.348 150.557 241.121 149.86C240.895 149.161 240.978 149.133 240.752 148.436C240.527 147.737 240.204 147.845 239.978 147.146C239.751 146.448 240.331 146.256 240.105 145.558C239.878 144.86 240.114 144.784 239.888 144.086C239.661 143.388 239.315 143.502 239.088 142.805C238.863 142.108 238.904 142.093 238.677 141.396C238.452 140.697 238.097 140.814 237.87 140.115C237.644 139.418 237.855 139.349 237.63 138.652C237.403 137.953 237.088 138.056 236.862 137.359C236.635 136.658 236.593 136.672 236.367 135.973C236.14 135.274 235.701 135.418 235.475 134.719C235.248 134.02 235.589 133.908 235.363 133.207C235.136 132.51 234.814 132.615 234.587 131.917C234.36 131.218 235.338 130.896 235.111 130.199C234.885 129.5 234.104 129.756 233.878 129.059C233.651 128.36 234.131 128.202 233.904 127.505C233.678 126.806 233.007 127.026 232.781 126.329C232.554 125.63 233.116 125.444 232.889 124.746C232.663 124.047 232.478 124.108 232.252 123.411C232.025 122.71 231.738 122.806 231.511 122.107C231.285 121.406 232.263 121.084 232.034 120.385C231.808 119.686 231.285 119.858 231.057 119.159C230.83 118.46 231.153 118.354 230.926 117.655C230.7 116.956 229.912 117.216 229.685 116.517C229.459 115.818 230.324 115.535 230.098 114.834C229.871 114.137 229.648 114.21 229.421 113.512C229.195 112.811 228.461 113.053 228.234 112.354C228.008 111.655 229.193 111.265 228.965 110.566C228.739 109.867 227.853 110.158 227.626 109.459C227.399 108.761 228.216 108.492 227.989 107.792C227.764 107.094 227.126 107.305 226.9 106.608C226.673 105.911 226.492 105.97 226.265 105.273C226.04 104.577 226.375 104.466 226.149 103.77C225.924 103.074 225.168 103.321 224.942 102.625C224.717 101.928 224.701 101.933 224.476 101.237C224.25 100.539 224.769 100.367 224.543 99.6701C224.316 98.9727 224.319 98.9712 224.093 98.2738C223.866 97.5733 224.291 97.4341 224.065 96.7351C223.837 96.0346 223.955 95.9955 223.728 95.295C223.502 94.5961 223.149 94.7118 222.924 94.0128C222.698 93.3139 222.18 93.4843 221.955 92.7854C221.728 92.0864 222.626 91.7909 222.4 91.0935C222.173 90.3946 221.792 90.5212 221.565 89.8223C221.339 89.1233 221.519 89.0639 221.292 88.3665C221.065 87.6644 221 87.6863 220.774 86.9874C220.547 86.2868 220.555 86.2837 220.327 85.5816C220.1 84.8827 219.841 84.9687 219.615 84.2682C219.387 83.5692 219.162 83.6443 218.935 82.9453C218.708 82.2464 219.332 82.04 219.106 81.3395C218.879 80.639 219.174 80.542 218.947 79.8415C218.721 79.141 218.181 79.3177 217.953 78.6172C217.726 77.9182 218.397 77.6977 218.17 76.9972C217.942 76.2983 217.573 76.4187 217.346 75.7197C217.118 75.0161 216.908 75.0864 216.682 74.3844C216.454 73.6854 216.538 73.6572 216.311 72.9567C216.083 72.2562 215.673 72.3907 215.445 71.6902C215.219 70.9912 216.001 70.7332 215.774 70.0358C215.548 69.3353 215.031 69.5042 214.804 68.8037C214.578 68.1032 214.811 68.0266 214.584 67.3276C214.357 66.6255 214.185 66.6834 213.957 65.9829C213.731 65.2808 213.912 65.2214 213.684 64.5209C213.456 63.8172 213.622 63.7641 213.395 63.0635C213.167 62.3615 212.661 62.5272 212.433 61.8251C212.205 61.1231 211.572 61.3326 211.344 60.6289C211.116 59.9269 212.149 59.5876 211.921 58.8855C211.693 58.1834 212.027 58.0739 211.799 57.3703C211.571 56.6651 211.588 56.6588 211.36 55.9552C211.131 55.25 209.774 55.6972 209.546 54.992C209.529 54.9388 210.674 54.4822 210.655 54.4275C210.613 54.3134 210.298 54.279 210.247 54.168C210.211 54.0929 209.98 54.1038 209.94 54.0303C209.898 53.9506 210.418 53.5159 210.371 53.4408C210.315 53.3502 209.547 53.7161 209.485 53.6301C209.432 53.5581 209.408 53.4737 209.35 53.4033C209.293 53.333 209.359 53.1531 209.297 53.0859C209.229 53.0124 209.556 52.5074 209.484 52.4401C209.414 52.3744 209.03 52.6293 208.958 52.5683C208.892 52.5136 208.714 52.5949 208.644 52.5418C208.557 52.4792 208.21 52.8373 208.118 52.781C208.042 52.7325 208.022 52.6371 207.941 52.5934C207.868 52.5527 208.101 51.91 208.025 51.8756C207.916 51.8225 207.899 51.4456 207.786 51.4034C207.732 51.3831 207.296 52.4745 207.243 52.4573C207.215 52.4479 207.165 52.5558 207.14 52.5464C207.06 52.523 207.215 51.6927 207.134 51.6739C207.019 51.6442 206.841 51.9194 206.725 51.9007C206.635 51.8866 206.501 52.3744 206.411 52.3651C206.327 52.3572 206.275 52.3948 206.189 52.3916C206.133 52.3901 206.104 51.5066 206.047 51.5066C205.323 51.5066 205.323 51.3424 204.6 51.3424C203.879 51.3424 203.879 51.2971 203.156 51.2971C202.433 51.2971 202.433 51.2955 201.711 51.2955C200.988 51.2955 200.988 51.0235 200.265 51.0235C199.542 51.0235 199.542 51.4722 198.819 51.4722C198.096 51.4722 198.096 51.0625 197.373 51.0625C196.649 51.0625 196.649 51.8193 195.926 51.8193C195.202 51.8193 195.202 51.3862 194.479 51.3862C193.754 51.3862 193.754 52.3557 193.029 52.3557C192.306 52.3557 192.306 51.2908 191.582 51.2908C190.855 51.2908 190.855 51.061 190.131 51.061C189.406 51.061 189.406 52.3056 188.681 52.3056C187.957 52.3056 187.957 52.1931 187.232 52.1931C186.509 52.1931 186.509 51.2111 185.784 51.2111C185.061 51.2111 185.061 51.466 184.337 51.466C183.614 51.466 183.614 52.032 182.889 52.032C182.166 52.032 182.166 51.982 181.443 51.982C180.718 51.982 180.718 52.0492 179.995 52.0492C179.272 52.0492 179.272 51.0203 178.547 51.0203C177.824 51.0203 177.824 52.29 177.101 52.29C176.376 52.29 176.376 51.0125 175.653 51.0125C174.929 51.0125 174.929 51.0188 174.204 51.0188C173.479 51.0188 173.479 51.2361 172.755 51.2361C172.03 51.2361 172.03 51.7459 171.304 51.7459C170.579 51.7459 170.579 51.9804 169.855 51.9804C169.13 51.9804 169.13 52.4386 168.405 52.4386C167.681 52.4386 167.681 51.4613 166.956 51.4613C166.231 51.4613 166.231 52.3995 165.508 52.3995C164.784 52.3995 164.784 52.3682 164.059 52.3682C163.336 52.3682 163.336 51.7318 162.611 51.7318C161.888 51.7318 161.888 51.0453 161.164 51.0453C160.439 51.0453 160.439 51.9351 159.714 51.9351C158.99 51.9351 158.99 51.6755 158.265 51.6755C157.539 51.6755 157.539 51.6161 156.814 51.6161C156.088 51.6161 156.088 51 155.362 51C154.639 51 154.639 51.0094 153.913 51.0094C153.189 51.0094 153.189 51.1454 152.465 51.1454C151.74 51.1454 151.74 52.4057 151.015 52.4057C150.291 52.4057 150.291 52.1008 149.566 52.1008C148.842 52.1008 148.842 51.5785 148.117 51.5785C147.391 51.5785 147.391 51.0344 146.665 51.0344C145.94 51.0344 145.94 51.2158 145.214 51.2158C144.489 51.2158 144.489 51.799 143.764 51.799C143.041 51.799 143.041 52.2228 142.318 52.2228C141.595 52.2228 141.595 51.1986 140.872 51.1986C140.15 51.1986 140.15 51.81 139.427 51.81C138.706 51.81 138.706 52.2603 137.983 52.2603C137.26 52.2603 137.26 51.8725 136.538 51.8725C135.815 51.8725 135.815 52.4026 135.09 52.4026C134.367 52.4026 134.367 52.3651 133.643 52.3651C132.918 52.3651 132.918 51.1861 132.193 51.1861C131.467 51.1861 131.467 51.0188 130.741 51.0188C130.015 51.0188 130.015 51.8287 129.29 51.8287C128.565 51.8287 128.566 51.2877 127.842 51.2877C127.118 51.2877 127.118 52.3166 126.395 52.3166C125.67 52.3166 125.67 51.061 124.945 51.061C124.221 51.061 124.221 51.6802 123.496 51.6802C122.77 51.6802 122.77 52.1133 122.045 52.1133C121.319 52.1133 121.319 51.8819 120.591 51.8819C119.865 51.8819 119.865 51.6098 119.14 51.6098C118.416 51.6098 118.416 51.3424 117.691 51.3424C116.965 51.3424 116.965 52.4323 116.24 52.4323C115.513 52.4323 115.513 51.7443 114.786 51.7443C114.06 51.7443 114.06 51.0078 113.334 51.0078C112.608 51.0078 112.608 51.1876 111.882 51.1876C111.157 51.1876 111.157 51.5598 110.429 51.5598C109.703 51.5598 109.703 52.4448 108.975 52.4448C108.249 52.4448 108.249 51.4472 107.523 51.4472C106.797 51.4472 106.797 52.3307 106.069 52.3307C105.343 52.3307 105.343 51.1282 104.615 51.1282C103.889 51.1282 103.889 52.2884 103.161 52.2884C102.436 52.2884 102.436 52.4167 101.71 52.4167C100.986 52.4167 100.986 51.222 100.259 51.222C99.5316 51.222 99.5316 51.147 98.8039 51.147C98.0777 51.147 98.0777 51.7584 97.3515 51.7584C96.6222 51.7584 96.6222 52.2947 95.896 52.2947C95.1667 52.2947 95.1667 51.7928 94.439 51.7928C93.7112 51.7928 93.7112 52.4901 92.9835 52.4901C92.2557 52.4901 92.2557 51.0328 91.5264 51.0328C90.7956 51.0328 90.7956 51.0375 90.0647 51.0375C89.3354 51.0375 89.3354 51.0297 88.6046 51.0297C88.5518 51.0297 88.4928 51.516 88.4401 51.5176C88.3454 51.5207 88.3004 52.1555 88.2073 52.1665C88.1235 52.1743 88.0863 52.3322 88.0025 52.3432C87.8877 52.3619 87.6146 51.5301 87.5029 51.5582C87.4144 51.5785 87.326 51.6645 87.2391 51.6911C87.2158 51.6974 87.3632 52.2384 87.3415 52.2462C87.2856 52.2634 87.1274 51.9523 87.0746 51.971C86.9644 52.0132 86.7736 51.8866 86.6665 51.9366C86.5874 51.9742 86.8124 52.6106 86.7332 52.6528C86.6556 52.695 86.4756 52.5199 86.4012 52.5668C86.3127 52.6215 85.827 52.1008 85.7432 52.1618C85.6703 52.2149 85.5229 52.2259 85.4546 52.2822C85.3817 52.3432 85.3817 52.5355 85.315 52.598C85.242 52.6668 85.7774 53.3455 85.7107 53.4174C85.647 53.4862 84.7346 52.8138 84.6757 52.8873C84.6198 52.9561 85.2436 53.5769 85.1924 53.6473C85.1303 53.7348 84.5888 53.5081 84.5314 53.5972C84.4864 53.6738 85.0465 54.1085 85.0031 54.1867C84.9627 54.2633 85.1474 54.4259 85.1117 54.5026C85.0605 54.612 84.9348 54.648 84.8914 54.7621C84.8727 54.8169 84.7036 54.7997 84.6865 54.8544C84.46 55.5533 83.9138 55.372 83.6872 56.0709C83.4607 56.7699 83.9464 56.9294 83.7198 57.6267C83.4933 58.3257 82.9859 58.1584 82.7593 58.8573C82.5328 59.5547 83.5538 59.8909 83.3272 60.5883C83.1007 61.2857 82.6057 61.1231 82.3791 61.8204C82.1526 62.5178 82.3993 62.5991 82.1728 63.2965C81.9478 63.9955 82.0843 64.0408 81.8593 64.7382C81.6328 65.4372 80.3356 65.0087 80.109 65.7061C79.8825 66.4051 80.4892 66.6052 80.2626 67.3026C80.0361 68 79.7832 67.9171 79.5566 68.6161C79.3301 69.315 80.3092 69.6371 80.0826 70.3361C79.8545 71.0366 79.8995 71.0491 79.673 71.7496C79.4464 72.4486 79.2339 72.3782 79.0073 73.0771C78.7808 73.7777 77.9366 73.4993 77.7101 74.1967C77.4835 74.8957 77.4882 74.8972 77.2616 75.5962C77.0351 76.2951 77.5472 76.4625 77.3206 77.1614C77.0941 77.8604 77.0025 77.8291 76.776 78.528C76.5494 79.2254 76.717 79.2817 76.4904 79.9791C76.2639 80.678 75.9784 80.5827 75.7518 81.2816C75.5253 81.9806 75.3189 81.9133 75.0924 82.6123C74.8658 83.3097 75.6215 83.5583 75.3934 84.2588C75.1668 84.9577 74.5834 84.7654 74.3553 85.4644C74.1288 86.1633 74.7479 86.3682 74.5213 87.0687C74.2948 87.7676 73.5624 87.5253 73.3358 88.2242C73.1093 88.9232 73.1171 88.9247 72.8905 89.6237C72.664 90.3226 72.9262 90.4086 72.6996 91.1076C72.4731 91.8065 72.3086 91.7534 72.0821 92.4508C71.8555 93.1497 72.2621 93.2842 72.034 93.9816C71.8074 94.6836 71.3155 94.521 71.089 95.22C70.8624 95.9205 70.9959 95.9643 70.7693 96.6616C70.5428 97.3622 70.8485 97.4607 70.6219 98.1596C70.3954 98.8586 70.7259 98.9665 70.4993 99.6638C70.2728 100.36 69.6025 100.139 69.3759 100.837C69.1494 101.532 69.3495 101.598 69.123 102.295C68.898 102.993 69.033 103.037 68.808 103.734C68.5814 104.43 68.0818 104.267 67.8568 104.963C67.6302 105.66 67.3106 105.556 67.0856 106.253C66.859 106.95 67.2361 107.074 67.0096 107.773C66.783 108.472 67.6861 108.769 67.4596 109.469C67.2315 110.168 66.2058 109.831 65.9792 110.531C65.7527 111.232 66.1282 111.355 65.9016 112.054C65.6751 112.753 66.0816 112.886 65.8551 113.585C65.6285 114.284 65.6534 114.292 65.4268 114.991C65.2003 115.688 64.5005 115.458 64.2755 116.156C64.0489 116.855 64.6029 117.039 64.3763 117.736C64.1498 118.437 64.4818 118.545 64.2553 119.247C64.0287 119.947 62.9069 119.578 62.6803 120.279C62.4538 120.978 62.6369 121.039 62.4103 121.738C62.1838 122.438 62.1139 122.415 61.8874 123.112C61.6609 123.814 62.5919 124.119 62.3653 124.82C62.1372 125.519 61.0898 125.175 60.8633 125.875C60.6352 126.576 60.6398 126.577 60.4133 127.278C60.1867 127.978 60.1247 127.958 59.8966 128.657C59.67 129.358 59.9524 129.45 59.7243 130.15C59.4978 130.851 59.8267 130.96 59.5986 131.661C59.3721 132.361 59.4435 132.386 59.2169 133.085C58.9888 133.787 59.2449 133.872 59.0183 134.572C58.7918 135.271 58.8399 135.287 58.6133 135.986C58.3868 136.686 57.8514 136.511 57.6233 137.212C57.3968 137.911 57.0771 137.806 56.8506 138.506C56.624 139.205 57.2773 139.421 57.0492 140.12C56.8226 140.822 57.133 140.925 56.9049 141.627C56.6783 142.328 55.7272 142.015 55.4991 142.716C55.2725 143.418 55.1654 143.382 54.9373 144.084C54.7092 144.788 55.4572 145.033 55.2291 145.737C55.001 146.437 54.402 146.24 54.1755 146.944C53.9474 147.646 54.8023 147.926 54.5758 148.631C54.3461 149.335 53.5579 149.075 53.3298 149.78C53.1017 150.484 53.4927 150.615 53.2522 151.316C53.0893 151.718 52.2374 151.904 52.1117 152.317C51.986 152.733 52.0946 153.258 52.0108 153.682C51.9255 154.105 52.3739 154.625 52.332 155.056C52.2886 155.485 52.7324 155.905 52.7324 156.34C52.7324 156.843 52.4701 157.306 52.526 157.797C52.5819 158.293 51.9565 158.914 52.0682 159.397C52.1784 159.882 53.0629 160.147 53.2258 160.618C53.3887 161.084 53.1808 161.691 53.3934 162.144C53.6029 162.588 54.1894 162.823 54.4454 163.253C54.6953 163.675 54.9141 164.091 55.2073 164.499C55.4944 164.895 56.1058 164.99 56.4316 165.371C56.7497 165.742 56.9064 166.213 57.2602 166.568C57.6032 166.915 58.0718 167.079 58.4488 167.412C58.815 167.734 58.4861 168.902 58.8833 169.213C59.2681 169.512 60.3016 168.916 60.7128 169.204C61.1147 169.482 60.7655 170.932 61.1907 171.198C61.6065 171.456 62.7393 170.494 63.1769 170.738C63.602 170.977 63.4546 172.319 63.9015 172.544C64.3375 172.763 64.9737 172.61 65.4284 172.816C65.8722 173.018 66.4742 172.864 66.9366 173.055C67.3882 173.241 67.8102 173.498 68.2789 173.671C68.7366 173.842 69.3185 173.64 69.7918 173.798C70.2557 173.953 70.7305 174.026 71.21 174.17C71.6786 174.309 72.1317 174.455 72.6143 174.584C73.086 174.711 73.5298 174.907 74.0139 175.022C74.4903 175.136 74.9993 175.044 75.4865 175.147C75.966 175.247 76.1894 176.697 76.6798 176.785C77.1608 176.874 77.7706 176.278 78.2625 176.356C78.7482 176.433 79.2664 176.269 79.7599 176.333C80.2471 176.398 80.7406 176.373 81.2355 176.428C81.7228 176.48 82.224 176.328 82.7205 176.372C83.2093 176.412 83.6407 177.241 84.1388 177.272C84.6276 177.304 85.1396 177.032 85.6377 177.05C86.1296 177.072 86.637 176.384 87.1351 176.394C87.627 176.405 88.1065 176.478 88.6046 176.478C89.1027 176.478 89.6085 177.757 90.1004 177.748C90.5985 177.737 91.0919 177.369 91.5823 177.351C92.0788 177.329 92.5226 176.403 93.0129 176.373C93.5095 176.34 94.1007 177.632 94.5895 177.591C95.0845 177.549 95.5158 176.785 96.0046 176.731C96.4981 176.678 97.0582 177.16 97.5455 177.096C98.0389 177.03 98.5448 177 99.0289 176.924C99.5208 176.847 99.9956 176.616 100.477 176.527C100.967 176.439 101.459 176.326 101.938 176.226C102.427 176.125 102.66 174.908 103.136 174.794C103.622 174.68 104.218 175.082 104.691 174.955C105.174 174.825 105.554 174.392 106.024 174.25C106.502 174.108 107.098 174.386 107.562 174.233C108.037 174.073 108.648 174.311 109.106 174.142C109.576 173.968 110.048 173.784 110.499 173.596C110.963 173.407 111.402 173.146 111.847 172.943C112.302 172.736 112.577 172.155 113.013 171.933C113.461 171.707 113.584 170.919 114.011 170.68C114.448 170.435 115.592 171.423 116.006 171.165C116.433 170.899 116.532 170.108 116.932 169.829C117.345 169.543 117.462 168.874 117.846 168.574C118.244 168.263 118.517 167.859 118.883 167.537C119.26 167.204 120.399 167.698 120.743 167.351C121.097 166.995 121.193 166.363 121.511 165.992C121.837 165.611 122.031 165.113 122.318 164.718C122.612 164.31 123.297 164.136 123.547 163.714C123.803 163.282 123.685 162.615 123.895 162.171C124.107 161.717 124.182 161.203 124.343 160.735C124.506 160.265 125.108 159.892 125.218 159.409C125.329 158.926 125.495 158.388 125.551 157.893C125.605 157.403 125.353 156.842 125.353 156.34C125.353 155.905 125.025 155.475 124.983 155.047C124.941 154.615 124.399 154.285 124.314 153.861C124.228 153.438 124.536 152.942 124.41 152.528C124.286 152.115 124.928 151.438 124.765 151.036C124.528 150.342 123.276 150.769 123.049 150.071C122.824 149.375 122.702 149.418 122.477 148.72C122.25 148.024 122.475 147.949 122.249 147.253C122.024 146.556 122.236 146.487 122.011 145.79C121.785 145.094 121.42 145.214 121.193 144.517C120.967 143.82 121.574 143.621 121.349 142.924C121.122 142.226 121.119 142.228 120.892 141.531C120.666 140.832 120.481 140.893 120.255 140.195C120.028 139.498 119.94 139.526 119.713 138.829C119.488 138.133 120.177 137.904 119.952 137.207C119.725 136.511 119.82 136.478 119.594 135.783C119.369 135.087 118.982 135.213 118.756 134.516C118.531 133.819 119.072 133.64 118.846 132.943C118.619 132.247 118.405 132.318 118.18 131.622C117.953 130.923 117.476 131.081 117.251 130.385C117.024 129.686 116.638 129.814 116.411 129.117C116.184 128.419 116.901 128.183 116.675 127.486C116.448 126.788 116.003 126.935 115.776 126.236C115.55 125.539 115.82 125.45 115.593 124.753C115.367 124.055 114.983 124.182 114.757 123.484C114.532 122.786 114.281 122.868 114.054 122.173C113.829 121.474 113.666 121.528 113.441 120.831C113.215 120.134 114.074 119.851 113.849 119.153C113.623 118.456 113.755 118.412 113.528 117.715C113.301 117.017 113.176 117.058 112.949 116.36C112.723 115.663 112.721 115.663 112.495 114.964C112.268 114.268 112.557 114.173 112.332 113.476C112.105 112.781 112.31 112.712 112.085 112.018C111.858 111.321 111.09 111.574 110.865 110.878C110.64 110.184 110.453 110.245 110.228 109.549C110.003 108.855 110.195 108.791 109.97 108.097C109.743 107.401 109.368 107.526 109.143 106.828C108.916 106.134 109.475 105.95 109.25 105.254C109.023 104.557 109.146 104.517 108.921 103.82C108.694 103.123 109.081 102.994 108.856 102.297C108.629 101.598 108.482 101.647 108.255 100.946C108.029 100.249 106.891 100.624 106.665 99.9265C106.438 99.2292 106.932 99.0665 106.705 98.3707C106.48 97.6733 106.728 97.592 106.503 96.8946C106.277 96.1972 105.833 96.3442 105.608 95.6468C105.382 94.951 106.465 94.5929 106.238 93.8956C106.013 93.1966 105.886 93.2388 105.659 92.5414C105.433 91.8409 105.048 91.9676 104.821 91.2686C104.595 90.5712 103.952 90.7823 103.726 90.0834C103.501 89.386 103.997 89.2218 103.771 88.5244C103.544 87.827 103.988 87.6816 103.762 86.9827C103.535 86.2853 103.628 86.2524 103.402 85.5535C103.175 84.8545 103.281 84.8201 103.054 84.1212C102.827 83.4222 102.199 83.6286 101.972 82.9313C101.746 82.2323 102.075 82.1228 101.848 81.4255C101.622 80.7249 100.647 81.0455 100.421 80.3465C100.194 79.6476 100.784 79.4521 100.557 78.7548C100.331 78.0542 100.106 78.1293 99.8792 77.4288C99.6527 76.7314 99.6604 76.7298 99.4339 76.034C99.2073 75.3335 99.3377 75.2897 99.1111 74.5908C98.8846 73.8918 99.6077 73.6526 99.3811 72.9552C99.1561 72.2578 98.7263 72.3985 98.4998 71.6996C98.2732 70.9991 97.6587 71.2008 97.4322 70.5002C97.2056 69.8013 97.0101 69.867 96.7836 69.1665C96.5555 68.4659 96.7401 68.405 96.5136 67.706C96.2855 67.0024 96.6238 66.8914 96.3957 66.1908C96.1691 65.4919 96.4189 65.409 96.1924 64.7085C95.9643 64.0064 95.1046 64.2894 94.8781 63.5889C94.65 62.8853 94.6345 62.8915 94.4064 62.1863C94.1783 61.4843 94.1271 61.0949 94.5553 60.4945C94.9836 59.8972 95.37 60.1802 96.1008 60.1802C96.8332 60.1802 96.8332 60.8776 97.5656 60.8776C98.2996 60.8776 98.2996 60.7478 99.032 60.7478C99.7675 60.7478 99.7675 60.5695 100.501 60.5695C101.235 60.5695 101.235 60.2709 101.969 60.2709C102.702 60.2709 102.702 61.0355 103.436 61.0355C104.167 61.0355 104.167 60.0176 104.899 60.0176C105.631 60.0176 105.631 59.8456 106.364 59.8456C107.098 59.8456 107.098 60.0973 107.83 60.0973C108.564 60.0973 108.564 60.41 109.298 60.41C110.034 60.41 110.034 60.618 110.769 60.618C111.503 60.618 111.503 60.3944 112.235 60.3944C112.969 60.3944 112.969 61.0511 113.703 61.0511C114.437 61.0511 114.437 61.2638 115.171 61.2638C115.905 61.2638 115.905 61.2763 116.641 61.2763C117.376 61.2763 117.376 60.3365 118.11 60.3365C118.844 60.3365 118.844 59.7893 119.578 59.7893C120.314 59.7893 120.314 60.4178 121.048 60.4178C121.783 60.4178 121.783 61.1215 122.519 61.1215C123.254 61.1215 123.254 59.9222 123.988 59.9222C124.723 59.9222 124.723 61.2403 125.459 61.2403C126.194 61.2403 126.195 60.9839 126.93 60.9839C127.666 60.9839 127.666 60.2771 128.399 60.2771C129.135 60.2771 129.135 59.9144 129.867 59.9144C130.601 59.9144 130.601 60.177 131.335 60.177C132.072 60.177 132.072 60.6008 132.808 60.6008C133.543 60.6008 133.543 59.8299 134.279 59.8299C135.014 59.8299 135.014 61.2028 135.75 61.2028C136.487 61.2028 136.487 60.3991 137.224 60.3991C137.959 60.3991 137.959 60.0598 138.695 60.0598C139.434 60.0598 139.434 60.6899 140.171 60.6899C140.909 60.6899 140.909 60.0363 141.648 60.0363C142.386 60.0363 142.925 59.7017 143.449 60.2255C143.969 60.7431 143.423 61.2904 143.423 62.0284C143.423 62.7649 143.49 62.7649 143.49 63.5014C143.49 64.2378 143.541 64.2378 143.541 64.9743C143.541 65.7092 143.566 65.7092 143.566 66.4457C143.566 67.1822 143.08 67.1822 143.08 67.9171C143.08 68.6536 142.394 68.6536 142.394 69.3901C142.394 70.125 142.937 70.125 142.937 70.8599C142.937 71.5964 143.065 71.5964 143.065 72.3328C143.065 73.0662 143.035 73.0662 143.035 73.8027C143.035 74.5391 142.638 74.5391 142.638 75.2756C142.638 76.0105 143.367 76.0105 143.367 76.747C143.367 77.4835 143.87 77.4835 143.87 78.2184C143.87 78.9549 142.518 78.9549 142.518 79.6914C142.518 80.4263 142.936 80.4263 142.936 81.1643C142.936 81.9008 142.711 81.9008 142.711 82.6388C142.711 83.3753 143.609 83.3753 143.609 84.1134C143.609 84.8514 143.406 84.8514 143.406 85.5895C143.406 86.3275 143.848 86.3275 143.848 87.0655C143.848 87.802 142.371 87.802 142.371 88.5401C142.371 89.2765 143.612 89.2765 143.612 90.013C143.612 90.7495 142.892 90.7495 142.892 91.4875C142.892 92.2225 143.012 92.2225 143.012 92.9605C143.012 93.697 142.719 93.697 142.719 94.4319C142.719 95.1684 142.663 95.1684 142.663 95.9064C142.663 96.6429 143.749 96.6429 143.749 97.3778C143.749 98.1158 143.588 98.1158 143.588 98.8523C143.588 99.5888 143.774 99.5888 143.774 100.325C143.774 101.063 142.553 101.063 142.553 101.8C142.553 102.538 143.221 102.538 143.221 103.276C143.221 104.012 142.846 104.012 142.846 104.752C142.846 105.49 143.018 105.49 143.018 106.226C143.018 106.965 143.392 106.965 143.392 107.703C143.392 108.439 143.035 108.439 143.035 109.177C143.035 109.915 143.179 109.915 143.179 110.653C143.179 111.388 142.729 111.388 142.729 112.126C142.729 112.863 142.466 112.863 142.466 113.599C142.466 114.337 143.077 114.337 143.077 115.075C143.077 115.812 143.366 115.812 143.366 116.55C143.366 117.288 143.479 117.288 143.479 118.024C143.479 118.764 143.501 118.764 143.501 119.502C143.501 120.24 142.97 120.24 142.97 120.978C142.97 121.716 143.203 121.716 143.203 122.452C143.203 123.191 143.836 123.191 143.836 123.929C143.836 124.665 142.905 124.665 142.905 125.403C142.905 126.141 143.003 126.141 143.003 126.878C143.003 127.616 143.726 127.616 143.726 128.354C143.726 129.092 142.709 129.092 142.709 129.83C142.709 130.569 142.523 130.569 142.523 131.307C142.523 132.045 142.79 132.045 142.79 132.783C142.79 133.52 142.625 133.52 142.625 134.256C142.625 134.991 143.02 134.991 143.02 135.728C143.02 136.463 143.255 136.463 143.255 137.198C143.255 137.934 142.816 137.934 142.816 138.669C142.816 139.404 143.6 139.404 143.6 140.139C143.6 140.875 142.517 140.875 142.517 141.61C142.517 142.348 143.209 142.348 143.209 143.086C143.209 143.823 142.625 143.823 142.625 144.561C142.625 145.3 142.733 145.3 142.733 146.04C142.733 146.778 142.374 146.778 142.374 147.516C142.374 148.253 143.46 148.253 143.46 148.991C143.46 149.729 142.413 149.729 142.413 150.464C142.413 151.202 142.616 151.202 142.616 151.938C142.616 152.676 142.655 152.676 142.655 153.414C142.655 154.152 142.444 154.152 142.444 154.892C142.444 155.63 143.24 155.63 143.24 156.371C143.24 157.108 143.592 157.108 143.592 157.847C143.592 158.585 143.091 158.585 143.091 159.323C143.091 160.061 143.398 160.061 143.398 160.799C143.398 161.539 143.508 161.539 143.508 162.279C143.508 163.018 143.026 163.018 143.026 163.756C143.026 164.496 142.615 164.496 142.615 165.235C142.615 165.973 143.665 165.973 143.665 166.713C143.665 167.454 143.687 167.454 143.687 168.192C143.687 168.933 143.786 168.933 143.786 169.673C143.786 170.411 142.407 170.411 142.407 171.152C142.407 171.892 142.47 171.892 142.47 172.632C142.47 173.371 143.187 173.371 143.187 174.112C143.187 174.85 143.432 174.85 143.432 175.588C143.432 176.326 142.841 176.326 142.841 177.064C142.841 177.806 143.603 177.806 143.603 178.547C143.603 179.286 142.947 179.286 142.947 180.026C142.947 180.766 143.367 180.766 143.367 181.507C143.367 182.249 143.662 182.249 143.662 182.989C143.662 183.73 142.408 183.73 142.408 184.471C142.408 185.213 143.65 185.213 143.65 185.955C143.65 186.698 143.361 186.698 143.361 187.441C143.361 188.185 144.166 188.917 143.65 189.447C143.142 189.968 142.4 189.363 141.677 189.363C140.953 189.363 140.953 188.337 140.228 188.337C139.502 188.337 139.502 188.227 138.776 188.227C138.049 188.227 138.049 188.773 137.323 188.773C136.599 188.773 136.599 188.463 135.872 188.463C135.148 188.463 135.148 188.901 134.422 188.901C133.697 188.901 133.697 189.262 132.972 189.262C132.246 189.262 132.246 189.117 131.518 189.117C130.792 189.117 130.792 188.398 130.066 188.398C129.34 188.398 129.34 188.252 128.615 188.252C127.887 188.252 127.887 188.736 127.163 188.736C126.435 188.736 126.435 188.509 125.707 188.509C124.981 188.509 124.981 189.419 124.255 189.419C123.527 189.419 123.527 188.617 122.801 188.617C122.075 188.617 122.075 188.628 121.347 188.628C120.621 188.628 120.621 188.876 119.893 188.876C119.168 188.876 119.168 188.95 118.442 188.95C117.718 188.95 117.718 188.409 116.991 188.409C116.264 188.409 116.264 188.889 115.536 188.889C114.81 188.889 114.81 188.925 114.082 188.925C113.356 188.925 113.356 189.633 112.628 189.633C111.899 189.633 111.899 188.806 111.171 188.806C110.443 188.806 110.443 188.46 109.715 188.46C108.988 188.46 108.988 189.419 108.258 189.419C107.528 189.419 107.528 188.826 106.798 188.826C106.067 188.826 106.067 189.545 105.337 189.545C104.865 189.545 104.235 188.492 103.799 188.637C103.357 188.782 102.737 189.009 102.363 189.287C101.994 189.563 102.485 190.723 102.211 191.111C101.796 191.703 100.939 191.092 100.525 191.683C100.11 192.274 99.9568 192.163 99.5425 192.754C99.1282 193.344 99.0723 193.304 98.658 193.894C98.2437 194.483 98.7108 194.815 98.2965 195.404C97.8822 195.996 98.0389 196.105 97.6246 196.694C97.2103 197.286 97.5098 197.5 97.0955 198.088C96.6812 198.679 96.1769 198.319 95.761 198.91C95.3467 199.503 95.4274 199.561 95.0115 200.152C94.5972 200.743 94.8067 200.89 94.3909 201.481C93.9766 202.072 93.2845 201.578 92.8702 202.169C92.4559 202.76 93.5452 203.535 93.1309 204.127C92.715 204.718 92.5226 204.58 92.1068 205.173C91.6925 205.764 91.7219 205.784 91.3061 206.375C90.8918 206.966 91.0019 207.046 90.5876 207.637C90.1733 208.228 89.5992 207.818 89.1849 208.411C88.7675 209.002 89.1771 209.294 88.7613 209.884C88.347 210.475 88.0692 210.276 87.6549 210.866C87.2422 211.454 87.2561 211.466 86.8434 212.054C86.4291 212.645 85.9108 212.276 85.4981 212.866C85.0807 213.458 86.201 214.254 85.7851 214.847C85.3693 215.439 84.761 215.006 84.3467 215.597C83.9324 216.188 83.439 215.837 83.0231 216.428C82.6072 217.022 82.719 217.102 82.3016 217.694C81.8857 218.285 82.7516 218.903 82.3357 219.494C81.9183 220.088 81.3411 219.675 80.9252 220.268C80.5109 220.859 80.0625 220.54 79.6482 221.131C79.2307 221.725 80.0702 222.323 79.6528 222.915C79.2354 223.509 79.5442 223.73 79.1283 224.326C78.7094 224.921 78.3059 224.634 77.887 225.23C77.468 225.827 76.8225 225.366 76.4036 225.961C76.0901 226.408 75.7596 227.078 75.6293 227.589C75.4958 228.11 76.5013 228.74 76.5603 229.273C76.6192 229.798 76.7837 230.116 77.032 230.601C77.2818 231.087 76.9854 231.923 77.3765 232.275C77.7753 232.632 78.607 232.138 79.1035 232.328C79.5938 232.516 79.8856 233.456 80.4287 233.456C81.1549 233.456 81.1549 232.472 81.8811 232.472C82.6072 232.472 82.6072 233.001 83.3334 233.001C84.0612 233.001 84.0612 233.686 84.7874 233.686C85.5136 233.686 85.5136 233.694 86.2413 233.694C86.9675 233.694 86.9675 233.459 87.6937 233.459C88.4184 233.459 88.4184 233.44 89.1446 233.44C89.8708 233.44 89.8708 232.782 90.5954 232.782C91.32 232.782 91.32 233.895 92.0462 233.895C92.7724 233.895 92.7724 233.335 93.4971 233.335C94.2217 233.335 94.2217 233.074 94.9464 233.074C95.671 233.074 95.671 233.998 96.3957 233.998C97.1219 233.998 97.1219 233.063 97.8465 233.063C98.5711 233.063 98.5711 233.828 99.2958 233.828C100.02 233.828 100.02 233.176 100.747 233.176C101.471 233.176 101.471 233.815 102.196 233.815C102.922 233.815 102.922 233.922 103.647 233.922C104.373 233.922 104.373 232.488 105.098 232.488C105.824 232.488 105.824 233.218 106.55 233.218C107.276 233.218 107.276 233.906 108.002 233.906C108.729 233.906 108.729 232.888 109.456 232.888C110.183 232.888 110.183 233.543 110.91 233.543C111.636 233.543 111.636 233.625 112.364 233.625C113.09 233.625 113.09 232.938 113.817 232.938C114.543 232.938 114.543 234 115.271 234C115.995 234 115.995 233.439 116.721 233.439C117.448 233.439 117.448 232.622 118.174 232.622C118.898 232.622 118.898 233.897 119.625 233.897C120.349 233.897 120.349 232.973 121.075 232.973C121.802 232.973 121.802 232.605 122.526 232.605C123.252 232.605 123.252 233.601 123.979 233.601C124.705 233.601 124.705 233.683 125.431 233.683C126.157 233.683 126.157 233.564 126.883 233.564C127.611 233.564 127.611 233.722 128.337 233.722C129.065 233.722 129.065 232.654 129.791 232.654C130.519 232.654 130.519 233.143 131.247 233.143C131.973 233.143 131.973 233.224 132.701 233.224C133.427 233.224 133.427 233.522 134.153 233.522C134.879 233.522 134.879 233.406 135.607 233.406C136.332 233.406 136.332 232.737 137.06 232.737C137.784 232.737 137.784 232.49 138.512 232.49C139.238 232.49 139.238 232.812 139.964 232.812C140.69 232.812 140.69 232.733 141.418 232.733C142.144 232.733 142.144 233.548 142.872 233.548C143.6 233.548 143.6 232.757 144.328 232.757C145.054 232.757 145.054 233.425 145.782 233.425C146.508 233.425 146.508 233.667 147.236 233.667C147.962 233.667 147.962 233.471 148.689 233.471C149.416 233.471 149.416 233.925 150.142 233.925C150.868 233.925 150.868 232.97 151.596 232.97C152.322 232.97 152.322 233.687 153.05 233.687C153.778 233.687 153.778 233.612 154.505 233.612C155.233 233.612 155.233 233.37 155.961 233.37C156.687 233.37 156.687 233.633 157.415 233.633C158.141 233.633 158.141 233.991 158.866 233.991C159.59 233.991 159.59 233.989 160.315 233.989C161.041 233.989 161.041 233.109 161.764 233.109C162.489 233.109 162.489 232.974 163.213 232.974C163.938 232.974 163.938 233.234 164.663 233.234C165.389 233.234 165.389 233.645 166.114 233.645C166.84 233.645 166.84 233.65 167.566 233.65C168.292 233.65 168.292 232.894 169.02 232.894C169.749 232.894 169.749 232.959 170.477 232.959C171.205 232.959 171.205 232.591 171.932 232.591C172.659 232.591 172.659 233.617 173.385 233.617C174.111 233.617 174.111 233.174 174.837 233.174C175.563 233.174 175.563 233.548 176.29 233.548C177.017 233.548 177.017 233.856 177.744 233.856C178.471 233.856 178.471 233.617 179.199 233.617C179.928 233.617 179.928 233.511 180.658 233.511C181.384 233.511 181.384 232.532 182.112 232.532C182.839 232.532 182.839 233.847 183.567 233.847C184.293 233.847 184.293 232.741 185.021 232.741C185.75 232.741 185.75 233.446 186.48 233.446C187.207 233.446 187.207 233.301 187.937 233.301C188.664 233.301 188.664 233.037 189.392 233.037C190.12 233.037 190.12 233.041 190.849 233.041C191.578 233.041 191.578 232.662 192.308 232.662C193.036 232.662 193.036 233.056 193.765 233.056C194.494 233.056 194.494 233.742 195.222 233.742C195.951 233.742 195.951 232.737 196.68 232.737C197.41 232.737 197.41 233.26 198.139 233.26C198.867 233.26 198.867 233.315 199.595 233.315C200.322 233.315 200.322 233.944 201.049 233.944C201.779 233.944 201.779 232.632 202.509 232.632C203.238 232.632 203.238 232.744 203.967 232.744C204.697 232.744 204.697 232.677 205.427 232.677C206.157 232.677 206.157 233.035 206.888 233.035C207.617 233.035 207.617 233.493 208.346 233.493C209.079 233.493 209.079 233.851 209.809 233.851C210.542 233.851 210.542 232.808 211.274 232.808C212.007 232.808 212.007 233.92 212.739 233.92C213.282 233.92 213.903 233.385 214.392 233.198C214.89 233.006 215.661 232.935 216.06 232.577C216.451 232.227 215.917 231.103 216.167 230.618C216.417 230.133 216.552 229.798 216.611 229.275C216.671 228.74 216.559 228.396 216.427 227.875C216.297 227.364 216.68 226.69 216.367 226.244C215.951 225.652 215.811 225.753 215.396 225.162C214.981 224.571 214.846 224.668 214.432 224.077C214.019 223.488 214.357 223.245 213.943 222.654C213.53 222.065 213.212 222.293 212.798 221.703C212.385 221.114 212.903 220.743 212.489 220.154C212.075 219.564 211.864 219.716 211.45 219.125C211.035 218.534 210.976 218.576 210.562 217.985C210.146 217.392 209.868 217.591 209.453 217C209.038 216.409 209.605 216.004 209.19 215.416C208.776 214.825 208.404 215.091 207.989 214.5C207.575 213.91 207.724 213.802 207.31 213.211C206.894 212.62 206.632 212.809 206.216 212.217C205.8 211.626 206.45 211.163 206.034 210.572C205.62 209.981 204.909 210.487 204.493 209.896C204.079 209.304 203.959 209.39 203.544 208.799C203.129 208.206 203.753 207.762 203.337 207.169C202.925 206.58 202.886 206.606 202.473 206.017C202.06 205.429 201.362 205.925 200.948 205.337C200.533 204.746 201.407 204.125 200.994 203.534C200.578 202.941 200.735 202.83 200.319 202.238C199.905 201.647 199.163 202.174 198.747 201.582C198.333 200.991 198.89 200.594 198.474 200.003C198.058 199.411 197.785 199.604 197.368 199.012C196.952 198.419 197.323 198.155 196.907 197.565C196.491 196.971 196.168 197.2 195.753 196.607C195.338 196.016 195.613 195.82 195.199 195.229C194.783 194.635 193.925 195.247 193.507 194.654C193.091 194.058 193.802 193.552 193.385 192.957C192.967 192.36 192.989 192.346 192.57 191.75C192.151 191.153 192.086 191.2 191.667 190.604C191.395 190.215 190.987 189.816 190.618 189.542C190.242 189.262 189.777 188.89 189.335 188.743C188.897 188.598 188.303 188.363 187.831 188.363C187.114 188.363 187.114 188.64 186.397 188.64C185.68 188.64 185.68 189.631 184.962 189.631C184.242 189.631 184.242 188.185 183.524 188.185C182.805 188.185 182.805 189.208 182.088 189.208C181.371 189.208 181.371 188.457 180.653 188.457C179.936 188.457 179.936 188.626 179.218 188.626C178.499 188.626 178.499 188.365 177.781 188.365C177.062 188.365 177.062 189.156 176.344 189.156C175.625 189.156 175.625 189.181 174.907 189.181C174.189 189.181 174.189 188.979 173.47 188.979C172.752 188.979 172.752 188.198 172.032 188.198C171.313 188.198 171.313 188.614 170.595 188.614C169.875 188.614 169.875 189.037 169.156 189.037C168.436 189.037 168.436 189.364 167.718 189.364C166.998 189.364 166.998 189.319 166.28 189.319C165.561 189.319 165.561 189.034 164.844 189.034C164.126 189.034 164.126 188.61 163.409 188.61C162.689 188.61 162.689 188.468 161.969 188.468C161.249 188.468 161.249 188.537 160.531 188.537C159.811 188.537 159.811 188.72 159.091 188.72C158.371 188.72 158.371 189.55 157.649 189.55C156.931 189.55 156.931 188.837 156.211 188.837C155.489 188.837 155.489 188.179 154.768 188.179C154.044 188.179 154.044 189.131 153.323 189.131C152.6 189.131 152.68 189.153 152.173 188.635C151.659 188.11 151.695 188.19 151.695 187.455C151.695 186.717 151.42 186.717 151.42 185.98C151.42 185.245 151.649 185.245 151.649 184.509C151.649 183.772 152.029 183.772 152.029 183.038C152.029 182.301 152.322 182.301 152.322 181.565C152.322 180.828 152.581 180.828 152.581 180.093C152.581 179.357 152.319 179.357 152.319 178.622C152.319 177.887 152.372 177.887 152.372 177.15C152.372 176.414 151.197 176.414 151.197 175.679C151.197 174.944 151.902 174.944 151.902 174.208C151.902 173.471 152.631 173.471 152.631 172.736C152.631 172 151.813 172 151.813 171.263C151.813 170.528 152.195 170.528 152.195 169.792C152.195 169.054 152.62 169.054 152.62 168.317C152.62 167.581 152.62 167.581 152.62 166.844C152.62 166.106 151.301 166.106 151.301 165.37C151.301 164.63 152.001 164.63 152.001 163.892C152.001 163.156 151.254 163.156 151.254 162.418C151.254 161.68 152.437 161.68 152.437 160.943C152.437 160.205 152.24 160.205 152.24 159.469C152.24 158.732 152.137 158.732 152.137 157.996C152.137 157.259 151.706 157.259 151.706 156.521C151.706 155.786 151.282 155.786 151.282 155.05C151.282 154.312 152.483 154.312 152.483 153.577C152.483 152.84 152.514 152.84 152.514 152.104C152.514 151.367 152.218 151.367 152.218 150.631C152.218 149.893 151.939 149.893 151.939 149.158C151.939 148.42 151.498 148.42 151.498 147.682C151.498 146.944 151.607 146.944 151.607 146.207C151.607 145.469 152.491 145.469 152.491 144.73C152.491 143.993 151.434 143.993 151.434 143.254C151.434 142.516 152.262 142.516 152.262 141.779C152.262 141.043 151.663 141.043 151.663 140.305C151.663 139.568 151.469 139.568 151.469 138.83C151.469 138.094 152.412 138.094 152.412 137.357C152.412 136.619 151.318 136.619 151.318 135.883C151.318 135.146 151.391 135.146 151.391 134.408C151.391 133.67 152.618 133.67 152.618 132.934C152.618 132.196 151.405 132.196 151.405 131.458C151.405 130.719 151.734 130.719 151.734 129.981C151.734 129.242 151.985 129.242 151.985 128.505C151.985 127.767 151.774 127.767 151.774 127.029C151.774 126.291 152.3 126.291 152.3 125.555C152.3 124.817 152.314 124.817 152.314 124.079C152.314 123.342 151.272 123.342 151.272 122.604C151.272 121.866 151.829 121.866 151.829 121.128C151.829 120.39 152.038 120.39 152.038 119.65C152.038 118.914 152.395 118.914 152.395 118.174C152.395 117.436 151.87 117.436 151.87 116.7C151.87 115.962 151.869 115.962 151.869 115.225C151.869 114.492 151.399 114.492 151.399 113.755C151.399 113.019 151.444 113.019 151.444 112.284C151.444 111.549 152.06 111.549 152.06 110.814C152.06 110.078 152.033 110.078 152.033 109.343C152.033 108.606 151.644 108.606 151.644 107.87C151.644 107.135 152.353 107.135 152.353 106.397C152.353 105.659 151.306 105.659 151.306 104.921C151.306 104.183 152.142 104.183 152.142 103.442C152.142 102.705 151.791 102.705 151.791 101.967C151.791 101.229 152.201 101.229 152.201 100.491C152.201 99.7546 151.357 99.7546 151.357 99.0181C151.357 98.28 151.853 98.28 151.853 97.5436C151.853 96.8055 151.422 96.8055 151.422 96.0675C151.422 95.331 152.235 95.331 152.235 94.5914C152.235 93.8502 151.346 93.8502 151.346 93.1122C151.346 92.3741 151.745 92.3741 151.745 91.6345C151.745 90.898 152.525 90.898 152.525 90.16C152.525 89.4204 152.55 89.4204 152.55 88.6824C152.55 87.9428 151.307 87.9428 151.307 87.2031C151.307 86.4651 152.393 86.4651 152.393 85.7255C152.393 84.9859 151.548 84.9859 151.548 84.2479C151.548 83.5082 152.559 83.5082 152.559 82.7686C152.559 82.029 151.88 82.029 151.88 81.2879C151.88 80.5498 152.375 80.5498 152.375 79.8102C152.375 79.0691 151.695 79.069 151.695 78.331C151.695 77.5898 151.701 77.5898 151.701 76.8502C151.701 76.1106 152.451 76.1106 152.451 75.371C152.451 74.6314 151.413 74.6314 151.413 73.8949C151.413 73.1553 151.645 73.1553 151.645 72.4173C151.645 71.6761 151.639 71.6761 151.639 70.9349C151.639 70.1953 152.23 70.1953 152.23 69.4573C152.23 68.7161 151.962 68.7161 151.962 67.9765C151.962 67.2338 151.38 67.2338 151.38 66.4926C151.38 65.753 151.363 65.753 151.363 65.0118C151.363 64.2691 151.957 64.2691 151.957 63.528C151.957 62.7837 151.763 62.7836 151.763 62.0409C151.763 61.2982 151.869 61.589 152.386 61.0589C152.895 60.5367 152.604 60.3772 153.329 60.3772C154.057 60.3772 154.057 60.2646 154.783 60.2646C155.512 60.2646 155.512 61.3154 156.24 61.3154C156.969 61.3154 156.969 60.4225 157.699 60.4225C158.428 60.4225 158.428 60.1583 159.156 60.1583C159.883 60.1583 159.883 61.012 160.61 61.012C161.337 61.012 161.337 60.8056 162.065 60.8056C162.791 60.8056 162.791 60.704 163.519 60.704C164.247 60.704 164.247 60.5476 164.975 60.5476C165.704 60.5476 165.704 60.9651 166.432 60.9651C167.161 60.9651 167.161 61.1762 167.892 61.1762C168.62 61.1762 168.62 61.2435 169.349 61.2435C170.077 61.2435 170.077 59.7877 170.804 59.7877C171.532 59.7877 171.532 60.3225 172.261 60.3225C172.991 60.3225 172.991 60.7071 173.722 60.7071C174.451 60.7071 174.451 60.5617 175.179 60.5617C175.908 60.5617 175.908 61.0308 176.637 61.0308C177.366 61.0308 177.366 60.8948 178.096 60.8948C178.827 60.8948 178.827 60.3772 179.556 60.3772C180.285 60.3772 180.285 60.1395 181.015 60.1395C181.745 60.1395 181.745 60.0692 182.476 60.0692C183.206 60.0692 183.206 60.5492 183.935 60.5492C184.666 60.5492 184.666 60.0129 185.395 60.0129C186.124 60.0129 186.124 60.6774 186.852 60.6774C187.581 60.6774 187.581 60.2881 188.309 60.2881C189.04 60.2881 189.04 60.9933 189.771 60.9933C190.5 60.9933 190.5 60.1442 191.231 60.1442C191.96 60.1442 191.96 59.8893 192.693 59.8893C193.423 59.8893 193.423 60.1317 194.154 60.1317C194.885 60.1317 194.885 60.4444 195.616 60.4444C196.348 60.4444 196.348 60.5273 197.079 60.5273C197.813 60.5273 197.813 59.8111 198.547 59.8111C199.28 59.8111 199.7 59.869 200.135 60.4648C200.564 61.0558 200.02 61.3279 199.795 62.0237C199.568 62.7195 199.086 62.5616 198.861 63.2574C198.634 63.9533 199.258 64.1581 199.031 64.8539C198.806 65.5513 197.79 65.2167 197.563 65.9125C197.338 66.6099 198.061 66.8476 197.835 67.5434C197.61 68.2408 197.576 68.2298 197.349 68.9272C197.124 69.623 196.539 69.4307 196.313 70.1297C196.086 70.827 196.409 70.9318 196.182 71.6292C195.956 72.3282 196.626 72.5486 196.4 73.2476C196.175 73.945 195.768 73.8105 195.543 74.5079C195.317 75.2053 195.973 75.421 195.748 76.1184C195.521 76.8158 194.634 76.5219 194.409 77.2208C194.182 77.9166 195.022 78.1934 194.795 78.8892C194.569 79.585 193.991 79.3959 193.766 80.0932C193.54 80.7906 193.451 80.7609 193.225 81.4583C192.998 82.1557 193.444 82.3027 193.217 82.9985C192.992 83.6959 193.166 83.7537 192.941 84.4527C192.714 85.1501 192.267 85.0015 192.041 85.7005C191.814 86.3979 191.687 86.3556 191.461 87.0546C191.234 87.752 191.25 87.7567 191.023 88.4541C190.798 89.1515 190.17 88.945 189.943 89.6409C189.716 90.3383 190.444 90.5791 190.218 91.2749C189.991 91.9723 189.29 91.7424 189.065 92.4382C188.838 93.1356 189.636 93.3983 189.409 94.0973C189.183 94.7947 189.49 94.8947 189.263 95.5937C189.037 96.2911 189.096 96.3114 188.869 97.0088C188.644 97.7046 187.574 97.3528 187.347 98.0502C187.122 98.746 187.738 98.9493 187.513 99.6451C187.288 100.341 186.877 100.205 186.652 100.901C186.425 101.597 186.686 101.681 186.461 102.378C186.236 103.073 185.865 102.951 185.64 103.645C185.415 104.341 185.797 104.466 185.572 105.163C185.347 105.857 185.992 106.072 185.767 106.766C185.541 107.463 185.19 107.348 184.965 108.045C184.739 108.742 184.517 108.669 184.29 109.366C184.064 110.067 184.301 110.143 184.074 110.844C183.848 111.541 183.129 111.305 182.903 112.003C182.678 112.7 183.763 113.058 183.536 113.754C183.311 114.45 182.302 114.118 182.076 114.816C181.849 115.511 181.928 115.538 181.702 116.234C181.477 116.931 181.919 117.078 181.694 117.774C181.468 118.473 181.333 118.429 181.106 119.127C180.88 119.827 180.18 119.596 179.953 120.296C179.727 120.994 180.381 121.209 180.155 121.907C179.928 122.604 179.35 122.415 179.123 123.111C178.896 123.811 179.239 123.922 179.013 124.62C178.786 125.319 179.488 125.552 179.26 126.249C179.033 126.948 179.03 126.948 178.803 127.647C178.577 128.346 178.252 128.24 178.026 128.937C177.799 129.636 177.331 129.483 177.104 130.18C176.878 130.881 176.477 130.748 176.251 131.448C176.024 132.147 176.221 132.213 175.995 132.91C175.768 133.611 176.29 133.783 176.063 134.482C175.836 135.179 176.381 135.357 176.156 136.055C175.928 136.755 176.012 136.78 175.784 137.482C175.559 138.18 174.569 137.854 174.342 138.552C174.116 139.251 174.949 139.524 174.722 140.223C174.494 140.924 174.381 140.886 174.154 141.588C173.928 142.287 174.136 142.355 173.908 143.054C173.681 143.754 172.382 143.327 172.156 144.028C171.928 144.728 173.096 145.114 172.868 145.815C172.642 146.514 172.51 146.472 172.283 147.172C172.055 147.873 171.513 147.694 171.287 148.395C171.059 149.099 171.847 149.358 171.619 150.063C171.391 150.765 171.253 150.726 171.012 151.427C170.849 151.83 169.571 151.871 169.445 152.284C169.321 152.698 170.353 153.424 170.267 153.849C170.184 154.271 170.433 154.687 170.392 155.119C170.348 155.546 170.238 155.905 170.238 156.34Z" fill="#FFFFFF"/>
</svg>
