<svg width="36" height="38" viewBox="0 0 36 38" fill="none"
  xmlns="http://www.w3.org/2000/svg">
  <path fill-rule="evenodd" clip-rule="evenodd" d="M25.3109 28.8074C25.0536 28.139 24.6887 27.5554 24.3687 27.0567C24.2072 26.8066 24.0412 26.5519 23.8961 26.2894C23.3144 25.2458 23.5148 24.8227 24.4584 23.1909L24.611 22.9238C25.3752 21.5945 25.417 20.3193 25.4559 19.1954C25.4739 18.6427 25.4918 18.1224 25.595 17.633C25.8358 16.5029 28.1493 16.2018 29.5835 16.0243C29.8243 16.9954 29.9633 18.0066 29.9633 19.0533C29.9633 23.0195 28.1358 26.5457 25.3109 28.8074ZM7.47409 24.9185C8.42522 25.1686 9.45562 25.3415 10.504 25.3415C12.1191 25.3415 13.7686 24.9339 15.1953 23.7806C17.7616 21.7088 17.7616 19.0595 17.7616 16.929C17.7616 15.5519 17.7616 14.3646 18.3179 13.3102C18.617 12.7451 19.2541 12.353 19.9914 11.8976C20.443 11.6181 20.9111 11.331 21.3598 10.9666C22.3214 10.19 23.0362 9.19117 23.4789 8.08576C25.5726 9.20506 27.3073 10.9388 28.4529 13.0616C26.3173 13.3673 23.286 14.0898 22.6743 16.9722C22.5128 17.7349 22.4874 18.4528 22.4679 19.0873C22.4365 19.9874 22.4126 20.6991 22.0387 21.3506L21.8892 21.61C20.9216 23.282 19.8269 25.1778 21.3029 27.8286C21.4809 28.1498 21.6798 28.4585 21.8757 28.7658C22.3902 29.5624 22.6429 30.0024 22.6444 30.4347C21.2162 31.0584 19.6459 31.4042 17.9994 31.4042C13.4576 31.4042 9.50048 28.7766 7.47409 24.9185ZM17.9994 6.70246C18.9206 6.70246 19.8104 6.8198 20.6718 7.02359C20.4191 7.5979 20.0288 8.12127 19.5143 8.53657C19.1883 8.80211 18.8219 9.02289 18.4585 9.24675C17.4849 9.84576 16.3828 10.5251 15.6918 11.8312C14.7706 13.5757 14.7706 15.3573 14.7706 16.929C14.7706 19.0209 14.7048 20.2576 13.3529 21.3491C11.3055 23.0056 8.17249 22.0809 6.23432 21.2394C6.11169 20.5277 6.03542 19.799 6.03542 19.0533C6.03542 12.2434 11.4028 6.70246 17.9994 6.70246ZM17.9994 3.61475C9.75322 3.61475 3.04443 10.5405 3.04443 19.0533C3.04443 27.5646 9.75322 34.4919 17.9994 34.4919C26.2455 34.4919 32.9543 27.5646 32.9543 19.0533C32.9543 10.5405 26.2455 3.61475 17.9994 3.61475Z" fill="#FFFFFF"/>
</svg>
