<svg width="295" height="285" viewBox="0 0 295 285" fill="none" xmlns="http://www.w3.org/2000/svg">
<path d="M167.9 160.97C167.854 160.677 167.713 160.407 167.5 160.2L166.5 159.2C166.288 158.989 166.008 158.858 165.71 158.83C165.495 158.92 165.261 158.953 165.029 158.926C164.798 158.899 164.578 158.814 164.389 158.677C164.2 158.541 164.05 158.358 163.952 158.147C163.854 157.935 163.812 157.702 163.83 157.47C163.434 156.668 162.816 155.997 162.051 155.534C161.286 155.072 160.404 154.838 159.51 154.86H159.28C158.99 154.878 158.715 154.994 158.5 155.19C158.3 154.9 158.09 154.63 157.88 154.32L157.23 153.32C157.107 153.144 156.944 152.998 156.755 152.896C156.566 152.793 156.355 152.737 156.14 152.73V152.73C155.945 152.738 155.755 152.789 155.582 152.879C155.41 152.969 155.258 153.096 155.14 153.25L154.98 153.16C154.908 152.933 154.777 152.729 154.6 152.57L154 152C154.381 151.073 154.536 150.069 154.45 149.07C154.45 148.8 154.45 148.54 154.38 148.27C154.347 148.052 154.33 147.831 154.33 147.61C154.38 147 154.46 146.39 154.54 145.79C154.704 144.684 154.801 143.568 154.83 142.45C154.807 141.44 154.68 140.434 154.45 139.45C154.36 138.99 154.26 138.45 154.18 137.97C154.124 137.606 153.926 137.279 153.63 137.06L150.28 134.57C150.053 134.399 149.775 134.307 149.49 134.31C149.3 134.313 149.112 134.356 148.939 134.437C148.767 134.518 148.614 134.635 148.49 134.78L147.28 136.21C147.154 136.362 147.061 136.538 147.006 136.727C146.951 136.916 146.935 137.115 146.96 137.31C146.951 137.37 146.951 137.43 146.96 137.49C146.618 137.775 146.325 138.112 146.09 138.49C145.848 138.908 145.733 139.388 145.76 139.87C145.76 139.93 145.76 139.98 145.76 139.98C145.679 140.189 145.586 140.393 145.48 140.59C145.062 141.235 144.849 141.992 144.87 142.76C144.93 143.302 145.108 143.824 145.39 144.29C145.188 144.559 145.032 144.86 144.93 145.18C144.842 145.515 144.858 145.868 144.976 146.193C145.094 146.518 145.308 146.8 145.59 147V147C145.264 147.153 145.009 147.424 144.875 147.758C144.741 148.092 144.74 148.465 144.87 148.8C144.989 149.21 145.059 149.633 145.08 150.06C145.12 150.822 145.286 151.572 145.57 152.28C144.98 152.38 144.39 152.49 143.8 152.65C143.348 152.753 142.928 152.967 142.579 153.273C142.23 153.578 141.962 153.966 141.8 154.4V154.4C141.324 154.149 140.798 154.005 140.26 153.98C139.989 153.979 139.721 154.029 139.47 154.13C138.544 154.605 137.743 155.29 137.13 156.13C136.89 156.4 136.64 156.68 136.38 156.94C136.166 157.158 136.026 157.438 135.98 157.74V157.74C135.788 157.745 135.599 157.792 135.427 157.876C135.254 157.961 135.102 158.082 134.98 158.23C134.847 158.389 134.751 158.576 134.697 158.776C134.644 158.976 134.635 159.186 134.67 159.39C134.393 159.523 134.168 159.745 134.03 160.02C133.86 160.36 133.71 160.64 133.57 160.9C133.306 161.383 133.069 161.881 132.86 162.39C132.702 162.828 132.588 163.28 132.52 163.74L132.42 164.2C132.377 164.397 132.375 164.601 132.414 164.799C132.454 164.997 132.534 165.185 132.65 165.35C132.727 165.455 132.818 165.549 132.92 165.63C132.876 165.814 132.853 166.001 132.85 166.19C132.874 166.606 132.996 167.011 133.204 167.372C133.412 167.733 133.702 168.041 134.05 168.27C133.799 168.425 133.579 168.625 133.4 168.86C132.7 169.77 132.78 170.96 132.95 172.42C132.991 172.788 133.174 173.125 133.46 173.36C133.696 173.548 133.989 173.65 134.29 173.65H134.38V173.88C134.24 174.67 133.84 177.09 136.31 177.63C137.83 177.96 137.99 178.24 138.09 179.4C138.27 181.51 139.51 182.26 140.51 182.26C140.934 182.232 141.348 182.119 141.727 181.929C142.107 181.738 142.445 181.473 142.72 181.15C142.934 181.035 143.163 180.951 143.4 180.9H143.48L143.16 182.4C143.082 182.763 143.146 183.143 143.34 183.46C143.436 183.615 143.561 183.75 143.708 183.856C143.856 183.962 144.023 184.039 144.2 184.08L150.01 185.37L150.16 185.52C150.91 186.28 151.25 186.63 151.88 186.63C152.143 186.62 152.395 186.517 152.59 186.34L152.77 186.49C152.911 186.621 153.062 186.741 153.22 186.85L153.5 187.05C154.192 187.588 154.956 188.025 155.77 188.35C156.45 188.567 157.118 188.821 157.77 189.11C157.746 189.812 157.649 190.509 157.48 191.19C157.409 191.603 157.429 192.026 157.54 192.43L158.15 194.66C157.7 194.808 157.295 195.066 156.97 195.41C156.263 196.252 155.867 197.311 155.85 198.41L155.48 198.35C155.091 198.271 154.697 198.224 154.3 198.21C153.858 198.194 153.42 198.297 153.031 198.508C152.642 198.719 152.317 199.031 152.09 199.41H148.56L141.07 194.7C140.978 194.647 140.881 194.603 140.78 194.57C140.583 193.638 140.202 192.754 139.66 191.97C138.833 190.977 137.833 190.14 136.71 189.5L136 189.03C135.758 188.874 135.478 188.788 135.19 188.78C134.517 188.857 133.889 189.161 133.41 189.64C132.85 190.13 132.31 190.64 131.69 191.24L130.86 192.03C130.724 192.159 130.615 192.314 130.539 192.486C130.464 192.657 130.423 192.843 130.42 193.03V197.17C130.415 197.513 130.537 197.845 130.762 198.104C130.987 198.362 131.3 198.528 131.64 198.57L133.03 198.72C132.906 198.882 132.817 199.068 132.769 199.266C132.721 199.464 132.714 199.67 132.75 199.87C132.799 200.095 132.904 200.304 133.054 200.479C133.204 200.653 133.395 200.788 133.61 200.87L135.61 201.67C135.646 201.778 135.693 201.882 135.75 201.98C135.918 202.274 136.068 202.578 136.2 202.89C136.68 203.89 137.2 205.11 138.37 205.44C138.72 205.54 139.06 205.62 139.37 205.69C140.44 205.93 141.02 206.08 141.45 206.69C141.65 206.948 141.911 207.154 142.209 207.288C142.507 207.422 142.834 207.481 143.16 207.46H143.39C143.47 207.47 143.55 207.47 143.63 207.46C143.942 207.465 144.244 207.354 144.48 207.15V207.15C144.713 207.306 144.975 207.415 145.25 207.47C144.973 208.45 144.792 209.455 144.71 210.47C144.673 211.568 144.743 212.666 144.92 213.75C145.021 214.413 145.088 215.08 145.12 215.75C145.23 219.36 146.69 221.61 149.7 222.83C149.856 222.893 150.022 222.927 150.19 222.93C150.379 222.931 150.566 222.891 150.739 222.813C150.911 222.735 151.065 222.622 151.19 222.48C151.33 222.325 151.435 222.14 151.495 221.939C151.556 221.739 151.571 221.527 151.54 221.32C151.915 221.351 152.291 221.266 152.617 221.076C152.942 220.887 153.202 220.602 153.36 220.26C153.84 219.01 154.26 217.73 154.68 216.41L155.07 215.22C155.19 214.854 155.161 214.455 154.99 214.11C154.903 213.944 154.784 213.796 154.64 213.676C154.496 213.556 154.329 213.465 154.15 213.41L153.46 213.21L153.38 212.02C153.705 211.793 153.982 211.504 154.195 211.169C154.408 210.835 154.553 210.461 154.62 210.07C154.643 209.759 154.592 209.446 154.472 209.158C154.352 208.87 154.167 208.614 153.93 208.41C156.85 207.96 160.14 206.6 161.23 204.65L162.77 204.31C163.003 204.259 163.219 204.147 163.394 203.985C163.57 203.823 163.7 203.618 163.77 203.39C163.848 203.159 163.865 202.912 163.822 202.673C163.778 202.433 163.674 202.209 163.52 202.02L163.34 201.81C163.862 201.669 164.373 201.492 164.87 201.28C165.749 200.749 166.39 199.901 166.66 198.91C166.792 198.476 166.756 198.009 166.56 197.6C166.437 197.378 166.286 197.173 166.11 196.99C166.279 196.685 166.328 196.329 166.25 195.99L166 194.9C166.93 193.42 167.47 190.79 166.78 189.44C166.611 189.082 166.484 188.707 166.4 188.32C166.618 188.071 166.739 187.751 166.74 187.42C166.751 187.184 166.702 186.949 166.597 186.737C166.492 186.526 166.335 186.344 166.14 186.21C166.006 186.116 165.879 186.012 165.76 185.9C165.436 185.602 165.073 185.349 164.68 185.15L164.75 184.99C164.866 184.748 164.912 184.478 164.882 184.211C164.852 183.944 164.747 183.69 164.58 183.48C163.922 183.186 163.355 182.72 162.94 182.13C162.824 182.013 162.724 181.882 162.64 181.74C162.437 181.358 162.141 181.033 161.779 180.795C161.417 180.558 161.002 180.415 160.57 180.38H160.42C160.349 180.254 160.269 180.134 160.18 180.02C159.973 179.78 159.715 179.59 159.423 179.466C159.132 179.341 158.816 179.284 158.5 179.3H157.94C157.033 178.361 156.057 177.492 155.02 176.7C154.504 176.244 153.848 175.979 153.16 175.95C152.624 175.95 152.107 176.15 151.71 176.51C151.336 175.922 150.814 175.441 150.196 175.117C149.579 174.792 148.887 174.635 148.19 174.66C148.02 174.65 147.85 174.65 147.68 174.66H147.34C146.45 174.66 146.09 174.24 145.34 173.04C145.16 172.77 144.98 172.5 144.79 172.24C144.6 171.98 144.25 171.48 143.98 171.09C143.247 169.91 142.356 168.837 141.33 167.9C141.04 167.66 141.04 167.66 141.2 166.99V166.78C141.361 166.27 141.593 165.785 141.89 165.34L142.25 164.71C142.433 164.357 142.565 163.98 142.64 163.59L146.54 162.59C146.738 162.537 146.921 162.44 147.077 162.307C147.233 162.173 147.357 162.007 147.44 161.82H147.58C148.379 162.103 149.214 162.268 150.06 162.31C150.373 162.31 150.685 162.273 150.99 162.2C151.195 162.144 151.407 162.114 151.62 162.11C152.135 162.151 152.623 162.358 153.01 162.7C153.578 163.028 154.225 163.194 154.88 163.18C155.295 163.193 155.707 163.104 156.08 162.92C156.298 163.069 156.556 163.149 156.82 163.15C156.933 163.16 157.047 163.16 157.16 163.15H157.33C157.23 164.15 157.67 165.34 159.52 166.15C160.455 166.551 161.409 166.905 162.38 167.21L163.72 167.66C163.907 167.73 164.108 167.755 164.306 167.732C164.504 167.71 164.694 167.64 164.86 167.53C168.12 165.47 168.72 164.97 168.11 161.53L167.9 160.97Z" fill="#FFFFFF"/>
<path d="M224 203.56C224.076 203.17 224.076 202.77 224 202.38L225 202.04C225.177 201.978 225.339 201.882 225.478 201.757C225.617 201.631 225.73 201.479 225.81 201.31C225.89 201.14 226 200.96 226.11 200.76C226.72 199.76 228.11 197.41 226 195.07C226.285 194.358 226.36 193.578 226.214 192.825C226.069 192.071 225.71 191.375 225.18 190.82C225.389 190.474 225.526 190.089 225.583 189.689C225.64 189.288 225.615 188.881 225.51 188.49C225.352 188.081 225.106 187.711 224.79 187.407C224.474 187.103 224.095 186.872 223.68 186.73C223.22 186.54 222.77 186.32 222.35 186.1C222.636 185.797 222.836 185.424 222.931 185.018C223.026 184.612 223.012 184.188 222.89 183.79C222.729 183.421 222.506 183.083 222.23 182.79C222.291 182.719 222.345 182.642 222.39 182.56C223.09 181.41 222.48 180.11 222.15 179.4L221.89 178.9C221.89 178.81 221.77 178.69 221.72 178.58C221.861 178.266 221.934 177.925 221.934 177.58C221.934 177.235 221.861 176.894 221.72 176.58C221.584 176.316 221.394 176.083 221.161 175.899C220.928 175.714 220.658 175.582 220.37 175.51L220.31 175.32C220.14 174.7 219.99 174.21 219.83 173.72C219.67 173.23 219.44 172.62 219.24 172.07L218.98 171.39C218.872 171.081 218.655 170.821 218.37 170.661C218.084 170.501 217.75 170.451 217.43 170.52C217.373 169.712 217.273 168.907 217.13 168.11C217.07 167.794 216.909 167.506 216.67 167.29L216.74 167.16C216.855 166.979 216.928 166.775 216.954 166.562C216.98 166.349 216.958 166.133 216.89 165.93C216.823 165.73 216.712 165.548 216.565 165.397C216.418 165.246 216.238 165.131 216.04 165.06L215.61 164.91C215.769 164.555 215.848 164.17 215.842 163.781C215.836 163.392 215.744 163.01 215.573 162.66C215.402 162.311 215.156 162.004 214.853 161.76C214.551 161.516 214.198 161.342 213.82 161.25H213.71C214.009 160.712 214.108 160.085 213.99 159.48C213.99 159.37 213.99 159.25 213.99 159.13C213.99 158.903 213.936 158.679 213.831 158.477C213.727 158.275 213.575 158.101 213.39 157.97C213.167 157.814 212.902 157.73 212.63 157.73H212.54C212.555 157.386 212.49 157.044 212.35 156.73C212.172 156.39 211.921 156.093 211.615 155.862C211.309 155.63 210.956 155.469 210.58 155.39C210.253 155.298 209.907 155.298 209.58 155.39L209.86 151.33C209.876 151.035 209.803 150.742 209.65 150.49C209.51 150.25 209.36 149.99 209.2 149.73C208.735 148.883 208.214 148.067 207.64 147.29C207.293 146.865 206.832 146.549 206.31 146.38C206.19 144.38 206.04 141.79 204.11 139.62C203.652 139.054 203.25 138.444 202.91 137.8C202.73 137.48 202.54 137.15 202.34 136.8C202.14 136.45 202.07 136.39 201.93 136.19C201.731 135.958 201.572 135.694 201.46 135.41C201.098 133.234 200.013 131.243 198.38 129.76L198.5 129.12C198.548 128.874 198.531 128.621 198.45 128.384C198.369 128.147 198.228 127.935 198.04 127.77C197.814 127.574 197.528 127.461 197.23 127.45L197.1 127.22C196.6 126.38 196.1 125.55 195.64 124.69C195.446 124.304 195.276 123.907 195.13 123.5C194.812 122.375 194.173 121.367 193.29 120.6C192.236 119.979 191.042 119.635 189.82 119.6C189.833 118.459 189.643 117.325 189.26 116.25L189.46 116.11C189.768 115.862 189.965 115.503 190.01 115.11C190.048 114.705 189.93 114.301 189.68 113.98L186.98 110.56C186.848 110.394 186.681 110.261 186.49 110.17C186.609 109.893 186.641 109.586 186.58 109.29C186.545 109.081 186.462 108.882 186.339 108.709C186.216 108.536 186.056 108.393 185.87 108.29L185.06 107.87C185.183 107.628 185.236 107.356 185.211 107.085C185.186 106.814 185.085 106.556 184.92 106.34C184.66 106 184.41 105.63 184.17 105.27C183.462 103.96 182.379 102.891 181.06 102.2C181.315 101.989 181.488 101.695 181.55 101.37C181.595 101.121 181.575 100.865 181.491 100.626C181.407 100.388 181.262 100.175 181.07 100.01L180.22 99.3001L180.32 99.0501C180.68 98.1401 181.05 97.2101 181.44 96.3001C181.59 95.9601 181.73 95.6001 181.86 95.2401C182.074 94.4892 182.412 93.7794 182.86 93.14C183.6 92.3815 184.145 91.4548 184.448 90.4393C184.751 89.4239 184.803 88.3501 184.6 87.3101C185.027 87.1749 185.419 86.9458 185.746 86.6395C186.073 86.3332 186.327 85.9575 186.49 85.54C186.65 85.0255 186.65 84.4745 186.49 83.96L186.97 83.8601C187.301 83.7816 187.593 83.585 187.79 83.3071C187.987 83.0291 188.076 82.6888 188.04 82.35L187.91 81.0001C188.46 80.8017 188.944 80.4557 189.31 80.0001C189.835 79.4329 190.277 78.7929 190.62 78.1C190.916 77.3353 190.944 76.4929 190.7 75.71C190.6 75.4713 190.446 75.259 190.25 75.09L190.34 74.97L193.61 70.7C193.815 70.4312 193.918 70.0979 193.9 69.76C194.033 69.6736 194.155 69.5693 194.26 69.45C194.42 69.2483 194.523 69.0079 194.56 68.7533C194.597 68.4987 194.566 68.2388 194.47 68.0001L193.32 65.15L194.67 63.4201C194.799 63.2514 194.89 63.0568 194.936 62.8496C194.983 62.6425 194.984 62.4277 194.94 62.22C194.829 61.5763 194.793 60.9221 194.83 60.27C194.83 58.93 194.83 57.1801 193.66 55.9901L194.25 54.1101C194.354 53.7736 194.331 53.4107 194.185 53.0901C194.04 52.7695 193.782 52.5133 193.46 52.3701L192.88 52.13L193.23 51.6C193.439 51.2889 193.521 50.9098 193.46 50.54C193.393 50.1778 193.189 49.8554 192.89 49.64C192.434 49.1941 192.091 48.6455 191.89 48.04C191.585 47.2367 191.138 46.4948 190.57 45.85C190.26 45.4918 189.88 45.2005 189.454 44.9941C189.027 44.7878 188.563 44.6707 188.09 44.65H187.99C188.017 44.0495 187.849 43.4564 187.51 42.96C187.049 42.3499 186.373 41.9386 185.62 41.8101C185.548 41.7349 185.471 41.6647 185.39 41.6L184.51 40.9901C184.057 40.71 183.629 40.3922 183.23 40.04C182.888 39.6949 182.475 39.4287 182.02 39.26C182.039 39.0569 182.014 38.8521 181.945 38.6602C181.875 38.4682 181.764 38.294 181.62 38.15C181.383 37.9145 181.064 37.7816 180.73 37.78C180.489 37.7797 180.253 37.8492 180.05 37.98C179.867 37.9184 179.692 37.8344 179.53 37.73C179.134 37.4879 178.697 37.3217 178.24 37.2401V37.2401C178.167 37.0135 178.036 36.8097 177.861 36.6484C177.686 36.4872 177.472 36.3741 177.24 36.32C176.889 36.2372 176.53 36.197 176.17 36.2C175.83 36.2 175.5 36.2 175.17 36.27C174.84 36.34 174.76 36.27 174.57 36.27H174.36C174.287 36.173 174.229 36.065 174.19 35.95C174.123 35.778 174.022 35.6213 173.893 35.489C173.764 35.3568 173.61 35.2517 173.44 35.1801C173.279 35.1114 173.105 35.0773 172.93 35.08C172.743 35.0805 172.559 35.1214 172.39 35.2L171.6 35.54V35.4401C171.551 35.2578 171.465 35.0878 171.346 34.9414C171.227 34.7949 171.078 34.6752 170.91 34.59C170.725 34.4925 170.519 34.4411 170.31 34.4401C170.153 34.4415 169.998 34.4685 169.85 34.52L168.75 34.9401C168.326 34.4319 167.754 34.069 167.114 33.9022C166.474 33.7355 165.798 33.7731 165.18 34.01L164.98 33.6801C164.862 33.4797 164.694 33.3135 164.492 33.1978C164.291 33.0821 164.062 33.0208 163.83 33.02C163.661 33.0195 163.495 33.0535 163.34 33.1201L161 34.0601C160.868 33.8754 160.698 33.7216 160.502 33.6093C160.305 33.4971 160.086 33.4291 159.86 33.41H158.98C158.25 33.41 157.08 33.4101 156.6 34.3601C156.433 34.3456 156.266 34.3456 156.1 34.3601C155.928 34.3591 155.757 34.3793 155.59 34.4201C155.04 34.5601 154.49 34.6501 153.93 34.7401C153.37 34.8301 153.06 34.89 152.63 34.98C152.398 35.0324 152.173 35.113 151.96 35.22C151.481 35.0072 150.964 34.8949 150.44 34.89C148.72 34.89 147.61 36.14 146.8 37.04C146.57 37.29 146.35 37.5401 146.13 37.7401C145.43 38.3701 145.13 38.5001 145.05 38.5001C144.97 38.5001 144.78 38.5001 144.16 37.7401C143.994 37.5343 143.769 37.3833 143.516 37.3066C143.263 37.23 142.992 37.2312 142.74 37.3101C142.474 37.3831 142.236 37.5349 142.057 37.7454C141.879 37.956 141.768 38.2155 141.74 38.4901L141.58 39.79C141.494 39.7797 141.406 39.7797 141.32 39.79C141.029 39.7962 140.745 39.8827 140.5 40.04L137.68 41.96C135.96 43.14 134.24 44.31 132.5 45.45C132.16 45.6605 131.859 45.9277 131.61 46.2401C131.533 46.2305 131.456 46.2305 131.38 46.2401C131.251 46.2206 131.119 46.2206 130.99 46.2401C130.763 46.3132 130.559 46.4437 130.398 46.619C130.237 46.7942 130.124 47.0082 130.07 47.2401L129.77 48.3601L128.08 49.4301C127.906 49.5386 127.758 49.6847 127.647 49.8577C127.536 50.0307 127.465 50.2263 127.44 50.4301C127.399 50.7857 127.495 51.1435 127.71 51.4301C127.137 51.6322 126.553 51.7992 125.96 51.9301C125.83 51.9409 125.7 51.9409 125.57 51.9301C125.195 51.9241 124.825 51.8459 124.48 51.7L124.1 51.53C123.441 51.1804 122.715 50.9758 121.97 50.9301C121.586 50.931 121.206 51.0083 120.852 51.1577C120.499 51.3071 120.178 51.5255 119.91 51.8001L118.22 51.98C117.52 51.456 116.674 51.1656 115.8 51.15C114.417 51.2869 113.114 51.8615 112.08 52.79L111.91 52.91L111.8 52.76C111.676 52.5926 111.515 52.4565 111.329 52.3627C111.143 52.2689 110.938 52.22 110.73 52.22C110.485 52.2178 110.245 52.2873 110.04 52.4201C109.56 52.7101 109.09 53.0501 108.62 53.4201C107.861 54.0566 106.989 54.545 106.05 54.8601C103.78 55.3401 103.13 56.6601 103.05 57.8601C102.812 57.8634 102.579 57.9288 102.373 58.0498C102.168 58.1708 101.998 58.3433 101.88 58.5501C101.74 58.8101 101.6 59.02 101.48 59.21C101.151 59.6625 100.907 60.1707 100.76 60.71C100.59 61.41 100.49 62.13 100.38 62.85C100.31 63.32 100.25 63.7901 100.16 64.2501C99.9599 65.2501 99.7599 66.38 100.41 67.2C100.596 67.4429 100.845 67.6298 101.13 67.7401C101.011 68.0903 101.029 68.4724 101.18 68.8101C101.254 68.9613 101.352 69.0997 101.47 69.22L101.32 69.35C101.068 69.6097 100.891 69.9329 100.808 70.2851C100.726 70.6373 100.74 71.0053 100.85 71.35C100.857 71.5406 100.904 71.7276 100.987 71.8996C101.069 72.0716 101.186 72.2249 101.33 72.35C101.572 72.5597 101.88 72.6766 102.2 72.6801H102.45C102.274 73.2912 102.243 73.9349 102.36 74.5601C102.707 76.2449 103.333 77.8602 104.21 79.34C104.447 79.7724 104.619 80.2374 104.72 80.72C104.841 81.2367 105.015 81.7394 105.24 82.22C105.967 83.6156 106.832 84.9354 107.82 86.16C108.02 86.41 108.21 86.66 108.38 86.9C108.38 87.13 108.38 87.36 108.38 87.57C108.38 88.82 108.29 89.9901 109.61 90.3101C109.7 90.5094 109.77 90.7171 109.82 90.9301C109.94 91.5894 110.23 92.2062 110.66 92.72C110.975 93.0678 111.272 93.4316 111.55 93.8101L111.98 94.3701C112.064 94.4696 112.162 94.5571 112.27 94.63C112.308 96.2809 112.799 97.8897 113.69 99.28C113.108 99.6797 112.666 100.251 112.426 100.915C112.186 101.578 112.159 102.301 112.35 102.98L110.44 104.57C110.269 104.714 110.134 104.895 110.046 105.1C109.957 105.305 109.918 105.527 109.93 105.75L109.75 105.84C108.46 106.52 107.4 109.43 107.03 111.39H106.97C106.767 111.394 106.568 111.439 106.384 111.523C106.2 111.608 106.035 111.729 105.9 111.88C105.091 112.829 104.346 113.831 103.67 114.88C103.48 115.241 103.413 115.653 103.478 116.055C103.543 116.457 103.736 116.828 104.03 117.11L104.15 117.29C103.33 117.83 102.56 118.29 101.82 118.92C101.417 119.277 101.167 119.774 101.12 120.31C100.4 120.4 99.5398 120.89 98.9898 122.49C98.3198 124.43 97.5898 126.35 96.8598 128.26L96.2799 129.79L94.9998 129.98C94.8182 130.007 94.644 130.071 94.4876 130.167C94.3312 130.263 94.196 130.39 94.0899 130.54C93.8778 130.854 93.7919 131.236 93.8498 131.61L94.1399 133.33L93.5799 133.12C93.4352 133.069 93.2832 133.042 93.1299 133.04C92.9408 133.04 92.7538 133.08 92.5814 133.157C92.4089 133.235 92.255 133.348 92.1299 133.49C91.9505 133.693 91.8319 133.942 91.7877 134.209C91.7435 134.476 91.7754 134.75 91.8799 135C92.0731 135.442 92.2368 135.896 92.3698 136.36H92.2498C91.8343 136.471 91.4673 136.717 91.2066 137.059C90.946 137.401 90.8065 137.82 90.8099 138.25C90.8099 139.47 90.8099 140.68 90.8099 141.89C90.6089 141.851 90.4047 141.831 90.1999 141.83C88.2999 141.83 87.7699 143.4 86.9599 145.77C86.8799 145.99 86.8098 146.23 86.7298 146.47C86.5951 147.05 86.3727 147.607 86.0699 148.12C85.4299 148.5 84.0699 149.28 84.1399 150.59C84.1346 150.663 84.1346 150.737 84.1399 150.81C83.8391 150.959 83.6016 151.211 83.4699 151.52C83.3812 151.735 83.3449 151.967 83.364 152.198C83.3831 152.43 83.4572 152.653 83.5799 152.85L83.8999 153.4L82.0599 154.02C81.8352 154.095 81.6333 154.226 81.474 154.401C81.3146 154.576 81.203 154.789 81.1499 155.02C81.0999 155.257 81.1104 155.504 81.1803 155.736C81.2501 155.968 81.3773 156.18 81.5499 156.35L81.6999 156.49C81.1335 156.864 80.619 157.311 80.1699 157.82C79.7587 158.302 79.4507 158.863 79.265 159.468C79.0792 160.074 79.0196 160.711 79.0899 161.34C79.1432 161.698 79.2336 162.05 79.3598 162.39H79.2699L78.7999 162.55C78.5803 162.628 78.3842 162.761 78.2302 162.936C78.0762 163.111 77.9694 163.322 77.9199 163.55C77.8949 163.706 77.8949 163.864 77.9199 164.02C75.7699 165.56 75.8499 167.83 76.0099 169.48L75.6999 169.65C75.2056 169.84 74.7612 170.141 74.4007 170.529C74.0403 170.918 73.7732 171.383 73.6198 171.89C73.4865 172.569 73.5852 173.274 73.8999 173.89C73.6799 174.32 73.4999 174.77 73.3099 175.22L73.0998 175.72C73.0063 175.943 72.9694 176.186 72.992 176.426C73.0147 176.667 73.0963 176.898 73.2298 177.1L73.0998 177.16C72.2598 177.59 70.0299 178.72 71.0099 181.7C71.2816 182.05 71.451 182.469 71.4992 182.91C71.5475 183.351 71.4727 183.796 71.2832 184.197C71.0936 184.598 70.7968 184.938 70.4255 185.181C70.0543 185.423 69.6231 185.558 69.1799 185.57C69.0833 185.82 69.0565 186.092 69.1023 186.356C69.1481 186.62 69.2648 186.867 69.4399 187.07C69.3937 187.203 69.3603 187.341 69.3399 187.48C69.3199 187.629 69.3199 187.781 69.3399 187.93H69.1399C68.9329 187.953 68.7344 188.025 68.5606 188.14C68.3868 188.255 68.2427 188.409 68.1399 188.59C68.0261 188.778 67.957 188.989 67.938 189.207C67.9189 189.426 67.9504 189.646 68.0299 189.85C68.0393 190.049 68.0191 190.247 67.9699 190.44C67.8439 190.911 67.8251 191.405 67.9151 191.884C68.0051 192.364 68.2015 192.817 68.4898 193.21V193.21C68.0648 193.51 67.7117 193.901 67.4558 194.354C67.1999 194.807 67.0476 195.311 67.0099 195.83C67.0467 196.586 67.3682 197.301 67.9099 197.83L67.5799 198.04C67.3318 198.2 67.1397 198.433 67.0304 198.708C66.921 198.982 66.9 199.283 66.9699 199.57C67.0899 200.08 67.2499 200.57 67.3899 200.97C67.5139 201.294 67.6077 201.629 67.6699 201.97C67.4199 202.694 67.3176 203.461 67.3691 204.225C67.4206 204.99 67.625 205.736 67.9699 206.42C68.4973 207.347 69.3375 208.056 70.3399 208.42C69.8486 208.824 69.4984 209.374 69.3399 209.99C69.2175 210.602 69.2564 211.236 69.4527 211.828C69.6491 212.421 69.9962 212.952 70.4599 213.37C70.6432 213.589 70.8072 213.823 70.9499 214.07C71.1699 214.42 71.3898 214.77 71.5998 215.07C71.5998 215.07 71.9399 215.62 71.9699 215.65V215.89C72.004 216.33 72.1157 216.76 72.2999 217.16C72.9299 218.41 74.5699 219 76.0099 219.23C75.2099 220.06 75.7399 221.08 76.3099 222.17C76.4499 222.42 76.5799 222.67 76.6699 222.87C76.7487 223.043 76.8622 223.198 77.0033 223.325C77.1443 223.452 77.3098 223.549 77.4898 223.61C77.6228 223.65 77.761 223.67 77.8999 223.67C78.1351 223.669 78.3661 223.607 78.5699 223.49L79.2498 223.09L79.7199 223.87C79.5444 224.317 79.5444 224.813 79.7199 225.26C80.0499 226.08 80.7199 226.37 82.3199 226.81C82.2498 228.121 82.6467 229.414 83.4399 230.46C83.8158 230.91 84.2898 231.267 84.8255 231.504C85.3612 231.742 85.9443 231.853 86.5299 231.83H86.7398C87.0013 231.832 87.2622 231.855 87.5199 231.9C87.5189 232.052 87.4988 232.203 87.4599 232.35C87.3847 232.635 87.4002 232.937 87.5041 233.213C87.6081 233.489 87.7953 233.725 88.0399 233.89L93.0998 237.26C93.3634 237.434 93.6802 237.508 93.9935 237.469C94.3068 237.431 94.5961 237.282 94.8099 237.05L97.6399 239.84C97.7611 239.964 97.9058 240.062 98.0655 240.129C98.2252 240.196 98.3967 240.23 98.5699 240.23C98.6798 240.113 98.8255 240.036 98.9841 240.012C99.1427 239.987 99.305 240.016 99.4452 240.094C99.5853 240.172 99.6953 240.295 99.7578 240.443C99.8202 240.591 99.8315 240.755 99.7899 240.91L102.03 242.65C102.263 242.831 102.55 242.929 102.845 242.929C103.14 242.929 103.427 242.831 103.66 242.65C103.853 242.503 104.003 242.393 104.11 242.32C104.11 242.41 104.11 242.52 104.18 242.64C104.36 243.72 105.32 244.03 106.25 244.33C106.56 244.43 106.91 244.54 107.25 244.69C107.409 244.753 107.579 244.787 107.75 244.79C107.974 244.788 108.194 244.73 108.39 244.62H108.6H109.22C109.42 244.62 109.63 244.57 109.83 244.57H110.01C110.406 244.597 110.795 244.691 111.16 244.85C111.9 245.3 112.63 245.85 113.35 246.3C114.07 246.75 114.52 247.11 115.12 247.49C115.497 247.715 115.909 247.874 116.34 247.96L116.65 248.04C116.779 248.08 116.914 248.1 117.05 248.1C117.311 248.098 117.565 248.018 117.78 247.87C117.924 247.773 118.046 247.647 118.14 247.5C118.498 247.933 118.897 248.332 119.33 248.69C119.569 248.881 119.864 248.987 120.17 248.99H120.32L124.49 248.52C124.427 248.705 124.403 248.901 124.42 249.096C124.437 249.29 124.495 249.479 124.59 249.65C124.689 249.838 124.832 250.001 125.005 250.124C125.179 250.247 125.379 250.328 125.59 250.36C126.48 250.48 127.32 250.56 128.13 250.63C129.62 250.695 131.096 250.954 132.52 251.4C132.979 251.583 133.466 251.684 133.96 251.7C134.306 251.699 134.648 251.62 134.96 251.47L135.09 251.72C135.202 251.942 135.374 252.129 135.586 252.259C135.797 252.39 136.041 252.459 136.29 252.46H136.37C136.632 252.442 136.883 252.349 137.092 252.191C137.302 252.033 137.461 251.817 137.55 251.57C137.87 250.72 138.11 250.57 138.15 250.57C138.453 250.61 138.745 250.708 139.01 250.86C139.497 251.089 140.031 251.202 140.57 251.19C140.935 251.183 141.299 251.153 141.66 251.1H141.84L144.91 251.49C145.1 251.762 145.349 251.988 145.638 252.15C145.927 252.313 146.249 252.409 146.58 252.43C147.034 252.427 147.47 252.252 147.8 251.94H147.96C149.47 252.04 150.55 252.11 151.32 252.11C151.785 252.171 152.259 252.126 152.704 251.977C153.15 251.828 153.555 251.579 153.89 251.25C153.932 251.201 153.969 251.147 154 251.09L154.4 251.36C154.616 251.505 154.87 251.581 155.13 251.58C155.327 251.582 155.523 251.538 155.7 251.45L156.28 251.15C156.652 251.422 157.099 251.572 157.56 251.58C157.902 251.563 158.237 251.475 158.543 251.321C158.849 251.168 159.121 250.953 159.34 250.69H159.65C160.03 250.69 160.42 250.79 160.8 250.86C161.489 250.99 162.188 251.064 162.89 251.08C163.161 251.083 163.432 251.067 163.7 251.03C165.54 250.78 167.36 250.37 169.11 250.03L171.26 249.56C171.578 249.513 171.88 249.389 172.14 249.2C172.45 248.97 172.76 248.72 173.06 248.47L173.47 248.13C173.585 248.292 173.734 248.428 173.907 248.526C174.079 248.625 174.272 248.684 174.47 248.7H174.57C174.759 248.703 174.947 248.664 175.12 248.587C175.293 248.509 175.447 248.394 175.57 248.25L175.92 247.9C176.29 247.536 176.625 247.137 176.92 246.71C177.13 246.359 177.285 245.978 177.38 245.58C177.418 245.444 177.465 245.31 177.52 245.18C177.69 244.88 177.87 244.59 178.05 244.29C178.17 245.29 178.48 247.09 180.25 247.09C180.887 247.046 181.509 246.877 182.08 246.59C183.95 245.77 185.83 244.98 187.72 244.19L190.09 243.19C190.32 243.088 190.519 242.928 190.667 242.724C190.814 242.52 190.905 242.28 190.93 242.03V241.77C191.136 241.818 191.348 241.842 191.56 241.84C192.134 241.814 192.699 241.688 193.23 241.47C193.419 241.384 193.617 241.321 193.82 241.28C194.19 241.238 194.547 241.119 194.868 240.929C195.188 240.739 195.465 240.484 195.68 240.18C195.946 239.753 196.072 239.253 196.04 238.75C196.26 238.795 196.485 238.818 196.71 238.82C197.833 238.761 198.898 238.299 199.71 237.52C200.728 236.663 201.819 235.897 202.97 235.23C203.62 234.83 204.28 234.42 204.92 233.98C205.307 233.738 205.724 233.547 206.16 233.41C206.964 233.14 207.705 232.712 208.34 232.15C209.317 231.13 210.207 230.029 211 228.86C211.28 228.47 211.56 228.08 211.86 227.69C212.055 227.746 212.257 227.773 212.46 227.77C213.75 227.77 214.61 226.77 215.02 224.77C215.885 224.272 216.582 223.527 217.02 222.63C217.234 222.187 217.549 221.8 217.94 221.5C218.295 221.274 218.59 220.966 218.802 220.602C219.014 220.239 219.137 219.83 219.16 219.41C219.371 219.398 219.575 219.329 219.75 219.21C220.6 218.66 222.99 217.13 222.04 214.21L222.17 214.11C223.119 213.452 223.886 212.565 224.4 211.53C224.686 210.624 224.611 209.642 224.19 208.79L226.11 207.68C226.306 207.561 226.471 207.396 226.591 207.2C226.71 207.005 226.782 206.783 226.798 206.554C226.815 206.325 226.776 206.095 226.686 205.884C226.596 205.673 226.457 205.486 226.28 205.34L224 203.56ZM214.11 209.72C214.335 210.126 214.398 210.602 214.287 211.053C214.175 211.503 213.898 211.895 213.51 212.15C212.33 213.327 211.256 214.605 210.3 215.97C209.87 216.54 209.44 217.12 208.98 217.7C208.829 217.888 208.729 218.112 208.689 218.35C208.648 218.588 208.669 218.833 208.75 219.06C207.85 219.39 206.95 219.75 206.07 220.15C205.016 220.733 204.228 221.7 203.87 222.85C203.83 222.984 203.803 223.121 203.79 223.26C203.571 223.289 203.354 223.329 203.14 223.38L202.86 223.44C202.655 223.459 202.458 223.525 202.284 223.635C202.11 223.744 201.965 223.893 201.86 224.07C201.713 224.317 201.647 224.604 201.67 224.89H201.46C201.163 224.892 200.874 224.991 200.638 225.171C200.401 225.351 200.23 225.604 200.15 225.89H200.05C199.635 225.943 199.239 226.091 198.892 226.324C198.544 226.556 198.256 226.867 198.05 227.23L197.82 227.56C197.651 227.829 197.46 228.083 197.25 228.32C196.92 228.64 196.56 228.93 196.25 229.22L195.84 229.56C194.631 230.348 193.368 231.05 192.06 231.66C191.735 231.761 191.399 231.822 191.06 231.84C190.25 231.92 188.61 232.09 187.95 233.57L187.51 233.45C187.394 233.435 187.276 233.435 187.16 233.45C186.973 233.447 186.788 233.483 186.616 233.555C186.444 233.627 186.288 233.735 186.16 233.87L186.03 234.04C185.836 233.978 185.633 233.948 185.43 233.95C184.532 234.066 183.684 234.43 182.98 235L182.61 235.23C182.27 235.44 181.93 235.61 181.61 235.79C180.586 236.271 179.65 236.92 178.84 237.71C178.576 237.982 178.332 238.273 178.11 238.58C177.987 238.435 177.833 238.319 177.66 238.24C177.488 238.16 177.3 238.12 177.11 238.12C176.967 238.118 176.825 238.142 176.69 238.19C176.212 238.345 175.712 238.416 175.21 238.4C174.9 238.4 174.6 238.4 174.29 238.4H173.86C173.415 238.412 172.975 238.5 172.56 238.66L170.39 239.4C169.31 239.77 168.23 240.14 167.14 240.49C166.05 240.84 165.01 241.14 163.92 241.49L163.12 241.72C162.877 241.496 162.56 241.371 162.23 241.37C162.069 241.37 161.909 241.401 161.76 241.46C161.14 241.7 160.56 241.95 159.98 242.2C158.897 242.734 157.751 243.131 156.57 243.38C156.158 243.225 155.773 243.006 155.43 242.73C155.138 242.52 154.834 242.326 154.52 242.15C154.332 242.051 154.122 242 153.91 242C153.721 242.001 153.534 242.041 153.362 242.119C153.19 242.196 153.036 242.309 152.91 242.45L152.24 243.2C152.075 243.011 151.872 242.859 151.645 242.754C151.418 242.649 151.17 242.593 150.92 242.59C150.788 242.591 150.657 242.607 150.53 242.64C150.457 242.523 150.366 242.418 150.26 242.33C150.019 242.127 149.715 242.014 149.4 242.01C149.284 241.995 149.166 241.995 149.05 242.01L144.48 243.28L142.85 242.69C142.705 242.643 142.553 242.619 142.4 242.62C142.152 242.618 141.909 242.688 141.7 242.82C141.622 242.871 141.549 242.928 141.48 242.99C141.253 242.729 140.976 242.516 140.665 242.365C140.354 242.213 140.015 242.127 139.67 242.11C139.346 242.118 139.027 242.198 138.738 242.345C138.449 242.493 138.197 242.703 138 242.96C136.488 241.767 134.605 241.144 132.68 241.2C132.011 241.204 131.343 241.251 130.68 241.34L129.68 240.34C129.437 240.116 129.12 239.991 128.79 239.99C128.619 239.994 128.45 240.028 128.29 240.09C128.084 240.18 127.902 240.317 127.759 240.491C127.617 240.665 127.518 240.87 127.47 241.09C127.147 240.93 126.813 240.793 126.47 240.68C126.27 240.61 125.99 240.51 125.82 240.43C125.798 240.084 125.653 239.757 125.41 239.51C125.159 239.262 124.822 239.122 124.47 239.12H124.16C123.85 239.12 123.55 239.2 123.26 239.25C123 239.308 122.736 239.338 122.47 239.34H122.37C122.134 239.213 121.918 239.051 121.73 238.86C121.543 238.693 121.353 238.533 121.16 238.38C120.927 238.211 120.647 238.12 120.36 238.12C120.25 238.105 120.139 238.105 120.03 238.12C119.689 238.219 119.401 238.449 119.23 238.76C119.073 238.689 118.902 238.652 118.73 238.65C118.637 238.64 118.543 238.64 118.45 238.65C118.353 238.655 118.256 238.655 118.16 238.65H117.84C117.612 238.313 117.298 238.043 116.93 237.87C116.29 237.61 115.64 237.39 114.93 237.15L114.47 236.99C114.432 236.76 114.343 236.542 114.21 236.35C113.912 235.961 113.529 235.644 113.091 235.424C112.653 235.204 112.17 235.086 111.68 235.08V235.08C110.826 235.129 109.977 235.243 109.14 235.42L108.36 235.55C108.274 235.391 108.174 235.24 108.06 235.1C107.804 234.813 107.504 234.57 107.17 234.38L107 234.28C106.599 233.49 105.989 232.825 105.236 232.357C104.483 231.89 103.616 231.638 102.73 231.63C102.547 231.62 102.363 231.62 102.18 231.63C101.939 231.269 101.618 230.968 101.241 230.751C100.865 230.534 100.443 230.407 100.01 230.38C100.005 230.104 99.9389 229.832 99.8161 229.585C99.6933 229.338 99.517 229.121 99.2999 228.95C99.0699 228.8 98.8398 228.61 98.5998 228.43C97.8128 227.649 96.7966 227.141 95.6999 226.98C94.2699 226.91 93.4198 226.24 92.4798 224.43C92.3486 224.165 92.1329 223.952 91.8667 223.823C91.6005 223.694 91.2989 223.658 91.0099 223.72L90.4399 223.84L85.8299 218.98C85.7734 218.162 85.4421 217.387 84.8899 216.78C84.4335 216.297 83.8519 215.951 83.2099 215.78C83.3166 215.535 83.3533 215.265 83.3163 215C83.2792 214.736 83.1697 214.486 82.9998 214.28L77.6299 207.87C77.8643 207.702 78.0525 207.477 78.1766 207.216C78.3007 206.956 78.3569 206.668 78.3399 206.38C78.276 205.165 77.7501 204.02 76.8698 203.18V203.12C77.042 202.865 77.1406 202.568 77.1548 202.261C77.1689 201.954 77.098 201.649 76.9499 201.38L75.3698 198.49L75.4898 197.49L77.4898 195.9C77.6718 195.758 77.8164 195.573 77.911 195.362C78.0055 195.152 78.0472 194.921 78.0324 194.69C78.0177 194.46 77.9468 194.236 77.8261 194.039C77.7055 193.843 77.5386 193.678 77.3399 193.56C77.5076 193.459 77.6521 193.325 77.7641 193.164C77.8761 193.004 77.953 192.822 77.9898 192.63C78.0304 192.427 78.0272 192.218 77.9807 192.016C77.9341 191.814 77.8453 191.625 77.7199 191.46C76.7199 190.16 77.2999 188.81 78.6699 186.91C79.3376 185.908 79.7653 184.765 79.9199 183.57C79.9917 182.851 80.2465 182.163 80.6599 181.57C80.9707 181.175 81.1669 180.702 81.2269 180.203C81.2869 179.704 81.2083 179.198 80.9998 178.74C80.9398 178.63 80.8998 178.53 80.8598 178.45L81.7398 178.35H82.1899C82.3899 178.336 82.5839 178.277 82.7573 178.176C82.9307 178.076 83.0787 177.937 83.1899 177.77C83.3034 177.607 83.3816 177.423 83.4195 177.228C83.4574 177.034 83.4541 176.833 83.4099 176.64L82.7999 173.87C83.1262 173.846 83.4439 173.754 83.733 173.601C84.0221 173.448 84.2764 173.236 84.4798 172.98C84.8027 172.581 85.0433 172.122 85.1875 171.629C85.3317 171.137 85.3767 170.62 85.3199 170.11C85.2531 169.641 85.0968 169.19 84.8598 168.78C85.5236 168.55 86.107 168.133 86.5399 167.58C87.1272 166.778 87.4298 165.803 87.3999 164.81C87.968 164.659 88.4598 164.303 88.7799 163.81C89.1635 163.066 89.398 162.254 89.4699 161.42L89.5499 160.94C89.5792 160.607 89.5792 160.273 89.5499 159.94C90.1752 159.431 90.6597 158.771 90.9572 158.021C91.2548 157.272 91.3556 156.459 91.2498 155.66V155.66C91.8698 155.16 92.7298 154.46 92.3698 153.38C92.3728 153.35 92.3728 153.32 92.3698 153.29C92.5998 153.29 92.8498 153.29 92.9798 153.29H93.7599C94.0035 153.284 94.241 153.212 94.447 153.081C94.653 152.951 94.8198 152.768 94.9299 152.55C95.0464 152.327 95.1022 152.078 95.0916 151.827C95.0811 151.576 95.0046 151.332 94.8698 151.12L93.9798 149.7C94.4254 149.543 94.8598 149.356 95.2799 149.14C95.6765 148.983 96.0263 148.726 96.2959 148.396C96.5654 148.065 96.7459 147.67 96.8199 147.25C96.8356 147.032 96.8153 146.812 96.7599 146.6C96.869 146.502 96.9663 146.391 97.0499 146.27C97.6671 145.346 98.2249 144.384 98.7199 143.39L99.2799 142.33C99.3803 142.15 99.4404 141.95 99.4559 141.745C99.4714 141.539 99.4421 141.333 99.3698 141.14L101.19 138.88C101.376 138.643 101.485 138.355 101.501 138.054C101.517 137.754 101.44 137.455 101.28 137.2C101.741 136.94 102.154 136.602 102.5 136.2C102.91 135.71 103.27 135.2 103.63 134.65C103.99 134.1 104.25 133.75 104.63 133.33C105.992 131.54 106.72 129.349 106.7 127.1C108.79 126.48 110.36 124.45 110.86 121.6C110.909 121.232 110.909 120.858 110.86 120.49C112.38 120.32 112.74 118.77 112.86 117.82C113.191 117.729 113.495 117.559 113.748 117.326C114 117.093 114.193 116.803 114.31 116.48C114.451 116.029 114.423 115.542 114.23 115.11C114.46 114.899 114.641 114.639 114.76 114.35C114.889 114.033 114.947 113.692 114.93 113.35C115.896 113.043 116.729 112.415 117.29 111.57C117.6 111.18 117.89 110.82 118.13 110.76C118.357 110.706 118.568 110.597 118.742 110.441C118.917 110.286 119.05 110.09 119.13 109.87C119.256 109.506 119.234 109.108 119.07 108.76C119.394 108.641 119.661 108.406 119.82 108.1L121.02 105.86C121.129 105.646 121.187 105.41 121.19 105.17C121.475 104.897 121.679 104.551 121.78 104.17C122.2 104.17 122.61 104.17 123.03 104.17C123.748 104.184 124.466 104.117 125.17 103.97L125.36 103.91C125.607 104.152 125.934 104.295 126.28 104.31V104.31C127.054 104.299 127.826 104.232 128.59 104.11C128.871 104.063 129.146 103.986 129.41 103.88L129.7 103.78C130.97 103.89 132.23 104.04 133.46 104.2H133.62V105.72L133.13 105.64H132.94C132.715 105.641 132.493 105.698 132.296 105.806C132.099 105.915 131.932 106.071 131.81 106.26C131.673 106.484 131.6 106.742 131.6 107.005C131.6 107.268 131.673 107.526 131.81 107.75C132.49 108.937 132.992 110.217 133.3 111.55V111.55C131.23 112.36 130.03 116.55 130.43 119.5C130.149 119.719 129.937 120.014 129.82 120.35C129.57 121.07 129.35 121.8 129.14 122.53C128.85 123.53 128.57 124.46 128.21 125.36C127.999 125.741 127.865 126.159 127.817 126.592C127.769 127.025 127.808 127.462 127.93 127.88C127.703 128.086 127.549 128.359 127.49 128.66C127.446 128.886 127.456 129.119 127.52 129.34C127.585 129.561 127.701 129.763 127.86 129.93C129.92 132.08 132.06 133.3 133.73 133.3C134.265 133.321 134.795 133.18 135.248 132.894C135.702 132.609 136.058 132.192 136.27 131.7C136.356 131.508 136.4 131.3 136.4 131.09C136.558 130.992 136.695 130.864 136.803 130.713C136.911 130.562 136.989 130.391 137.03 130.21L137.41 128.65C137.67 127.55 137.92 126.53 138.17 125.51L138.28 125.07C138.411 124.471 138.578 123.88 138.78 123.3C138.902 123.019 139.053 122.751 139.23 122.5L139.55 121.98C139.644 121.817 139.705 121.636 139.729 121.449C139.753 121.262 139.74 121.072 139.69 120.89C139.679 120.827 139.659 120.767 139.63 120.71C140.035 120.056 140.211 119.285 140.13 118.52C140.103 118.328 140.035 118.144 139.932 117.981C139.828 117.817 139.691 117.677 139.53 117.57C140.071 116.964 140.401 116.199 140.47 115.39C140.537 114.904 140.499 114.41 140.36 113.94C140.334 113.845 140.314 113.748 140.3 113.65C140.272 113.492 140.218 113.34 140.14 113.2C140.508 113.02 140.827 112.753 141.069 112.422C141.311 112.091 141.47 111.706 141.53 111.3C141.548 111.012 141.507 110.722 141.41 110.45V110.45C141.601 110.327 141.759 110.161 141.872 109.964C141.985 109.767 142.05 109.547 142.06 109.32L142.3 104.77C143.19 104.59 144.13 104.39 145.03 104.28C145.18 104.315 145.327 104.362 145.47 104.42C145.662 104.5 145.859 104.567 146.06 104.62C146.173 104.657 146.291 104.674 146.41 104.67C146.726 104.671 147.031 104.557 147.27 104.35C147.39 104.501 147.542 104.624 147.715 104.71C147.888 104.797 148.077 104.844 148.27 104.85C148.406 104.846 148.541 104.823 148.67 104.78L149.11 104.64C149.283 104.586 149.444 104.497 149.581 104.378C149.719 104.259 149.831 104.114 149.91 103.95C150.052 104.033 150.208 104.091 150.37 104.12L153.03 104.61H153.27C153.35 104.96 153.41 105.3 153.47 105.61C153.543 106.103 153.717 106.576 153.98 107L153.51 107.46C153.309 107.656 153.171 107.906 153.112 108.18C153.053 108.454 153.077 108.739 153.18 109C153.246 109.181 153.35 109.345 153.485 109.483C153.619 109.621 153.781 109.729 153.96 109.8C153.95 109.903 153.95 110.007 153.96 110.11L155.84 121.81C155.881 122.1 156.014 122.369 156.219 122.578C156.424 122.786 156.691 122.924 156.98 122.97C157.385 123.042 157.785 123.135 158.18 123.25C158.943 123.498 159.738 123.639 160.54 123.67C161.298 123.671 162.041 123.456 162.682 123.05C163.323 122.645 163.836 122.066 164.16 121.38C164.553 120.573 164.761 119.688 164.77 118.79C164.77 118.5 164.77 118.21 164.86 117.94C164.894 117.746 164.888 117.548 164.841 117.357C164.795 117.166 164.709 116.986 164.59 116.83C164.47 116.676 164.319 116.549 164.147 116.458C163.974 116.366 163.785 116.313 163.59 116.3V116.3L164.66 113.17C164.766 112.871 164.768 112.544 164.666 112.243C164.565 111.942 164.365 111.684 164.1 111.51L163.62 111.2C163.825 110.999 163.966 110.742 164.025 110.46C164.084 110.179 164.058 109.886 163.95 109.62L161.87 104.53L162 104.35C162.233 104.528 162.517 104.626 162.81 104.63L166.15 104.37C166.35 104.358 166.546 104.3 166.72 104.2C166.878 104.365 167.069 104.495 167.281 104.579C167.494 104.664 167.722 104.702 167.95 104.69C168.759 104.62 169.517 104.266 170.09 103.69C170.17 103.679 170.25 103.679 170.33 103.69C170.733 103.709 171.134 103.756 171.53 103.83C171.897 103.901 172.267 103.951 172.64 103.98L173.01 104.14L173.29 104.28C173.424 105.123 173.698 105.937 174.1 106.69C174.24 106.98 174.39 107.27 174.5 107.57C174.82 108.433 175.257 109.247 175.8 109.99C176.222 110.546 176.676 111.077 177.16 111.58L177.7 112.17C177.89 114.07 178.46 114.46 180.56 115.65L180.73 115.74C181.56 116.21 181.53 116.35 181.42 116.86C181.257 118.249 181.552 119.654 182.26 120.86C183.41 122.94 184.63 124.94 185.91 127.05C186.41 127.86 186.91 128.68 187.42 129.53C187.537 129.731 187.705 129.898 187.907 130.014C188.109 130.129 188.337 130.19 188.57 130.19H188.86C188.645 130.436 188.532 130.755 188.543 131.082C188.554 131.409 188.689 131.719 188.92 131.95C189.413 132.627 189.782 133.385 190.01 134.19C190.56 135.7 191.24 137.57 193.1 138.5C193.226 138.705 193.33 138.923 193.41 139.15C193.49 139.35 193.57 139.53 193.66 139.71C193.92 140.26 194.16 140.82 194.39 141.37L194.59 141.84C194.595 141.933 194.595 142.027 194.59 142.12C194.541 142.507 194.576 142.9 194.692 143.272C194.807 143.645 195.001 143.988 195.26 144.28C196.124 145.043 197.032 145.754 197.98 146.41L198.13 146.52L197.89 147.29C197.817 147.507 197.797 147.738 197.832 147.964C197.866 148.191 197.955 148.405 198.09 148.59C198.215 148.76 198.377 148.898 198.565 148.993C198.752 149.089 198.959 149.139 199.17 149.14H199.36L199.05 150.63C199.003 150.864 199.014 151.107 199.084 151.336C199.154 151.564 199.28 151.772 199.45 151.94C199.582 152.068 199.739 152.167 199.911 152.232C200.083 152.298 200.266 152.328 200.45 152.32C200.569 152.339 200.691 152.339 200.81 152.32V152.32C200.95 152.587 201.145 152.821 201.383 153.005C201.622 153.19 201.897 153.321 202.19 153.39C201.66 155.1 201.64 156.14 202.82 157.48C203.505 158.358 204.076 159.319 204.52 160.34C204.67 160.64 204.81 160.93 204.96 161.21C205.263 161.842 205.653 162.428 206.12 162.95C205.982 163.132 205.891 163.344 205.852 163.568C205.814 163.793 205.83 164.023 205.9 164.24C205.9 164.38 205.97 164.54 206 164.69C206.08 165.412 206.396 166.087 206.9 166.61C207.556 167.171 208.247 167.689 208.97 168.16L208.78 168.41C208.632 168.614 208.539 168.853 208.511 169.104C208.483 169.355 208.521 169.608 208.62 169.84C208.708 170.046 208.845 170.228 209.02 170.369C209.194 170.51 209.4 170.606 209.62 170.65C209.621 170.667 209.621 170.683 209.62 170.7C209.398 171.468 209.475 172.292 209.835 173.006C210.194 173.72 210.811 174.271 211.56 174.55C211.333 174.731 211.168 174.979 211.089 175.259C211.01 175.539 211.021 175.837 211.12 176.11C211.472 177.145 211.91 178.148 212.43 179.11C212.61 179.47 212.81 179.86 213.01 180.29C213.068 180.401 213.139 180.505 213.22 180.6C213.297 180.822 213.387 181.039 213.49 181.25C213.596 181.464 213.717 181.671 213.85 181.87L214.02 182.14C214.15 182.79 214.23 183.46 214.31 184.2L214.44 185.27C214.471 185.473 214.545 185.668 214.657 185.84C214.769 186.012 214.917 186.159 215.09 186.27C215.298 186.396 215.537 186.462 215.78 186.46C215.947 186.461 216.114 186.431 216.27 186.37L216.68 186.21C216.74 187.45 216.81 188.64 216.97 189.85C216.992 190.068 217.049 190.281 217.14 190.48C216.851 190.573 216.599 190.754 216.42 190.998C216.24 191.242 216.142 191.537 216.14 191.84C216.14 191.92 216.14 192.03 216.14 192.15C216.03 192.584 216.013 193.036 216.088 193.477C216.164 193.918 216.332 194.338 216.58 194.71C216.897 195.074 217.289 195.364 217.73 195.56L216.99 196.69C216.801 196.972 216.718 197.312 216.757 197.649C216.795 197.986 216.952 198.298 217.2 198.53L217.61 198.9C217.595 199.043 217.595 199.187 217.61 199.33C217.595 199.889 217.722 200.443 217.98 200.94C217.927 201.014 217.883 201.095 217.85 201.18L216.68 204.32C216.582 204.571 216.558 204.845 216.61 205.11C216.398 205.145 216.196 205.229 216.023 205.356C215.849 205.482 215.708 205.648 215.61 205.84C215.509 206.044 215.456 206.268 215.456 206.495C215.456 206.722 215.509 206.947 215.61 207.15C215.703 207.32 215.774 207.502 215.82 207.69C215.685 207.724 215.548 207.747 215.41 207.76C215.205 207.783 215.009 207.853 214.836 207.964C214.662 208.075 214.517 208.224 214.41 208.4C214.268 208.585 214.171 208.801 214.128 209.03C214.084 209.26 214.095 209.496 214.16 209.72H214.11ZM109.42 68.1101C109.544 67.9249 109.654 67.7311 109.75 67.53C109.97 67.0569 110.075 66.5383 110.056 66.0168C110.037 65.4953 109.894 64.9858 109.64 64.53L109.24 63.8701C109.908 63.634 110.493 63.2061 110.92 62.64C111.68 61.54 112.05 61.54 112.21 61.54C112.653 61.5906 113.078 61.7448 113.45 61.9901C113.65 62.1075 113.878 62.1696 114.11 62.1701C114.315 62.1674 114.517 62.1183 114.701 62.0266C114.884 61.9348 115.045 61.8026 115.17 61.64L115.37 61.3601C115.614 61.589 115.935 61.7175 116.27 61.72C116.396 61.7197 116.52 61.6995 116.64 61.66L117.47 61.41C118.06 61.23 118.61 61.06 119.33 60.89C119.848 60.7391 120.381 60.6485 120.92 60.6201V60.6201C121.59 60.6391 122.259 60.7059 122.92 60.82L123.6 60.9201C124.22 61.0001 124.88 61.0201 125.54 61.0501C126.568 60.9626 127.601 61.1416 128.54 61.57C129.477 62.3105 130.636 62.7154 131.83 62.72C132.451 62.7091 133.068 62.6251 133.67 62.47V62.57C133.585 62.7933 133.556 63.0341 133.585 63.2712C133.615 63.5084 133.702 63.7346 133.84 63.9301C133.965 64.1022 134.129 64.2425 134.318 64.3398C134.508 64.4371 134.717 64.4885 134.93 64.4901L137.08 64.3101C137.075 64.4033 137.075 64.4968 137.08 64.59C137.116 65.0521 137.278 65.4955 137.548 65.8726C137.817 66.2496 138.184 66.5461 138.61 66.73C138.718 66.7885 138.822 66.8554 138.92 66.9301C139.327 67.2064 139.776 67.4157 140.25 67.5501L140.68 67.71L141.52 68.07C143.7 68.99 145.76 69.8701 147.31 71.7401C147.789 72.4355 148.42 73.0135 149.154 73.4309C149.888 73.8482 150.707 74.0941 151.55 74.15C151.939 74.1467 152.325 74.0929 152.7 73.9901L153.7 75.76C153.816 75.9715 153.987 76.148 154.194 76.2711C154.402 76.3942 154.639 76.4595 154.88 76.46C155.082 76.4613 155.281 76.4132 155.46 76.32L156.05 76.03C156.132 75.9895 156.21 75.9391 156.28 75.88C156.763 76.2639 157.363 76.4688 157.98 76.46H158.41L159.1 78.27C159.174 78.4783 159.299 78.6649 159.463 78.8132C159.627 78.9615 159.825 79.0669 160.04 79.1201C160.146 79.1354 160.254 79.1354 160.36 79.1201C160.69 79.1187 161.007 78.9938 161.25 78.77L161.92 78.16C162.071 78.6127 162.361 79.006 162.749 79.2843C163.137 79.5626 163.603 79.7115 164.08 79.71C164.418 79.6972 164.753 79.6469 165.08 79.5601C165.794 79.8557 166.544 80.0574 167.31 80.16C167.72 80.23 168.13 80.26 168.55 80.29C169.125 80.3079 169.696 80.3952 170.25 80.5501C170.948 80.8166 171.618 81.1516 172.25 81.5501C172.59 81.7401 172.93 81.9301 173.25 82.1101C173.438 82.2088 173.647 82.2602 173.86 82.26C174.024 82.2592 174.187 82.2288 174.34 82.1701C174.521 82.0981 174.684 81.9891 174.82 81.85C174.915 82.1085 175.086 82.332 175.311 82.491C175.536 82.6499 175.804 82.7368 176.08 82.7401C176.176 82.7491 176.273 82.7491 176.37 82.7401L176.94 82.6C177.1 82.5507 177.264 82.5139 177.43 82.4901H178.25C178.26 82.7685 178.236 83.0472 178.18 83.32C177.997 84.0021 177.767 84.6704 177.49 85.32C177.357 85.2798 177.219 85.2596 177.08 85.26C176.908 85.2584 176.738 85.2924 176.58 85.3601C176.375 85.4505 176.195 85.5883 176.054 85.7622C175.913 85.9361 175.816 86.1411 175.77 86.3601L175.66 86.79C175.57 87.14 175.48 87.48 175.41 87.79C175.344 88.1006 175.294 88.4143 175.26 88.73C175.244 89.0183 175.193 89.3036 175.11 89.58C174.432 90.5187 173.705 91.42 172.93 92.28L172.77 92.46H170.77C170.28 92.46 169.84 92.46 169.39 92.46C168.931 92.4853 168.473 92.5354 168.02 92.6101C167.566 92.6794 167.109 92.7194 166.65 92.73H166.4C165.63 92.68 164.87 92.5501 164.05 92.4201C163.23 92.2901 162.6 92.19 161.87 92.13H161.64C161.24 92.129 160.843 92.2082 160.474 92.3627C160.105 92.5173 159.77 92.7442 159.49 93.03C159.288 92.9191 159.061 92.8606 158.83 92.8601H156.21C155.37 92.8601 154.27 92.86 153.14 92.98C152.855 93.0092 152.585 93.1187 152.36 93.2958C152.135 93.4728 151.965 93.7101 151.87 93.98C151.692 93.6022 151.471 93.2464 151.21 92.9201C151.046 92.7162 150.837 92.5537 150.599 92.446C150.361 92.3383 150.101 92.2883 149.84 92.3001C149.31 92.3291 148.785 92.4265 148.28 92.59L147.64 92.76C147.403 92.5487 147.097 92.4314 146.78 92.4301H146.65L142.33 92.8601C142.095 92.8849 141.871 92.9709 141.679 93.1095C141.488 93.2481 141.337 93.4345 141.24 93.65L140.45 93.45C139.35 93.18 138.29 92.9301 137.25 92.6101C136.34 92.3056 135.389 92.1371 134.43 92.1101C133.143 92.0927 131.897 92.5604 130.94 93.4201C130.21 92.4701 129.53 91.79 128.54 91.79C128.113 91.8363 127.701 91.9736 127.332 92.1927C126.963 92.4118 126.645 92.7076 126.4 93.0601L124.6 93.22C124.479 93.0418 124.317 92.8958 124.127 92.7947C123.937 92.6937 123.725 92.6405 123.51 92.64H121.05C120.95 92.6296 120.85 92.6296 120.75 92.64C120.627 92.3872 120.487 92.1432 120.33 91.91C120.523 91.166 120.462 90.3787 120.156 89.6736C119.849 88.9685 119.316 88.3864 118.64 88.02C118.37 87.8507 118.13 87.6378 117.93 87.39C117.95 87.0782 117.865 86.7687 117.69 86.51C117.893 86.2882 118.023 86.0086 118.06 85.71C118.086 85.5184 118.071 85.3235 118.018 85.1376C117.965 84.9517 117.873 84.7789 117.75 84.63L116.06 82.5601C116.32 81.3101 116.01 79.77 114.06 78.2C114.131 78.0428 114.167 77.8724 114.167 77.7C114.167 77.5277 114.131 77.3572 114.06 77.2L113.57 75.9301L112.74 73.8101L112.46 73.1101C111.95 71.8201 111.46 70.54 110.87 69.28C110.722 69.0149 110.515 68.7871 110.265 68.6138C110.016 68.4406 109.73 68.3264 109.43 68.28L109.42 68.1101ZM159.28 43.1101C159.875 43.447 160.538 43.6452 161.22 43.6901H161.48C162.458 43.5577 163.42 43.323 164.35 42.9901C164.76 42.8601 165.19 42.72 165.65 42.59H165.72L166.3 43.7C166.413 43.9186 166.583 44.1021 166.793 44.2308C167.003 44.3594 167.244 44.4284 167.49 44.4301C167.599 44.4448 167.71 44.4448 167.82 44.4301L168.38 44.29C168.578 44.2321 168.762 44.1334 168.92 44.0001C169.533 44.5547 170.334 44.855 171.16 44.84C171.391 44.8391 171.622 44.819 171.85 44.78L172.96 45.45C173.165 45.5749 173.4 45.6406 173.64 45.64C173.837 45.6424 174.033 45.5978 174.21 45.51C174.409 45.4173 174.583 45.278 174.717 45.104C174.851 44.93 174.941 44.7262 174.98 44.51L175.06 44.03L176.06 44.22L175.96 44.29C175.778 44.4238 175.63 44.5985 175.528 44.8001C175.426 45.0016 175.373 45.2242 175.373 45.45C175.373 45.6758 175.426 45.8985 175.528 46.1C175.63 46.3015 175.778 46.4763 175.96 46.6101L180.6 49.84C180.819 49.9962 181.081 50.0801 181.35 50.08H181.44C181.48 50.1625 181.531 50.2397 181.59 50.3101C181.67 50.4101 181.74 50.51 181.8 50.6C182.055 51.0495 182.453 51.4013 182.93 51.6C184.27 52.08 185.05 52.92 184.84 55.6C184.74 56.92 184.7 58.18 185.45 59.02C185.613 59.2014 185.806 59.3536 186.02 59.47C185.359 60.5746 184.93 61.8019 184.758 63.0774C184.586 64.3529 184.675 65.65 185.02 66.89V66.9401L184.82 67.3601L182.61 73.01L181.74 72.83C180.992 72.6278 180.224 72.5137 179.45 72.4901C178.764 72.4895 178.085 72.6219 177.45 72.88C177.023 72.645 176.57 72.4604 176.1 72.33L175.56 72.16C175.41 72.1005 175.251 72.07 175.09 72.07C174.892 72.0688 174.697 72.1133 174.52 72.2C174.434 72.2404 174.354 72.2908 174.28 72.35C174.151 72.2799 174.018 72.2198 173.88 72.1701C172.434 71.7389 170.938 71.4968 169.43 71.45C168.79 71.4 168.11 71.35 167.52 71.29L163.94 70.5601C164.01 70.3013 164.01 70.0288 163.94 69.77L163.76 69.07C163.7 68.8281 163.575 68.6072 163.399 68.431C163.223 68.2548 163.002 68.13 162.76 68.07C162.657 68.0554 162.553 68.0554 162.45 68.07C162.257 68.0758 162.067 68.1235 161.895 68.2098C161.722 68.2962 161.57 68.4191 161.45 68.57C161.17 68.9 160.9 69.1101 160.72 69.1101C160.54 69.1101 160.12 68.76 159.94 68.46C159.625 67.9309 159.205 67.4718 158.707 67.1107C158.208 66.7496 157.641 66.4941 157.04 66.3601C156.733 66.2794 156.438 66.1618 156.16 66.01C155.88 65.8298 155.561 65.7201 155.23 65.6901C155.181 65.4764 155.081 65.2776 154.94 65.1101C154.834 64.9938 154.713 64.8929 154.58 64.8101L153.45 64.0501L151.38 62.65C150.951 62.3846 150.507 62.1442 150.05 61.9301C149.05 61.4701 148.54 61.18 148.27 60.53C148.158 60.255 147.965 60.0206 147.717 59.858C147.469 59.6955 147.177 59.6125 146.88 59.6201C146.79 59.6097 146.7 59.6097 146.61 59.6201H146.3C145.68 59.6201 145.3 59.19 144.48 58.16L144.26 57.88C143.988 57.4948 143.631 57.1772 143.216 56.9519C142.802 56.7265 142.341 56.5992 141.87 56.58C141.319 56.5856 140.784 56.764 140.34 57.09C139.63 56.3032 138.7 55.7491 137.67 55.5001L136.95 55.39C136.947 55.3367 136.947 55.2833 136.95 55.23C137.059 54.8103 137.059 54.3697 136.95 53.95C138.38 53.14 139.28 52.47 139.59 51.41C139.667 51.1268 139.701 50.8334 139.69 50.54H139.87C140.363 50.5804 140.856 50.4712 141.286 50.2268C141.716 49.9824 142.062 49.6142 142.28 49.1701C142.612 49.33 142.975 49.4179 143.344 49.4279C143.713 49.438 144.08 49.37 144.421 49.2283C144.762 49.0867 145.069 48.8747 145.322 48.6061C145.575 48.3376 145.769 48.0186 145.89 47.6701C146.08 47.6106 146.26 47.5193 146.42 47.4C146.82 47.09 147.21 46.77 147.63 46.4C147.912 46.5161 148.214 46.5772 148.52 46.58V46.58C150.05 46.58 150.52 45.15 150.65 44.28L152.65 44.8101C152.763 44.8246 152.877 44.8246 152.99 44.8101C153.242 44.8098 153.488 44.7369 153.7 44.6C153.857 44.5012 153.992 44.3712 154.097 44.2181C154.202 44.0651 154.274 43.8921 154.31 43.71L154.54 42.71L156.94 43.95C157.126 44.0445 157.332 44.0925 157.54 44.09C157.837 44.0924 158.126 43.9937 158.36 43.8101L159.2 43.15L159.28 43.1101Z" fill="#FFFFFF"/>
</svg>
