<svg width="36" height="38" viewBox="0 0 36 38" fill="none"
  xmlns="http://www.w3.org/2000/svg">
  <path fill-rule="evenodd" clip-rule="evenodd" d="M26.973 15.965C26.973 15.1143 26.303 14.4211 25.4775 14.4211C24.652 14.4211 23.982 15.1143 23.982 15.965C23.982 16.8156 24.652 17.5088 25.4775 17.5088C26.303 17.5088 26.973 16.8156 26.973 15.965ZM29.964 15.965C29.964 18.5185 27.951 20.5966 25.4775 20.5966C23.0039 20.5966 20.991 18.5185 20.991 15.965C20.991 13.4114 23.0039 11.3334 25.4775 11.3334C27.951 11.3334 29.964 13.4114 29.964 15.965ZM16.5045 11.3334C16.5045 9.63052 15.1631 8.24568 13.5135 8.24568C11.864 8.24568 10.5225 9.63052 10.5225 11.3334C10.5225 13.0363 11.864 14.4211 13.5135 14.4211C15.1631 14.4211 16.5045 13.0363 16.5045 11.3334ZM19.4955 11.3334C19.4955 14.7392 16.8126 17.5088 13.5135 17.5088C10.2145 17.5088 7.53156 14.7392 7.53156 11.3334C7.53156 7.92764 10.2145 5.15796 13.5135 5.15796C16.8126 5.15796 19.4955 7.92764 19.4955 11.3334ZM20.9013 23.7553C22.2009 22.7178 23.801 22.1404 25.4775 22.1404C29.6006 22.1404 32.955 25.6033 32.955 29.8597C32.955 30.7119 32.2865 31.4036 31.4595 31.4036C30.6325 31.4036 29.964 30.7119 29.964 29.8597C29.964 27.3062 27.951 25.2281 25.4775 25.2281C24.4561 25.2281 23.4855 25.5894 22.7019 26.2301C23.5154 27.7678 23.982 29.5309 23.982 31.4036C23.982 32.2558 23.3135 32.9474 22.4865 32.9474C21.6595 32.9474 20.991 32.2558 20.991 31.4036C20.991 27.1472 17.6366 23.6843 13.5135 23.6843C9.39046 23.6843 6.03606 27.1472 6.03606 31.4036C6.03606 32.2558 5.36758 32.9474 4.54057 32.9474C3.71356 32.9474 3.04507 32.2558 3.04507 31.4036C3.04507 25.4443 7.74242 20.5966 13.5135 20.5966C16.3954 20.5966 19.0065 21.8054 20.9013 23.7553Z" fill="#6D89DE"/>
</svg>
