<svg width="36" height="38" viewBox="0 0 36 38" fill="none"
  xmlns="http://www.w3.org/2000/svg">
  <path fill-rule="evenodd" clip-rule="evenodd" d="M29.5747 7.10424C29.0558 6.56698 28.2138 6.56698 27.6949 7.10424L6.42594 29.061C6.16572 29.3296 6.03561 29.6801 6.03561 30.0321C6.03561 30.3826 6.16572 30.7346 6.42594 31.0016C6.94487 31.5374 7.78534 31.5374 8.30577 31.0016L29.5747 9.04487C30.0936 8.50761 30.0936 7.63996 29.5747 7.10424ZM23.982 29.8596C22.7452 29.8596 21.7388 28.8206 21.7388 27.5439C21.7388 26.2671 22.7452 25.2281 23.982 25.2281C25.2188 25.2281 26.2252 26.2671 26.2252 27.5439C26.2252 28.8206 25.2188 29.8596 23.982 29.8596ZM23.982 22.1404C21.0957 22.1404 18.7478 24.5642 18.7478 27.5439C18.7478 30.5235 21.0957 32.9474 23.982 32.9474C26.8683 32.9474 29.2162 30.5235 29.2162 27.5439C29.2162 24.5642 26.8683 22.1404 23.982 22.1404ZM12.018 9.78948C13.2548 9.78948 14.2613 10.8285 14.2613 12.1053C14.2613 13.382 13.2548 14.4211 12.018 14.4211C10.7813 14.4211 9.7748 13.382 9.7748 12.1053C9.7748 10.8285 10.7813 9.78948 12.018 9.78948ZM12.018 17.5088C14.9043 17.5088 17.2523 15.0849 17.2523 12.1053C17.2523 9.12562 14.9043 6.70176 12.018 6.70176C9.13174 6.70176 6.78381 9.12562 6.78381 12.1053C6.78381 15.0849 9.13174 17.5088 12.018 17.5088Z" fill="#6D89DE"/>
</svg>
