<svg width="36" height="38" viewBox="0 0 36 38" fill="none"
  xmlns="http://www.w3.org/2000/svg">
  <path fill-rule="evenodd" clip-rule="evenodd" d="M17.9998 17.508C16.7631 17.508 15.7566 16.469 15.7566 15.1922C15.7566 13.9154 16.7631 12.8764 17.9998 12.8764C19.2366 12.8764 20.2431 13.9154 20.2431 15.1922C20.2431 16.469 19.2366 17.508 17.9998 17.508ZM17.9998 9.78868C15.1135 9.78868 12.7656 12.2125 12.7656 15.1922C12.7656 18.1718 15.1135 20.5957 17.9998 20.5957C20.8862 20.5957 23.2341 18.1718 23.2341 15.1922C23.2341 12.2125 20.8862 9.78868 17.9998 9.78868ZM17.9998 30.857C15.4949 28.4115 9.02688 21.5459 9.02688 15.8445C9.02688 10.8038 13.0513 6.70173 17.9998 6.70173C22.9484 6.70173 26.9728 10.8038 26.9728 15.8445C26.9728 21.5459 20.5048 28.4115 17.9998 30.857ZM17.9998 3.61401C11.4032 3.61401 6.03589 9.09935 6.03589 15.8445C6.03589 24.2971 16.5776 33.7208 17.0263 34.1176C17.3074 34.3661 17.6529 34.4912 17.9998 34.4912C18.3468 34.4912 18.6923 34.3661 18.9734 34.1176C19.4221 33.7208 29.9638 24.2971 29.9638 15.8445C29.9638 9.09935 24.5965 3.61401 17.9998 3.61401Z" fill="#FFFFFF"/>
</svg>
