<svg width="295" height="285" viewBox="0 0 295 285" fill="none"
  xmlns="http://www.w3.org/2000/svg">
  <path d="M136.479 239.626C135.809 239.626 135.154 239.141 134.483 239.123C133.814 239.109 133.132 239.722 132.461 239.688C131.792 239.658 131.113 239.787 130.444 239.737C129.776 239.688 129.077 239.936 128.409 239.87C127.743 239.806 127.158 238.916 126.494 238.834C125.828 238.752 125.015 239.817 124.351 239.719C123.688 239.621 123.08 239.064 122.419 238.95C121.757 238.837 121.014 239.128 120.356 238.998C119.698 238.867 119.136 238.183 118.481 238.039C117.826 237.892 117.069 238.169 116.417 238.006C115.765 237.845 115.299 236.889 114.651 236.711C114.003 236.534 113.337 236.437 112.693 236.242C112.05 236.049 111.599 235.219 110.958 235.01C110.32 234.8 109.41 235.473 108.775 235.248C108.142 235.024 107.697 234.242 107.067 234.002C106.439 233.762 105.828 233.495 105.204 233.241C104.581 232.986 103.646 233.529 103.027 233.258C102.06 232.837 102.167 232.571 101.2 232.148C100.231 231.728 99.9591 232.407 98.9905 231.985C98.0219 231.562 98.4575 230.479 97.4874 230.057C96.5204 229.635 96.7675 229.017 95.8005 228.594C94.8319 228.172 94.2248 229.681 93.2578 229.259C92.2923 228.839 92.711 227.796 91.7455 227.377C90.7769 226.954 90.5081 227.622 89.5395 227.199C88.5725 226.779 88.6992 226.458 87.7321 226.038C86.7651 225.617 86.8933 225.299 85.9263 224.878C84.9562 224.455 84.7291 225.023 83.7574 224.599C82.7888 224.176 83.2121 223.125 82.2435 222.703C81.2734 222.282 80.6957 223.716 79.7255 223.294C78.7554 222.871 78.7801 222.81 77.8085 222.386C76.8399 221.963 77.0423 221.456 76.0721 221.033C75.102 220.611 75.2951 220.131 74.3234 219.708C73.3487 219.283 73.2653 219.494 72.2905 219.069C71.3173 218.644 71.3575 217.936 70.307 217.827C69.2936 217.719 69.4141 219.521 68.4178 219.737C67.4214 219.951 67.3997 219.843 66.4034 220.059C65.407 220.275 65.2726 219.594 64.2762 219.808C63.2798 220.024 63.0805 219.019 62.0842 219.235C61.0878 219.451 61.2314 220.172 60.2335 220.389C59.2371 220.603 59.2618 220.729 58.267 220.944C57.2691 221.16 57.4483 222.063 56.4503 222.278C55.454 222.493 55.369 222.064 54.3726 222.28C53.3747 222.494 53.3824 222.53 52.3845 222.745C51.3896 222.961 51.4236 223.13 50.4288 223.346C49.4324 223.561 49.3444 223.115 48.3495 223.331C47.3516 223.547 47.4242 223.906 46.4247 224.123C45.4283 224.339 45.2244 223.315 44.2281 223.531C43.2301 223.746 43.2981 224.091 42.3002 224.305C41.3007 224.52 41.3656 224.842 40.3661 225.058C39.3682 225.275 39.2678 224.772 38.2714 224.987C37.2704 225.205 37.448 226.096 36.4485 226.312C35.446 226.528 35.2019 225.304 34.2009 225.52C33.1999 225.736 33.3574 226.531 32.3564 226.748C31.7401 226.882 31.2442 226.056 30.6633 225.942C30.0609 225.823 29.4661 226.143 28.961 225.798C28.4574 225.452 28.5918 224.694 28.2473 224.166C27.9136 223.656 27.2046 223.507 27.0779 222.866C26.9497 222.224 26.9945 221.686 27.1057 221.083C27.2216 220.453 27.4317 219.972 27.7638 219.447C28.0944 218.921 28.0959 218.01 28.6026 217.651C29.0908 217.305 29.7674 216.967 30.3822 216.834C31.4156 216.61 31.4589 216.826 32.4924 216.602C33.5258 216.38 33.3729 215.614 34.4063 215.39C35.4383 215.168 35.7225 216.594 36.7544 216.372C37.7879 216.148 37.7987 216.198 38.8321 215.976C39.8656 215.75 39.569 214.26 40.604 214.038C41.6359 213.814 41.9603 215.446 42.9938 215.221C44.0288 214.997 43.8094 213.896 44.8429 213.673C45.8779 213.447 45.8068 213.096 46.8403 212.873C47.8753 212.649 48.0622 213.59 49.0972 213.368C50.1291 213.145 50.2542 213.774 51.2861 213.55C52.3181 213.326 52.0616 212.039 53.0935 211.817C54.1285 211.591 54.1872 211.889 55.2222 211.666C56.2557 211.442 56.4055 212.189 57.439 211.965C58.474 211.743 58.2006 210.37 59.2356 210.148C60.2721 209.924 60.4915 211.022 61.5265 210.798C62.5615 210.573 62.5538 210.529 63.5872 210.305C64.6238 210.082 64.6114 210.017 65.648 209.794C66.6876 209.568 66.4991 208.624 67.5388 208.4C68.5769 208.175 68.6294 208.438 69.6675 208.213C70.5835 208.015 71.4177 209.145 72.2812 209.52C73.2328 209.935 73.2575 209.873 74.2076 210.286C75.1576 210.7 75.5485 209.729 76.4985 210.143C77.4501 210.557 77.5397 210.334 78.4897 210.75C79.4413 211.163 78.7956 212.773 79.7472 213.188C80.6987 213.603 81.1823 212.398 82.1338 212.811C83.0854 213.227 82.6838 214.228 83.6354 214.643C84.5839 215.053 84.6657 214.849 85.6142 215.261C86.5658 215.678 86.416 216.05 87.3691 216.463C88.3191 216.879 88.8428 215.573 89.7929 215.985C90.7429 216.401 90.2563 217.616 91.2048 218.029C92.1595 218.446 92.3217 218.039 93.2748 218.456C94.2264 218.87 94.1955 218.945 95.1471 219.36C96.1002 219.776 96.2794 219.333 97.231 219.747C98.1856 220.164 98.076 220.437 99.0291 220.852C99.9822 221.268 100.11 220.949 101.062 221.364C102.017 221.781 101.677 222.628 102.632 223.043C103.588 223.46 103.795 222.946 104.751 223.363C105.709 223.779 106.186 222.589 107.142 223.008C107.791 223.291 108.346 223.753 108.999 224.015C109.656 224.281 110.161 224.915 110.822 225.161C111.485 225.407 112.004 226.077 112.669 226.304C113.338 226.531 114.182 226.148 114.855 226.355C115.529 226.563 115.815 228.23 116.493 228.419C117.171 228.607 118.175 227.484 118.858 227.653C119.542 227.822 120.046 228.839 120.733 228.988C121.421 229.137 122.227 228.678 122.918 228.808C123.608 228.937 124.43 228.166 125.124 228.275C125.817 228.386 126.282 230.199 126.98 230.287C127.675 230.377 128.453 229.817 129.151 229.887C129.851 229.957 130.577 229.652 131.276 229.701C131.978 229.751 132.691 229.259 133.393 229.288C134.096 229.317 134.768 229.954 135.47 229.964C136.172 229.973 136.861 229.426 137.564 229.415C138.265 229.405 138.98 230.208 139.682 230.178C140.383 230.147 141.024 229.167 141.725 229.117C142.425 229.066 143.17 229.738 143.869 229.669C144.568 229.6 145.362 230.363 146.06 230.271C146.755 230.183 147.387 229.508 148.082 229.399C148.774 229.288 149.52 229.449 150.212 229.318C150.901 229.19 151.502 228.546 152.191 228.396C153.205 228.179 153.092 227.614 154.105 227.395C155.117 227.178 155.231 227.749 156.243 227.53C157.255 227.313 157.097 226.516 158.109 226.299C159.121 226.08 159.311 227.038 160.324 226.819C161.336 226.6 161.426 227.052 162.438 226.835C163.449 226.614 163.354 226.127 164.366 225.909C165.379 225.689 165.538 226.482 166.55 226.262C167.563 226.045 167.413 225.29 168.427 225.071C169.439 224.85 169.304 224.171 170.316 223.954C171.328 223.735 171.374 223.968 172.384 223.751C173.393 223.532 173.514 224.139 174.524 223.92C175.533 223.701 175.343 222.75 176.353 222.531C177.362 222.312 177.669 223.859 178.678 223.64C179.687 223.424 179.585 222.909 180.595 222.692C181.604 222.475 181.638 222.641 182.648 222.423C183.66 222.204 183.618 221.998 184.628 221.78C185.642 221.561 185.521 220.952 186.533 220.733C187.548 220.514 187.601 220.777 188.615 220.558C189.627 220.341 189.491 219.652 190.505 219.433C191.515 219.214 191.829 220.788 192.84 220.569C193.852 220.35 193.758 219.876 194.768 219.657C195.78 219.438 195.621 218.639 196.631 218.421C197.645 218.202 197.852 219.246 198.865 219.027C199.878 218.808 199.633 217.572 200.646 217.353C201.661 217.133 201.706 217.358 202.721 217.139C203.734 216.922 203.728 216.895 204.741 216.676C205.755 216.457 205.707 216.219 206.72 216C207.732 215.781 207.692 215.575 208.705 215.356C209.72 215.136 209.819 215.636 210.834 215.417C211.849 215.197 212.065 216.283 213.08 216.064C214.094 215.845 214.107 215.915 215.121 215.694C216.134 215.475 216.117 215.383 217.131 215.166C218.147 214.946 218.204 215.231 219.219 215.01C220.234 214.791 219.917 213.204 220.932 212.984C221.949 212.766 221.93 212.676 222.947 212.457C223.96 212.237 223.982 212.341 224.997 212.121C226.012 211.902 225.974 211.714 226.989 211.493C228.004 211.276 228.353 213.03 229.365 212.811C230.379 212.591 230.161 211.497 231.174 211.279C232.191 211.059 232.402 212.118 233.419 211.897C234.434 211.68 234.112 210.067 235.127 209.847C236.144 209.628 236.168 209.753 237.185 209.536C238.203 209.316 238.364 210.125 239.382 209.905C240.398 209.686 240.152 208.453 241.167 208.232C242.187 208.012 242.31 208.64 243.328 208.419C244.35 208.199 244.393 208.421 245.414 208.202C246.433 207.981 246.557 208.599 247.577 208.379C248.276 208.228 248.545 206.721 249.186 206.456C249.847 206.182 250.901 206.858 251.493 206.475C252.094 206.087 252.959 205.937 253.478 205.453C254.003 204.964 254.201 204.049 254.633 203.476C255.069 202.903 256.027 202.573 256.36 201.931C256.692 201.289 255.474 199.945 255.694 199.248C255.915 198.558 257.252 198.176 257.355 197.449C257.456 196.733 256.694 195.955 256.672 195.215C256.651 194.497 257.675 193.607 257.53 192.878C257.384 192.149 256.858 191.445 256.603 190.776C256.34 190.09 255.084 189.957 254.718 189.342C254.346 188.716 254.508 187.748 254.043 187.208C253.573 186.66 252.932 186.322 252.382 185.872C251.831 185.418 251.775 184.058 251.157 183.712C250.541 183.366 249.772 182.957 249.104 182.725C248.443 182.497 247.499 183.002 246.8 182.896C246.112 182.79 245.363 182.534 244.652 182.556C243.962 182.579 243.353 183.501 242.653 183.651C241.662 183.865 241.564 183.377 240.574 183.591C239.581 183.805 239.649 184.146 238.657 184.362C237.664 184.576 237.633 184.42 236.641 184.636C235.649 184.85 235.541 184.311 234.55 184.525C233.558 184.737 233.677 185.337 232.685 185.55C231.692 185.766 231.678 185.695 230.684 185.91C229.691 186.125 229.724 186.282 228.73 186.496C227.737 186.712 227.521 185.624 226.527 185.84C225.534 186.054 225.631 186.545 224.64 186.759C223.646 186.973 223.68 187.145 222.687 187.359C221.695 187.573 221.685 187.513 220.693 187.728C219.703 187.943 219.662 187.745 218.672 187.958C217.677 188.173 217.647 188.02 216.652 188.235C215.66 188.45 215.819 189.252 214.826 189.466C213.832 189.681 213.959 190.322 212.966 190.538C211.971 190.753 211.745 189.62 210.751 189.834C209.757 190.05 209.702 189.776 208.708 189.992C207.712 190.208 207.748 190.382 206.751 190.597C205.753 190.813 205.908 191.592 204.91 191.808C203.912 192.023 203.949 192.204 202.951 192.419C202.335 192.554 201.641 191.832 201.06 191.716C200.458 191.597 199.979 191.325 199.475 190.98C198.97 190.636 197.716 190.869 197.371 190.341C197.039 189.831 198.028 188.639 197.9 187.998C197.773 187.356 197.12 186.813 197.231 186.208C197.345 185.581 198.445 185.524 198.776 184.998C199.108 184.472 198.683 183.343 199.19 182.984C199.679 182.637 200.371 182.685 200.986 182.551C201.976 182.337 201.862 181.761 202.854 181.547C203.845 181.331 203.903 181.62 204.896 181.404C205.889 181.19 205.925 181.373 206.918 181.158C207.908 180.944 207.955 181.17 208.946 180.956C209.938 180.742 209.94 180.752 210.931 180.538C211.925 180.322 212.039 180.894 213.032 180.678C214.024 180.464 213.846 179.571 214.84 179.358C215.833 179.143 215.822 179.093 216.817 178.879C217.809 178.663 217.761 178.417 218.753 178.203C219.746 177.987 219.91 178.806 220.903 178.59C221.893 178.376 221.912 178.47 222.903 178.256C223.894 178.042 223.966 178.405 224.958 178.191C225.953 177.976 225.703 176.72 226.696 176.505C227.689 176.289 227.854 177.118 228.846 176.904C229.841 176.688 229.598 175.47 230.592 175.254C231.587 175.038 231.798 176.096 232.793 175.882C233.786 175.668 233.599 174.723 234.593 174.507C235.589 174.292 235.654 174.615 236.649 174.401C237.647 174.185 237.519 173.542 238.516 173.327C239.514 173.11 239.686 173.973 240.684 173.757C241.374 173.608 242.022 173.018 242.709 172.941C243.409 172.864 244.161 173.311 244.853 173.305C245.556 173.298 246.188 174.139 246.88 174.205C247.578 174.271 248.476 172.854 249.158 172.991C249.846 173.128 250.141 174.916 250.808 175.122C251.479 175.33 252.65 174.028 253.294 174.301C253.943 174.576 254.573 175.042 255.191 175.38C255.809 175.718 255.693 177.332 256.275 177.731C256.859 178.129 258.427 177.126 258.971 177.583C259.515 178.038 260.009 178.677 260.508 179.188C261.005 179.696 261.217 180.557 261.667 181.116C262.113 181.671 262.447 182.355 262.842 182.959C263.233 183.556 263.971 183.99 264.307 184.631C264.639 185.267 265.175 185.888 265.448 186.562C265.719 187.227 265.189 188.251 265.399 188.952C265.603 189.64 265.779 190.345 265.922 191.064C266.066 191.783 266.922 192.419 266.996 193.135C267.072 193.865 266.031 194.679 266.037 195.4C266.043 196.134 265.932 196.818 265.868 197.539C265.805 198.266 266.182 199.039 266.051 199.75C265.919 200.467 266.136 201.3 265.938 201.994C265.739 202.694 265.596 203.47 265.334 204.141C265.07 204.817 264.999 205.665 264.676 206.309C264.35 206.953 263.021 207.016 262.638 207.624C262.255 208.232 262.308 209.177 261.869 209.744C261.433 210.309 261.372 211.31 260.882 211.83C260.395 212.35 258.696 211.511 258.16 211.978C257.625 212.443 258.03 214.199 257.451 214.609C256.876 215.018 256.268 215.536 255.653 215.887C255.044 216.233 254.02 215.805 253.373 216.092C252.735 216.373 252.276 217.299 251.604 217.518C250.944 217.73 250.224 218.058 249.534 218.206C248.52 218.425 248.31 217.371 247.297 217.59C246.285 217.807 246.268 217.724 245.256 217.941C244.245 218.16 244.183 217.852 243.171 218.071C242.159 218.29 242.382 219.406 241.37 219.626C240.358 219.845 240.084 218.474 239.073 218.693C238.059 218.913 238.276 219.995 237.262 220.212C236.249 220.431 236.172 220.043 235.158 220.262C234.146 220.481 234.174 220.622 233.161 220.843C232.147 221.062 232.171 221.173 231.157 221.392C230.147 221.611 230.233 222.042 229.223 222.259C228.213 222.478 228.003 221.424 226.994 221.641C225.984 221.86 226.24 223.143 225.231 223.36C224.221 223.577 224.186 223.395 223.177 223.614C222.167 223.832 222.052 223.254 221.044 223.473C220.033 223.692 219.922 223.136 218.912 223.355C217.901 223.573 218.062 224.379 217.05 224.598C216.038 224.817 216.102 225.137 215.09 225.357C214.073 225.576 214.08 225.605 213.066 225.824C212.053 226.043 211.741 224.472 210.727 224.691C209.716 224.91 209.918 225.927 208.906 226.146C207.894 226.365 207.728 225.523 206.716 225.742C205.705 225.961 205.673 225.8 204.661 226.019C203.649 226.238 203.693 226.45 202.679 226.669C201.666 226.89 201.905 228.09 200.892 228.311C199.877 228.528 199.795 228.123 198.782 228.341C197.767 228.56 197.931 229.383 196.919 229.6C195.905 229.819 195.607 228.324 194.595 228.543C193.582 228.762 193.718 229.446 192.705 229.666C191.69 229.883 191.497 228.914 190.482 229.132C189.467 229.352 189.515 229.586 188.498 229.804C187.485 230.023 187.658 230.891 186.644 231.111C185.629 231.33 185.634 231.353 184.621 231.573C183.604 231.794 183.383 230.682 182.368 230.902C181.353 231.121 181.471 231.705 180.456 231.926C179.44 232.145 179.483 232.364 178.468 232.582C177.453 232.803 177.476 232.92 176.461 233.139C175.446 233.358 175.343 232.846 174.328 233.067C173.314 233.286 173.562 234.528 172.55 234.747C171.535 234.964 171.462 234.594 170.449 234.813C169.432 235.032 169.227 234.004 168.21 234.224C167.196 234.443 167.236 234.647 166.221 234.868C165.206 235.088 165.362 235.879 164.347 236.099C163.329 236.318 163.19 235.615 162.172 235.835C161.155 236.054 161.069 235.624 160.054 235.842C159.036 236.062 159.004 235.904 157.986 236.125C156.966 236.347 156.985 236.44 155.965 236.661C154.944 236.881 155.177 238.05 154.158 238.27C153.513 238.41 152.733 237.826 152.089 237.95C151.443 238.074 150.775 238.005 150.127 238.114C149.479 238.222 148.837 238.299 148.187 238.391C147.537 238.486 146.97 239.223 146.316 239.3C145.663 239.379 144.98 239.123 144.327 239.188C143.672 239.249 143.103 240.511 142.448 240.557C141.792 240.604 141.076 239.761 140.421 239.793C139.765 239.824 139.091 239.181 138.436 239.196C137.778 239.212 137.136 239.626 136.479 239.626Z" fill="#FFFFFF"/>
  <path d="M129.823 208.394C129.011 208.394 128.3 208.394 127.633 208.009C126.947 207.614 125.795 207.479 125.381 206.79C124.978 206.121 124.699 205.041 124.661 204.199C124.633 203.554 124.849 202.747 125.049 202.175C125.259 201.583 125.857 201.064 126.262 200.605C126.669 200.147 127.069 199.382 127.622 199.113C128.155 198.854 129.005 199.598 129.631 199.567C130.642 199.52 130.608 198.749 131.619 198.7C132.627 198.653 132.674 199.674 133.682 199.625C134.691 199.579 134.642 198.487 135.65 198.438C136.658 198.392 136.651 198.221 137.659 198.171C138.665 198.124 138.719 199.309 139.726 199.261C140.736 199.213 140.723 198.945 141.732 198.897C142.741 198.849 142.71 198.152 143.722 198.103C144.731 198.055 144.759 198.681 145.772 198.632C146.78 198.584 146.757 198.043 147.767 197.995C148.775 197.947 148.789 198.244 149.798 198.198C150.808 198.151 150.797 197.919 151.807 197.873C152.818 197.825 152.817 197.793 153.828 197.746C154.839 197.698 154.85 197.941 155.861 197.895C156.871 197.846 156.871 197.854 157.882 197.806C158.892 197.758 158.915 198.271 159.926 198.225C160.939 198.176 160.933 198.044 161.944 197.997C162.955 197.949 162.926 197.274 163.936 197.228C164.949 197.179 164.952 197.255 165.963 197.209C166.976 197.161 166.985 197.376 167.996 197.326C169.008 197.279 169.038 197.963 170.051 197.914C171.059 197.866 171.002 196.578 172.012 196.531C173.022 196.483 173.046 197.02 174.056 196.972C175.069 196.923 175.047 196.44 176.06 196.391C177.071 196.343 177.093 196.805 178.103 196.758C179.117 196.71 179.146 197.383 180.159 197.336C181.173 197.288 181.124 196.195 182.138 196.148C183.15 196.1 183.163 196.388 184.176 196.34C185.191 196.292 185.197 196.442 186.213 196.392C187.229 196.345 187.256 196.978 188.274 196.929C189.29 196.882 189.214 195.755 190.227 195.663C190.907 195.517 191.679 196.083 192.291 195.781C192.912 195.473 193.245 194.718 193.775 194.275C194.307 193.83 194.99 193.57 195.409 193.009C195.826 192.453 196.354 191.918 196.636 191.272C196.914 190.633 197.515 189.98 197.642 189.277C197.79 188.457 197.299 187.518 197.233 186.715C197.164 185.897 197.174 185.004 196.891 184.237C196.612 183.482 195.841 182.966 195.362 182.294C194.882 181.624 194.489 180.896 193.873 180.399C193.247 179.893 192.625 179.281 191.889 178.971C191.164 178.666 190.241 179.218 189.438 179.119C188.429 178.998 188.465 178.69 187.457 178.57C186.448 178.447 186.522 177.794 185.514 177.672C184.505 177.55 184.523 177.381 183.513 177.258C182.502 177.135 182.422 177.839 181.411 177.717C180.403 177.593 180.436 177.296 179.427 177.173C178.417 177.051 178.322 177.879 177.313 177.756C176.304 177.636 176.319 177.512 175.308 177.388C174.298 177.265 174.334 176.948 173.322 176.826C172.311 176.703 172.316 176.66 171.306 176.538C170.296 176.416 170.25 176.821 169.239 176.698C168.229 176.576 168.234 176.538 167.222 176.416C166.21 176.293 166.237 176.065 165.225 175.941C164.215 175.819 164.298 175.088 163.287 174.966C162.274 174.843 162.248 175.08 161.235 174.958C160.224 174.835 160.164 175.374 159.151 175.251C158.14 175.129 158.189 174.699 157.178 174.576C156.168 174.454 156.094 175.107 155.083 174.985C154.073 174.862 154.09 174.719 153.08 174.597C152.068 174.475 152.048 174.653 151.035 174.53C150.024 174.408 150.11 173.658 149.097 173.536C148.086 173.412 148.121 173.104 147.107 172.982C146.094 172.859 145.995 173.725 144.981 173.603C143.97 173.48 143.987 173.336 142.974 173.214C141.96 173.088 141.967 173.01 140.953 172.888C139.937 172.763 140.025 171.992 139.009 171.87C137.992 171.746 137.884 172.704 136.867 172.58C136.19 172.499 135.547 172.149 134.87 172.081C134.192 172.013 133.526 171.811 132.848 171.757C132.169 171.702 131.456 172.259 130.777 172.219C130.098 172.18 129.442 171.727 128.764 171.7C128.083 171.675 127.414 171.147 126.732 171.134C126.053 171.123 125.367 171.775 124.685 171.776C124.005 171.779 123.324 171.492 122.643 171.506C121.963 171.524 121.306 172.097 120.625 172.129C119.945 172.161 119.208 171.096 118.528 171.139C117.85 171.184 117.207 171.827 116.529 171.886C115.852 171.945 115.205 172.297 114.527 172.37C113.851 172.443 113.118 172 112.442 172.087C111.767 172.173 111.109 172.415 110.434 172.515C109.762 172.616 109.133 173.001 108.461 173.115C107.79 173.23 107.121 173.341 106.452 173.469C105.783 173.598 105.043 173.352 104.376 173.495C103.381 173.708 103.539 174.494 102.543 174.707C101.547 174.92 101.383 174.108 100.388 174.321C99.3918 174.534 99.3702 174.427 98.3744 174.642C97.3754 174.854 97.4279 175.11 96.4289 175.323C95.43 175.536 95.484 175.801 94.4851 176.014C93.4861 176.228 93.4908 176.246 92.4934 176.459C91.496 176.671 91.4405 176.397 90.4431 176.611C89.4458 176.824 89.4411 176.797 88.4438 177.01C87.4433 177.224 87.525 177.629 86.5261 177.844C85.5272 178.055 85.501 177.92 84.5021 178.133C83.5032 178.347 83.571 178.682 82.5721 178.897C81.5747 179.11 81.5516 178.994 80.5527 179.208C79.5522 179.421 79.4427 178.882 78.4438 179.097C77.4449 179.308 77.5713 179.934 76.5724 180.148C75.572 180.363 75.4748 179.877 74.4744 180.091C73.4755 180.302 73.5263 180.56 72.5274 180.773C71.527 180.987 71.4514 180.614 70.4525 180.827C69.4551 181.039 69.58 181.665 68.5826 181.878C67.5852 182.091 67.5667 181.996 66.5694 182.21C65.5674 182.421 65.4656 181.921 64.4667 182.134C63.4663 182.348 63.4293 182.159 62.4288 182.374C61.4284 182.588 61.416 182.523 60.4156 182.737C59.4136 182.95 59.5739 183.746 58.5719 183.96C57.5714 184.175 57.4204 183.422 56.4199 183.636C55.4179 183.851 55.4749 184.137 54.4729 184.35C53.4679 184.566 53.3985 184.221 52.395 184.435C51.3914 184.65 51.4685 185.037 50.4649 185.253C49.8499 185.384 49.2656 185.139 48.686 185.026C48.0848 184.909 47.5484 184.759 47.0443 184.419C46.5417 184.078 45.9791 183.781 45.6353 183.26C45.3039 182.756 45.1621 182.132 45.0341 181.498C44.9077 180.866 45.1651 180.306 45.2761 179.708C45.3918 179.09 45.0141 178.239 45.3455 177.72C45.6754 177.2 46.3722 176.899 46.8778 176.543C47.3665 176.201 48.0586 176.482 48.6721 176.352C49.668 176.138 49.5647 175.623 50.5605 175.41C51.5564 175.199 51.6257 175.55 52.6216 175.337C53.6189 175.124 53.5496 174.78 54.5454 174.567C55.5443 174.352 55.6214 174.737 56.6188 174.524C57.6192 174.31 57.6146 174.294 58.615 174.079C59.6124 173.868 59.5076 173.347 60.505 173.134C61.5023 172.92 61.4931 172.883 62.4905 172.669C63.4878 172.456 63.6158 173.085 64.6132 172.872C65.6121 172.658 65.6491 172.844 66.648 172.629C67.6469 172.416 67.5251 171.811 68.524 171.598C69.5214 171.384 69.6278 171.905 70.6252 171.692C71.6241 171.478 71.4715 170.725 72.4704 170.51C73.4708 170.297 73.3907 169.9 74.3911 169.686C75.3885 169.471 75.649 170.763 76.6479 170.548C77.6469 170.336 77.4696 169.446 78.4685 169.233C79.4674 169.019 79.5938 169.645 80.5927 169.432C81.5932 169.217 81.5809 169.155 82.5813 168.941C83.5771 168.728 83.5941 168.811 84.5915 168.596C85.5889 168.385 85.4177 167.532 86.4151 167.319C87.4171 167.105 87.5605 167.821 88.5609 167.608C89.5614 167.396 89.5768 167.472 90.5757 167.259C91.5762 167.044 91.3943 166.144 92.3963 165.931C93.3967 165.717 93.5386 166.422 94.5406 166.207C95.541 165.995 95.4439 165.509 96.4443 165.294C97.4463 165.08 97.6067 165.872 98.6087 165.658C99.6122 165.443 99.4904 164.835 100.494 164.621C101.499 164.406 101.57 164.759 102.573 164.546C103.259 164.398 103.939 164.251 104.625 164.117C105.313 163.984 105.956 163.606 106.645 163.487C107.335 163.364 107.978 162.926 108.669 162.819C109.361 162.713 110.056 162.583 110.75 162.491C111.443 162.397 112.231 163.12 112.926 163.04C113.62 162.961 114.234 162.044 114.93 161.979C115.626 161.913 116.326 161.784 117.022 161.731C117.721 161.681 118.424 161.555 119.122 161.517C119.819 161.479 120.545 161.965 121.245 161.94C121.943 161.914 122.646 162.117 123.346 162.106C124.044 162.097 124.739 162.405 125.438 162.408C126.136 162.411 126.851 161.323 127.549 161.339C128.249 161.357 128.911 162.591 129.609 162.621C130.306 162.651 130.999 162.591 131.698 162.634C132.395 162.678 133.076 162.819 133.774 162.877C134.469 162.934 135.208 162.459 135.903 162.53C136.6 162.6 137.252 163.034 137.947 163.118C138.955 163.24 138.972 163.093 139.979 163.215C140.989 163.337 140.972 163.482 141.98 163.604C142.991 163.726 143.059 163.117 144.07 163.239C145.081 163.361 144.986 164.197 145.997 164.319C147.005 164.441 147.048 164.071 148.058 164.193C149.066 164.316 149.16 163.504 150.168 163.626C151.178 163.75 151.052 164.849 152.061 164.972C153.073 165.094 153.202 163.962 154.213 164.085C155.225 164.208 155.111 165.205 156.122 165.327C157.132 165.45 157.227 164.61 158.238 164.732C159.248 164.854 159.179 165.461 160.19 165.583C161.201 165.707 161.227 165.48 162.239 165.604C163.25 165.726 163.304 165.254 164.315 165.377C165.326 165.499 165.242 166.244 166.253 166.366C167.266 166.489 167.264 166.49 168.275 166.614C169.288 166.736 169.276 166.833 170.289 166.956C171.298 167.078 171.357 166.554 172.367 166.676C173.376 166.798 173.328 167.227 174.337 167.349C175.349 167.472 175.356 167.424 176.368 167.546C177.38 167.669 177.327 168.121 178.34 168.244C179.351 168.366 179.45 167.502 180.463 167.624C181.477 167.748 181.418 168.256 182.431 168.382C183.444 168.504 183.43 168.628 184.443 168.75C185.457 168.874 185.494 168.542 186.509 168.665C187.526 168.788 187.551 168.576 188.567 168.698C189.582 168.822 189.606 168.63 190.621 168.752C191.32 168.838 192.097 168.784 192.776 168.951C193.459 169.119 194.144 169.486 194.801 169.734C195.459 169.983 196.151 170.283 196.777 170.609C197.401 170.934 197.888 171.573 198.474 171.972C199.057 172.37 199.521 172.948 200.057 173.415C200.592 173.879 201.027 174.441 201.506 174.969C201.984 175.494 203.002 175.599 203.419 176.182C203.835 176.767 204.179 177.475 204.525 178.103C204.871 178.73 204.794 179.613 205.067 180.277C205.338 180.943 205.556 181.633 205.752 182.328C205.949 183.02 205.446 183.843 205.564 184.554C205.679 185.264 205.765 185.908 205.801 186.629C205.836 187.348 207.045 188.079 206.999 188.8C206.952 189.518 206.552 190.247 206.422 190.96C206.302 191.632 205.513 192.128 205.323 192.772C205.13 193.425 205.485 194.275 205.226 194.896C204.965 195.522 204.421 196.014 204.096 196.602C203.771 197.193 203.203 197.604 202.818 198.154C202.433 198.703 202.608 199.737 202.168 200.239C201.727 200.744 200.74 200.705 200.25 201.156C199.758 201.607 199.163 201.869 198.627 202.263C198.092 202.657 198.015 203.807 197.44 204.139C196.866 204.469 196.115 204.523 195.507 204.788C194.904 205.052 194.289 205.382 193.655 205.578C193.028 205.77 192.259 205.387 191.606 205.509C191.406 205.546 191.243 205.689 191.039 205.698C190.023 205.746 190.026 205.816 189.011 205.864C187.995 205.913 188.009 206.216 186.993 206.264C185.98 206.312 185.991 206.559 184.976 206.607C183.964 206.655 183.948 206.315 182.935 206.364C181.921 206.412 181.896 205.864 180.884 205.913C179.869 205.961 179.908 206.829 178.895 206.877C177.878 206.925 177.862 206.574 176.846 206.623C175.83 206.67 175.843 206.953 174.825 207.001C173.811 207.049 173.809 207.037 172.794 207.085C171.779 207.133 171.788 207.333 170.774 207.38C169.758 207.431 169.749 207.217 168.735 207.265C167.717 207.312 167.68 206.481 166.663 206.529C165.647 206.577 165.673 207.169 164.657 207.218C163.64 207.266 163.646 207.393 162.63 207.441C161.614 207.49 161.613 207.444 160.595 207.495C159.578 207.543 159.593 207.878 158.576 207.927C157.559 207.975 157.542 207.576 156.524 207.625C155.507 207.673 155.485 207.193 154.468 207.241C153.45 207.29 153.467 207.676 152.451 207.724C151.434 207.773 151.402 207.064 150.384 207.112C149.37 207.163 149.412 208.116 148.397 208.164C147.381 208.213 147.383 208.238 146.367 208.287C145.348 208.335 145.34 208.171 144.323 208.221C143.306 208.268 143.29 207.911 142.273 207.96C141.255 208.008 141.248 207.836 140.229 207.886C139.208 207.933 139.228 208.365 138.209 208.415C137.19 208.462 137.198 208.626 136.181 208.673C135.16 208.723 135.143 208.357 134.123 208.405C133.101 208.453 133.077 207.916 132.055 207.963C131.033 208.014 131.038 208.124 130.016 208.171C129.943 208.175 129.896 208.394 129.823 208.394Z" fill="#FFFFFF"/>
  <path d="M40.7357 95.644C39.9539 95.644 39.1492 95.2555 38.464 94.8669C37.8003 94.4908 37.5903 93.6666 37.1611 92.96C36.8331 92.4178 36.1035 92.0825 36.01 91.4887C35.9119 90.8745 36.5664 90.3292 36.7028 89.7338C36.8392 89.1384 36.3687 88.2609 36.7243 87.7564C37.0661 87.2675 37.6976 86.9071 38.228 86.5702C39.0909 86.0234 39.4128 86.5546 40.2758 86.0077C41.1388 85.4609 41.0714 85.3496 41.9343 84.8028C42.7973 84.256 42.5214 83.8 43.3844 83.2547C44.2474 82.7079 44.5478 83.2046 45.4108 82.6562C46.2738 82.1093 45.8308 81.3792 46.6953 80.8323C47.5598 80.2839 47.8955 80.8386 48.76 80.2902C49.626 79.7434 49.7211 79.8969 50.5871 79.3485C51.4547 78.7985 51.2692 78.4945 52.1368 77.9446C53.0028 77.3962 52.894 77.2128 53.7601 76.666C54.6246 76.1176 54.7058 76.2508 55.5719 75.7024C56.4364 75.1555 56.3475 75.0082 57.212 74.4598C58.0765 73.913 58.055 73.877 58.9211 73.3301C59.7856 72.7817 59.7595 72.7378 60.6256 72.1879C61.4916 71.6395 61.4579 71.5846 62.3239 71.0362C63.1931 70.4847 63.3218 70.6993 64.1909 70.1493C65.057 69.6009 64.9006 69.3424 65.7667 68.794C66.6327 68.2456 67.0834 68.9883 67.9494 68.4399C68.8154 67.8915 68.8415 67.9322 69.7076 67.3838C70.5751 66.8338 70.5613 66.8135 71.4304 66.2619C72.298 65.7119 72.2321 65.6038 73.0997 65.0554C73.9673 64.5054 73.7573 64.1607 74.6248 63.6123C75.4924 63.0624 75.8067 63.5826 76.6742 63.0341C77.5433 62.4826 77.2169 61.9436 78.0844 61.3936C78.952 60.8437 79.2632 61.3576 80.1307 60.8092C80.9953 60.2608 80.9018 60.1072 81.7663 59.5604C82.6308 59.012 82.7335 59.1812 83.5995 58.6344C84.4686 58.0828 84.4043 57.9778 85.2734 57.4279C86.1409 56.8794 85.8022 56.3185 86.6698 55.7717C87.5358 55.2217 87.7259 55.5319 88.5935 54.9835C89.4626 54.432 89.3246 54.2048 90.1953 53.6532C91.0628 53.1033 90.8973 52.8291 91.7649 52.2775C92.634 51.7275 93.0678 52.442 93.9369 51.8905C94.8075 51.339 94.5362 50.8893 95.4069 50.3362C96.276 49.7846 96.3373 49.8896 97.2079 49.3381C98.0786 48.7865 98.3361 49.2096 99.2067 48.6596C100.079 48.1049 99.5792 47.2792 100.451 46.7261C101.325 46.173 101.589 46.607 102.462 46.0554C103.204 45.5854 104.052 45.4068 104.892 45.4068C105.732 45.4068 106.592 45.565 107.334 46.0351C108.197 46.5819 108.125 46.701 108.988 47.2463C109.851 47.7947 109.754 47.9529 110.617 48.4982C111.48 49.0466 111.36 49.2456 112.223 49.7909C113.086 50.3377 113.287 50.0055 114.152 50.5524C115.015 51.0992 114.992 51.1368 115.855 51.6837C116.719 52.2321 116.857 52.0033 117.723 52.5517C118.589 53.1017 118.562 53.1456 119.428 53.6955C120.295 54.244 120.05 54.6466 120.919 55.1982C121.784 55.745 121.928 55.51 122.794 56.0584C123.658 56.6068 123.658 56.6084 124.523 57.1568C125.387 57.7036 125.39 57.7005 126.255 58.2473C127.119 58.7957 127.44 58.2677 128.304 58.8161C129.17 59.3645 129.181 59.3473 130.046 59.8973C130.913 60.4457 130.522 61.0897 131.39 61.6381C132.257 62.188 132.198 62.2867 133.065 62.8383C133.931 63.3851 133.911 63.4196 134.779 63.968C135.643 64.5164 135.789 64.2751 136.655 64.8251C137.523 65.3751 137.604 65.2403 138.47 65.7872C139.338 66.3371 139.367 66.2917 140.234 66.8401C141.102 67.3916 141.133 67.3399 142 67.8883C142.868 68.4383 143.079 68.0889 143.945 68.6389C144.813 69.1873 144.701 69.3737 145.568 69.9237C146.436 70.4737 146.202 70.8623 147.069 71.4123C147.938 71.9622 148.167 71.583 149.036 72.1315C149.899 72.6783 149.638 73.1092 150.501 73.6576C151.367 74.2044 151.209 74.463 152.074 75.0114C152.944 75.5629 153.027 75.4235 153.896 75.9734C154.764 76.5234 155.221 75.7697 156.087 76.3197C156.954 76.8697 156.412 77.7644 157.279 78.3128C158.15 78.8643 158.558 78.1906 159.428 78.7421C160.296 79.2921 159.986 79.806 160.854 80.3544C161.724 80.906 161.734 80.8919 162.603 81.4434C163.473 81.9934 163.397 82.1203 164.267 82.6718C165.138 83.2218 165.645 82.3851 166.515 82.9367C167.385 83.4882 167.034 84.0664 167.905 84.6195C168.778 85.171 169.053 84.7198 169.927 85.2729C170.799 85.826 170.774 85.8683 171.648 86.4214C172.177 86.7567 172.877 87.15 173.221 87.6389C173.576 88.1434 173.325 89.0459 173.463 89.6413C173.599 90.2383 174.085 90.9105 173.987 91.5247C173.892 92.117 173.44 92.7296 173.112 93.2702C172.782 93.8124 172.45 94.5002 171.971 94.8496C171.478 95.2132 170.639 94.9217 170.055 95.0627C169.473 95.2022 168.973 95.0549 168.374 94.9562C167.794 94.859 167.243 94.8982 166.712 94.5629C165.858 94.0223 165.759 94.1853 164.905 93.6463C164.053 93.1057 163.791 93.5366 162.937 92.9976C162.085 92.457 162.269 92.1515 161.415 91.6125C160.561 91.0703 160.507 91.1581 159.654 90.6159C158.798 90.0738 158.682 90.2681 157.826 89.7275C156.97 89.1838 157.17 88.8532 156.315 88.3095C155.457 87.7673 155.802 87.197 154.943 86.6549C154.086 86.1111 153.879 86.4543 153.023 85.9106C152.167 85.3684 151.916 85.7852 151.061 85.2431C150.205 84.7025 150.656 83.9567 149.801 83.4145C148.945 82.874 148.498 83.6104 147.642 83.0698C146.787 82.5277 147.1 82.0122 146.243 81.4701C145.386 80.9263 145.337 81.0063 144.48 80.4641C143.622 79.9204 143.743 79.7198 142.885 79.1761C142.028 78.634 141.667 79.2278 140.811 78.6857C139.954 78.1436 140.033 78.0135 139.177 77.4714C138.32 76.9292 138.194 77.1345 137.337 76.5939C136.479 76.0502 136.588 75.87 135.729 75.3263C134.872 74.7842 135.102 74.4003 134.244 73.8582C133.387 73.3144 133.461 73.1938 132.604 72.6501C131.745 72.1079 131.66 72.2505 130.801 71.7084C129.943 71.1631 129.84 71.3308 128.982 70.7886C128.123 70.2449 128.297 69.9582 127.438 69.416C126.584 68.8739 126.496 69.0196 125.642 68.4791C124.786 67.9369 124.59 68.2613 123.733 67.7207C122.874 67.177 123.171 66.6881 122.311 66.1428C121.454 65.5991 121.178 66.0535 120.321 65.5114C119.463 64.9677 119.262 65.2999 118.404 64.7562C117.544 64.2109 117.751 63.8724 116.889 63.3272C116.031 62.7819 115.816 63.1344 114.958 62.5907C114.098 62.047 114.213 61.8574 113.353 61.3121C112.492 60.7653 112.4 60.9189 111.538 60.372C110.678 59.8283 110.787 59.6497 109.927 59.106C109.066 58.5591 108.98 58.7002 108.119 58.1549C107.256 57.608 107.205 57.6911 106.34 57.1458C105.478 56.5974 105.91 55.2953 104.892 55.2906C103.89 55.2875 103.951 55.9863 103.097 56.5285C102.243 57.069 102.438 57.3887 101.584 57.9293C100.732 58.4683 100.599 58.252 99.7463 58.791C98.891 59.3332 99.1117 59.6983 98.2579 60.2388C97.4026 60.781 97.3689 60.7246 96.5151 61.2667C95.6582 61.8073 95.2183 61.0834 94.3615 61.6255C93.5046 62.1708 93.5062 62.1739 92.6478 62.7161C91.7925 63.2582 91.8492 63.3554 90.9939 63.8975C90.137 64.4396 90.298 64.706 89.4426 65.2481C88.5873 65.7887 88.6578 65.9062 87.8025 66.4468C86.9472 66.989 87.171 67.3572 86.3157 67.8993C85.4604 68.4414 85.1278 67.8915 84.2709 68.4352C83.4141 68.9773 83.3757 68.9131 82.5189 69.4568C81.6605 70.0005 81.7785 70.1979 80.9217 70.7401C80.0648 71.2822 79.8548 70.9375 78.998 71.4812C78.1427 72.0249 78.6347 72.8365 77.7794 73.3787C76.921 73.9224 76.5547 73.316 75.6978 73.8582C74.8394 74.4019 74.8532 74.4254 73.9964 74.9706C73.138 75.5128 73.1825 75.588 72.3241 76.1317C71.4672 76.6754 71.4964 76.7224 70.6395 77.2661C69.7827 77.8083 69.7919 77.8239 68.9335 78.3676C68.0736 78.9113 68.2882 79.2639 67.4298 79.8076C66.5714 80.3513 66.4288 80.1178 65.572 80.66C64.7182 81.2021 64.5419 80.9138 63.6882 81.4544C62.8328 81.9965 62.8313 81.9934 61.9745 82.5355C61.1161 83.0792 61.2709 83.3362 60.411 83.8799C59.5541 84.4236 59.6568 84.5913 58.8 85.135C57.9416 85.6787 57.7761 85.4061 56.9192 85.9498C56.0593 86.4935 56.0808 86.5311 55.2193 87.0748C54.3609 87.6185 54.5847 87.9867 53.7248 88.532C52.8649 89.0773 52.5353 88.5335 51.6754 89.0788C50.8155 89.6225 51.0332 89.9845 50.1717 90.5297C49.3133 91.0735 49.0405 90.6253 48.1806 91.1706C47.3191 91.7159 47.4157 91.8757 46.5543 92.4194C45.6913 92.9678 45.4813 92.6215 44.6183 93.1684C43.7538 93.7168 44.1171 94.3122 43.2541 94.8606C42.4984 95.3401 41.5619 95.644 40.7357 95.644Z" fill="#FFFFFF"/>
  <path d="M56.9782 165.201C56.344 165.201 55.7893 165.239 55.2378 165.007C54.6675 164.766 54.1471 164.489 53.7155 164.049C53.2854 163.61 53.1156 163.037 52.8803 162.454C52.6513 161.893 52.5282 161.37 52.5282 160.723C52.5282 159.655 52.4861 159.655 52.4861 158.586C52.4861 157.518 52.4659 157.518 52.4659 156.45C52.4659 155.383 52.3739 155.383 52.3739 154.315C52.3739 153.249 52.3303 153.249 52.3303 152.181C52.3303 151.111 52.039 151.111 52.039 150.042C52.039 148.973 52.3147 148.973 52.3147 147.902C52.3147 146.831 52.6077 146.831 52.6077 145.76C52.6077 144.685 52.5796 144.685 52.5796 143.613C52.5796 142.54 52.0873 142.54 52.0873 141.468C52.0873 140.398 52.5796 140.398 52.5796 139.327C52.5796 138.258 52.4269 138.258 52.4269 137.187C52.4269 136.118 52.3069 136.118 52.3069 135.047C52.3069 133.977 52.6092 133.977 52.6092 132.906C52.6092 131.832 52.1091 131.832 52.1091 130.76C52.1091 129.685 52.6186 129.685 52.6186 128.613C52.6186 127.54 52.5952 127.54 52.5952 126.468C52.5952 125.397 52.0732 125.397 52.0732 124.324C52.0732 123.253 52.6419 123.253 52.6419 122.18C52.6419 121.106 52.1979 121.106 52.1979 120.032C52.1979 118.96 52.6482 118.96 52.6482 117.887C52.6482 116.814 52.5765 116.814 52.5765 115.74C52.5765 114.668 52.5376 114.668 52.5376 113.594C52.5376 112.519 52 112.519 52 111.445C52 110.371 52.0016 110.371 52.0016 109.297C52.0016 108.224 52.3054 108.224 52.3054 107.149C52.3054 106.074 52.1387 106.074 52.1387 105C52.1387 103.926 52.3194 103.926 52.3194 102.852C52.3194 101.779 52.6264 101.779 52.6264 100.707C52.6264 99.6342 52.6264 99.6342 52.6264 98.5616C52.6264 97.4875 52.4877 97.4875 52.4877 96.4117C52.4877 95.3376 52.2555 95.3375 52.2555 94.2634C52.2555 93.1892 52.3194 93.1892 52.3194 92.1135C52.3194 91.0361 52.4519 91.0361 52.4519 89.9588C52.4519 88.8862 52.5469 88.8862 52.5469 87.8105C52.5469 86.7315 52.4659 86.7315 52.4659 85.6542C52.4659 84.5769 52.4285 84.5769 52.4285 83.4963C52.4285 82.4174 52.3366 82.4174 52.3366 81.3385C52.3366 80.6902 52.564 80.1324 52.7931 79.5699C53.0299 78.9868 53.22 78.3829 53.6516 77.9444C54.0816 77.5058 54.6691 77.2992 55.2393 77.0561C55.7909 76.8241 56.344 76.322 56.9782 76.322C57.6123 76.322 58.1031 76.9799 58.6532 77.2134C59.225 77.455 59.6737 77.7108 60.1038 78.1509C60.5354 78.5879 60.9701 78.9693 61.2054 79.5524C61.4344 80.1134 61.6385 80.6902 61.6385 81.3385C61.6385 82.4063 61.9735 82.4063 61.9735 83.4741C61.9735 84.5419 61.3347 84.5419 61.3347 85.6097C61.3347 86.6775 61.4438 86.6775 61.4438 87.7453C61.4438 88.8131 62 88.8131 62 89.8809C62 90.9487 61.7819 90.9487 61.7819 92.0181C61.7819 93.0875 61.4936 93.0875 61.4936 94.1585C61.4936 95.2295 61.3861 95.2295 61.3861 96.3021C61.3861 97.3746 61.8925 97.3746 61.8925 98.4472C61.8925 99.5198 61.6058 99.5198 61.6058 100.592C61.6058 101.663 61.8769 101.663 61.8769 102.733C61.8769 103.802 61.3736 103.802 61.3736 104.873C61.3736 105.943 61.8956 105.943 61.8956 107.014C61.8956 108.084 61.718 108.084 61.718 109.155C61.718 110.228 61.6214 110.228 61.6214 111.301C61.6214 112.375 61.5762 112.375 61.5762 113.449C61.5762 114.52 61.3394 114.52 61.3394 115.593C61.3394 116.663 61.5294 116.663 61.5294 117.736C61.5294 118.809 61.5092 118.809 61.5092 119.881C61.5092 120.954 61.8629 120.954 61.8629 122.028C61.8629 123.101 61.3471 123.101 61.3471 124.175C61.3471 125.246 61.6432 125.246 61.6432 126.32C61.6432 127.392 61.8146 127.392 61.8146 128.467C61.8146 129.542 61.8068 129.542 61.8068 130.615C61.8068 131.689 61.7959 131.689 61.7959 132.763C61.7959 133.837 61.4219 133.837 61.4219 134.912C61.4219 135.986 61.8364 135.986 61.8364 137.06C61.8364 138.134 61.4406 138.134 61.4406 139.21C61.4406 140.281 61.4718 140.281 61.4718 141.353C61.4718 142.426 61.6167 142.426 61.6167 143.498C61.6167 144.574 61.436 144.574 61.436 145.648C61.436 146.723 61.3098 146.723 61.3098 147.797C61.3098 148.872 61.972 148.872 61.972 149.947C61.972 151.024 61.6697 151.024 61.6697 152.101C61.6697 153.175 61.8411 153.175 61.8411 154.25C61.8411 155.329 61.4235 155.329 61.4235 156.406C61.4235 157.485 61.5902 157.485 61.5902 158.564C61.5902 159.643 61.9237 159.643 61.9237 160.723C61.9237 161.37 61.7632 162.085 61.5357 162.649C61.2973 163.231 60.8143 163.757 60.3842 164.195C59.9526 164.635 59.2219 164.6 58.6516 164.842C58.1 165.076 57.6123 165.201 56.9782 165.201Z" fill="#FFFFFF"/>
  <path d="M153.495 154.576C152.793 154.576 152.083 154.346 151.473 154.114C150.84 153.872 150.139 153.586 149.662 153.148C149.186 152.708 149.126 151.964 148.862 151.382C148.61 150.821 148.102 150.26 148.102 149.614C148.102 148.548 148.645 148.548 148.645 147.48C148.645 146.412 148.65 146.412 148.65 145.343C148.65 144.275 148.596 144.275 148.596 143.204C148.596 142.134 148.562 142.134 148.562 141.067C148.562 139.999 148.588 139.999 148.588 138.931C148.588 137.865 148.207 137.865 148.207 136.799C148.207 135.732 148.072 135.732 148.072 134.665C148.072 133.597 148.084 133.597 148.084 132.529C148.084 131.46 148.645 131.46 148.645 130.39C148.645 129.319 148.386 129.319 148.386 128.25C148.386 127.181 148.231 127.181 148.231 126.111C148.231 125.043 148.66 125.043 148.66 123.976C148.66 122.906 148.169 122.906 148.169 121.837C148.169 120.767 148.49 120.767 148.49 119.696C148.49 118.627 148.65 118.627 148.65 117.556C148.65 116.487 148.221 116.487 148.221 115.417C148.221 114.348 148.467 114.348 148.467 113.277C148.467 112.206 148.088 112.206 148.088 111.135C148.088 110.064 148.274 110.064 148.274 108.993C148.274 107.924 148.307 107.924 148.307 106.851C148.307 105.78 148.334 105.78 148.334 104.709C148.334 103.638 148.586 103.638 148.586 102.569C148.586 101.499 148.295 101.499 148.295 100.43C148.295 99.3606 148.115 99.3606 148.115 98.2928C148.115 97.2186 148 97.2186 148 96.1477C148 95.0767 148.508 95.0767 148.508 94.0057C148.508 92.9347 148.324 92.9347 148.324 91.8622C148.324 90.788 148.053 90.788 148.053 89.7155C148.053 88.6445 148.107 88.6445 148.107 87.5719C148.107 86.4978 148.024 86.4978 148.024 85.4236C148.024 84.3479 148.022 84.3479 148.022 83.2721C148.022 82.1948 148.26 82.1948 148.26 81.1191C148.26 80.4723 148.374 79.8225 148.627 79.2615C148.889 78.6768 149.15 77.9935 149.627 77.5534C150.103 77.1148 150.913 77.0211 151.545 76.7796C152.154 76.5476 152.793 76.3219 153.495 76.3219C154.196 76.3219 154.794 76.6365 155.405 76.8717C156.037 77.1116 156.632 77.3484 157.109 77.7886C157.585 78.2271 158.249 78.6212 158.512 79.2027C158.764 79.7668 158.655 80.4723 158.655 81.1191C158.655 82.1853 158.888 82.1853 158.888 83.2531C158.888 84.3209 158.629 84.3209 158.629 85.3902C158.629 86.4596 158.766 86.4596 158.766 87.5306C158.766 88.6 158.988 88.6 158.988 89.6662C158.988 90.734 158.96 90.734 158.96 91.8018C158.96 92.868 158.659 92.868 158.659 93.9358C158.659 95.002 158.826 95.002 158.826 96.0698C158.826 97.1376 158.531 97.1376 158.531 98.2038C158.531 99.2732 158.893 99.2732 158.893 100.343C158.893 101.414 158.612 101.414 158.612 102.485C158.612 103.554 158.514 103.554 158.514 104.623C158.514 105.69 158.467 105.69 158.467 106.757C158.467 107.827 158.816 107.827 158.816 108.896C158.816 109.967 158.641 109.967 158.641 111.038C158.641 112.106 158.578 112.106 158.578 113.177C158.578 114.246 159 114.246 159 115.316C159 116.387 158.735 116.387 158.735 117.458C158.735 118.527 158.728 118.527 158.728 119.598C158.728 120.669 158.419 120.669 158.419 121.74C158.419 122.811 158.928 122.811 158.928 123.883C158.928 124.953 158.91 124.953 158.91 126.024C158.91 127.095 158.69 127.095 158.69 128.166C158.69 129.235 158.971 129.235 158.971 130.304C158.971 131.372 158.336 131.372 158.336 132.44C158.336 133.514 158.797 133.514 158.797 134.587C158.797 135.658 158.416 135.658 158.416 136.729C158.416 137.798 158.588 137.798 158.588 138.871C158.588 139.945 158.99 139.945 158.99 141.019C158.99 142.09 158.461 142.09 158.461 143.161C158.461 144.235 158.367 144.235 158.367 145.309C158.367 146.387 158.959 146.387 158.959 147.461C158.959 148.538 158.566 148.538 158.566 149.614C158.566 150.26 158.495 150.864 158.243 151.428C157.981 152.01 157.738 152.647 157.263 153.087C156.785 153.526 156.234 154.06 155.601 154.301C154.991 154.535 154.196 154.576 153.495 154.576Z" fill="#FFFFFF"/>
  <path d="M216.628 63.3819C215.92 63.3819 215.221 63.1695 214.53 63.197C213.822 63.223 213.133 63.4062 212.444 63.4598C211.737 63.5149 211.027 63.4127 210.342 63.4922C209.635 63.5765 208.967 63.8344 208.286 63.9446C207.582 64.0565 206.895 64.1506 206.221 64.29C205.521 64.4327 204.865 64.6857 204.199 64.8544C203.503 65.0328 202.754 64.9306 202.099 65.1333C201.409 65.3474 200.816 65.7966 200.173 66.0366C199.494 66.2895 198.711 66.2068 198.087 66.4858C197.422 66.7825 196.977 67.5009 196.379 67.822C195.73 68.1707 195.065 68.3961 194.502 68.7674C193.879 69.1793 193.135 69.3577 192.623 69.7891C192.043 70.2821 191.868 71.1302 191.439 71.641C190.941 72.2345 190.073 72.5118 189.797 73.1167C189.476 73.8189 189.718 74.6492 189.718 75.3433C189.718 76.0389 189.609 76.8092 189.932 77.513C190.21 78.1179 190.58 78.7958 191.08 79.3909C191.508 79.9017 192.036 80.4336 192.616 80.9234C193.129 81.358 193.84 81.5947 194.463 82.0066C195.028 82.378 195.534 82.9407 196.183 83.2861C196.781 83.6088 197.488 83.7791 198.154 84.0775C198.777 84.3548 199.525 84.3483 200.203 84.5997C200.844 84.8364 201.353 85.5646 202.041 85.7786C202.695 85.9797 203.512 85.6165 204.207 85.7932C204.87 85.9635 205.521 86.2262 206.218 86.3689C206.894 86.5084 207.551 86.7938 208.256 86.9057C208.936 87.0143 209.657 86.8619 210.364 86.9446C211.049 87.0257 211.709 87.47 212.416 87.5235C213.107 87.577 213.823 87.2819 214.533 87.3095C215.226 87.3354 215.919 87.5673 216.628 87.5673C217.337 87.5673 218.047 87.8138 218.738 87.7895C219.446 87.7619 220.13 87.3727 220.819 87.3208C221.526 87.2657 222.203 87.0338 222.888 86.9527C223.595 86.87 224.314 87.0143 224.996 86.9057C225.698 86.7922 226.388 86.6689 227.061 86.5311C227.761 86.3884 228.452 86.2619 229.119 86.0932C229.816 85.9165 230.423 85.4802 231.08 85.2775C231.77 85.0635 232.506 85.0781 233.148 84.8381C233.828 84.5867 234.588 84.5786 235.212 84.3013C235.877 84.0061 236.442 83.5132 237.04 83.1921C237.689 82.8434 238.385 82.6099 238.948 82.2369C239.571 81.8266 239.896 81.0418 240.407 80.6072C240.988 80.1142 241.514 79.6698 241.944 79.159C242.44 78.5655 243.041 78.1033 243.317 77.4984C243.637 76.7979 243.418 76.0373 243.418 75.3433C243.418 74.6476 243.382 74.0103 243.058 73.3065C242.781 72.7 242.389 72.1518 241.891 71.5583C241.463 71.0491 241.159 70.3323 240.578 69.8426C240.066 69.4096 239.353 69.1939 238.73 68.7836C238.167 68.4123 237.583 68.028 236.935 67.6809C236.336 67.3598 235.645 67.2106 234.978 66.9155C234.354 66.6382 233.8 66.1403 233.121 65.889C232.48 65.649 231.754 65.6441 231.066 65.4317C230.412 65.2306 229.874 64.5203 229.181 64.3436C228.516 64.1733 227.803 64.1068 227.104 63.9625C226.43 63.823 225.68 64.063 224.976 63.9511C224.296 63.8408 223.603 63.7954 222.896 63.7127C222.211 63.6316 221.548 63.2279 220.84 63.1727C220.15 63.1192 219.449 62.9765 218.739 62.9489C218.047 62.923 217.338 63.3819 216.628 63.3819ZM216.628 97.5762C215.923 97.5762 215.221 97.3394 214.528 97.3183C213.822 97.2956 213.113 97.4043 212.42 97.3621C211.715 97.3183 211.027 97.0913 210.336 97.0232C209.632 96.9551 208.916 97.0394 208.228 96.9486C207.526 96.8578 206.833 96.7199 206.148 96.6048C205.449 96.4864 204.736 96.454 204.057 96.3129C203.363 96.1686 202.737 95.7161 202.066 95.5491C201.376 95.3772 200.639 95.421 199.974 95.2264C199.292 95.0253 198.728 94.4545 198.073 94.2274C197.399 93.9972 196.592 94.1804 195.949 93.9226C195.286 93.6582 194.685 93.2399 194.055 92.948C193.404 92.6496 192.901 92.0577 192.288 91.7301C191.654 91.3912 190.81 91.4658 190.219 91.1025C189.605 90.7214 189.325 89.8247 188.762 89.4192C188.175 88.996 187.357 88.9263 186.825 88.4754C186.272 88.0068 185.944 87.2965 185.453 86.7986C184.943 86.2813 184.521 85.7202 184.082 85.1737C183.624 84.6045 183.226 84.037 182.851 83.4402C182.461 82.8223 181.924 82.3196 181.625 81.6726C181.319 81.0109 181.266 80.265 181.056 79.5758C180.845 78.8833 180.543 78.2282 180.436 77.5082C180.332 76.7946 180 76.0779 180 75.3433C180 74.607 180.557 73.9243 180.663 73.2108C180.771 72.4875 180.397 71.6491 180.607 70.9534C180.817 70.2642 181.186 69.5977 181.495 68.9361C181.795 68.289 182.281 67.7247 182.67 67.1069C183.048 66.5101 183.282 65.7625 183.739 65.1949C184.178 64.6468 184.926 64.363 185.436 63.8457C185.927 63.3479 186.24 62.6116 186.794 62.143C187.325 61.6938 188.018 61.4246 188.604 61.0029C189.168 60.5975 189.884 60.4321 190.496 60.0527C191.086 59.6894 191.531 59.0359 192.165 58.6986C192.777 58.3726 193.348 57.9072 193.997 57.6072C194.626 57.3185 195.367 57.2618 196.03 56.9958C196.673 56.738 197.335 56.498 198.009 56.2645C198.663 56.0407 199.342 55.8574 200.025 55.6563C200.69 55.4617 201.31 55.032 201.999 54.8585C202.67 54.6915 203.408 54.779 204.102 54.6347C204.781 54.4952 205.511 54.6444 206.21 54.526C206.894 54.4125 207.552 54.1141 208.254 54.0233C208.943 53.9325 209.649 54.0087 210.355 53.9406C211.044 53.8741 211.709 53.3763 212.413 53.3325C213.107 53.2871 213.814 53.3114 214.521 53.2887C215.216 53.2676 215.922 53.519 216.628 53.519C217.334 53.519 218.042 53.1152 218.736 53.1363C219.442 53.1574 220.142 53.313 220.835 53.3552C221.54 53.4022 222.245 53.4266 222.935 53.4947C223.639 53.5628 224.305 53.9406 224.993 54.0314C225.695 54.1239 226.424 53.9731 227.107 54.0898C227.806 54.2066 228.494 54.3671 229.173 54.5082C229.867 54.6525 230.595 54.6412 231.267 54.8098C231.957 54.9817 232.578 55.4115 233.243 55.6077C233.925 55.8088 234.664 55.8055 235.319 56.0309C235.992 56.2628 236.478 57.0137 237.121 57.2699C237.784 57.5358 238.456 57.7223 239.085 58.011C239.736 58.3126 240.522 58.2915 241.134 58.6175C241.769 58.9564 242.417 59.271 243.008 59.6359C243.623 60.0154 244.041 60.6948 244.607 61.1019C245.193 61.5235 245.685 62.0359 246.215 62.4851C246.77 62.9538 247.265 63.4419 247.755 63.9398C248.266 64.4571 248.876 64.843 249.317 65.3895C249.773 65.9587 250.246 66.502 250.621 67.0987C251.01 67.7166 251.312 68.3782 251.613 69.0237C251.918 69.6853 251.962 70.4329 252.17 71.1188C252.38 71.8145 252.771 72.4486 252.879 73.1686C252.984 73.8821 253 74.6086 253 75.3433C253 76.0795 252.701 76.7622 252.597 77.4757C252.489 78.199 252.542 78.932 252.331 79.6293C252.122 80.3169 252.036 81.0709 251.728 81.7326C251.429 82.3796 251.112 83.0542 250.721 83.6721C250.344 84.2689 249.857 84.8202 249.399 85.3878C248.959 85.9343 248.369 86.3608 247.858 86.8781C247.366 87.3759 246.81 87.8089 246.256 88.2776C245.724 88.7284 245.288 89.3333 244.701 89.7565C244.137 90.162 243.57 90.603 242.96 90.9825C242.37 91.3458 241.666 91.5306 241.034 91.8679C240.423 92.1955 239.708 92.3042 239.057 92.6058C238.428 92.8944 237.873 93.3777 237.209 93.642C236.565 93.8983 235.919 94.1788 235.245 94.4123C234.591 94.6361 233.887 94.7302 233.205 94.9312C232.541 95.1275 231.891 95.408 231.202 95.5783C230.531 95.7469 229.847 95.8978 229.153 96.0421C228.474 96.1832 227.809 96.4556 227.11 96.5724C226.427 96.6875 225.737 96.8448 225.035 96.9356C224.347 97.0264 223.656 97.2275 222.952 97.2956C222.263 97.3621 221.534 97.0524 220.829 97.0962C220.134 97.1399 219.445 97.4675 218.738 97.4886C218.044 97.5113 217.335 97.5762 216.628 97.5762Z" fill="#FFFFFF"/>
  <path d="M216.498 120.503C215.794 120.503 215.091 120.7 214.4 120.678C213.694 120.657 213.017 120.216 212.326 120.174C211.623 120.131 210.893 120.531 210.205 120.467C209.503 120.401 208.792 120.399 208.107 120.309C207.406 120.219 206.737 119.914 206.055 119.802C205.358 119.687 204.737 119.211 204.059 119.074C203.367 118.934 202.575 119.298 201.904 119.135C201.216 118.968 200.63 118.428 199.967 118.239C199.287 118.042 198.501 118.221 197.847 118.001C197.175 117.777 196.541 117.443 195.9 117.192C195.238 116.935 194.754 116.275 194.125 115.993C193.476 115.7 192.853 115.41 192.243 115.09C191.609 114.762 190.989 114.463 190.399 114.107C189.787 113.74 189.188 113.399 188.624 113.005C188.038 112.594 187.437 112.244 186.906 111.804C186.355 111.349 185.835 110.889 185.346 110.407C184.836 109.902 184.105 109.611 183.665 109.08C183.21 108.527 182.854 107.882 182.479 107.301C182.09 106.702 181.781 106.043 181.482 105.416C181.176 104.775 180.961 104.085 180.753 103.415C180.544 102.74 180.565 102.012 180.458 101.313C180.354 100.621 180.382 99.9323 180.382 99.2184C180.382 98.2209 180.054 98.2209 180.054 97.2266C180.054 96.2291 180.152 96.2291 180.152 95.2316C180.152 94.231 180.39 94.231 180.39 93.2303C180.39 92.2328 180 92.2328 180 91.2353C180 90.2347 180.398 90.2347 180.398 89.234C180.398 88.2334 180.138 88.2334 180.138 87.2327C180.138 86.2337 180.089 86.2337 180.089 85.233C180.089 84.2324 180.163 84.2324 180.163 83.2317C180.163 82.2279 180.427 82.2279 180.427 81.2241C180.427 80.2203 180.205 80.2203 180.205 79.2165C180.205 78.5752 180.562 78.0678 180.789 77.5115C181.027 76.9332 181.222 76.4084 181.651 75.9719C182.08 75.537 182.575 75.2833 183.145 75.0438C183.693 74.8121 184.216 74.4954 184.849 74.4954C185.479 74.4954 185.974 74.8783 186.524 75.11C187.093 75.3495 187.914 75.2344 188.343 75.671C188.771 76.1059 188.75 76.9001 188.986 77.4768C189.213 78.0347 189.599 78.5752 189.599 79.2165C189.599 80.214 189.703 80.214 189.703 81.2084C189.703 82.2059 189.54 82.2059 189.54 83.2034C189.54 84.204 189.303 84.204 189.303 85.2047C189.303 86.2022 189.363 86.2022 189.363 87.1996C189.363 88.2003 189.425 88.2003 189.425 89.2009C189.425 90.2016 189.609 90.2016 189.609 91.2022C189.609 92.2013 189.598 92.2013 189.598 93.2019C189.598 94.2026 189.346 94.2026 189.346 95.2032C189.346 96.207 189.286 96.207 189.286 97.2108C189.286 98.2146 189.292 98.2146 189.292 99.2184C189.292 99.8945 189.697 100.57 190.019 101.253C190.297 101.841 190.744 102.368 191.242 102.945C191.669 103.442 191.988 104.137 192.566 104.614C193.076 105.035 193.786 105.26 194.407 105.659C194.97 106.021 195.521 106.469 196.169 106.806C196.765 107.118 197.338 107.572 198.003 107.86C198.624 108.128 199.376 108.139 200.053 108.385C200.693 108.615 201.416 108.62 202.101 108.826C202.753 109.023 203.291 109.71 203.982 109.884C204.645 110.047 205.394 109.917 206.089 110.055C206.762 110.191 207.473 110.14 208.177 110.249C208.855 110.358 209.514 110.675 210.219 110.753C210.902 110.832 211.582 111.103 212.289 111.155C212.977 111.209 213.684 111.245 214.392 111.272C215.083 111.297 215.789 111.395 216.498 111.395C217.204 111.395 217.895 110.891 218.586 110.867C219.293 110.84 219.998 111.012 220.686 110.96C221.391 110.906 222.089 110.842 222.772 110.763C223.477 110.684 224.21 110.862 224.89 110.755C225.591 110.646 226.258 110.356 226.931 110.221C227.628 110.081 228.226 109.551 228.891 109.386C229.585 109.214 230.346 109.364 231 109.167C231.688 108.959 232.385 108.817 233.027 108.585C233.704 108.339 234.39 108.138 235.011 107.868C235.676 107.581 236.325 107.277 236.92 106.967C237.568 106.628 238.218 106.308 238.782 105.946C239.403 105.547 239.953 105.058 240.464 104.638C241.042 104.16 241.481 103.563 241.908 103.067C242.404 102.488 242.941 101.948 243.217 101.36C243.537 100.679 243.554 99.8929 243.554 99.2184C243.554 98.2209 243.601 98.2209 243.601 97.2266C243.601 96.2291 243.66 96.2291 243.66 95.2316C243.66 94.231 243.345 94.231 243.345 93.2303C243.345 92.2328 243.253 92.2328 243.253 91.2353C243.253 90.2347 243.547 90.2347 243.547 89.234C243.547 88.2334 243.705 88.2334 243.705 87.2327C243.705 86.2337 243.28 86.2337 243.28 85.233C243.28 84.2324 243.7 84.2324 243.7 83.2317C243.7 82.2279 243.266 82.2279 243.266 81.2241C243.266 80.2203 243.373 80.2203 243.373 79.2165C243.373 78.5752 243.534 77.9291 243.763 77.3728C243.999 76.7961 244.393 76.2776 244.822 75.8411C245.25 75.4062 245.811 75.1273 246.381 74.8878C246.929 74.6561 247.516 74.3898 248.147 74.3898C248.779 74.3898 249.403 74.5616 249.953 74.7916C250.523 75.0327 250.922 75.5307 251.351 75.9656C251.779 76.4021 252.22 76.8276 252.456 77.4044C252.683 77.9622 252.528 78.5752 252.528 79.2165C252.528 80.214 252.8 80.214 252.8 81.2084C252.8 82.2059 252.738 82.2059 252.738 83.2034C252.738 84.204 252.675 84.204 252.675 85.2047C252.675 86.2022 252.838 86.2022 252.838 87.1996C252.838 88.2003 253 88.2003 253 89.2009C253 90.2016 252.674 90.2016 252.674 91.2022C252.674 92.2013 252.633 92.2013 252.633 93.2019C252.633 94.2026 252.967 94.2026 252.967 95.2032C252.967 96.207 252.874 96.207 252.874 97.2108C252.874 98.2146 252.797 98.2146 252.797 99.2184C252.797 99.9338 252.778 100.643 252.672 101.338C252.565 102.039 252.433 102.742 252.222 103.416C252.014 104.088 251.7 104.726 251.394 105.369C251.094 105.998 250.526 106.464 250.136 107.064C249.76 107.644 249.406 108.226 248.951 108.777C248.512 109.308 248.283 110.054 247.774 110.556C247.285 111.04 246.62 111.351 246.069 111.804C245.538 112.244 244.979 112.655 244.393 113.064C243.831 113.458 243.329 113.97 242.719 114.338C242.13 114.691 241.377 114.756 240.747 115.084C240.136 115.401 239.585 115.846 238.936 116.138C238.308 116.42 237.653 116.647 236.991 116.904C236.35 117.154 235.723 117.463 235.05 117.689C234.396 117.908 233.716 118.061 233.034 118.256C232.373 118.445 231.717 118.696 231.031 118.863C230.36 119.025 229.72 119.376 229.027 119.517C228.352 119.654 227.672 119.859 226.976 119.972C226.293 120.084 225.572 120.018 224.873 120.107C224.187 120.197 223.479 120.159 222.775 120.226C222.087 120.29 221.39 120.3 220.686 120.342C219.994 120.386 219.309 120.739 218.602 120.761C217.909 120.784 217.203 120.503 216.498 120.503Z" fill="#FFFFFF"/>
  <path d="M216.498 143.632C215.796 143.632 215.097 143.873 214.408 143.851C213.704 143.829 213.013 143.684 212.325 143.64C211.623 143.596 210.934 143.488 210.246 143.421C209.546 143.352 208.875 143.117 208.191 143.026C207.493 142.932 206.749 143.239 206.067 143.121C205.371 143.001 204.662 142.975 203.986 142.834C203.295 142.687 202.696 142.125 202.026 141.956C201.34 141.782 200.706 141.469 200.045 141.271C199.366 141.068 198.574 141.299 197.922 141.071C197.251 140.837 196.684 140.323 196.044 140.064C195.384 139.795 194.787 139.415 194.16 139.12C193.514 138.817 192.77 138.761 192.16 138.432C191.528 138.09 190.85 137.845 190.262 137.477C189.651 137.093 189.165 136.517 188.604 136.106C188.02 135.68 187.372 135.357 186.842 134.901C186.292 134.428 185.716 133.982 185.228 133.481C184.719 132.957 184.185 132.444 183.746 131.89C183.292 131.317 182.907 130.668 182.533 130.063C182.146 129.441 182.087 128.625 181.79 127.971C181.484 127.303 181.368 126.593 181.159 125.897C180.95 125.196 180.736 124.532 180.631 123.805C180.525 123.086 180 122.385 180 121.642C180 120.605 180.099 120.605 180.099 119.57C180.099 118.535 180.023 118.535 180.023 117.498C180.023 116.457 180.552 116.457 180.552 115.417C180.552 114.38 180.341 114.38 180.341 113.343C180.341 112.302 180.346 112.302 180.346 111.262C180.346 110.222 180.496 110.222 180.496 109.181C180.496 108.143 180.482 108.143 180.482 107.102C180.482 106.062 180.407 106.062 180.407 105.022C180.407 103.978 180.122 103.978 180.122 102.935C180.122 101.889 180.497 101.889 180.497 100.847C180.497 100.181 180.488 99.5843 180.716 99.0043C180.951 98.4047 181.288 97.9099 181.715 97.4561C182.144 97.0039 182.549 96.4895 183.117 96.2388C183.666 95.9996 184.292 95.6441 184.922 95.6441C185.552 95.6441 186.168 96.0259 186.717 96.2667C187.285 96.5157 187.981 96.7058 188.41 97.1596C188.836 97.6117 188.999 98.3572 189.234 98.9568C189.462 99.5384 189.769 100.181 189.769 100.847V102.918C189.769 103.955 189.332 103.955 189.332 104.992C189.332 106.033 189.479 106.033 189.479 107.073C189.479 108.11 189.543 108.11 189.543 109.147C189.543 110.187 189.738 110.187 189.738 111.228C189.738 112.266 189.465 112.266 189.465 113.308C189.465 114.347 189.702 114.347 189.702 115.387C189.702 116.428 189.744 116.428 189.744 117.468C189.744 118.512 189.465 118.512 189.465 119.555C189.465 120.599 189.836 120.599 189.836 121.642C189.836 122.345 189.836 123.007 190.158 123.718C190.434 124.331 190.545 125.158 191.041 125.758C191.469 126.272 191.985 126.834 192.561 127.331C193.071 127.768 193.816 127.963 194.436 128.378C194.997 128.754 195.694 128.925 196.34 129.275C196.936 129.601 197.394 130.298 198.058 130.598C198.678 130.878 199.448 130.822 200.124 131.076C200.762 131.315 201.321 131.875 202.006 132.09C202.657 132.295 203.36 132.385 204.05 132.563C204.711 132.736 205.426 132.722 206.121 132.867C206.792 133.007 207.494 133.003 208.194 133.117C208.873 133.227 209.502 133.818 210.204 133.904C210.887 133.984 211.622 133.609 212.325 133.663C213.012 133.717 213.699 133.876 214.406 133.904C215.095 133.93 215.791 133.784 216.498 133.784C217.203 133.784 217.911 134.282 218.599 134.254C219.304 134.228 219.987 133.859 220.673 133.805C221.377 133.751 222.082 133.787 222.763 133.705C223.467 133.622 224.13 133.314 224.807 133.204C225.507 133.089 226.237 133.234 226.908 133.093C227.605 132.948 228.196 132.369 228.859 132.198C229.551 132.018 230.283 132.085 230.937 131.879C231.623 131.664 232.263 131.368 232.901 131.125C233.578 130.871 234.322 130.851 234.943 130.57C235.605 130.271 236.045 129.542 236.64 129.218C237.286 128.866 237.923 128.604 238.484 128.227C239.103 127.812 239.714 127.475 240.224 127.037C240.8 126.539 241.204 125.958 241.632 125.44C242.126 124.842 242.755 124.416 243.031 123.805C243.349 123.097 243.352 122.344 243.352 121.642C243.352 120.605 243.525 120.605 243.525 119.57C243.525 118.535 243.555 118.535 243.555 117.498C243.555 116.457 243.697 116.457 243.697 115.417C243.697 114.38 243.597 114.38 243.597 113.343C243.597 112.302 243.697 112.302 243.697 111.262C243.697 110.222 243.315 110.222 243.315 109.181C243.315 108.143 243.268 108.143 243.268 107.102C243.268 106.062 243.558 106.062 243.558 105.022C243.558 103.978 243.15 103.978 243.15 102.935C243.15 101.889 243.626 101.889 243.626 100.847C243.626 100.181 243.778 99.6449 244.006 99.0649C244.241 98.4653 244.282 97.7428 244.709 97.2906C245.138 96.8385 245.688 96.4584 246.257 96.2093C246.805 95.9685 247.444 95.8522 248.073 95.8522C248.704 95.8522 249.224 96.2716 249.773 96.5108C250.34 96.7615 250.783 97.0777 251.21 97.5298C251.64 97.982 252.245 98.3162 252.481 98.9158C252.709 99.4958 252.873 100.181 252.873 100.847C252.873 101.884 252.926 101.884 252.926 102.918C252.926 103.955 252.957 103.955 252.957 104.992C252.957 106.033 252.848 106.033 252.848 107.073C252.848 108.11 252.783 108.11 252.783 109.147C252.783 110.187 252.513 110.187 252.513 111.228C252.513 112.266 252.506 112.266 252.506 113.308C252.506 114.347 252.868 114.347 252.868 115.387C252.868 116.428 253 116.428 253 117.468C253 118.512 252.441 118.512 252.441 119.555C252.441 120.599 252.651 120.599 252.651 121.642C252.651 122.386 252.924 123.163 252.817 123.884C252.712 124.613 252.324 125.298 252.114 125.999C251.905 126.695 251.609 127.363 251.302 128.034C251.004 128.686 250.456 129.182 250.069 129.806C249.692 130.411 249.571 131.22 249.116 131.793C248.679 132.346 248.064 132.747 247.554 133.271C247.066 133.773 246.711 134.462 246.159 134.936C245.629 135.393 244.954 135.675 244.37 136.099C243.807 136.509 243.099 136.682 242.49 137.062C241.903 137.431 241.531 138.234 240.901 138.574C240.293 138.904 239.46 138.761 238.814 139.064C238.188 139.359 237.734 140.121 237.074 140.39C236.434 140.649 235.755 140.858 235.084 141.091C234.432 141.319 233.685 141.269 233.007 141.473C232.345 141.671 231.727 142.084 231.04 142.256C230.373 142.426 229.702 142.669 229.012 142.814C228.337 142.957 227.562 142.557 226.868 142.677C226.186 142.791 225.548 143.234 224.849 143.326C224.164 143.419 223.454 143.317 222.753 143.386C222.066 143.455 221.391 143.758 220.689 143.802C219.998 143.848 219.299 143.927 218.596 143.948C217.903 143.971 217.201 143.632 216.498 143.632Z" fill="#FFFFFF"/>
  <path d="M216.439 164.938C215.736 164.938 215.037 165.161 214.344 165.141C213.641 165.119 212.945 165.049 212.254 165.006C211.551 164.964 210.834 165.136 210.145 165.07C209.443 165.003 208.762 164.761 208.076 164.671C207.376 164.581 206.653 164.66 205.972 164.547C205.275 164.434 204.671 163.829 203.994 163.692C203.302 163.551 202.641 163.342 201.972 163.179C201.285 163.01 200.512 163.222 199.851 163.03C199.17 162.836 198.532 162.518 197.88 162.296C197.208 162.071 196.499 161.97 195.858 161.72C195.197 161.461 194.52 161.239 193.893 160.954C193.244 160.663 192.605 160.349 191.993 160.027C191.36 159.698 190.75 159.325 190.161 158.969C189.549 158.599 188.911 158.265 188.348 157.868C187.763 157.456 187.283 156.901 186.754 156.461C186.203 156.004 185.675 155.525 185.187 155.039C184.678 154.534 184.482 153.762 184.043 153.227C183.588 152.672 182.977 152.272 182.601 151.69C182.213 151.087 181.735 150.536 181.436 149.907C181.131 149.263 180.872 148.581 180.664 147.908C180.455 147.233 180.67 146.461 180.563 145.76C180.458 145.064 180.366 144.396 180.366 143.678C180.366 142.678 180.332 142.678 180.332 141.678C180.332 140.676 180.32 140.676 180.32 139.675C180.32 138.67 180.376 138.67 180.376 137.667C180.376 136.664 180.227 136.664 180.227 135.663C180.227 134.658 180 134.658 180 133.655C180 132.65 180.354 132.65 180.354 131.644C180.354 130.641 180.127 130.641 180.127 129.638C180.127 128.633 180.146 128.633 180.146 127.627C180.146 126.619 180.43 126.619 180.43 125.613C180.43 124.604 180.377 124.604 180.377 123.596C180.377 122.952 180.116 122.268 180.343 121.71C180.58 121.129 181.113 120.699 181.541 120.262C181.971 119.824 182.441 119.405 183.011 119.163C183.56 118.932 184.181 118.965 184.813 118.965C185.443 118.965 185.972 119.158 186.521 119.391C187.089 119.631 187.859 119.617 188.287 120.053C188.716 120.49 189.119 121.098 189.355 121.677C189.582 122.238 189.22 122.952 189.22 123.596C189.22 124.597 189.279 124.597 189.279 125.597C189.279 126.599 189.729 126.599 189.729 127.599C189.729 128.603 189.372 128.603 189.372 129.608C189.372 130.611 189.504 130.611 189.504 131.612C189.504 132.615 189.4 132.615 189.4 133.62C189.4 134.625 189.575 134.625 189.575 135.631C189.575 136.633 189.309 136.633 189.309 137.637C189.309 138.642 189.496 138.642 189.496 139.648C189.496 140.654 189.422 140.654 189.422 141.662C189.422 142.671 189.223 142.671 189.223 143.678C189.223 144.356 189.861 144.935 190.182 145.622C190.458 146.212 190.522 147.003 191.02 147.582C191.447 148.081 192.195 148.304 192.772 148.783C193.285 149.207 193.666 149.869 194.289 150.269C194.849 150.631 195.62 150.674 196.267 151.012C196.865 151.326 197.321 151.997 197.985 152.286C198.608 152.557 199.236 152.905 199.911 153.15C200.551 153.381 201.243 153.544 201.929 153.751C202.581 153.949 203.29 154.011 203.982 154.183C204.643 154.349 205.388 154.18 206.085 154.319C206.757 154.455 207.378 154.939 208.079 155.048C208.757 155.154 209.462 155.162 210.167 155.245C210.849 155.324 211.542 155.414 212.248 155.469C212.935 155.521 213.63 155.661 214.338 155.686C215.029 155.713 215.732 155.61 216.439 155.61C217.146 155.61 217.836 155.393 218.525 155.366C219.233 155.341 219.933 155.466 220.62 155.414C221.327 155.36 222.026 155.349 222.709 155.271C223.414 155.189 224.104 155.091 224.784 154.985C225.486 154.876 226.127 154.512 226.797 154.376C227.495 154.235 228.155 154.034 228.821 153.868C229.515 153.696 230.19 153.563 230.845 153.365C231.532 153.156 232.35 153.414 232.991 153.18C233.669 152.933 234.33 152.659 234.953 152.387C235.614 152.099 236.189 151.647 236.785 151.332C237.433 150.993 238.097 150.718 238.659 150.353C239.279 149.952 239.633 149.236 240.144 148.813C240.721 148.334 241.482 148.108 241.91 147.609C242.405 147.03 242.825 146.399 243.102 145.809C243.42 145.125 243.296 144.355 243.296 143.678C243.296 142.678 243.151 142.678 243.151 141.678C243.151 140.676 243.294 140.676 243.294 139.675C243.294 138.67 243.258 138.67 243.258 137.667C243.258 136.664 243.462 136.664 243.462 135.663C243.462 134.658 243.682 134.658 243.682 133.655C243.682 132.65 243.428 132.65 243.428 131.644C243.428 130.641 243.67 130.641 243.67 129.638C243.67 128.633 243.206 128.633 243.206 127.627C243.206 126.619 243.172 126.619 243.172 125.613C243.172 124.604 243.622 124.604 243.622 123.596C243.622 122.952 243.372 122.268 243.6 121.71C243.836 121.131 244.458 120.791 244.886 120.352C245.315 119.916 245.763 119.565 246.331 119.324C246.881 119.092 247.436 118.879 248.066 118.879C248.698 118.879 249.403 118.728 249.952 118.959C250.52 119.199 250.962 119.77 251.391 120.208C251.821 120.645 251.867 121.313 252.101 121.892C252.33 122.452 252.815 122.952 252.815 123.596C252.815 124.597 252.626 124.597 252.626 125.597C252.626 126.599 252.877 126.599 252.877 127.599C252.877 128.603 252.721 128.603 252.721 129.608C252.721 130.611 253 130.611 253 131.612C253 132.615 252.741 132.615 252.741 133.62C252.741 134.625 252.66 134.625 252.66 135.631C252.66 136.633 252.77 136.633 252.77 137.637C252.77 138.642 252.719 138.642 252.719 139.648C252.719 140.654 252.587 140.654 252.587 141.662C252.587 142.671 252.624 142.671 252.624 143.678C252.624 144.398 252.915 145.144 252.809 145.842C252.702 146.545 252.288 147.195 252.077 147.873C251.869 148.547 251.856 149.327 251.55 149.973C251.251 150.603 250.427 150.941 250.039 151.544C249.663 152.128 249.457 152.833 249.001 153.387C248.563 153.922 248.101 154.449 247.59 154.953C247.101 155.439 246.715 156.075 246.162 156.534C245.633 156.972 244.821 157.05 244.236 157.46C243.674 157.855 243.335 158.632 242.725 158.999C242.136 159.355 241.528 159.728 240.896 160.057C240.288 160.375 239.493 160.336 238.846 160.627C238.219 160.912 237.687 161.461 237.026 161.719C236.385 161.97 235.758 162.326 235.086 162.551C234.433 162.772 233.632 162.545 232.952 162.741C232.289 162.932 231.714 163.505 231.026 163.673C230.357 163.837 229.601 163.655 228.909 163.796C228.234 163.932 227.559 164.111 226.864 164.226C226.183 164.337 225.487 164.394 224.787 164.484C224.101 164.573 223.436 164.927 222.734 164.994C222.045 165.06 221.347 165.15 220.644 165.193C219.952 165.236 219.244 165.131 218.539 165.153C217.846 165.172 217.144 164.938 216.439 164.938Z" fill="#FFFFFF"/>
  <path d="M88.7074 154.574C88.0906 154.574 87.5071 154.611 86.9706 154.375C86.4158 154.13 85.7732 153.928 85.3549 153.48C84.9351 153.036 84.8654 152.298 84.635 151.706C84.4138 151.133 84.0288 150.566 84.0288 149.906C84.0288 148.808 84.2834 148.808 84.2834 147.707C84.2834 146.607 84.0485 146.607 84.0485 145.508C84.0485 144.407 84.1879 144.407 84.1879 143.303C84.1879 142.203 84.3607 142.203 84.3607 141.101C84.3607 139.999 84.1834 139.999 84.1834 138.9C84.1834 137.798 84.1819 137.798 84.1819 136.698C84.1819 135.595 84.1955 135.595 84.1955 134.491C84.1955 133.391 84.1288 133.391 84.1288 132.289C84.1288 131.185 84.2925 131.185 84.2925 130.084C84.2925 128.982 84.094 128.982 84.094 127.88C84.094 126.778 84.0758 126.778 84.0758 125.674C84.0758 124.576 84.0076 124.576 84.0076 123.474C84.0076 122.374 84.1819 122.374 84.1819 121.275C84.1819 120.17 84 120.17 84 119.066C84 117.964 84.2774 117.964 84.2774 116.862C84.2774 115.761 84.0849 115.761 84.0849 114.655C84.0849 113.55 84.144 113.55 84.144 112.447C84.144 111.343 84.0758 111.343 84.0758 110.241C84.0758 109.135 84.2501 109.135 84.2501 108.03C84.2501 106.923 84.0909 106.923 84.0909 105.814C84.0909 104.708 84.2622 104.708 84.2622 103.599C84.2622 102.942 84.2531 102.302 84.4759 101.732C84.7063 101.139 85.0973 100.644 85.5171 100.198C85.9354 99.7508 86.431 99.4147 86.9857 99.1691C87.5222 98.9333 88.0906 98.7846 88.7074 98.7846C89.7229 98.7846 89.7229 98.7701 90.7383 98.7701C91.7568 98.7701 91.7568 98.6683 92.7737 98.6683C93.7892 98.6683 93.7892 98.7345 94.8046 98.7345C95.8216 98.7345 95.8216 98.6634 96.8386 98.6634C97.8555 98.6634 97.8555 98.9591 98.8725 98.9591C99.8894 98.9591 99.8894 98.6699 100.906 98.6699C101.92 98.6699 101.92 98.7846 102.936 98.7846C103.95 98.7846 103.95 98.5423 104.965 98.5423C105.982 98.5423 105.982 98.6037 107.001 98.6037C108.018 98.6037 108.018 98.6311 109.033 98.6311C110.051 98.6311 110.051 98.9494 111.068 98.9494C112.087 98.9494 112.087 98.8121 113.107 98.8121C114.124 98.8121 114.124 98.972 115.141 98.972C116.161 98.972 116.161 98.6214 117.181 98.6214C118.202 98.6214 118.202 98.9526 119.224 98.9526C120.245 98.9526 120.245 98.8719 121.267 98.8719C121.884 98.8719 122.414 99.0286 122.951 99.2661C123.507 99.5117 124.174 99.607 124.592 100.055C125.012 100.5 125.362 101.097 125.591 101.691C125.814 102.262 125.994 102.942 125.994 103.599C125.994 104.692 125.894 104.692 125.894 105.784C125.894 106.878 125.808 106.878 125.808 107.971C125.808 109.065 125.623 109.065 125.623 110.161C125.623 111.253 125.992 111.253 125.992 112.345C125.992 113.439 125.803 113.439 125.803 114.533C125.803 115.628 125.788 115.628 125.788 116.722C125.788 117.816 125.627 117.816 125.627 118.91C125.627 120.005 125.65 120.005 125.65 121.099C125.65 122.193 125.614 122.193 125.614 123.288C125.614 124.382 125.997 124.382 125.997 125.476C125.997 126.569 125.603 126.569 125.603 127.662C125.603 128.754 125.867 128.754 125.867 129.846C125.867 130.941 126 130.941 126 132.039C126 133.132 125.75 133.132 125.75 134.226C125.75 135.322 125.808 135.322 125.808 136.417C125.808 137.512 125.714 137.512 125.714 138.611C125.714 139.707 125.668 139.707 125.668 140.802C125.668 141.899 125.979 141.899 125.979 142.996C125.979 144.096 125.874 144.096 125.874 145.195C125.874 146.295 125.894 146.295 125.894 147.396C125.894 148.053 125.609 148.643 125.386 149.215C125.156 149.808 125 150.482 124.58 150.927C124.162 151.375 123.508 151.491 122.954 151.735C122.417 151.973 121.884 152.272 121.267 152.272C120.65 152.272 119.982 152.317 119.447 152.079C118.89 151.834 118.502 151.234 118.084 150.787C117.664 150.341 117.363 149.813 117.132 149.221C116.911 148.649 116.602 148.053 116.602 147.396C116.602 146.315 116.735 146.315 116.735 145.234C116.735 144.155 116.926 144.155 116.926 143.075C116.926 141.994 116.696 141.994 116.696 140.913C116.696 139.833 116.559 139.833 116.559 138.75C116.559 137.669 116.546 137.669 116.546 136.59C116.546 135.507 116.876 135.507 116.876 134.427C116.876 133.344 116.681 133.344 116.681 132.263C116.681 131.182 116.512 131.182 116.512 130.101C116.512 129.022 116.767 129.022 116.767 127.943C116.767 126.864 116.891 126.864 116.891 125.786C116.891 124.702 116.644 124.702 116.644 123.619C116.644 122.538 116.853 122.538 116.853 121.457C116.853 120.375 116.699 120.375 116.699 119.292C116.699 118.208 116.743 118.208 116.743 117.124C116.743 116.043 116.535 116.043 116.535 114.961C116.535 113.877 116.658 113.877 116.658 112.793C116.658 111.707 116.576 111.707 116.576 110.619C116.576 109.534 117.529 109.123 116.825 108.34C116.149 107.588 115.742 108.398 114.766 108.398C113.79 108.398 113.79 108.517 112.813 108.517C111.838 108.517 111.838 108.561 110.864 108.561C109.889 108.561 109.889 108.655 108.915 108.655C107.937 108.655 107.937 108.506 106.958 108.506C105.982 108.506 105.982 108.517 105.006 108.517C104.029 108.517 104.029 108.427 103.051 108.427C102.072 108.427 102.072 108.485 101.093 108.485C100.115 108.485 100.115 108.58 99.1377 108.58C98.1586 108.58 98.1586 108.403 97.1796 108.403C96.1975 108.403 96.1975 108.519 95.2169 108.519C94.2348 108.519 94.0211 107.781 93.3421 108.537C92.6343 109.322 93.3391 109.537 93.3391 110.628C93.3391 111.717 93.286 111.717 93.286 112.805C93.286 113.894 93.4057 113.894 93.4057 114.983C93.4057 116.074 93.0966 116.074 93.0966 117.163C93.0966 118.255 93.3845 118.255 93.3845 119.344C93.3845 120.435 93.3648 120.435 93.3648 121.524C93.3648 122.616 93.4118 122.616 93.4118 123.706C93.4118 124.795 93.2087 124.795 93.2087 125.886C93.2087 126.978 93.0511 126.978 93.0511 128.069C93.0511 129.158 93.1345 129.158 93.1345 130.244C93.1345 131.332 93.4224 131.332 93.4224 132.421C93.4224 133.514 93.2709 133.514 93.2709 134.606C93.2709 135.695 93.3648 135.695 93.3648 136.785C93.3648 137.878 93.1648 137.878 93.1648 138.968C93.1648 140.062 93.38 140.062 93.38 141.154C93.38 142.245 93.0875 142.245 93.0875 143.337C93.0875 144.431 93.2663 144.431 93.2663 145.525C93.2663 146.62 93.4406 146.62 93.4406 147.715C93.4406 148.813 93.0678 148.813 93.0678 149.906C93.0678 150.566 93.2981 151.264 93.0753 151.837C92.845 152.428 92.2645 152.805 91.8447 153.252C91.4264 153.698 90.9717 154.06 90.4155 154.306C89.8805 154.542 89.3243 154.574 88.7074 154.574Z" fill="#FFFFFF"/>
</svg>
