<svg width="49" height="48" viewBox="0 0 49 48" fill="none"
  xmlns="http://www.w3.org/2000/svg">
  <path d="M47.9192 43.536L40.7192 27.36C40.6452 27.1929 40.5251 27.0504 40.3729 26.9492C40.2207 26.848 40.0427 26.7923 39.86 26.7888H35.3V25.6704C35.2988 25.5725 35.2826 25.4754 35.252 25.3824C34.7672 22.56 30.308 20.4624 24.5 20.4624C18.692 20.4624 14.2328 22.56 13.748 25.3824C13.7174 25.4754 13.7012 25.5725 13.7 25.6704V26.7888H9.14C8.95727 26.7923 8.77934 26.848 8.62714 26.9492C8.47494 27.0504 8.35478 27.1929 8.2808 27.36L1.0808 43.536C1.01666 43.6807 0.989302 43.8391 1.00116 43.9969C1.01303 44.1548 1.06374 44.3072 1.14879 44.4408C1.23384 44.5743 1.35058 44.6847 1.48862 44.7621C1.62667 44.8396 1.78173 44.8818 1.94 44.8848H47.06C47.2199 44.8849 47.3773 44.8451 47.5179 44.7689C47.6585 44.6928 47.7778 44.5827 47.8651 44.4487C47.9524 44.3147 48.0048 44.161 48.0176 44.0016C48.0304 43.8423 48.0032 43.6822 47.9384 43.536H47.9192ZM15.62 32.5488V29.0736C17.54 30.4608 20.732 31.3392 24.5 31.3392C28.268 31.3392 31.4648 30.4608 33.38 29.0736V32.5248C33.3608 32.6295 33.3608 32.7369 33.38 32.8416C33.38 34.5024 29.5832 36.3648 24.5048 36.3648C19.4264 36.3648 15.62 34.5024 15.6152 32.832C15.6335 32.7386 15.6351 32.6427 15.62 32.5488ZM24.5 22.3824C29.5832 22.3824 33.38 24.24 33.38 25.9008C33.38 27.5616 29.5832 29.4192 24.5 29.4192C19.4168 29.4192 15.62 27.5616 15.62 25.92C15.62 24.2784 19.4168 22.3824 24.5 22.3824ZM3.4376 42.9648L9.7832 28.7088H13.7V32.8416C13.7 35.9424 18.3464 38.2848 24.5048 38.2848C30.6632 38.2848 35.3 35.9424 35.3 32.8416V28.7088H39.2168L45.5624 42.9648H3.4376Z" fill="#FFFFFF"/>
  <path d="M24.3416 15.7056C24.5962 15.7056 24.8404 15.6045 25.0204 15.4245C25.2005 15.2444 25.3016 15.0002 25.3016 14.7456V4.07523C25.3016 3.82063 25.2005 3.57645 25.0204 3.39641C24.8404 3.21638 24.5962 3.11523 24.3416 3.11523C24.087 3.11523 23.8428 3.21638 23.6628 3.39641C23.4827 3.57645 23.3816 3.82063 23.3816 4.07523V14.7456C23.3816 15.0002 23.4827 15.2444 23.6628 15.4245C23.8428 15.6045 24.087 15.7056 24.3416 15.7056Z" fill="#FFFFFF"/>
  <path d="M16.868 16.2096C16.9426 16.3886 17.0697 16.5409 17.2325 16.6462C17.3952 16.7516 17.5861 16.8052 17.78 16.8C17.9017 16.8014 18.0224 16.7786 18.1352 16.7328C18.2525 16.6863 18.3595 16.617 18.45 16.5291C18.5406 16.4412 18.6129 16.3362 18.6628 16.2203C18.7127 16.1044 18.7393 15.9798 18.741 15.8536C18.7428 15.7274 18.7196 15.6021 18.6728 15.4848L14.7368 5.56802C14.689 5.44847 14.6177 5.33975 14.5271 5.24831C14.4365 5.15688 14.3284 5.08461 14.2093 5.0358C14.0902 4.98699 13.9625 4.96263 13.8337 4.96418C13.705 4.96573 13.5779 4.99315 13.46 5.04482C13.3423 5.09091 13.2348 5.1598 13.1437 5.24755C13.0527 5.33529 12.9799 5.44016 12.9295 5.55612C12.8791 5.67208 12.8521 5.79686 12.8501 5.92328C12.848 6.04971 12.871 6.17529 12.9176 6.29282L16.868 16.2096Z" fill="#FFFFFF"/>
  <path d="M10.628 20.0592C10.7183 20.1676 10.8313 20.2547 10.9591 20.3145C11.0868 20.3742 11.2262 20.405 11.3672 20.4048C11.5502 20.405 11.7295 20.3528 11.8839 20.2544C12.0382 20.156 12.1613 20.0156 12.2385 19.8496C12.3156 19.6837 12.3438 19.4991 12.3195 19.3176C12.2953 19.1362 12.2197 18.9655 12.1016 18.8256L5.2424 10.6656C5.1635 10.5627 5.06458 10.4769 4.9516 10.4133C4.83862 10.3497 4.71393 10.3096 4.58505 10.2955C4.45616 10.2814 4.32575 10.2935 4.20169 10.3312C4.07763 10.3689 3.96248 10.4313 3.8632 10.5147C3.76391 10.5981 3.68255 10.7007 3.62401 10.8164C3.56548 10.9321 3.53098 11.0584 3.52261 11.1878C3.51424 11.3172 3.53216 11.4469 3.5753 11.5692C3.61843 11.6915 3.68589 11.8037 3.7736 11.8992L10.628 20.0592Z" fill="#FFFFFF"/>
  <path d="M31.0328 16.7471C31.1456 16.7929 31.2663 16.8157 31.388 16.8143C31.5803 16.8145 31.7682 16.7569 31.9273 16.6491C32.0865 16.5413 32.2097 16.3881 32.2808 16.2095L36.2168 6.29271C36.2634 6.17518 36.2864 6.0496 36.2843 5.92317C36.2823 5.79675 36.2553 5.67197 36.2049 5.55601C36.1545 5.44004 36.0817 5.33518 35.9907 5.24743C35.8996 5.15969 35.7921 5.0908 35.6744 5.04471C35.4382 4.95176 35.1748 4.95614 34.9418 5.05688C34.7089 5.15763 34.5253 5.34655 34.4312 5.58231L30.4952 15.4991C30.4484 15.6163 30.4253 15.7416 30.427 15.8678C30.4287 15.994 30.4553 16.1187 30.5052 16.2346C30.5551 16.3505 30.6274 16.4554 30.718 16.5434C30.8085 16.6313 30.9155 16.7006 31.0328 16.7471Z" fill="#FFFFFF"/>
  <path d="M37.7816 20.4048C37.9226 20.405 38.062 20.3742 38.1897 20.3145C38.3175 20.2547 38.4305 20.1676 38.5208 20.0592L45.3752 11.8992C45.4629 11.8037 45.5304 11.6915 45.5735 11.5692C45.6166 11.4469 45.6346 11.3172 45.6262 11.1878C45.6178 11.0584 45.5833 10.9321 45.5248 10.8164C45.4663 10.7007 45.3849 10.5981 45.2856 10.5147C45.1863 10.4313 45.0712 10.3689 44.9471 10.3312C44.823 10.2935 44.6926 10.2814 44.5638 10.2955C44.4349 10.3096 44.3102 10.3497 44.1972 10.4133C44.0842 10.4769 43.9853 10.5627 43.9064 10.6656L37.0472 18.8256C36.9291 18.9655 36.8535 19.1362 36.8293 19.3176C36.805 19.4991 36.8332 19.6837 36.9103 19.8496C36.9875 20.0156 37.1106 20.156 37.2649 20.2544C37.4193 20.3528 37.5986 20.405 37.7816 20.4048Z" fill="#FFFFFF"/>
</svg>
