<svg width="14" height="14" viewBox="0 0 14 14" fill="none"
  xmlns="http://www.w3.org/2000/svg">
  <path fill-rule="evenodd" clip-rule="evenodd" d="M2.74877 6.41667C2.74877 4.48642 4.22796 2.91667 6.04685 2.91667C7.86574 2.91667 9.34493 4.48642 9.34493 6.41667C9.34493 8.34692 7.86574 9.91667 6.04685 9.91667C4.22796 9.91667 2.74877 8.34692 2.74877 6.41667ZM11.3826 11.2542L9.51643 9.27325C10.0952 8.48342 10.4443 7.4935 10.4443 6.41667C10.4443 3.84358 8.47149 1.75 6.04685 1.75C3.62221 1.75 1.64941 3.84358 1.64941 6.41667C1.64941 8.98975 3.62221 11.0833 6.04685 11.0833C7.06156 11.0833 7.99437 10.7129 8.73863 10.0987L10.6053 12.0791C10.7125 12.1928 10.8532 12.25 10.994 12.25C11.1347 12.25 11.2754 12.1928 11.3826 12.0791C11.5975 11.851 11.5975 11.4823 11.3826 11.2542Z" fill="#696969"/>
</svg>
