<svg width="48" height="48" viewBox="0 0 48 48" fill="none"
  xmlns="http://www.w3.org/2000/svg">
  <path d="M24.3975 47.9999C24.3613 48.0011 24.3253 47.9942 24.2921 47.9797C24.2588 47.9653 24.2293 47.9436 24.2055 47.9163L23.9954 47.6746L23.7266 47.8485C23.6823 47.8803 23.6297 47.8984 23.5752 47.9005C23.5481 47.9005 23.4623 47.9005 23.3493 47.7717L22.9857 47.3809L22.7598 47.8598C22.748 47.8947 22.7259 47.9252 22.6965 47.9474C22.6671 47.9696 22.6317 47.9824 22.5949 47.9841C22.5271 47.9841 22.5045 47.9592 22.4955 47.9479L22.2854 47.722L22.0234 47.8892C21.9231 47.951 21.8067 47.9817 21.689 47.9773C21.5858 47.9744 21.4829 47.9623 21.3818 47.9411C21.1559 47.9005 20.9458 47.8372 20.7358 47.7785C20.3607 47.6484 19.969 47.5724 19.5724 47.5526C19.4543 47.552 19.3364 47.5618 19.22 47.582H19.1681C19.0913 47.582 19.0258 47.5142 18.9422 47.4284L18.9015 47.3854C18.7737 47.2514 18.6187 47.1464 18.4468 47.0774C18.275 47.0084 18.0903 46.9771 17.9053 46.9856C17.7063 46.989 17.5083 47.0163 17.3158 47.0669C17.2985 47.0693 17.281 47.0693 17.2638 47.0669C17.1989 47.0629 17.1349 47.0492 17.0741 47.0263L16.9837 47.0014C16.7706 46.9446 16.5616 46.8737 16.358 46.7891C16.0483 46.6507 15.7192 46.5608 15.3821 46.5225C15.346 46.5225 15.2895 46.5225 15.2375 46.3531C15.2306 46.3278 15.2223 46.3029 15.2127 46.2786V46.2582V46.2379C15.1672 46.1388 15.0938 46.0551 15.0016 45.997C14.9093 45.9388 14.8022 45.9087 14.6931 45.9104C14.6325 45.9112 14.572 45.9173 14.5124 45.9284C14.4595 45.9378 14.4058 45.9431 14.352 45.9442C13.9974 45.9442 13.7986 45.7184 13.5592 45.3773L13.3333 45.0497L13.0487 45.2056C13.0174 45.2225 12.9825 45.2318 12.947 45.2327C12.8386 45.2327 12.7685 45.1288 12.6692 44.921L12.4862 44.5527L12.3145 44.6273L12.2332 44.424L11.9214 44.5008C11.8476 44.5201 11.7718 44.5307 11.6956 44.5324C11.3432 44.5324 11.0766 44.3065 10.8168 44.1077C10.6837 44.0009 10.5416 43.9057 10.3922 43.8231C10.3126 43.775 10.2371 43.7206 10.1663 43.6605C10.1077 43.6074 10.045 43.5591 9.97877 43.5159L9.90423 43.4707C9.74836 43.3849 9.69641 43.3239 9.70093 43.2268V43.0189L9.52473 42.906L9.33498 42.7659L9.10909 42.8676C9.08442 42.8824 9.0565 42.8909 9.02777 42.8924C9.00721 42.8922 8.98705 42.8867 8.96925 42.8764C8.95144 42.8661 8.93659 42.8514 8.92612 42.8337C8.83558 42.7329 8.73319 42.6434 8.62116 42.5672C8.54517 42.5204 8.4779 42.4608 8.42238 42.391C8.2232 42.0846 7.95268 41.8311 7.63401 41.6523C7.51881 41.5755 7.40812 41.4964 7.29291 41.4106C7.20977 41.3083 7.16787 41.1785 7.17545 41.0469L7.15512 40.6245L6.73948 40.7035C6.7245 40.7058 6.70928 40.7058 6.6943 40.7035C6.64057 40.6967 6.58882 40.6789 6.5422 40.6513C6.49559 40.6238 6.4551 40.5869 6.42323 40.5432C6.37103 40.4849 6.33485 40.4141 6.31822 40.3377C6.30159 40.2613 6.30508 40.1819 6.32835 40.1072L6.40516 39.739L6.03244 39.6712C5.98814 39.6571 5.94992 39.6285 5.92401 39.5899C5.89005 39.5487 5.86471 39.501 5.84946 39.4498L5.75007 39.1223L5.41575 39.1991C5.39323 39.2015 5.3705 39.2015 5.34798 39.1991H5.29829C5.26379 39.1956 5.23057 39.1842 5.20119 39.1658C5.17181 39.1474 5.14706 39.1224 5.12887 39.0929C5.10638 39.053 5.09327 39.0084 5.09053 38.9626C5.08779 38.9168 5.09549 38.871 5.11305 38.8286C5.14851 38.7295 5.15709 38.6227 5.1379 38.5192L5.10628 38.2278L4.81488 38.1961C4.77877 38.1925 4.74317 38.1849 4.70871 38.1736C4.61979 38.1461 4.53723 38.1012 4.46586 38.0415C4.3945 37.9817 4.33575 37.9084 4.29306 37.8257C4.23608 37.7086 4.21788 37.5765 4.24111 37.4484L4.29306 37.1141L3.96552 37.0328C3.85709 37.0057 3.78932 36.904 3.7193 36.7866C3.67865 36.7 3.62014 36.623 3.54762 36.5607L3.49792 36.5223L3.43919 36.5042C3.28107 36.45 3.05517 36.1134 3.08002 35.7271C3.08881 35.6501 3.10623 35.5744 3.13198 35.5012L3.2901 34.9455L2.73667 34.9749L2.76377 34.8733L2.67793 34.7377L2.60565 34.6361C2.50851 34.5051 2.44301 34.4102 2.4656 34.2972C2.47047 34.2735 2.47885 34.2507 2.49044 34.2295L2.75248 33.7777L2.23293 33.6873C1.97089 33.6444 1.84665 33.3779 1.7337 33.0842L1.68853 32.9735C1.63205 32.838 1.57106 32.707 1.51007 32.5759C1.27772 32.1721 1.13878 31.7213 1.10346 31.2567C1.09718 31.1312 1.07595 31.0068 1.04021 30.8863C0.962356 30.6834 0.957564 30.4598 1.02666 30.2538L1.1622 29.9804L0.904679 29.802C0.876863 29.7815 0.853755 29.7553 0.836912 29.7252C0.787812 29.6042 0.787812 29.4689 0.836912 29.3479L0.877572 29.1808L0.73526 28.9933C0.6822 28.9312 0.634586 28.8647 0.592948 28.7945C0.572124 28.757 0.547929 28.7215 0.520662 28.6883C0.42127 28.5709 0.380609 28.5054 0.39868 28.4421C0.405256 28.422 0.416036 28.4035 0.430305 28.3879L0.604243 28.2027L0.491296 27.9768C0.440646 27.8592 0.410102 27.734 0.400939 27.6063C0.403063 27.4959 0.380425 27.3865 0.334687 27.286C0.28895 27.1856 0.221278 27.0966 0.136645 27.0258C0.0994406 26.9904 0.0719911 26.9461 0.0569532 26.897C0.0419153 26.8479 0.039798 26.7958 0.0508063 26.7457C0.276699 26.3232 0.188601 25.9121 0.0982437 25.4761C0.0260935 25.2067 -0.00662443 24.9282 0.00111 24.6494C0.0259582 24.358 0.0440295 24.0417 0.0621009 23.7255C0.0801723 23.4092 0.0914669 23.1449 0.114056 22.8784C0.121549 22.7062 0.112471 22.5338 0.0869491 22.3633C0.00290529 22.028 0.0421892 21.6737 0.197636 21.3649C0.218386 21.3296 0.243424 21.297 0.272181 21.2678L0.414493 21.1322L0.380609 20.938C0.380609 20.8996 0.369314 20.8657 0.367056 20.8431C0.360271 20.7526 0.346679 20.6627 0.326395 20.5743C0.268927 20.2896 0.305389 19.9939 0.430305 19.7317C0.537736 19.5045 0.575466 19.2507 0.538734 19.0021C0.538734 18.9659 0.595207 18.8959 0.660716 18.8507L0.71493 18.8055L0.900161 18.5796L0.789474 18.3651C0.86614 18.1894 0.883583 17.9935 0.839171 17.8071C0.809805 17.5812 0.800769 17.4479 0.906938 17.3259C1.15097 17.0247 1.30729 16.6621 1.35872 16.2778L1.37454 16.21C1.41128 16.0651 1.46275 15.9243 1.52814 15.7899C1.60838 15.6245 1.6683 15.4501 1.7066 15.2703C1.73888 15.1156 1.78577 14.9644 1.84665 14.8185C1.87315 14.741 1.89059 14.6606 1.89861 14.5791C1.95734 14.186 2.07028 14.1273 2.27359 14.1273H2.75248L2.6576 13.6755C2.59661 13.4496 2.77959 13.2237 2.96934 12.9979L3.04614 12.9075C3.12999 12.8117 3.1933 12.6997 3.23216 12.5785C3.27101 12.4573 3.28458 12.3294 3.27203 12.2027C3.26474 12.1449 3.27836 12.0864 3.31043 12.0378C3.60158 11.7045 3.83106 11.3221 3.98811 10.9083C4.12736 10.552 4.31676 10.2173 4.55058 9.91442C4.69289 9.74726 4.82617 9.57558 4.95719 9.4039C5.12887 9.17801 5.30054 8.95212 5.47448 8.7714C5.56936 8.67201 5.65745 8.55907 5.75007 8.44612C6.03018 8.09825 6.30802 7.75037 6.71915 7.61032L6.97892 7.52222L6.96311 7.22856C6.95945 7.20507 6.96121 7.18105 6.96825 7.15834C6.9753 7.13563 6.98745 7.11483 7.00377 7.09754L7.07606 7.02074C7.25677 6.82873 7.46008 6.61413 7.73115 6.61413H7.79214H7.90282C8.30265 6.61413 8.43367 6.33629 8.56017 6.06973C8.61223 5.94154 8.6822 5.82137 8.76799 5.71282L8.80639 5.67216L8.83576 5.60891L8.84931 5.57051C8.88546 5.48015 8.90579 5.45982 8.91482 5.4553C9.4163 5.42368 9.65801 5.0871 9.89294 4.75956C10.0253 4.55024 10.1944 4.36658 10.3922 4.21742C10.483 4.14576 10.5915 4.09974 10.7061 4.08414H10.7536L11.1331 4.16772L11.1941 3.7837C11.1967 3.75414 11.2076 3.72592 11.2257 3.70238C11.2314 3.6969 11.2381 3.69266 11.2455 3.68993C11.2529 3.68721 11.2608 3.68606 11.2686 3.68657V3.68657L11.4403 3.72949L11.5894 3.61428C11.6495 3.56481 11.7054 3.51041 11.7565 3.45164C11.8808 3.31385 11.9824 3.22575 12.0841 3.22575C12.1307 3.22698 12.176 3.24105 12.2151 3.26641L12.4252 3.38839L12.6195 3.25511C12.6541 3.2319 12.6952 3.22006 12.7369 3.22123C12.7594 3.21889 12.7822 3.21889 12.8047 3.22123L13.2949 3.30481L13.2294 2.81236C13.2136 2.68586 13.2994 2.58647 13.4349 2.46675C13.4721 2.43715 13.5075 2.40547 13.5411 2.37187C13.5617 2.34591 13.5873 2.32434 13.6164 2.30844C13.6455 2.29253 13.6775 2.28261 13.7105 2.27926C13.7307 2.27605 13.7513 2.27605 13.7715 2.27926L14.0923 2.39672L14.2323 2.1121C14.2323 2.08273 14.2662 2.03304 14.3701 2.03304H14.4108H14.4605L14.6615 2.08499L14.8084 1.93816C14.8491 1.89886 14.9031 1.87629 14.9597 1.87491C14.9792 1.87179 14.999 1.87179 15.0184 1.87491L15.3144 1.94946L15.4409 1.67161C15.4947 1.59606 15.5756 1.54425 15.6667 1.52704L15.8926 1.45701C16.408 1.27714 16.9451 1.16698 17.4897 1.12947H17.7156L17.8308 0.937458C17.8922 0.865904 17.9771 0.818636 18.0702 0.804182L18.147 0.880985L18.2758 0.903574H18.3594C18.4662 0.899606 18.5713 0.875062 18.6689 0.831289C18.7693 0.785314 18.8772 0.757769 18.9874 0.749968H19.0325L19.2042 0.770298L19.3285 0.652834C19.3515 0.631708 19.3786 0.615582 19.4081 0.605473C19.4377 0.595364 19.469 0.591492 19.5001 0.594102C19.5579 0.59555 19.6153 0.602356 19.6718 0.614432L19.7689 0.630245L19.9361 0.650575L20.0897 0.508263C20.2049 0.399834 20.293 0.320772 20.3856 0.320772C20.4272 0.32184 20.4669 0.338817 20.4963 0.36821L20.6228 0.478897L20.7922 0.456308C20.8117 0.453986 20.8315 0.453986 20.851 0.456308L21.1672 0.474379L21.2757 0.248487C21.2937 0.210085 21.3389 0.144576 21.4044 0.144576C21.4309 0.14478 21.4568 0.152623 21.479 0.167165C21.5161 0.189242 21.5509 0.214971 21.5829 0.243969L21.8313 0.469861L22.0753 0.243969C22.2018 0.139215 22.3631 0.0859807 22.5271 0.0948798C22.6542 0.0975965 22.781 0.108917 22.9066 0.128764C23.0261 0.150633 23.1468 0.165716 23.268 0.173942V0.173942C23.4274 0.165405 23.5844 0.131864 23.7334 0.0745495L23.7898 0.0564781C23.8613 0.024762 23.9377 0.00565569 24.0157 4.99862e-06C24.0432 -0.000190152 24.0705 0.00533083 24.0958 0.0162184C24.1211 0.0271059 24.1438 0.0431228 24.1626 0.0632549L24.3116 0.223638L24.5217 0.169424H24.5646C24.6069 0.169864 24.6482 0.181561 24.6844 0.203308L24.7454 0.232674H24.8131C24.8628 0.232674 24.9328 0.232674 25.0119 0.232674C25.1994 0.232674 25.4366 0.219121 25.6083 0.210085H25.8183H25.9223C26.2608 0.208052 26.5989 0.237545 26.932 0.298183C26.9595 0.301721 26.9856 0.31232 27.0077 0.328947C27.0299 0.345574 27.0474 0.367662 27.0585 0.393058L27.1895 0.72286L27.5238 0.603138C27.6551 0.556725 27.7935 0.533785 27.9327 0.53537C28.1565 0.525397 28.3768 0.593247 28.5562 0.727378L28.7369 0.883244L28.9628 0.779334C29.0451 0.7392 29.1355 0.718343 29.2271 0.718343C29.4415 0.738373 29.6486 0.807137 29.8325 0.919387C29.9857 1.00742 30.1519 1.0707 30.3249 1.10688H30.413C30.7948 1.1385 31.1517 1.21079 31.303 1.53381L31.4137 1.75971L31.7096 1.7326C31.7819 1.7326 31.8316 1.71905 31.8723 1.71905C32.0452 1.70764 32.217 1.75457 32.3602 1.85232L32.5861 2.03981L32.8481 1.81392C32.8785 1.78939 32.9154 1.77445 32.9543 1.771C32.9739 1.77127 32.9928 1.77844 33.0077 1.79124C33.0225 1.80404 33.0324 1.82167 33.0356 1.84103C33.1508 2.31992 33.5055 2.35606 33.8466 2.3922C34.046 2.39388 34.2418 2.44594 34.4158 2.54355L34.4632 2.57744L34.5175 2.59325C34.5482 2.5993 34.5772 2.61166 34.6029 2.62955C34.6286 2.64744 34.6502 2.67046 34.6665 2.69716L34.8179 2.9976L35.1296 2.8711C35.1484 2.8641 35.1683 2.86028 35.1884 2.8598C35.2328 2.86348 35.275 2.88123 35.3087 2.91047C35.3424 2.93972 35.3659 2.97894 35.3759 3.02244C35.3834 3.04459 35.3895 3.06724 35.3939 3.09021L35.4594 3.47197L35.8344 3.38613C35.9026 3.37025 35.9723 3.36191 36.0422 3.36128C36.1216 3.36068 36.2001 3.37781 36.272 3.41142C36.3439 3.44503 36.4074 3.49427 36.4579 3.55555C36.5357 3.62436 36.5941 3.71237 36.6273 3.81081L36.6883 4.26259L37.1152 4.1135C37.1527 4.09883 37.1925 4.09117 37.2327 4.09092C37.4066 4.09092 37.5105 4.24452 37.6054 4.63532L37.6438 4.79344L37.7206 4.83636L37.8787 5.04418L38.1046 4.99223C38.1416 4.9834 38.1795 4.97885 38.2176 4.97867C38.2627 4.97655 38.3078 4.98353 38.3502 4.99921C38.3926 5.01488 38.4314 5.03893 38.4642 5.06992C38.4971 5.10091 38.5234 5.1382 38.5416 5.17957C38.5598 5.22095 38.5694 5.26555 38.57 5.31073L38.588 5.53663L38.8139 5.62472L38.8636 5.64054C38.9662 5.66215 39.0632 5.70457 39.1487 5.76519C39.2341 5.8258 39.3063 5.90331 39.3606 5.99293L39.4645 6.17816H39.6746C39.9185 6.17816 40.2867 6.26174 40.3251 6.67512C40.3251 6.72708 40.3251 6.78129 40.3251 6.83551C40.3275 6.9596 40.3434 7.08307 40.3726 7.20371L40.4449 7.44993L40.7453 7.46575C40.8214 7.46398 40.8972 7.45414 40.9712 7.43638C40.9854 7.43428 40.9999 7.43428 41.0141 7.43638C41.1022 7.43638 41.1564 7.49059 41.24 7.66227L41.3123 7.81136C41.3514 7.91339 41.4141 8.00472 41.4953 8.07791L41.5653 8.13213L41.6105 8.15246C41.8364 8.24282 41.9064 8.27896 41.9222 8.33317C41.9276 8.34527 41.9303 8.35835 41.9303 8.37158C41.9303 8.3848 41.9276 8.39788 41.9222 8.40998L41.8273 8.65394L42.0171 8.80981L43.1104 9.73596C43.142 9.76307 43.1646 9.83084 43.1488 9.85569L42.8777 10.2713L43.3453 10.4249C43.4469 10.4428 43.5438 10.4812 43.63 10.5379L43.648 10.5537H43.6684C43.8084 10.6418 43.7994 10.6983 43.7949 10.7254L43.7406 11.0732L44.0863 11.1433L44.1292 11.1546C44.2331 11.1907 44.2331 11.2607 44.2263 11.3285L44.2082 11.4866L44.3099 11.6086C44.3936 11.727 44.4464 11.8644 44.4635 12.0084C44.468 12.1066 44.4952 12.2024 44.5431 12.2882C44.5909 12.3741 44.658 12.4476 44.7391 12.5031C44.767 12.5199 44.7909 12.5426 44.8092 12.5695C44.8275 12.5964 44.8398 12.6269 44.8453 12.659C44.852 12.6887 44.852 12.7196 44.8453 12.7494L44.7639 13.1402L45.1615 13.1899C45.2654 13.1899 45.3264 13.217 45.349 13.2576C45.3716 13.2983 45.3738 13.3028 45.3332 13.3886L45.2835 13.4903L45.297 13.5784V13.6552C45.2989 13.7209 45.2951 13.7867 45.2857 13.8517L45.2383 14.1092L45.4642 14.238C45.5104 14.2665 45.5587 14.2914 45.6088 14.3125C45.7917 14.3961 45.9137 14.4616 45.9702 14.6039C45.9791 14.6234 45.9838 14.6446 45.9838 14.6661C45.9838 14.6875 45.9791 14.7087 45.9702 14.7282L45.7669 14.9993L46.0063 15.2455C46.2138 15.4617 46.3684 15.7231 46.4581 16.009C46.5191 16.1558 46.5711 16.2846 46.6366 16.4066C46.697 16.5055 46.731 16.6184 46.7354 16.7343C46.7397 16.8501 46.7143 16.9652 46.6614 17.0684L46.492 17.4299L46.8647 17.5699C46.8844 17.5771 46.9017 17.5895 46.9149 17.6059C46.928 17.6222 46.9364 17.6418 46.9393 17.6625C46.9773 17.8483 46.9865 18.0387 46.9664 18.2273L46.9257 18.5187L47.2013 18.6203C47.3052 18.6587 47.3391 18.7174 47.3481 18.8823C47.3481 18.9207 47.3481 18.9501 47.3481 18.9795C47.3713 19.0872 47.403 19.193 47.443 19.2957C47.4818 19.386 47.5047 19.4823 47.5108 19.5804L47.4769 19.6007L47.1516 19.8785L47.495 20.2241C47.5586 20.2774 47.6122 20.3417 47.6531 20.4139C47.7156 20.6193 47.7109 20.8393 47.6395 21.0419C47.5696 21.226 47.5696 21.4293 47.6395 21.6134C47.7586 21.8869 47.7809 22.1929 47.7028 22.4808C47.6486 22.7103 47.6486 22.9493 47.7028 23.1788C47.7293 23.2432 47.7348 23.3144 47.7186 23.3821L47.5289 23.791L47.7954 23.852V23.8813C47.7954 23.913 47.8135 23.9875 47.7954 24.0124L47.4746 24.3964L47.8722 24.5545V24.5726C47.8722 24.5726 47.8722 24.5861 47.8474 24.6403L47.7209 24.9295L47.888 25.0334C47.7704 25.2231 47.7181 25.446 47.7389 25.6682C47.7643 25.9107 47.6947 26.1536 47.5447 26.3458L47.3188 26.5717L47.5289 26.8315C47.6667 27.0009 47.5853 27.2833 47.5447 27.4279L47.5311 27.4753C47.5241 27.5083 47.5111 27.5397 47.4927 27.5679L47.4001 27.7057L47.443 27.8683C47.4521 27.9077 47.4521 27.9487 47.443 27.9881L47.4249 28.0671C47.4041 28.2056 47.3523 28.3376 47.2736 28.4534L47.0906 28.6793L47.2578 28.9052C47.2703 28.9218 47.2793 28.9408 47.2843 28.961C47.2894 28.9811 47.2903 29.0021 47.2872 29.0226C47.2802 29.2056 47.2144 29.3815 47.0997 29.5241L46.9641 29.6687L47.0093 29.863C47.0251 29.9285 47.0364 30.0121 47.0093 30.0369C46.8436 30.2086 46.7471 30.4355 46.7382 30.6739C46.7274 30.9332 46.6213 31.1794 46.4401 31.3652L46.3384 31.4555L46.3203 31.5888C46.3106 31.66 46.3045 31.7316 46.3023 31.8034C46.3078 32.0206 46.2589 32.2357 46.1599 32.4291C46.094 32.5344 46.0512 32.6525 46.0344 32.7755C46.0177 32.8986 46.0274 33.0239 46.0628 33.1429C46.0809 33.231 46.0335 33.2988 45.8505 33.4388C45.7266 33.5156 45.6271 33.6261 45.5636 33.7574L45.4529 33.9945L45.5139 34.1436C45.5659 34.2724 45.5455 34.3063 45.5342 34.3243C45.5229 34.3424 45.5139 34.3582 45.4506 34.374L45.1118 34.4621L45.1841 34.8055C45.1874 34.8249 45.1874 34.8448 45.1841 34.8642C45.1756 34.9025 45.1594 34.9387 45.1365 34.9705C45.1136 35.0024 45.0844 35.0292 45.0508 35.0495C44.9088 35.1019 44.7894 35.2019 44.7128 35.3324C44.6362 35.463 44.6072 35.616 44.6307 35.7655V35.8062V35.8446C44.6486 35.8944 44.6552 35.9476 44.6501 36.0004C44.645 36.0531 44.6284 36.104 44.6013 36.1496C44.5796 36.1766 44.5526 36.1988 44.5219 36.2147C44.4911 36.2307 44.4574 36.24 44.4228 36.2422L44.1698 36.2873L44.1247 36.5403C44.1247 36.59 44.0817 36.7504 44.0185 36.7662L43.7632 36.8069L43.7158 37.0622C43.685 37.1846 43.6288 37.2993 43.5509 37.3987C43.4289 37.5727 43.2979 37.7421 43.1691 37.9138C42.9032 38.2445 42.6616 38.594 42.4463 38.9597C42.2465 39.2922 42.0026 39.5962 41.7212 39.8632C41.3778 40.2201 41.0209 40.5861 40.8605 41.0876C40.82 41.1609 40.7529 41.2158 40.673 41.2412V41.2412H40.6595C40.6259 41.2222 40.5903 41.207 40.5533 41.196L40.2009 41.0627L40.0789 41.4196C40.0631 41.4648 40.0473 41.519 40.036 41.5619C40.0163 41.6999 39.952 41.8276 39.853 41.9256L39.7288 42.0069C39.6149 42.0595 39.513 42.1346 39.4291 42.2278C39.3452 42.321 39.2812 42.4303 39.2409 42.5491C39.2367 42.5652 39.2268 42.5793 39.2132 42.5888C39.1995 42.5983 39.1829 42.6027 39.1663 42.601C39.1424 42.5999 39.1189 42.5954 39.0963 42.5875L38.6445 42.4271L38.6016 42.897C38.5989 42.958 38.5819 43.0176 38.5519 43.0709C38.5318 43.0981 38.505 43.1197 38.4742 43.1336C38.4433 43.1474 38.4094 43.1531 38.3757 43.15C38.307 43.1488 38.2395 43.131 38.1792 43.098L37.7048 42.8269L37.6348 43.3691C37.5715 43.8457 37.183 44.0264 36.7515 44.1845L36.6838 44.2094C36.4007 44.3296 36.1396 44.496 35.9112 44.7018C35.7626 44.8296 35.604 44.9452 35.4368 45.0475L35.36 45.0949C35.2337 45.1935 35.0831 45.2559 34.9241 45.2756C34.8602 45.2738 34.797 45.2624 34.7366 45.2417L34.5626 45.1785L34.409 45.3005C34.3702 45.3307 34.3286 45.3571 34.2848 45.3795L34.2283 45.4111L34.1402 45.4631L34.0905 45.5557C34.0235 45.6661 33.9304 45.7584 33.8195 45.8245C33.7415 45.874 33.6708 45.9341 33.6094 46.003C33.5391 46.0768 33.4443 46.1226 33.3428 46.1317C33.3279 46.1343 33.3126 46.1343 33.2976 46.1317L32.7555 45.8765V46.4028L32.7307 46.4299C32.7066 46.4329 32.6824 46.4329 32.6584 46.4299C32.6336 46.4318 32.6086 46.4318 32.5838 46.4299L32.3896 46.3847L32.245 46.5248C32.0492 46.686 31.8029 46.7732 31.5492 46.771C31.5079 46.7736 31.4664 46.7736 31.425 46.771L31.1991 46.7439L31.0545 46.9201C31.0382 46.9405 31.0173 46.9568 30.9935 46.9675L30.9597 46.9901C30.9185 47.0232 30.8678 47.0422 30.8151 47.0443C30.786 47.0443 30.7574 47.0373 30.7315 47.024L30.4265 46.8727L30.2526 47.1641C30.2225 47.2021 30.1845 47.2331 30.1412 47.2549C30.0979 47.2768 30.0503 47.2889 30.0019 47.2906L29.9454 47.3019C29.8621 47.3196 29.7775 47.3302 29.6924 47.3335C29.5956 47.3363 29.501 47.3042 29.4258 47.2431L29.1412 46.9856L28.9153 47.3154C28.8647 47.3884 28.7972 47.4481 28.7185 47.4894C28.6399 47.5307 28.5524 47.5524 28.4635 47.5526C28.3639 47.5523 28.2659 47.5266 28.1789 47.4781L27.9869 47.3719L27.8017 47.4916C27.5994 47.6257 27.3863 47.7428 27.1647 47.8417C27.1277 47.8586 27.0878 47.8678 27.0472 47.8688C27.0245 47.8698 27.0018 47.8659 26.9808 47.8573C26.9597 47.8487 26.9408 47.8357 26.9252 47.8192C26.9164 47.8096 26.9088 47.7989 26.9026 47.7875L26.5886 47.2499L26.2701 47.7853C26.2505 47.8249 26.2203 47.8584 26.1828 47.8819C26.1453 47.9054 26.102 47.9181 26.0578 47.9185C25.9224 47.9002 25.7941 47.8473 25.6851 47.7649L25.6173 47.7243C25.5982 47.7148 25.58 47.7034 25.5631 47.6904L25.1904 47.4374L25.0006 47.8304C24.9859 47.8524 24.9655 47.8701 24.9417 47.8816C24.9179 47.8931 24.8915 47.898 24.8651 47.896H24.8312H24.7996C24.7589 47.9043 24.7189 47.9157 24.6798 47.9298C24.5898 47.9673 24.4946 47.9909 24.3975 47.9999V47.9999ZM21.6868 45.4044C21.8047 45.3953 21.9231 45.4143 22.0323 45.4598C22.1415 45.5054 22.2383 45.5762 22.3148 45.6664L22.5519 45.9691L22.8433 45.7184C22.9237 45.6481 23.0281 45.6117 23.1347 45.6167C23.2259 45.6203 23.3166 45.6317 23.4058 45.6506C23.4942 45.6702 23.5842 45.6815 23.6746 45.6845C23.7297 45.6864 23.7846 45.6774 23.8361 45.658C23.8877 45.6386 23.9349 45.6092 23.9751 45.5715L23.9954 45.5986L24.0202 45.6235C24.1245 45.7096 24.2582 45.7518 24.393 45.7409H24.524L24.7499 45.7771L24.9103 45.6077C24.9238 45.5896 24.9577 45.5467 25.0774 45.5376H25.1068L25.1655 45.5241L25.2491 45.506C25.3942 45.4839 25.5406 45.4711 25.6873 45.4676C25.7968 45.4623 25.906 45.4832 26.0058 45.5286L26.2769 45.6777L26.4689 45.4382C26.6831 45.3455 26.9133 45.2956 27.1466 45.2914C27.172 45.2937 27.1967 45.3014 27.2189 45.314L27.4764 45.4767L27.682 45.2508C27.7098 45.2234 27.7431 45.2024 27.7797 45.1892C27.8164 45.1759 27.8555 45.1707 27.8943 45.174C27.9506 45.1749 28.0066 45.1818 28.0615 45.1943C28.1519 45.2148 28.2444 45.2247 28.337 45.2236C28.5015 45.2195 28.6653 45.2029 28.8272 45.174C28.995 45.1434 29.165 45.126 29.3355 45.122H29.4349H29.5569L29.6585 45.0542C29.7037 45.0249 29.7737 44.9706 29.8279 44.9277C29.9766 44.7954 30.1491 44.6927 30.3362 44.625C30.3739 44.6146 30.4108 44.6018 30.4469 44.5866C30.5115 44.5525 30.582 44.531 30.6547 44.5234C30.6769 44.5232 30.6988 44.5284 30.7185 44.5387C30.7382 44.5489 30.7551 44.5638 30.7676 44.5821L30.9213 44.7899L31.1675 44.7177C31.3555 44.6405 31.5138 44.5051 31.6193 44.3314C31.8022 44.1055 31.9491 43.9383 32.1659 43.9383C32.253 43.9406 32.3382 43.9639 32.4144 44.0061L32.6832 44.1416L32.8707 43.9157C33.1696 43.5172 33.6045 43.2423 34.0928 43.1432C34.1869 43.1238 34.2775 43.0903 34.3616 43.0438L34.662 42.8631L34.4971 42.5536C34.476 42.5156 34.4518 42.4793 34.4248 42.4452C34.3965 42.4126 34.375 42.3745 34.3618 42.3333C34.3486 42.2922 34.3439 42.2488 34.348 42.2057C34.3525 42.1818 34.3623 42.1592 34.3768 42.1396C34.3913 42.12 34.41 42.104 34.4316 42.0928L34.4791 42.0634L34.531 42.0069L34.5604 41.964C34.5871 41.9272 34.6158 41.8917 34.6462 41.8579L34.8721 41.632L34.6665 41.3835C34.4565 41.1305 34.4158 40.7939 34.5423 40.3557C34.5898 40.1735 34.5898 39.9822 34.5423 39.8C34.5303 39.7437 34.5137 39.6886 34.4926 39.6351C34.4271 39.4521 34.3864 39.3188 34.4452 39.2352C34.4734 39.1967 34.5156 39.1708 34.5626 39.163L34.8924 39.0749L34.8292 38.7405C34.8063 38.5987 34.7957 38.4551 34.7976 38.3113C34.8042 38.1088 34.7775 37.9066 34.7185 37.7127C34.6805 37.624 34.6352 37.5386 34.583 37.4575C34.4248 37.1954 34.3571 37.0192 34.4813 36.8363L34.6056 36.6443L34.4903 36.4477C34.3887 36.2783 34.1741 36.3167 34.2035 36.1608C34.2227 36.0682 34.2637 35.9814 34.3232 35.9079L34.5491 35.5984L34.2261 35.3725C34.1385 35.3098 34.0548 35.2419 33.9753 35.1692C33.9188 35.1172 33.8646 35.072 33.8127 35.0314C33.4476 34.759 33.132 34.4258 32.8797 34.0465C32.8456 33.9805 32.822 33.9096 32.8097 33.8364L32.7871 33.7506L32.7103 33.4614L32.3692 33.4818C32.2885 33.4774 32.2096 33.4565 32.1373 33.4204C32.065 33.3842 32.001 33.3336 31.9491 33.2717C31.9152 33.2401 31.879 33.2062 31.8384 33.1746C31.7616 33.0798 31.7186 32.9622 31.7164 32.8402L31.6373 32.3229L31.1855 32.5601L31.1539 32.5782C31.1321 32.561 31.1124 32.5412 31.0952 32.5195C31.0726 32.491 31.0477 32.4646 31.0206 32.4404L30.9913 32.4133L30.9529 32.3907C30.8474 32.302 30.7691 32.1853 30.727 32.0541C30.6411 31.8644 30.5508 31.6701 30.2752 31.6294C30.1758 31.6159 30.0493 31.5775 30.0199 31.4804L29.9861 31.2161L29.7172 31.137C29.6149 31.1 29.5254 31.0341 29.4597 30.9473C29.4112 30.8894 29.3549 30.8385 29.2926 30.7959L29.2429 30.7643L29.1864 30.7507C29.1299 30.7349 29.0915 30.6943 29.0599 30.5248L29.0305 30.3599L28.8792 30.2425C28.6533 30.1069 28.4116 29.9533 28.2015 29.8155L28.1247 29.7658C28.0705 29.7297 28.0072 29.6935 27.944 29.6574C27.5442 29.4315 27.1895 29.1785 27.2121 28.7403L27.2279 28.4511L26.9478 28.3676C26.8061 28.3143 26.678 28.2302 26.5728 28.1213C26.4731 28.0236 26.3548 27.9468 26.225 27.8954C26.0969 27.8738 25.9825 27.8027 25.9065 27.6975C25.8304 27.5923 25.7987 27.4613 25.8183 27.333C25.8183 26.7954 25.3417 26.443 24.8922 26.2939C24.786 26.2577 24.6957 26.2306 24.6189 26.208C24.2507 26.0996 24.2348 26.0273 24.2213 25.9641L24.1513 25.641L23.8215 25.6794H23.7831C23.748 25.6791 23.7131 25.6746 23.6791 25.6659C23.5391 25.6343 23.5278 25.5642 23.5188 25.5168L23.4736 25.2322L23.1844 25.2096C23.1651 25.2088 23.1461 25.205 23.128 25.1983C22.9969 25.1531 23.0015 25.0853 23.0037 25.0424L23.0173 24.7149L22.6943 24.6629C22.6403 24.6535 22.5878 24.6368 22.5384 24.6132C22.5133 24.599 22.4925 24.5783 22.4782 24.5533C22.4639 24.5282 22.4566 24.4998 22.4571 24.4709C22.4558 24.4552 22.4587 24.4394 22.4654 24.4251C22.4722 24.4109 22.4825 24.3986 22.4955 24.3896C22.5772 24.3367 22.6446 24.2645 22.6919 24.1795C22.7391 24.0944 22.7648 23.999 22.7665 23.9017C22.7743 23.8235 22.795 23.7472 22.8275 23.6758L22.954 23.4612L22.8004 23.2647C22.7926 23.2544 22.7865 23.243 22.7824 23.2308C22.7325 23.0981 22.7028 22.9588 22.6943 22.8174C22.6849 22.6266 22.6365 22.4398 22.5519 22.2685C22.538 22.2449 22.5307 22.2179 22.5307 22.1905C22.5307 22.1631 22.538 22.1362 22.5519 22.1126C22.567 22.0862 22.5888 22.0644 22.6152 22.0494L22.8908 21.8935L22.7349 21.4869C22.6848 21.3605 22.6619 21.2249 22.6678 21.0891C22.6736 20.9532 22.708 20.8202 22.7688 20.6985L22.8795 20.493L22.7372 20.3122C22.7078 20.2693 22.6943 20.2129 22.7372 20.0638C22.8006 19.9075 22.8761 19.7565 22.9631 19.612L23.1167 19.3567L22.8908 19.1534L22.8659 19.1263C22.7959 19.0405 22.7982 18.9682 22.8659 18.8078L22.8953 18.7446C22.9553 18.5564 22.9505 18.3536 22.8817 18.1685C22.8162 17.9759 22.8162 17.767 22.8817 17.5744L22.9653 17.3915L22.8569 17.222C22.7797 17.0565 22.7545 16.8714 22.7846 16.6912C22.8027 16.4201 22.823 16.1423 22.5135 15.9819L22.3215 15.8848L22.125 15.9909C22.0532 16.0383 21.9693 16.0641 21.8833 16.0655C21.7631 16.0468 21.6482 16.0032 21.5459 15.9374C21.4436 15.8717 21.3561 15.7853 21.2892 15.6837C21.1961 15.5646 21.0901 15.4563 20.973 15.3607C20.8023 15.2431 20.6602 15.0887 20.5573 14.9089L20.4308 14.622L20.1281 14.7011C20.1094 14.7042 20.0903 14.7042 20.0716 14.7011C20.0242 14.7011 19.8796 14.7011 19.8322 14.3125V14.2832L19.7667 14.0573L19.5882 13.9963C19.3239 13.9037 19.2381 13.68 19.1523 13.3954C19.12 13.2614 19.0666 13.1333 18.9941 13.0159C18.8646 12.8464 18.7849 12.6441 18.7642 12.4318C18.7434 12.2195 18.7824 12.0055 18.8767 11.8142L19.0212 11.5612L18.7954 11.3624C18.7802 11.3497 18.7685 11.3334 18.7615 11.315C18.7321 11.2517 18.7615 11.1817 18.8315 11.0552C18.8639 11.0011 18.8919 10.9444 18.9151 10.8858C18.9313 10.8354 18.9557 10.7881 18.9874 10.7457L19.1477 10.5311L18.9919 10.3052C18.9584 10.252 18.9182 10.2034 18.8722 10.1606C18.8497 10.1427 18.8352 10.1168 18.8315 10.0884C18.8315 10.0364 18.8767 9.98219 18.9377 9.91668L19.0145 9.82858L19.0371 9.77663C19.0777 9.69453 19.1346 9.62153 19.2042 9.56203C19.2524 9.51273 19.2976 9.46069 19.3398 9.40616L19.5024 9.1622L19.3352 8.986V8.97019C19.2923 8.89565 19.3014 8.85047 19.3149 8.82562C19.3366 8.80092 19.364 8.78185 19.3947 8.77004C19.4253 8.75824 19.4584 8.75406 19.4911 8.75785H19.8593V8.38739C19.8593 8.3264 19.8593 8.27218 19.8593 8.23604C19.8672 8.16095 19.8672 8.08524 19.8593 8.01015C19.8514 7.96713 19.8527 7.92291 19.8632 7.88045C19.8737 7.83798 19.8932 7.79826 19.9203 7.76392C19.9574 7.72601 20.0022 7.69651 20.0517 7.67741C20.1012 7.65831 20.1542 7.65007 20.2072 7.65324H20.2478L20.4466 7.66679L20.5663 7.50867C20.6035 7.45527 20.6553 7.41371 20.7154 7.38894L20.9413 7.29407V7.04785C20.9343 7.00472 20.9424 6.96049 20.9642 6.92262C20.986 6.88476 21.0202 6.85558 21.0611 6.84003L21.1898 6.77903C21.7026 6.53281 22.1837 6.30014 22.7711 6.30014H22.8095H22.8456C22.888 6.29052 22.931 6.28372 22.9744 6.27981C23.0017 6.27944 23.0284 6.28731 23.0512 6.3024L23.2387 6.44471L23.4465 6.33177C23.6685 6.21768 23.9131 6.15441 24.1626 6.14654C24.2264 6.14384 24.2901 6.15382 24.35 6.1759C24.449 6.21706 24.5455 6.26382 24.6392 6.31595C24.8242 6.43667 25.0359 6.51034 25.2559 6.53055C25.3328 6.53094 25.4093 6.51794 25.4818 6.49215C25.5631 6.46335 25.6485 6.44809 25.7348 6.44697C25.8012 6.44329 25.8677 6.45434 25.9294 6.47933C25.9911 6.50432 26.0465 6.54264 26.0917 6.59154C26.1441 6.65568 26.1749 6.73474 26.1798 6.81744L26.2024 7.12239L26.5073 7.15627C26.9142 7.25555 27.2914 7.45073 27.6074 7.72552C27.6856 7.85031 27.7357 7.99059 27.7542 8.13665L27.8378 8.50937H28.1179C28.4206 8.52292 28.5223 8.69234 28.6284 8.93179C28.6571 8.99759 28.6896 9.06169 28.7256 9.1238C28.8137 9.26611 28.8498 9.39035 28.8205 9.4536L28.7165 9.67949L28.8995 9.85795C28.9239 9.8826 28.9423 9.91253 28.9533 9.94544C28.9643 9.97835 28.9675 10.0133 28.9628 10.0477C28.9572 10.1331 28.9405 10.2174 28.9131 10.2984L28.8272 10.5243L29.0012 10.6915C29.0166 10.7072 29.0303 10.7247 29.0418 10.7434C29.0523 10.7575 29.0595 10.7738 29.0626 10.791C29.0657 10.8083 29.0648 10.826 29.0599 10.8428C28.992 11.0317 28.9849 11.2371 29.0396 11.4302C29.0915 11.7396 29.1119 11.9926 28.886 12.1959L28.7549 12.3157V12.5054V12.5461C28.7688 12.8129 28.7052 13.078 28.572 13.3096C28.4524 13.5264 28.3873 13.7691 28.3822 14.0166C28.3822 14.0415 28.3596 14.0731 28.3393 14.0957C28.2752 14.1638 28.1915 14.2104 28.0999 14.229H27.9824C27.4312 14.229 27.2482 14.8276 27.1714 15.0828L27.1511 15.1461C27.0472 15.4691 26.941 15.5075 26.871 15.5075L26.6451 15.4759L26.5005 15.6724C26.4733 15.7119 26.4378 15.745 26.3966 15.7695C26.2541 15.8836 26.083 15.9562 25.9019 15.9796C25.8215 15.9783 25.7431 15.954 25.676 15.9096L24.8877 15.4013L25.1136 16.3049C25.1334 16.387 25.1263 16.4734 25.0932 16.5511L25.0164 16.759L25.1655 16.9239C25.1967 16.9554 25.2179 16.9955 25.2265 17.0391C25.2295 17.0867 25.2229 17.1345 25.2069 17.1795C25.191 17.2246 25.1662 17.2659 25.1339 17.3011C24.908 17.5902 24.9419 17.9246 24.9622 18.2476C24.9965 18.4892 24.9804 18.7354 24.9148 18.9704L24.8447 19.1602L24.969 19.3206C24.9987 19.357 25.0182 19.4006 25.0255 19.4471C25.039 19.5532 24.9803 19.6481 24.8628 19.7859L24.585 20.1157L24.9554 20.3416C25.0053 20.3642 25.0494 20.398 25.0842 20.4403C25.1191 20.4826 25.1438 20.5323 25.1565 20.5856C25.1627 20.632 25.1593 20.6793 25.1465 20.7244C25.1337 20.7694 25.1117 20.8114 25.0819 20.8476L24.9464 21.0487L25.0819 21.2542C25.2017 21.4349 24.978 21.8528 24.9148 22.09C24.8819 22.1959 24.86 22.3049 24.8493 22.4153C24.8481 22.4433 24.842 22.4708 24.8312 22.4966L24.7702 22.648L24.8425 22.7948C24.8515 22.8094 24.8562 22.8262 24.8562 22.8434C24.8562 22.8605 24.8515 22.8773 24.8425 22.8919C24.7647 22.987 24.7181 23.1037 24.7092 23.2263V23.4973L24.9351 23.5696L25.1249 23.678L25.17 23.7051C25.3101 23.7865 25.3349 23.9152 25.3507 24.0846L25.3891 24.4325L25.6896 24.4574C25.726 24.4622 25.7606 24.4759 25.7905 24.4971C25.8204 24.5184 25.8447 24.5466 25.8613 24.5793C25.8875 24.6251 25.9037 24.6759 25.9087 24.7284L25.9403 25.0899L26.3153 25.0628C26.3763 25.0628 26.4712 25.0628 26.5276 25.2344L26.5796 25.3767L26.7151 25.4423C26.746 25.4576 26.7777 25.4711 26.81 25.4829C26.9026 25.5213 27.072 25.5891 27.1082 25.7088L27.1624 25.8963L27.3476 25.9573C27.3918 25.9691 27.4307 25.9954 27.4583 26.0318C27.4738 26.0543 27.4846 26.0796 27.4899 26.1064L27.5668 26.4407L27.9078 26.3865H27.9688C28.0696 26.396 28.1648 26.4372 28.2407 26.5042C28.3165 26.5711 28.3693 26.6604 28.3913 26.7592C28.425 26.8933 28.4989 27.0138 28.603 27.1046C28.7072 27.1955 28.8367 27.2523 28.9741 27.2675C29.0689 27.2923 29.2926 27.351 29.3423 27.4934C29.3537 27.5317 29.3537 27.5725 29.3423 27.6108L29.27 27.9384L29.5885 28.04C29.6306 28.0566 29.6708 28.0778 29.7082 28.1033C29.7344 28.1213 29.7615 28.1379 29.7895 28.153H29.8099H29.8302C30.1352 28.2852 30.395 28.5034 30.5779 28.7809C30.7031 28.949 30.8488 29.1008 31.0116 29.2327C31.0884 29.2915 31.1675 29.3457 31.2375 29.4022C31.556 29.628 31.879 29.8539 32.0326 30.2267L32.1004 30.3893L32.2653 30.439C32.4081 30.4789 32.5334 30.5656 32.6211 30.6852C32.7087 30.8048 32.7537 30.9504 32.7487 31.0986L32.7916 31.5504L33.2208 31.4171C33.2648 31.404 33.3105 31.3972 33.3564 31.3968C33.5393 31.3968 33.6704 31.5165 33.8375 31.6837C33.916 31.7713 34.0065 31.8474 34.1063 31.9096C34.1322 31.9267 34.1538 31.9494 34.1699 31.976C34.1859 32.0025 34.1958 32.0323 34.199 32.0632L34.2238 32.3162L34.47 32.3817C34.5505 32.4009 34.6235 32.4433 34.6801 32.5037C34.7594 32.606 34.7987 32.7336 34.7908 32.8628V33.2875L35.2155 33.2242C35.2614 33.2251 35.3064 33.2378 35.3459 33.2612C35.3855 33.2845 35.4184 33.3177 35.4414 33.3575C35.5363 33.4788 35.6536 33.5808 35.787 33.658C35.8684 33.7039 35.9443 33.7593 36.0129 33.8229C36.0823 33.8948 36.1579 33.9606 36.2388 34.0194C36.5121 34.2227 36.7018 34.3944 36.6747 34.7242V34.7761C36.6784 34.8698 36.6505 34.9621 36.5957 35.0382L36.4827 35.1489V35.307C36.4923 35.4775 36.5321 35.645 36.6002 35.8017C36.6664 35.9481 36.7025 36.1064 36.7064 36.267C36.7064 36.4929 36.8419 36.4929 36.808 36.7053C36.7205 37.1068 36.7067 37.5209 36.7673 37.9273C36.8554 38.3791 36.8622 38.9868 36.3991 39.4047L36.0264 39.739L36.4601 39.9942C36.5979 40.0756 36.6205 40.1885 36.6386 40.3512V40.4302C36.6532 40.5234 36.6743 40.6155 36.7018 40.7058L36.86 41.2412L37.2892 40.882L37.4541 40.751C37.5109 40.7046 37.561 40.6506 37.6031 40.5906C37.7184 40.4415 37.8087 40.3399 37.9578 40.3399H38.2356L38.3102 40.0733C38.3305 39.9988 38.387 39.7977 38.832 39.7299L39.0263 39.7006L39.1189 39.5199C39.2627 39.2512 39.4523 39.0096 39.6791 38.806C39.8645 38.633 40.029 38.439 40.1693 38.2278C40.2564 38.0896 40.372 37.9716 40.5084 37.8817C40.6447 37.7917 40.7986 37.7318 40.9599 37.706L41.4411 37.5862L41.1858 37.1616C41.1781 37.1405 41.1759 37.1178 41.1794 37.0956C41.183 37.0735 41.1922 37.0526 41.2061 37.0351C41.2694 36.9265 41.3187 36.8103 41.353 36.6894C41.3767 36.5694 41.4251 36.4557 41.4951 36.3553C41.5651 36.255 41.6551 36.1703 41.7596 36.1066C41.9745 35.9977 42.1505 35.8249 42.2633 35.6119L42.3085 35.4899L42.2791 35.4086V35.3928C42.2791 35.1782 42.2791 35.1353 42.6157 34.8597L42.8416 34.6767L42.7174 34.4147C42.7085 34.3956 42.7039 34.3748 42.7039 34.3537C42.7039 34.3326 42.7085 34.3118 42.7174 34.2927C42.7242 34.268 42.7381 34.2459 42.7574 34.229C42.7766 34.2122 42.8004 34.2013 42.8258 34.1978L43.1353 34.1391V33.8251C43.1761 33.7627 43.223 33.7044 43.2753 33.6512C43.5351 33.3756 43.8039 33.0887 43.5509 32.6256C43.9349 32.463 43.9823 32.1242 44.0298 31.7966C44.0405 31.6866 44.0609 31.5778 44.0908 31.4713C44.1369 31.3313 44.2007 31.1977 44.2805 31.0738C44.4527 30.8402 44.533 30.5517 44.5064 30.2628C44.4948 30.1128 44.5165 29.9621 44.57 29.8215C44.6235 29.6809 44.7075 29.5539 44.8159 29.4496L45.0147 29.2711L44.9062 29.0294C44.8914 28.9673 44.8876 28.9031 44.895 28.8397V28.7222C44.9072 28.5785 44.957 28.4406 45.0395 28.3224C45.1029 28.2311 45.1453 28.127 45.1638 28.0174V27.9135L45.1186 27.8209C45.0963 27.7882 45.0809 27.7513 45.0731 27.7125C45.0654 27.6737 45.0655 27.6338 45.0734 27.595C45.0873 27.5815 45.1041 27.5713 45.1224 27.565C45.1408 27.5588 45.1603 27.5567 45.1796 27.5589C45.2419 27.5404 45.3066 27.5313 45.3716 27.5318C45.4092 27.5294 45.4469 27.5294 45.4845 27.5318L46.1441 27.6266L45.8731 27.019C45.8256 26.9151 45.855 26.8835 45.8731 26.8563L46.2661 26.4249L45.7059 26.2577C45.6597 26.245 45.6144 26.2292 45.5704 26.2103C45.4574 26.1606 45.3196 26.0635 45.3016 25.955C45.2967 25.9234 45.3007 25.8911 45.3131 25.8616C45.3254 25.8321 45.3457 25.8066 45.3716 25.7879C45.4247 25.7368 45.4667 25.6754 45.4951 25.6074C45.5235 25.5393 45.5376 25.4662 45.5365 25.3926C45.5421 25.334 45.5519 25.2758 45.5659 25.2186V25.1847V25.1486C45.5659 25.1305 45.5659 25.0379 45.5659 24.9769C45.5342 24.6607 45.6381 24.5997 45.672 24.5816L46.1441 24.3038L45.7082 23.9717C45.6318 23.9138 45.5641 23.8454 45.5071 23.7684C45.4299 23.6658 45.378 23.5465 45.3557 23.4201C45.3333 23.2937 45.3411 23.1638 45.3784 23.041C45.5252 22.5712 45.6924 22.0403 45.358 21.4801C45.2553 21.3463 45.2083 21.1779 45.227 21.0103C45.2407 20.9575 45.2679 20.9092 45.3061 20.8702L45.5726 20.5833L45.2767 20.3303C45.2232 20.2951 45.1775 20.2493 45.1425 20.1957C45.1076 20.142 45.084 20.0817 45.0734 20.0186C45.0576 19.865 45.148 19.7001 45.3558 19.4968C45.4042 19.4473 45.4406 19.3873 45.4621 19.3215C45.4836 19.2557 45.4898 19.1858 45.48 19.1173L45.4506 18.932L45.2812 18.8462C45.0992 18.7611 44.9416 18.6313 44.8232 18.469C44.7047 18.3067 44.6292 18.1171 44.6036 17.9178C44.5951 17.8643 44.583 17.8115 44.5674 17.7597C44.5225 17.6275 44.5049 17.4877 44.5155 17.3485L44.5493 17.1226L44.3641 16.9916C44.3332 16.9695 44.3083 16.94 44.2918 16.9058L44.2625 16.8177L44.1947 16.7544L44.1247 16.6844C43.8988 16.4585 43.9327 16.3636 44.0207 16.2552L44.0998 16.1536V16.0384C44.0988 15.9793 44.0844 15.9211 44.0579 15.8683C44.0313 15.8155 43.9931 15.7694 43.9462 15.7334C43.7203 15.5075 43.7203 15.3855 43.7203 15.3449C43.7223 15.3224 43.7276 15.3003 43.7361 15.2794L43.8513 15.006L43.6051 14.8366C43.5832 14.8213 43.5627 14.8039 43.5441 14.7847C43.413 14.633 43.3111 14.4584 43.2437 14.2696C43.1673 14.0379 43.0309 13.8306 42.8484 13.6687C42.7865 13.6055 42.7384 13.5301 42.7073 13.4472C42.6762 13.3644 42.6627 13.276 42.6677 13.1876C42.6705 13.0466 42.6345 12.9075 42.5637 12.7855L42.4689 12.6274H42.3356H42.3107C42.121 12.5867 42.0555 12.4534 41.9787 12.2569C41.9496 12.1665 41.9053 12.0817 41.8477 12.0062L41.7505 11.8955L41.6195 11.8842L41.6557 11.8006L41.5495 11.6335C41.5042 11.5757 41.4774 11.5056 41.4727 11.4324L41.4908 11.1613L41.231 11.0687C41.1022 11.0213 41.0051 10.8586 40.9464 10.7389C40.9087 10.6649 40.864 10.5945 40.8131 10.5288C40.7927 10.504 40.7747 10.4769 40.7566 10.4498C40.7314 10.4083 40.7019 10.3697 40.6685 10.3346C40.5601 10.2329 40.4539 10.1448 40.3477 10.0567C40.015 9.81996 39.7401 9.51108 39.5436 9.15316C39.53 9.12007 39.5133 9.08831 39.4939 9.05829L39.4306 8.95664L39.3199 8.91146C39.1143 8.80806 38.9461 8.643 38.8388 8.43934C38.738 8.25649 38.5937 8.10131 38.4186 7.98756L37.7658 7.62387L37.8494 8.34447C37.869 8.54411 37.8614 8.74549 37.8268 8.94308C37.807 9.071 37.795 9.19999 37.7906 9.32936C37.7906 9.49426 37.7906 9.66142 37.7771 9.82858C37.7448 10.2421 37.7569 10.6578 37.8132 11.0687C37.819 11.1071 37.8281 11.1449 37.8403 11.1817C37.8764 11.2767 37.888 11.3792 37.8742 11.4799L37.8268 11.647L37.9262 11.7871C37.9541 11.8228 37.9706 11.8661 37.9736 11.9113C37.9732 11.9454 37.965 11.979 37.9498 12.0095C37.9345 12.04 37.9126 12.0667 37.8855 12.0875L37.6822 12.2931L37.8358 12.537C38.0369 12.8623 37.9804 13.2147 37.9262 13.5784C37.9058 13.7094 37.8878 13.8246 37.881 13.9376C37.8744 13.9782 37.8622 14.0177 37.8449 14.055C37.8299 14.0868 37.8185 14.1201 37.811 14.1544L37.7884 14.247L37.8132 14.3374C37.8365 14.4583 37.8263 14.5832 37.7839 14.6988C37.7413 14.8166 37.7289 14.9432 37.7477 15.067L37.8155 15.3494H37.951C37.9364 15.391 37.915 15.4299 37.8878 15.4646L37.7748 15.6159L37.8313 15.7967C37.9013 16.0338 38.012 16.4066 37.8674 16.6618L37.7274 16.9103L37.9307 17.1068C37.9553 17.133 37.9745 17.1637 37.9872 17.1972C38 17.2233 38.0027 17.2532 37.9948 17.2811C37.9869 17.3091 37.9689 17.3331 37.9442 17.3485L37.6867 17.5518L37.8607 17.8297C37.9458 17.9804 37.9887 18.1513 37.9849 18.3244C37.9883 18.4429 37.9723 18.5612 37.9375 18.6745L37.7861 19.1805L38.3125 19.1466C38.3568 19.1487 38.4002 19.1607 38.4393 19.1819C38.4784 19.203 38.5123 19.2326 38.5383 19.2686L38.6513 19.4539H38.8772C38.9743 19.4539 39.0556 19.5758 39.1031 19.6797L39.2115 19.8921L39.4577 19.8785C39.6362 19.8785 39.7853 19.9215 39.896 20.2129L39.9728 20.4139L40.1874 20.4455C40.2401 20.4468 40.292 20.4594 40.3396 20.4824C40.3871 20.5053 40.4292 20.5382 40.4629 20.5788C40.4945 20.6217 40.5133 20.6726 40.5172 20.7256L40.5443 21.0057L40.8244 21.0509C40.8669 21.0593 40.9061 21.0796 40.9373 21.1096C40.9661 21.1393 40.9823 21.179 40.9825 21.2203C40.994 21.4264 41.0628 21.6251 41.1813 21.7941C41.2574 21.9011 41.3083 22.0238 41.3304 22.1533C41.3509 22.3489 41.4445 22.5296 41.5924 22.6593C41.7202 22.7705 41.8082 22.9204 41.8431 23.0862C41.9787 23.9469 41.8206 24.7375 41.6308 25.5417C41.523 25.9873 41.3339 26.4093 41.0729 26.7863C40.9913 26.8891 40.8918 26.9764 40.7792 27.0438C40.5533 27.1952 40.3274 27.3533 40.4313 27.7554C40.4355 27.7808 40.4337 27.8069 40.4263 27.8315C40.4189 27.8562 40.4059 27.8788 40.3884 27.8977C40.3671 27.9275 40.3398 27.9525 40.3083 27.9711C40.2768 27.9898 40.2418 28.0017 40.2054 28.0061L40.1173 27.979L39.8372 27.9045L39.6994 28.1552C39.6723 28.2027 39.643 28.2727 39.6181 28.3246L39.591 28.3879C39.5624 28.4497 39.5182 28.5031 39.4627 28.5427C39.4073 28.5823 39.3425 28.6068 39.2748 28.6138C39.1212 28.6569 38.9704 28.7089 38.823 28.7697C38.6069 28.8667 38.3791 28.9351 38.1453 28.973C38.0175 28.9957 37.892 29.0297 37.7703 29.0746C37.635 29.1302 37.4916 29.1638 37.3456 29.174C37.2438 29.1771 37.1446 29.1416 37.0678 29.0746L36.8148 28.8487L36.5731 29.0746C36.5428 29.1033 36.5076 29.1262 36.4692 29.1424C36.422 29.1655 36.3703 29.1779 36.3178 29.1785C36.2773 29.1788 36.2373 29.169 36.2014 29.1501C36.1656 29.1312 36.1349 29.1037 36.1123 29.0701L35.9474 28.8442L35.6853 28.9436C35.533 29.0047 35.3706 29.0369 35.2064 29.0385C34.9584 29.0381 34.718 28.952 34.5262 28.7948C34.3343 28.6375 34.2028 28.4187 34.1538 28.1756C34.1479 28.154 34.1434 28.1321 34.1402 28.11C34.1353 28.0803 34.1285 28.0509 34.1199 28.022L34.0928 27.9406L34.034 27.8819C33.8735 27.7451 33.6832 27.6476 33.4784 27.5973C33.2116 27.544 32.9755 27.3904 32.8187 27.1681L32.7148 26.9761H32.4889C32.4194 26.978 32.3505 26.9625 32.2886 26.9309C32.2266 26.8994 32.1736 26.8527 32.1343 26.7954C32.0408 26.6644 31.999 26.5035 32.0168 26.3436C32.132 25.9912 31.9875 25.7043 31.8497 25.44C31.7039 25.2102 31.6314 24.9416 31.6419 24.6697C31.6471 24.5448 31.6263 24.4202 31.5809 24.3038C31.5312 24.1434 31.5018 24.0237 31.5537 23.9536L31.6825 23.7797L31.6034 23.5741C31.5746 23.4783 31.5681 23.3772 31.5846 23.2785C31.601 23.1797 31.6399 23.0861 31.6983 23.0049C31.8 22.7993 31.9061 22.587 31.7525 22.3543L31.8677 22.3272L31.9694 22.2143C32.0451 22.1183 32.0864 21.9998 32.0869 21.8777C32.0924 21.8305 32.1007 21.7838 32.1117 21.7376C32.1275 21.6653 32.1682 21.5388 32.245 21.5117L32.4709 21.4101L32.4596 21.1639C32.4596 21.1408 32.4635 21.1179 32.4709 21.0961C32.5048 21.0125 32.6132 20.9831 32.6968 20.9741C32.752 20.9674 32.806 20.953 32.8571 20.9312L33.1011 20.825L33.083 20.6217L33.0989 20.5585C33.1084 20.5275 33.1152 20.4958 33.1192 20.4636C33.1486 20.3009 33.1802 20.2196 33.2863 20.1767C33.9556 19.8867 34.5936 19.5294 35.1906 19.1105C35.2418 19.0728 35.3033 19.0515 35.3668 19.0495H35.6921L35.7305 18.7265C35.7469 18.6225 35.7734 18.5204 35.8096 18.4215C35.8753 18.2806 35.9018 18.1245 35.8864 17.9697L35.8299 17.6196H35.6379L35.6108 17.6061C35.6096 17.5925 35.6096 17.5789 35.6108 17.5654C35.6633 17.2574 35.6557 16.9421 35.5882 16.637C35.5679 16.506 35.5475 16.3772 35.5362 16.2484C35.5205 16.1631 35.5218 16.0754 35.54 15.9905C35.5582 15.9056 35.593 15.8251 35.6424 15.7537C35.7471 15.5547 35.7783 15.3252 35.7305 15.1054L35.7169 15.0467L35.6853 14.9947C35.5023 14.6898 35.4075 14.4797 35.4594 14.3171C35.4986 14.226 35.5703 14.1527 35.6605 14.1115L36.0332 13.8992L35.7644 13.5648C35.6779 13.4597 35.6023 13.3462 35.5385 13.226C35.4067 13.0055 35.3586 12.7449 35.403 12.4919C35.4195 12.443 35.4465 12.3983 35.482 12.3608L35.7079 12.1349L35.5317 11.8819C35.421 11.7193 35.3826 11.5883 35.4233 11.4934C35.4398 11.4573 35.4655 11.4261 35.4978 11.4031L35.7079 11.254L35.6379 11.0032C35.6254 10.9438 35.6325 10.882 35.6582 10.827C35.6662 10.8073 35.676 10.7884 35.6876 10.7706L35.8096 10.6011L35.726 10.4114C35.722 10.399 35.7219 10.3857 35.7255 10.3733C35.7291 10.3608 35.7364 10.3497 35.7463 10.3414L35.8457 10.2352V10.0884C35.8319 9.94591 35.7734 9.81148 35.6785 9.70434C35.5588 9.52814 35.482 9.39487 35.5114 9.25256C35.5191 9.21944 35.5329 9.18804 35.552 9.15994L35.665 8.99278L35.5814 8.80755C35.5316 8.70908 35.5195 8.59578 35.5475 8.48904C35.5627 8.43685 35.5897 8.3889 35.6266 8.34899L35.7892 8.1615L35.6763 7.9356C35.6398 7.84659 35.6398 7.74677 35.6763 7.65776C35.7096 7.57586 35.7203 7.48649 35.7072 7.39905C35.6941 7.3116 35.6576 7.22931 35.6017 7.16079C35.5746 7.13066 35.5561 7.09378 35.5482 7.05404C35.5402 7.01429 35.5431 6.97314 35.5566 6.9349C35.5668 6.89847 35.5901 6.8671 35.6221 6.8468L36.0332 6.58703L35.6921 6.30918C35.639 6.26983 35.5961 6.21832 35.567 6.15897C35.5379 6.09962 35.5235 6.03416 35.5249 5.96808V5.70379L35.2765 5.61343C35.2141 5.58454 35.1621 5.53724 35.1274 5.47789L34.9467 5.21812L34.662 5.35817C34.6385 5.37119 34.6121 5.37818 34.5852 5.3785C34.5497 5.37759 34.5149 5.3683 34.4836 5.35139C34.4413 5.33056 34.404 5.30078 34.3744 5.26411C34.3447 5.22745 34.3234 5.18478 34.3119 5.13906L34.1922 4.77537L33.8353 4.90865C33.8041 4.91956 33.7712 4.92491 33.7381 4.92446C33.7029 4.92459 33.6678 4.91925 33.6342 4.90865C33.5696 4.89401 33.512 4.85726 33.4716 4.80474L33.3315 4.60595L33.0943 4.66016C33.0813 4.66187 33.0681 4.65897 33.0569 4.65196C33.0458 4.64495 33.0374 4.63427 33.0333 4.62176C33.0071 4.54418 32.9616 4.4745 32.9012 4.41921C32.8408 4.36392 32.7673 4.32481 32.6877 4.30551C32.5922 4.27525 32.5049 4.22348 32.4325 4.15417C32.2684 3.99773 32.078 3.87155 31.87 3.78144C31.7638 3.72723 31.6441 3.67301 31.547 3.60525L31.4182 3.52167L31.2669 3.55781C31.2239 3.5691 31.1562 3.58943 31.1065 3.60751C31.0126 3.64499 30.9136 3.66785 30.8128 3.67527C30.7618 3.67568 30.7115 3.66328 30.6665 3.63921C30.6215 3.61514 30.5833 3.58016 30.5553 3.53748L30.4424 3.38613H30.151C30.0726 3.39742 29.9927 3.39177 29.9167 3.36956C29.8408 3.34735 29.7704 3.30909 29.7105 3.25737L29.5772 3.03148L29.3061 3.05633C29.2874 3.0584 29.2684 3.0584 29.2496 3.05633H29.1954C29.1493 3.04964 29.1056 3.03095 29.0689 3.00211L28.8882 2.85528L28.6781 2.95468C28.6366 2.97173 28.592 2.98019 28.5471 2.97952C28.4578 2.97622 28.3691 2.96257 28.2828 2.93886C28.1764 2.91237 28.0716 2.87994 27.9688 2.84173C27.7889 2.76538 27.597 2.72104 27.4019 2.71071C27.2706 2.71022 27.1414 2.74368 27.0269 2.80785C27.0093 2.81661 26.99 2.82124 26.9704 2.8214C26.942 2.81862 26.9146 2.80971 26.89 2.79527C26.8655 2.78084 26.8443 2.76124 26.8281 2.73782L26.6383 2.48482L26.3582 2.63843C26.2932 2.67173 26.2212 2.68878 26.1481 2.68812C26.0674 2.68853 25.9886 2.66408 25.9223 2.6181C25.7406 2.49337 25.5201 2.43805 25.3011 2.46223H25.2107C25.0449 2.47353 24.8787 2.44647 24.725 2.38317L24.4698 2.25893L24.2845 2.45545C24.1851 2.55937 24.1332 2.55937 24.1151 2.55937C24.0999 2.56117 24.0845 2.55876 24.0705 2.55238C24.0566 2.54601 24.0447 2.53592 24.0361 2.52322L23.8508 2.29733L23.591 2.42609C23.5507 2.44436 23.5066 2.45287 23.4623 2.45094C23.3681 2.44653 23.2744 2.43444 23.1822 2.41479C23.0102 2.3805 22.8357 2.36085 22.6604 2.35606C22.4389 2.34845 22.2208 2.4109 22.0369 2.53452C21.9728 2.58631 21.8934 2.61567 21.811 2.6181C21.793 2.62027 21.7748 2.62027 21.7568 2.6181L21.5942 2.57518L21.4564 2.67231H21.4157C21.2714 2.63658 21.1238 2.61539 20.9752 2.60906C20.8834 2.60655 20.7921 2.62222 20.7064 2.65518C20.6207 2.68813 20.5424 2.73771 20.476 2.80107L20.4308 2.66102L20.0468 2.8598C19.9672 2.90036 19.8785 2.9198 19.7893 2.91627H19.6537H19.5272H19.4595L19.3962 2.94112C19.3046 2.98371 19.2071 3.01263 19.1071 3.02696C19.0866 3.02849 19.0661 3.02376 19.0484 3.01341L18.8225 2.82592L18.5966 3.0247C18.4578 3.15837 18.2761 3.23842 18.0838 3.2506C17.9757 3.25177 17.8696 3.22113 17.7788 3.1625L17.431 2.95694L17.2593 3.32288C17.2138 3.42053 17.1428 3.50406 17.0537 3.56459L16.9024 3.6685C16.5839 3.89439 16.2247 4.13835 15.7955 4.13835C15.7312 4.13856 15.6669 4.13327 15.6035 4.12254L15.4228 4.07962L15.2511 4.19708C15.2387 4.20659 15.2238 4.21211 15.2082 4.2129C14.996 4.2569 14.8059 4.37354 14.6706 4.5427C14.517 4.69857 14.395 4.80699 14.2368 4.80699H14.1984C14.0902 4.81016 13.9837 4.83567 13.8857 4.88193C13.7878 4.92819 13.7004 4.99419 13.6292 5.07581C13.5601 5.1427 13.4844 5.20249 13.4033 5.25426C13.2512 5.36547 13.0745 5.43832 12.8883 5.4666C12.8569 5.46688 12.8256 5.4623 12.7957 5.45305L12.4794 5.34914L12.3484 5.64731C12.3251 5.69443 12.2971 5.73908 12.2648 5.78059C12.2449 5.80645 12.2268 5.83362 12.2106 5.86191C12.1609 5.94323 12.0999 6.05844 12.0479 6.16235L11.9305 6.38824L12.1089 6.57573C12.3032 6.77903 12.2874 7.05236 12.249 7.35958C12.2148 7.48416 12.206 7.61433 12.223 7.74239C12.2401 7.87044 12.2827 7.99376 12.3484 8.10502C12.3809 8.16939 12.3874 8.24383 12.3665 8.31284C12.3508 8.39985 12.3177 8.48282 12.2693 8.55681L12.1044 8.80981L12.3077 9.02214C12.324 9.03966 12.3377 9.05944 12.3484 9.08088C12.3769 9.19597 12.3591 9.31767 12.2987 9.41972C12.2138 9.65223 12.1889 9.90241 12.2264 10.1471C12.2531 10.3736 12.2393 10.6031 12.1857 10.8248C12.1566 10.9244 12.1325 11.0254 12.1135 11.1275C12.1026 11.234 12.0662 11.3363 12.0073 11.4256L11.7814 11.7238L12.0886 11.9497C12.2513 12.0717 12.2535 12.3721 12.2558 12.5167C12.2509 12.6395 12.2615 12.7625 12.2874 12.8826C12.2986 12.9204 12.3015 12.9601 12.296 12.999C12.2906 13.038 12.2769 13.0753 12.2558 13.1085L12.1609 13.2757L12.2422 13.4474C12.2635 13.515 12.2635 13.5876 12.2422 13.6552C12.2382 13.6791 12.2298 13.7021 12.2174 13.723L12.1044 13.9105L12.2151 14.0979C12.2783 14.2396 12.301 14.396 12.2806 14.5497C12.265 14.6786 12.2758 14.8092 12.3122 14.9337C12.3219 14.9514 12.327 14.9712 12.327 14.9913C12.327 15.0115 12.3219 15.0313 12.3122 15.049C12.3122 15.0625 12.2874 15.0874 12.2174 15.1032L11.5826 15.241L12.0344 15.7131C12.2174 15.9028 12.3235 16.0271 12.3168 16.2236C12.3193 16.3444 12.3337 16.4647 12.3597 16.5828C12.4252 16.96 12.4229 17.2017 12.2038 17.3282L11.8943 17.5089L12.0547 17.8455C12.0711 17.8778 12.0803 17.9132 12.0818 17.9494L12.066 18.0127L12.1112 18.1233C12.1554 18.2428 12.1916 18.3651 12.2196 18.4893C12.3168 18.8756 12.4162 19.2731 12.9922 19.4132L13.0509 19.429H13.1142L13.2023 19.4155C13.2717 19.4031 13.3419 19.3955 13.4123 19.3929C13.4701 19.3882 13.5277 19.4033 13.5758 19.4357C13.6238 19.4682 13.6594 19.516 13.6766 19.5713C13.828 19.9779 14.1691 20.1112 14.5057 20.2106C14.583 20.2307 14.653 20.2728 14.7071 20.3317C14.7612 20.3906 14.7971 20.4638 14.8106 20.5427L14.8784 20.8115H15.154C15.1811 20.8115 15.2398 20.8115 15.2601 21.0374L15.2895 21.3717H15.4905V21.3875C15.4942 21.4175 15.4942 21.4478 15.4905 21.4778L15.468 21.7037L15.6532 21.8257C15.6905 21.8516 15.7214 21.8855 15.7435 21.9251C15.7799 21.983 15.8215 22.0375 15.8678 22.0878C16.0643 22.3136 16.1502 22.4808 16.0485 22.6638L15.8904 22.9529L16.1614 23.1427C16.2541 23.2059 16.297 23.2669 16.2902 23.3234C16.2877 23.3396 16.2815 23.3551 16.2721 23.3686L16.1298 23.5809L16.2812 23.7887C16.2904 23.8015 16.2965 23.8162 16.2992 23.8316C16.3151 23.8994 16.2676 23.9694 16.1637 24.0892L15.9378 24.3648L16.1027 24.5906C16.2473 24.7939 16.2247 24.8775 16.2157 24.9046C16.1953 24.9603 16.154 25.0057 16.1005 25.0311L15.8339 25.1802L15.9356 25.4716C15.983 25.6162 16.0101 25.6975 15.9785 25.7721C15.9469 25.8466 15.8926 25.8647 15.8768 25.8669L15.5335 25.937L15.5877 26.2848C15.5967 26.3391 15.6035 26.3933 15.608 26.4475C15.6213 26.5428 15.6093 26.6399 15.5732 26.7291C15.5371 26.8183 15.4783 26.8965 15.4024 26.9557C15.3733 26.9807 15.3383 26.9978 15.3008 27.0054L14.9687 27.0777L15.0139 27.4166C15.0184 27.4389 15.0184 27.462 15.0139 27.4843C14.9891 27.6018 14.8355 27.7102 14.6028 27.778C14.382 27.8346 14.1908 27.9726 14.0674 28.1643C13.9989 28.2962 13.8939 28.4057 13.765 28.4798C13.636 28.5539 13.4886 28.5894 13.3401 28.5822C13.1973 28.5814 13.0569 28.6188 12.9334 28.6906L12.9131 28.7041L12.8928 28.7222C12.7366 28.8401 12.5438 28.8993 12.3484 28.8894C12.2361 28.8809 12.1233 28.8966 12.0177 28.9356C11.912 28.9746 11.816 29.0359 11.7362 29.1153C11.7133 29.1357 11.6865 29.1512 11.6573 29.161C11.6282 29.1707 11.5974 29.1743 11.5668 29.1717C11.4909 29.1691 11.4153 29.1601 11.3409 29.1446C11.2866 29.1333 11.2314 29.1265 11.176 29.1243H11.1466H11.115C11.0528 29.1319 10.9902 29.1356 10.9275 29.1356C10.6331 29.1242 10.3414 29.074 10.0601 28.9865C9.79365 28.9048 9.51834 28.8555 9.24011 28.8397C9.20353 28.8412 9.16707 28.8345 9.13345 28.82C9.09982 28.8056 9.06987 28.7837 9.04584 28.7561L8.88546 28.4918L8.58276 28.5799C8.55457 28.5907 8.52481 28.5968 8.49466 28.598C8.47157 28.6006 8.44831 28.595 8.42891 28.5822C8.40951 28.5694 8.39521 28.5502 8.38849 28.5279L8.3772 28.4895L8.35913 28.4624C8.29879 28.3735 8.22214 28.2969 8.13323 28.2365C8.00448 28.1259 7.92315 28.0513 7.90734 27.9632C7.90389 27.943 7.90389 27.9224 7.90734 27.9022L8.01351 27.6108L7.69049 27.4256L7.60465 27.4007C7.52039 27.3956 7.4359 27.3956 7.35165 27.4007C7.10091 27.4007 6.96537 27.3804 6.91342 27.2855C6.89724 27.2543 6.89094 27.2188 6.89534 27.1839L6.92019 26.7931H6.7824L6.76884 26.696L6.72367 26.6237C6.6567 26.5318 6.5713 26.4548 6.47293 26.3978C6.21993 26.2284 6.15893 26.1222 6.20863 25.946C6.25784 25.7825 6.2458 25.6066 6.17475 25.4513C5.88561 24.6516 5.93304 24.6087 6.30802 24.2812L6.53392 24.0914L6.40064 23.8362C6.38257 23.8 6.36901 23.7684 6.35998 23.7458L6.30125 23.5854L6.14086 23.529C6.03244 23.4905 5.89916 23.4454 5.96919 23.0998L5.98048 23.0388C5.98222 22.9955 5.99297 22.9531 6.01203 22.9142C6.03108 22.8753 6.05804 22.8408 6.09117 22.8129L6.34868 22.657L6.25607 22.3633C6.22742 22.2633 6.22292 22.1579 6.24295 22.0558C6.26298 21.9537 6.30696 21.8578 6.37127 21.776C6.38935 21.7489 6.40516 21.7173 6.42549 21.6857C6.55876 21.4598 6.67849 21.2836 6.89309 21.2836L7.28162 21.3265L7.26355 20.9357C7.26727 20.7757 7.3141 20.6196 7.39908 20.4839C7.42113 20.4477 7.45069 20.4167 7.48577 20.3929C7.52084 20.3692 7.56061 20.3532 7.60239 20.3461C7.99092 20.2919 8.08128 20.0886 8.19648 19.8288C8.29588 19.6029 8.47659 19.56 8.72055 19.5239C8.87011 19.5149 9.01448 19.4657 9.13846 19.3816C9.1489 19.3714 9.16241 19.3651 9.17686 19.3635L9.4276 19.4019L9.56765 19.176C9.58071 19.1511 9.59863 19.1291 9.62036 19.1112C9.64209 19.0934 9.66718 19.0801 9.69415 19.0721L9.94037 19.0021L9.96296 18.7536C9.97152 18.688 9.98743 18.6236 10.0104 18.5616L10.0375 18.4803L10.0827 18.3199L9.99459 18.1798C9.73707 17.7687 9.88616 17.6264 9.93585 17.5812L10.1414 17.3869L10.0059 17.1385C9.86841 16.8808 9.7992 16.5923 9.80484 16.3004C9.8062 16.2663 9.81428 16.2327 9.82863 16.2017C9.84297 16.1707 9.86329 16.1428 9.88842 16.1197L10.0736 15.9186L9.9336 15.6927C9.86064 15.5823 9.83237 15.4483 9.85453 15.3178C9.87501 15.2251 9.92305 15.1409 9.99233 15.0761L10.2634 14.8072L9.98555 14.5475C9.86809 14.4345 9.88164 14.2561 9.93811 14.0189C9.98829 13.88 9.99923 13.7299 9.96974 13.5852L9.95167 13.5535L9.94037 13.5106C9.8466 13.3006 9.80698 13.0704 9.82514 12.8412C9.84329 12.6119 9.91863 12.3908 10.0443 12.1982C10.0928 12.119 10.1207 12.029 10.1254 11.9362C10.1302 11.8435 10.1116 11.751 10.0714 11.6673C10.0059 11.4415 9.96974 11.2675 10.1188 11.0936L10.1505 11.0529L10.347 10.7818L10.0849 10.556L10.0646 10.5401C10.0283 10.5159 9.99986 10.4817 9.98262 10.4416C9.96538 10.4015 9.96012 10.3573 9.96748 10.3142C9.97178 10.3011 9.97706 10.2882 9.98329 10.2758L10.1459 10.0025L9.89745 9.80373C9.87035 9.76759 9.84776 9.72467 9.89745 9.61172C9.93244 9.53643 9.97562 9.46522 10.0262 9.39939L10.216 9.14639L9.99007 8.92049C9.95477 8.87848 9.93137 8.82778 9.9223 8.77366C9.91317 8.72895 9.91317 8.68285 9.9223 8.63813L10.1482 7.74585L9.36887 8.23604C9.33506 8.25704 9.29567 8.26728 9.25592 8.26541H9.21752L8.86513 8.227L8.82446 8.58391C8.7838 8.85724 8.68893 8.87306 8.63697 8.87983L8.25747 8.93405L8.28232 9.0741H8.25973C7.9209 9.0741 7.83054 9.34065 7.76277 9.53718C7.71082 9.68853 7.67016 9.7947 7.58657 9.84213C7.50299 9.88957 7.36068 9.97993 7.34261 10.2374C7.32906 10.4227 7.29066 10.4904 7.18449 10.5334C7.04207 10.5816 6.91797 10.6725 6.82905 10.7938C6.74013 10.915 6.69072 11.0607 6.68752 11.211C6.68752 11.2291 6.64009 11.6425 6.38483 11.6425C6.3022 11.6356 6.22353 11.6041 6.15893 11.5521L5.39316 10.9987L5.58517 11.9249C5.60017 11.9773 5.60017 12.0328 5.58517 12.0852L5.51514 12.2908L5.66197 12.4512C5.67054 12.4613 5.67741 12.4728 5.6823 12.4851C5.71619 12.5754 5.61453 12.711 5.34346 12.9527L5.22826 13.0521V13.2057C5.22143 13.4143 5.15925 13.6173 5.04811 13.7939C4.93696 13.9706 4.78085 14.1145 4.59576 14.2109C4.47986 14.2737 4.37149 14.3495 4.27273 14.4368L4.15753 14.5317L3.82321 14.796L4.13494 15.0874C4.20548 15.162 4.2485 15.2584 4.25692 15.3607C4.26377 15.4037 4.26148 15.4476 4.25019 15.4897C4.2389 15.5317 4.21887 15.5709 4.19141 15.6046C4.16495 15.6308 4.13536 15.6535 4.10331 15.6724L3.84128 15.8125L3.89098 16.079C3.89629 16.135 3.88362 16.1911 3.85483 16.2394L3.80514 16.2868L3.78932 16.4111C3.74506 16.5766 3.65031 16.7243 3.51825 16.8335C3.32399 17.0413 3.10261 17.2853 3.39175 17.649C3.39984 17.6766 3.40118 17.7058 3.39568 17.7341C3.39018 17.7624 3.37799 17.789 3.36013 17.8116C3.24239 17.9471 3.17323 18.118 3.1636 18.2973C3.1636 18.356 3.14327 18.4125 3.12972 18.469C3.11617 18.5254 3.06421 18.7129 2.99418 18.7513L2.78636 18.8665L2.80443 19.0924C2.81007 19.2133 2.79789 19.3343 2.76829 19.4516C2.71368 19.7069 2.61834 19.9517 2.48593 20.1767L2.33232 20.4026L2.51529 20.6127C2.55724 20.6593 2.58403 20.7176 2.5921 20.7798C2.59678 20.8074 2.59448 20.8357 2.5854 20.8621C2.57633 20.8886 2.56076 20.9123 2.54014 20.9312L2.29844 21.1413L2.47463 21.4101C2.57307 21.5398 2.62481 21.699 2.62146 21.8619C2.61947 21.9343 2.58952 22.0031 2.53788 22.0539L2.35039 22.2481L2.47915 22.474C2.48464 22.4855 2.48845 22.4976 2.49044 22.5102C2.49044 22.5463 2.49044 22.5892 2.38653 22.6954L2.17645 22.9032L2.33684 23.154C2.36295 23.1848 2.38196 23.2211 2.3925 23.2601C2.40304 23.2992 2.40486 23.34 2.39783 23.3799C2.39783 23.4025 2.37524 23.4702 2.25326 23.5448L1.99574 23.7029L2.09965 23.9875C2.1777 24.2141 2.23664 24.4468 2.27585 24.6833C2.31507 24.9234 2.374 25.1599 2.45204 25.3903C2.48554 25.527 2.4932 25.6687 2.47463 25.8082C2.45945 25.9169 2.45945 26.0271 2.47463 26.1357V26.1742L2.4927 26.2103C2.63953 26.522 2.66664 26.7615 2.57402 26.9422L2.44301 27.1523L2.57628 27.3782C2.691 27.5182 2.77583 27.6802 2.82556 27.8542C2.87529 28.0283 2.88886 28.2107 2.86542 28.3902L2.85187 28.4805C2.84241 28.57 2.82192 28.658 2.79088 28.7425L2.7073 28.9684L2.86317 29.1379C2.89283 29.1728 2.91305 29.2148 2.9219 29.2598C2.95714 29.394 3.01114 29.5225 3.08228 29.6416C3.22685 29.9172 3.32173 30.134 3.2133 30.3893L3.08906 30.6784L3.35561 30.8433C3.52357 30.9777 3.63811 31.1675 3.67864 31.3787C3.71803 31.5447 3.79535 31.6994 3.90453 31.8305C3.99037 31.9186 3.99037 31.9886 3.97456 32.0315L3.84128 32.3026L4.09202 32.4946C4.10396 32.502 4.11401 32.512 4.12139 32.524C4.13097 32.5437 4.13596 32.5653 4.13596 32.5872C4.13596 32.6091 4.13097 32.6308 4.12139 32.6505L4.06943 32.8515L4.214 32.9984C4.34154 33.169 4.41969 33.3714 4.43989 33.5834L4.45797 33.6986L4.53929 33.8138C4.56764 33.8466 4.58846 33.8851 4.60028 33.9268C4.61919 33.9742 4.62915 34.0248 4.62964 34.0759V34.3198L4.85554 34.4215C5.09547 34.5325 5.29399 34.7168 5.42253 34.9478C5.5664 35.202 5.61976 35.4974 5.57387 35.7859L5.52644 36.0795L5.80428 36.188C5.93756 36.2703 6.04119 36.3929 6.1002 36.5381C6.15507 36.6628 6.23867 36.7727 6.34417 36.8589L6.45937 36.9357L6.60846 36.9153C6.65626 36.9527 6.68975 37.0053 6.70334 37.0644L6.75981 37.3355L7.03992 37.3762C7.06003 37.377 7.07978 37.3818 7.09801 37.3903C7.11624 37.3988 7.13258 37.4109 7.14608 37.4258C7.16073 37.4423 7.17157 37.4617 7.17782 37.4828C7.18407 37.5039 7.18557 37.5261 7.18223 37.5478C7.15512 37.8731 7.35842 37.9996 7.55721 38.1284C7.65614 38.1836 7.74603 38.2537 7.82376 38.3362C7.91057 38.4319 8.00583 38.5196 8.10839 38.5982C8.36364 38.8106 8.56017 38.9913 8.52403 39.2285L8.46078 39.6915L8.93063 39.6441C8.97482 39.6454 9.01842 39.6546 9.05939 39.6712C9.0857 39.6766 9.11069 39.6871 9.13291 39.7022C9.15513 39.7173 9.17414 39.7366 9.18884 39.7591C9.20354 39.7816 9.21365 39.8067 9.21857 39.8331C9.22349 39.8595 9.22313 39.8867 9.21752 39.9129L9.20396 40.2337L9.51795 40.2924C9.6702 40.3184 9.8155 40.3753 9.94489 40.4596L10.3334 40.7103L10.4915 40.2743C10.4997 40.2565 10.5127 40.2413 10.529 40.2305C10.5454 40.2197 10.5645 40.2137 10.5842 40.2134H10.871L10.9298 39.931C10.9579 39.868 11.0065 39.8162 11.0676 39.7842L11.2121 39.6848C11.813 39.2646 12.3778 38.8693 12.6533 38.1284C12.7934 37.7376 12.9606 37.5411 13.1503 37.5411H13.1932L13.4733 37.5862L13.5863 37.3265C13.6021 37.2926 13.6495 37.1841 13.8754 37.1006L14.2323 36.9786L14.1149 36.633C14.106 36.6043 14.106 36.5736 14.1149 36.5449C14.1329 36.4545 14.2346 36.4026 14.4153 36.3348C14.4729 36.3161 14.5288 36.2927 14.5825 36.2648L14.6209 36.2422L14.6525 36.2105C14.7602 36.1384 14.8894 36.1057 15.0184 36.1179C15.2841 36.127 15.5456 36.1868 15.7887 36.2941L16.1298 36.4455L16.2744 36.1021C16.2815 36.0824 16.2943 36.0652 16.3112 36.0527C16.3281 36.0403 16.3483 36.0331 16.3693 36.0321H16.4754C16.7201 36.0361 16.9644 36.0527 17.2073 36.0818C17.37 36.0976 17.5055 36.1112 17.641 36.1202H17.7653L17.9008 36.0547C17.9264 36.0385 17.9564 36.0306 17.9867 36.0321C18.0192 36.0316 18.0513 36.0403 18.0793 36.0569L18.321 36.2196L18.4701 36.0818C18.5182 36.0704 18.5674 36.0644 18.6169 36.0637H18.8789L18.9693 35.8175C18.9964 35.7339 19.0303 35.6548 19.0619 35.5803C19.1771 35.3115 19.2878 35.0585 19.1681 34.7513L19.7373 34.6225L19.5114 34.1978C19.4829 34.1471 19.471 34.0886 19.4775 34.0307C19.5047 33.8251 19.778 33.6964 19.909 33.6354C20.119 33.5131 20.2916 33.3358 20.4082 33.1226C20.5641 32.8967 20.7267 32.6392 21.0249 32.585L21.2124 32.5488L21.2937 32.3749C21.3164 32.3063 21.3609 32.2471 21.4205 32.2063C21.4801 32.1655 21.5514 32.1454 21.6235 32.149C21.7323 32.1552 21.84 32.1741 21.9443 32.2055C22.0133 32.2253 22.0835 32.2412 22.1544 32.2529L22.4006 32.3229L22.5858 32.1242C22.8117 31.8124 23.6882 31.5775 24.1422 31.5775C24.2685 31.5629 24.3956 31.5977 24.4969 31.6746L24.5353 31.7243L24.5895 31.7582C24.66 31.797 24.7363 31.8245 24.8154 31.8395C24.8959 31.8602 24.9723 31.8946 25.0413 31.9412L25.2468 32.0948L25.4727 31.9547C25.5142 31.9296 25.5621 31.9171 25.6105 31.9186C25.6446 31.9165 25.6787 31.9217 25.7106 31.9338C25.7426 31.9458 25.7716 31.9645 25.7958 31.9886C25.8105 32.0055 25.8227 32.0246 25.8319 32.0451L25.9381 32.2913L26.2069 32.2642H26.2475C26.3812 32.2757 26.5096 32.3216 26.6203 32.3975C26.7045 32.4485 26.7948 32.4888 26.8891 32.5172C26.9794 32.5375 27.0946 32.5918 27.0856 32.8154C27.0856 32.8818 27.0764 32.9479 27.0585 33.0119L26.9049 33.5066L27.4244 33.4885C27.5351 33.4885 27.5893 33.5066 27.6865 33.658L27.8107 33.85L28.0366 33.8229H28.0502C28.1767 33.8229 28.2512 33.8545 28.3054 34.1504C28.3054 34.1978 28.3257 34.2543 28.3348 34.2905L28.3664 34.4034L28.4568 34.478C28.5854 34.5866 28.6826 34.7277 28.7382 34.8866C28.7939 35.0455 28.8059 35.2164 28.773 35.3815L28.7437 35.56L28.9176 35.7429C29.0576 35.8807 29.1209 35.9688 29.1051 36.0524C29.0973 36.0886 29.0801 36.1221 29.0554 36.1496L28.8905 36.3348L29.0012 36.5607C29.0179 36.5953 29.0271 36.633 29.0283 36.6714C29.0263 36.6997 29.0152 36.7267 28.9967 36.7482L28.7933 36.9741L28.9876 37.2135C29.0166 37.252 29.0381 37.2957 29.0509 37.3423C29.0919 37.4731 29.0923 37.6134 29.052 37.7444C29.0116 37.8755 28.9325 37.9913 28.825 38.0764C28.7429 38.1348 28.6762 38.2124 28.6307 38.3023L28.5494 38.4785L28.651 38.6457C28.7098 38.7405 28.6962 38.7902 28.6827 38.8128L28.5675 38.919L28.5403 39.102C28.5222 39.1973 28.4729 39.2839 28.4003 39.3482L28.2986 39.4589V39.6102C28.2986 39.8113 28.2783 39.9061 28.1179 39.9762L27.9756 40.0349C27.5351 40.2179 27.072 40.4076 26.923 40.9023C26.9005 41.0126 26.8418 41.1123 26.7563 41.1855C26.6708 41.2588 26.5633 41.3014 26.4508 41.3067C26.3608 41.3056 26.2721 41.2848 26.1911 41.2457C26.1436 41.2231 26.0826 41.1937 26.0216 41.1689L25.5134 40.943V41.4964C25.5134 41.5348 25.5134 41.5823 25.5134 41.6387C25.5166 41.6631 25.5148 41.6879 25.5082 41.7115C25.5016 41.7352 25.4903 41.7573 25.475 41.7765C25.475 41.7901 25.4366 41.8172 25.3485 41.8172C25.2955 41.816 25.2426 41.8107 25.1904 41.8014L24.8312 41.7562L24.7295 42.0273C24.7295 42.0273 24.7295 42.0521 24.6776 42.0521C24.6324 42.0513 24.5881 42.0394 24.5487 42.0173C24.5093 41.9952 24.476 41.9637 24.4517 41.9256L24.2936 41.5552L23.9389 41.7426L23.7943 41.824C23.6768 41.8923 23.544 41.9304 23.4081 41.9347C23.3199 41.9375 23.2325 41.9183 23.1536 41.8789C23.0747 41.8395 23.0069 41.781 22.9563 41.7088L22.6559 41.3022L22.3622 41.7155C22.3486 41.7336 22.317 41.7765 22.1995 41.7788C22.0346 41.7788 21.9194 41.6907 21.7862 41.458L21.5942 41.1305L21.235 41.3383C21.2164 41.3511 21.1944 41.3582 21.1717 41.3586C21.122 41.3586 21.0678 41.327 20.9684 41.1757L20.7606 40.8662L20.6454 40.9452L20.6838 40.8368L20.4579 40.6358C20.368 40.5736 20.2962 40.4887 20.2501 40.3896L20.1936 40.1637L19.9677 40.1162C19.909 40.1027 19.8412 39.9852 19.7961 39.9061L19.726 39.7887C19.708 39.7638 19.6944 39.7345 19.6786 39.7074L19.6492 39.6509L19.5702 39.5221L19.4256 39.486C19.393 39.4794 19.3624 39.4651 19.3365 39.4443C19.3105 39.4235 19.29 39.3967 19.2765 39.3663C19.2662 39.3309 19.2662 39.2932 19.2765 39.2578L19.3081 39.0319L19.1161 38.9032C19.028 38.8444 19.019 38.7948 19.0167 38.7564L18.9761 38.1577L18.4588 38.4695C18.4195 38.4959 18.3729 38.5094 18.3255 38.5079C18.2702 38.5055 18.2162 38.4909 18.1674 38.465L18.1019 38.4265L17.9166 38.3046L17.7224 38.413C17.6603 38.4436 17.5927 38.4613 17.5236 38.465C16.934 38.5079 16.3941 38.535 15.8949 38.5485C15.8578 38.5482 15.8211 38.5413 15.7865 38.5282L15.5131 38.4265L15.3618 38.6728C15.3228 38.7405 15.2635 38.7942 15.1924 38.8264C14.6773 38.9958 14.4176 39.4047 14.1668 39.8022C13.9964 40.1087 13.7659 40.3776 13.4891 40.5929C13.2676 40.7645 13.0741 40.9695 12.9154 41.2005C12.7918 41.3704 12.6526 41.5285 12.4997 41.6726C12.4524 41.7145 12.414 41.7655 12.3868 41.8225C12.3597 41.8796 12.3443 41.9415 12.3416 42.0047L12.3077 42.3209L12.6172 42.3977C12.694 42.4181 12.7301 42.4768 12.7685 42.5513C12.7799 42.5747 12.7927 42.5974 12.8069 42.6191L12.9199 42.7908L13.1458 42.8202C13.1737 42.8217 13.2012 42.8278 13.2271 42.8382L13.3288 42.8766L13.4327 42.8563C13.4574 42.8532 13.4825 42.8532 13.5072 42.8563C13.6427 42.8563 13.7196 42.9308 13.837 43.1003C13.8912 43.1896 13.9636 43.2665 14.0494 43.3262L14.1329 43.3759H14.2323C14.6089 43.417 14.9664 43.5625 15.2647 43.796C15.487 43.9501 15.7275 44.076 15.9807 44.171C16.1208 44.2162 16.2608 44.2772 16.4032 44.3382C16.6329 44.4476 16.8748 44.5295 17.1237 44.5821C17.2288 44.5934 17.3291 44.6316 17.4151 44.6928L17.6094 44.878L17.8353 44.7493C17.8959 44.7152 17.9646 44.6981 18.0341 44.6996C18.0673 44.6986 18.1001 44.706 18.1297 44.721C18.1593 44.736 18.1847 44.7581 18.2035 44.7854L18.339 44.9819L18.5785 44.9503C18.6003 44.948 18.6222 44.948 18.644 44.9503C18.6847 44.9503 18.705 44.9503 18.7095 44.9661L18.7366 45.0045L18.8789 45.1852L19.1048 45.1356L19.2449 45.0949C19.3176 45.0679 19.3936 45.0505 19.4708 45.0429H19.5227C19.6084 45.0414 19.6933 45.0588 19.7714 45.094C19.8495 45.1291 19.9189 45.1811 19.9745 45.2462L20.1168 45.4179L20.3427 45.3705C20.3818 45.3671 20.4211 45.3671 20.4602 45.3705C20.5697 45.3751 20.6782 45.3933 20.7832 45.4247C20.8936 45.4565 21.0073 45.4754 21.122 45.4812H21.1627L21.3028 45.4654C21.4292 45.4362 21.5575 45.4158 21.6868 45.4044V45.4044ZM23.338 39.3595C23.5757 39.337 23.8142 39.3942 24.0157 39.5221L24.3094 39.8271L24.5714 39.495C24.6288 39.3982 24.709 39.3168 24.8051 39.2581C24.9012 39.1995 25.0102 39.1652 25.1226 39.1584C25.1752 39.159 25.2275 39.1658 25.2785 39.1788L25.4524 39.2194L25.5902 39.111C25.858 38.8803 26.0943 38.6152 26.2927 38.3226L26.4034 38.1487L26.3153 37.9635C26.2746 37.8635 26.2746 37.7517 26.3153 37.6517C26.3153 37.6156 26.3356 37.5795 26.3424 37.5388C26.4599 37.0265 26.442 36.4924 26.2905 35.9892C26.2227 35.8115 26.1315 35.6436 26.0194 35.4899C25.9443 35.3985 25.8875 35.2934 25.8522 35.1805L25.8839 34.8032L25.5269 34.7874C25.5143 34.7898 25.5012 34.7898 25.4885 34.7874H25.4637L25.4117 34.7739H25.3485C25.2505 34.7767 25.1551 34.7419 25.0819 34.6767C24.9609 34.5416 24.8125 34.4339 24.6466 34.3607C24.4806 34.2874 24.301 34.2504 24.1196 34.2521C23.9166 34.2547 23.7153 34.2898 23.5233 34.356L23.4171 34.3944C23.3007 34.4438 23.1772 34.4743 23.0512 34.4847C23.0152 34.4852 22.9793 34.4799 22.945 34.4689L22.6581 34.3695L22.5068 34.6316C22.4333 34.745 22.3426 34.8464 22.238 34.932C22.1311 35.0158 22.0388 35.1165 21.9646 35.2302C21.9469 35.2705 21.919 35.3056 21.8838 35.3321C21.8486 35.3586 21.8072 35.3756 21.7636 35.3815H21.2056L21.4044 35.8875C21.4532 36.0233 21.4532 36.1719 21.4044 36.3077C21.3948 36.3316 21.3777 36.3517 21.3558 36.3652C21.3338 36.3786 21.3081 36.3846 21.2824 36.3822C21.2599 36.3852 21.2371 36.3852 21.2147 36.3822L20.6861 36.2377L20.7561 36.7821C20.7855 37.0079 20.8216 37.2993 21.2079 37.349C21.2262 37.3502 21.2439 37.3558 21.2596 37.3652C21.2753 37.3746 21.2886 37.3877 21.2982 37.4033C21.3264 37.4697 21.3312 37.5438 21.3118 37.6133L21.2847 37.7489L21.3705 37.9002C21.4581 38.064 21.5578 38.2211 21.6687 38.3701C21.7844 38.5216 21.8908 38.68 21.9872 38.8445C22.1067 39.0487 22.2427 39.2429 22.3938 39.425L22.6016 39.6509L22.8659 39.4837C23.0118 39.3988 23.1783 39.3558 23.3471 39.3595H23.338ZM11.2664 26.6734C11.352 26.6822 11.4318 26.7205 11.4923 26.7818L12.1473 27.3691L12.1022 26.4881C12.0997 26.4578 12.1076 26.4275 12.1248 26.4023C12.1515 26.3767 12.1836 26.3573 12.2188 26.3456C12.254 26.3339 12.2913 26.3301 12.3281 26.3345C12.4039 26.3369 12.4794 26.3452 12.5539 26.3594L12.6737 26.382L12.7844 26.3278C12.8086 26.3131 12.8355 26.3031 12.8634 26.2984L13.1051 26.2826L13.1842 26.0567C13.1977 26.0183 13.2136 25.9844 13.2271 25.9528L13.3175 25.7269L13.2248 25.5688C13.2166 25.5454 13.2166 25.5199 13.2248 25.4965C13.2425 25.4469 13.2725 25.4026 13.312 25.3678C13.3515 25.333 13.3993 25.3089 13.4507 25.2977L13.9409 25.2096L13.715 24.7578C13.5682 24.4754 13.5321 24.306 13.5976 24.1931L13.7602 23.9965L13.6766 23.8068L13.8076 23.5199L13.5479 23.346C13.4832 23.3055 13.4333 23.2453 13.4056 23.1743C13.3375 22.9115 13.2183 22.6647 13.0547 22.448C12.8911 22.2313 12.6864 22.049 12.4523 21.9116L12.2942 21.8167C12.0922 21.7196 11.9146 21.5783 11.7746 21.4033L11.4426 20.9222L11.1534 21.4304C11.129 21.4718 11.0939 21.5058 11.0517 21.5289C11.0096 21.552 10.962 21.5632 10.914 21.5614C10.8482 21.5598 10.7833 21.5468 10.722 21.523L10.4464 21.4101L10.2792 21.6563C10.2642 21.6782 10.2439 21.6959 10.2202 21.7078C10.1965 21.7196 10.1702 21.7252 10.1437 21.7241C10.116 21.7283 10.0878 21.7283 10.0601 21.7241L9.65349 21.6066L9.59476 22.0268C9.59031 22.0678 9.57468 22.1069 9.54958 22.1397C9.52247 22.1731 9.48792 22.1997 9.4487 22.2173C9.40947 22.235 9.36666 22.2432 9.32369 22.2414H9.25366C8.7454 22.2414 8.6189 22.5892 8.49692 22.919C8.45986 23.0256 8.4161 23.1297 8.3659 23.2308L8.19648 23.5538L8.51725 23.7255C8.55 23.7449 8.57732 23.7722 8.59667 23.805C8.61603 23.8378 8.62678 23.8749 8.62794 23.913L8.64149 24.1389C8.67089 24.4499 8.67089 24.763 8.64149 25.0741L8.59857 25.3993L8.91482 25.4784L8.99162 25.4942C9.08198 25.5078 9.1249 25.5191 9.14975 25.5552C9.1746 25.5913 9.17912 25.5981 9.14975 25.6862L9.05939 26.0047L9.35983 26.147C9.43699 26.18 9.51239 26.217 9.58572 26.2577C9.68042 26.3111 9.7794 26.3564 9.88164 26.3933C10.1371 26.4586 10.3743 26.5815 10.5751 26.7524L10.8439 27.0145L11.106 26.7524C11.125 26.728 11.1493 26.7082 11.1771 26.6946C11.2049 26.6809 11.2354 26.6736 11.2664 26.6734V26.6734ZM36.1755 26.6553C36.1931 26.654 36.2107 26.6587 36.2252 26.6689L36.8351 27.1206L36.8193 26.6011C36.9552 26.5557 37.0952 26.5231 37.2372 26.504C37.5432 26.4853 37.8339 26.3635 38.0617 26.1583C38.1938 26.045 38.3475 25.9597 38.5135 25.9076C38.6917 25.843 38.8587 25.7508 39.0082 25.6343L39.268 25.4084L39.0579 25.1328C38.9946 25.0198 39.0579 24.9069 39.1844 24.681C39.2147 24.6358 39.2426 24.5891 39.268 24.5409L39.3832 24.3354L39.2454 24.1456C39.2373 24.1287 39.2332 24.1102 39.2332 24.0914C39.2332 24.0727 39.2373 24.0542 39.2454 24.0372C39.2548 24.0032 39.2701 23.9711 39.2906 23.9423L39.4871 23.6735L39.2386 23.4476C39.2002 23.4137 39.1708 23.3776 39.1934 23.2692C39.1971 23.2485 39.2024 23.2281 39.2092 23.2082L39.3538 22.8761L39.024 22.7293C38.9201 22.6819 38.8478 22.4921 38.8184 22.4108C38.8049 22.3792 38.7936 22.343 38.78 22.3046C38.7689 22.2639 38.7553 22.224 38.7394 22.1849L38.6084 21.8348L38.2605 21.9726C38.234 21.9866 38.2046 21.9943 38.1747 21.9951C38.1105 21.9819 38.05 21.9548 37.9973 21.9158C37.9447 21.8768 37.9011 21.8268 37.8697 21.7693C37.7973 21.629 37.6888 21.5107 37.5554 21.4265C37.4219 21.3423 37.2684 21.2953 37.1107 21.2904C36.8473 21.3053 36.5921 21.3878 36.3698 21.5298C36.3287 21.557 36.2811 21.5726 36.232 21.575C36.2182 21.5762 36.2043 21.5746 36.1911 21.5703C36.1779 21.5661 36.1657 21.5592 36.1552 21.5501L35.8186 21.2836L35.6063 21.6563C35.565 21.7205 35.5096 21.7743 35.4441 21.8135C35.3787 21.8527 35.3051 21.8762 35.229 21.8822L35.1206 21.9048L35.0415 21.9861C34.9239 22.1286 34.828 22.2877 34.7569 22.4582C34.6959 22.5779 34.6349 22.6977 34.5717 22.7971C34.5084 22.8965 34.409 23.023 34.2961 23.023H33.3925L34.025 23.6509C34.0421 23.664 34.056 23.6808 34.0657 23.6999C34.0755 23.719 34.0809 23.7401 34.0815 23.7616L34.0476 23.9536L34.1854 24.1027C34.2202 24.138 34.2438 24.1828 34.2532 24.2315C34.271 24.2857 34.2766 24.3432 34.2696 24.3998C34.2625 24.4564 34.2431 24.5108 34.2125 24.559L34.0386 24.8143L34.2645 25.0402C34.3168 25.0944 34.363 25.1542 34.4023 25.2186L34.4429 25.2774C34.4836 25.3383 34.5175 25.3993 34.5513 25.4603C34.608 25.5821 34.6896 25.6906 34.7908 25.7788C35.0965 25.9901 35.3651 26.2503 35.5859 26.5491L35.7599 26.8021L36.04 26.6734C36.0838 26.6596 36.1296 26.6535 36.1755 26.6553V26.6553ZM23.6995 13.7184C23.9086 13.7036 24.1177 13.7482 24.3026 13.8472L24.5805 14.0234L24.786 13.7681C25.0661 13.4225 25.3146 13.2667 25.5947 13.2667H25.9629V12.8985C25.9629 12.7449 26.0985 12.5822 26.3424 12.4218L26.3966 12.3879L26.435 12.336C26.4819 12.2653 26.5205 12.1895 26.5502 12.1101C26.566 12.074 26.5841 12.031 26.609 11.9859L26.7197 11.7713L26.5683 11.5838C26.556 11.5687 26.5446 11.5529 26.5344 11.5363C26.4712 11.4369 26.2769 11.0845 26.4689 10.8858C26.5262 10.8332 26.5699 10.7675 26.5963 10.6943C26.6226 10.6211 26.6309 10.5426 26.6203 10.4656C26.5519 10.2681 26.4082 10.1056 26.2204 10.0138C26.1033 9.96147 26.0028 9.87796 25.9299 9.7724C25.857 9.66683 25.8145 9.54327 25.807 9.4152L25.728 8.97471L25.3123 9.13735C25.2922 9.14076 25.2715 9.14076 25.2514 9.13735C25.17 9.13735 25.0797 9.07636 24.9554 8.94082L24.9306 8.91146L24.9012 8.88887C24.7969 8.82679 24.6807 8.78752 24.5601 8.77366C24.4736 8.76803 24.389 8.74515 24.3114 8.70635C24.2338 8.66756 24.1648 8.61364 24.1083 8.54777L23.9864 8.36254L23.7605 8.38287H23.6362C23.4261 8.38287 23.1844 8.40546 23.0805 8.68557C23.0622 8.74843 23.0247 8.804 22.9733 8.8445C22.9219 8.885 22.859 8.90841 22.7936 8.91146C22.6753 8.92291 22.5614 8.96199 22.4609 9.02556C22.3605 9.08912 22.2764 9.17538 22.2154 9.2774C22.1354 9.3893 22.035 9.4851 21.9194 9.55977C21.8345 9.61435 21.7636 9.68821 21.7126 9.77535C21.6615 9.86249 21.6318 9.96045 21.6258 10.0612C21.6286 10.1819 21.5867 10.2993 21.5083 10.3911C21.0385 10.7547 21.183 11.0687 21.366 11.4866L21.4044 11.5612C21.4631 11.6696 21.5196 11.8097 21.4722 11.8978L21.2869 12.266L21.6732 12.4083C21.7103 12.4173 21.7439 12.4371 21.7696 12.4653C21.7954 12.4935 21.8121 12.5287 21.8178 12.5664C21.8234 12.6023 21.8234 12.6389 21.8178 12.6748L21.7997 12.9617L22.073 13.0475C22.1209 13.0641 22.1671 13.0852 22.2108 13.1108C22.2406 13.1275 22.2655 13.1516 22.2831 13.1808L22.3893 13.3841H22.6152C22.6559 13.3841 22.6604 13.3841 22.6626 13.3841C22.8682 13.6846 23.1731 13.7094 23.4668 13.7094L23.6995 13.7184Z" fill="#FFFFFF"/>
</svg>
