<svg width="91" height="90" viewBox="0 0 91 90" fill="none" xmlns="http://www.w3.org/2000/svg">
<path d="M22.1036 6.26807C19.9586 7.54164 17.9238 8.99232 16.0205 10.605L50.4337 45.0145L16.0205 79.4132C17.9253 81.0185 19.96 82.4631 22.1036 83.7321L60.8434 45.0001L22.1036 6.26807Z" fill="#96172E"/>
<path d="M10.588 16.0225C8.97549 17.9258 7.52467 19.9603 6.25061 22.1049L29.1627 45.0001L6.26506 67.8952C7.54001 70.0392 8.99078 72.0737 10.6024 73.9777L39.5831 45.0001L10.588 16.0225Z" fill="#96172E"/>
<path d="M2.75904 29.4631C-0.91968 39.497 -0.91968 50.5103 2.75904 60.5441L18.3012 45.0036L2.75904 29.4631Z" fill="#96172E"/>
<path d="M55.6386 61.0825L50.4337 66.2832L67.8988 83.7463C70.0444 82.4737 72.0793 81.0229 73.9819 79.4095L55.6386 61.0825Z" fill="#96172E"/>
<path d="M61.0856 55.6361L79.4289 73.9812C81.0409 72.0762 82.4917 70.0405 83.7663 67.8951L66.3012 50.4319L61.0856 55.6361Z" fill="#96172E"/>
<path d="M87.2434 29.4631L71.7012 45.0036L87.2434 60.5441C90.9221 50.5103 90.9221 39.497 87.2434 29.4631" fill="#96172E"/>
<path d="M45.0012 18.2992L60.5434 2.75874C50.5085 -0.919582 39.494 -0.919582 29.459 2.75874L45.0012 18.2992Z" fill="#96172E"/>
<path d="M45.0012 71.7007L29.459 87.2412C39.494 90.9195 50.5085 90.9195 60.5434 87.2412L45.0012 71.7007Z" fill="#96172E"/>
<path d="M66.2723 39.5681L83.7374 22.1049C82.4624 19.9609 81.0116 17.9264 79.4 16.0225L61.0856 34.3639L66.2723 39.5681Z" fill="#96172E"/>
<path d="M55.6386 28.9173L73.9819 10.5759C72.0786 8.96327 70.0439 7.51259 67.8988 6.23901L50.4337 23.7311L55.6386 28.9173Z" fill="#96172E"/>
</svg>
