<svg width="94" height="32" viewBox="0 0 94 32" fill="none" xmlns="http://www.w3.org/2000/svg">
<path d="M37.3691 18.5557H41.2349C41.28 19.4405 42.0231 19.9818 43.883 19.9968C45.5259 20.014 46.284 19.5479 46.284 18.9444C46.284 18.5149 46.0521 18.0854 44.7807 17.905L43.1077 17.6408C40.6443 17.2371 37.687 16.9428 37.687 13.6097C37.687 11.0325 39.7788 9.45612 43.9152 9.45612C47.6499 9.45612 50.2507 10.4956 50.1713 14.2153H46.3377C46.1809 13.3562 45.455 12.8043 43.8121 12.8043C42.3861 12.8043 41.7997 13.2338 41.7997 13.8287C41.7997 14.1981 42.0295 14.6491 43.0218 14.8038L44.4005 15.0336C46.9777 15.4631 50.5364 15.5447 50.5364 19.1141C50.5364 21.949 48.335 23.3622 43.8787 23.345C39.4223 23.3278 37.2639 21.934 37.3734 18.5557" fill="white"/>
<path d="M51.3568 9.88995H58.7448C62.2927 9.88995 64.3995 11.4728 64.3995 14.9756C64.3995 18.4784 62.2927 20.0569 58.7598 20.0569H55.6478V22.9112H51.3525L51.3568 9.88995ZM58.3732 16.494C59.4105 16.494 60.0784 15.9807 60.0784 14.9756C60.0784 13.9705 59.4105 13.4572 58.3882 13.4572H55.6478V16.494H58.3732Z" fill="white"/>
<path d="M65.0957 16.3995C65.0957 12.2417 67.9929 9.44971 72.4686 9.44971C76.9443 9.44971 79.8436 12.2417 79.8436 16.3995C79.8436 20.5574 76.9443 23.345 72.4686 23.345C67.9929 23.345 65.0957 20.5702 65.0957 16.3995ZM75.5827 16.3995C75.5827 14.3399 74.1738 13.1608 72.4686 13.1608C70.7633 13.1608 69.3566 14.3399 69.3566 16.3995C69.3566 18.4591 70.7655 19.6403 72.4686 19.6403C74.1717 19.6403 75.5827 18.4634 75.5827 16.3995Z" fill="white"/>
<path d="M93.5671 13.4702H88.8873V22.9113H84.5963V13.4702H79.9209V9.89221H93.5671V13.4702Z" fill="white"/>
<path d="M7.85409 2.22723C7.09229 2.67889 6.36895 3.19248 5.69141 3.7628L17.9201 16.0044L5.69141 28.246C6.36837 28.8177 7.09177 29.3321 7.85409 29.7837L21.6184 16.0001L7.85409 2.22723Z" fill="white"/>
<path d="M3.76096 5.69562C3.19014 6.37229 2.6772 7.09573 2.22754 7.8583L10.3607 16L2.22754 24.1418C2.6772 24.9044 3.19014 25.6278 3.76096 26.3045L14.0589 15.9957L3.76096 5.69562Z" fill="white"/>
<path d="M0.979372 10.4763C-0.326457 14.0438 -0.326457 17.9585 0.979372 21.526L6.50098 16.0001L0.979372 10.4763Z" fill="white"/>
<path d="M19.769 21.7128L17.9199 23.564L24.1245 29.7729C24.8871 29.3218 25.6106 28.8074 26.2872 28.2352L19.769 21.7128Z" fill="white"/>
<path d="M21.6914 19.782L28.2095 26.3045C28.7799 25.6269 29.2934 24.9036 29.7451 24.1418L23.5491 17.9329L21.6914 19.782Z" fill="white"/>
<path d="M30.9991 10.4741L25.4775 16L30.9991 21.5238C32.305 17.9563 32.305 14.0416 30.9991 10.4741" fill="white"/>
<path d="M15.9894 6.50526L21.511 0.983652C17.9467 -0.327884 14.032 -0.327884 10.4678 0.983652L15.9894 6.50526Z" fill="white"/>
<path d="M15.9894 25.4948L10.4678 31.0207C14.0331 32.3265 17.9457 32.3265 21.511 31.0207L15.9894 25.4948Z" fill="white"/>
<path d="M23.5491 14.0694L29.7537 7.86052C29.3015 7.09768 28.788 6.37296 28.2181 5.69354L21.6914 12.2203L23.5491 14.0694Z" fill="white"/>
<path d="M19.769 10.2874L26.2872 3.76495C25.6095 3.19414 24.8862 2.67984 24.1245 2.22723L17.9199 8.43824L19.769 10.2874Z" fill="white"/>
</svg>
