<svg width="36" height="38" viewBox="0 0 36 38" fill="none"
  xmlns="http://www.w3.org/2000/svg">
  <path fill-rule="evenodd" clip-rule="evenodd" d="M17.9992 25.3053C18.237 25.3053 18.4748 25.3639 18.6916 25.4797L24.3281 28.5211L23.2559 22.1033C23.1706 21.6 23.3336 21.0875 23.6896 20.7308L28.2299 16.1981L21.9443 15.2532C21.4583 15.1806 21.038 14.8672 20.8197 14.4134L17.9992 8.55595L15.1787 14.4134C14.9603 14.8672 14.5401 15.1806 14.0541 15.2532L7.76851 16.1981L12.3088 20.7308C12.6648 21.0875 12.8278 21.6 12.7425 22.1033L11.6703 28.5211L17.3068 25.4797C17.5236 25.3639 17.7614 25.3053 17.9992 25.3053ZM26.3171 32.8779C26.0794 32.8779 25.8416 32.8208 25.6247 32.7034L17.9992 28.5906L10.3737 32.7034C9.86819 32.9752 9.25803 32.9273 8.8019 32.5815C8.34129 32.2357 8.11248 31.6505 8.20819 31.0716L9.66181 22.3827L3.50037 16.2305C3.08911 15.8213 2.94255 15.2069 3.11752 14.6465C3.291 14.086 3.76059 13.6785 4.32439 13.5936L12.8502 12.3152L16.6592 4.40141C17.1647 3.35159 18.8337 3.35159 19.3392 4.40141L23.1482 12.3152L31.674 13.5936C32.2378 13.6785 32.7074 14.086 32.8809 14.6465C33.0558 15.2069 32.9093 15.8213 32.498 16.2305L26.3366 22.3827L27.7902 31.0716C27.8859 31.6505 27.6571 32.2357 27.1965 32.5815C26.9378 32.7791 26.6282 32.8779 26.3171 32.8779Z" fill="#6D89DE"/>
</svg>
