<svg width="48" height="48" viewBox="0 0 48 48" fill="none"
  xmlns="http://www.w3.org/2000/svg">
  <path fill-rule="evenodd" clip-rule="evenodd" d="M24 12C25.104 12 26 11.106 26 10V6C26 4.894 25.104 4 24 4C22.896 4 22 4.894 22 6V10C22 11.106 22.896 12 24 12ZM24 28C21.794 28 20 26.206 20 24C20 21.794 21.794 20 24 20C26.206 20 28 21.794 28 24C28 26.206 26.206 28 24 28ZM24 16C19.588 16 16 19.588 16 24C16 28.412 19.588 32 24 32C28.412 32 32 28.412 32 24C32 19.588 28.412 16 24 16ZM38 22H42C43.104 22 44 22.894 44 24C44 25.106 43.104 26 42 26H38C36.896 26 36 25.106 36 24C36 22.894 36.896 22 38 22ZM12 24C12 22.894 11.104 22 10 22H6C4.896 22 4 22.894 4 24C4 25.106 4.896 26 6 26H10C11.104 26 12 25.106 12 24ZM9.6134 10.1066C10.3814 9.3146 11.6474 9.2906 12.4414 10.0566L15.3194 12.8366C16.1134 13.6026 16.1354 14.8706 15.3674 15.6646C14.9754 16.0706 14.4534 16.2746 13.9294 16.2746C13.4294 16.2746 12.9294 16.0906 12.5394 15.7146L9.6614 12.9346C8.8674 12.1686 8.8454 10.9006 9.6134 10.1066ZM34.0704 16.2754C34.5704 16.2754 35.0704 16.0894 35.4604 15.7154L38.3384 12.9354C39.1324 12.1674 39.1544 10.8994 38.3864 10.1074C37.6204 9.3154 36.3564 9.2914 35.5584 10.0574L32.6804 12.8354C31.8864 13.6034 31.8644 14.8714 32.6324 15.6634C33.0244 16.0694 33.5464 16.2754 34.0704 16.2754ZM22 38C22 36.894 22.896 36 24 36C25.104 36 26 36.894 26 38V42C26 43.106 25.104 44 24 44C22.896 44 22 43.106 22 42V38ZM35.46 32.2852C34.666 31.5192 33.4 31.5432 32.632 32.3352C31.864 33.1292 31.886 34.3972 32.68 35.1632L35.558 37.9432C35.948 38.3192 36.448 38.5032 36.948 38.5032C37.472 38.5032 37.994 38.2992 38.386 37.8932C39.154 37.0992 39.132 35.8312 38.338 35.0652L35.46 32.2852ZM9.662 35.0652L12.54 32.2852C13.336 31.5192 14.602 31.5432 15.368 32.3352C16.136 33.1292 16.114 34.3972 15.32 35.1632L12.442 37.9432C12.052 38.3192 11.552 38.5032 11.052 38.5032C10.528 38.5032 10.006 38.2992 9.614 37.8932C8.846 37.0992 8.868 35.8312 9.662 35.0652Z" fill="white"/>
</svg>
