<svg width="36" height="38" viewBox="0 0 36 38" fill="none"
  xmlns="http://www.w3.org/2000/svg">
  <path fill-rule="evenodd" clip-rule="evenodd" d="M31.4478 11.2762C31.4448 11.165 31.4134 11.06 31.385 10.9535C31.3625 10.864 31.3521 10.7729 31.3147 10.691C31.2803 10.6108 31.222 10.5459 31.1711 10.4718C31.1083 10.3776 31.0515 10.2835 30.9707 10.2063C30.9573 10.1924 30.9513 10.1738 30.9363 10.1615C30.8825 10.1136 30.8167 10.0967 30.7584 10.0581C30.6686 9.99785 30.5804 9.9361 30.4787 9.89596C30.3785 9.8589 30.2798 9.84964 30.1766 9.8342C30.1048 9.82339 30.0405 9.78943 29.9643 9.78943H22.4868C21.6598 9.78943 20.9913 10.4811 20.9913 11.3333C20.9913 12.1855 21.6598 12.8771 22.4868 12.8771H26.713L20.6772 20.1456L14.2825 16.1856C13.6499 15.7904 12.8364 15.9355 12.3638 16.5207L4.8863 25.7838C4.35839 26.4384 4.44364 27.4126 5.07773 27.9576C5.35888 28.1984 5.69686 28.3157 6.03484 28.3157C6.46405 28.3157 6.88877 28.1274 7.18488 27.76L13.8428 19.5127L20.2211 23.4649C20.8477 23.8524 21.6523 23.7166 22.1264 23.1454L28.4688 15.5063V19.0526C28.4688 19.9048 29.1372 20.5964 29.9643 20.5964C30.7913 20.5964 31.4598 19.9048 31.4598 19.0526V11.3333C31.4598 11.3132 31.4493 11.2962 31.4478 11.2762Z" fill="#6D89DE"/>
</svg>
