<svg width="295" height="285" viewBox="0 0 295 285" fill="none" xmlns="http://www.w3.org/2000/svg">
<path d="M224.45 156.23C224.412 155.683 224.294 155.143 224.1 154.63C223.982 154.279 223.792 153.956 223.542 153.683C223.293 153.409 222.989 153.19 222.65 153.04C222.721 152.952 222.798 152.869 222.88 152.79C223.38 152.27 223.49 151.36 223.21 150.04C223.11 149.54 222.52 147.04 221.21 146.48C221.06 146.415 220.902 146.371 220.74 146.35C221.228 145.416 221.348 144.332 221.076 143.314C220.803 142.296 220.159 141.416 219.27 140.85C219.418 140.34 219.391 139.795 219.193 139.302C218.996 138.81 218.639 138.397 218.18 138.13V138.13C218.24 138.06 219.64 136.5 219.18 135.21C219.089 134.948 218.929 134.717 218.715 134.54C218.502 134.364 218.244 134.25 217.97 134.21C217.04 134.08 216.79 133.66 216.21 132.56C215.956 132.099 215.672 131.654 215.36 131.23C214.44 129.91 213.99 129.17 214.62 128C214.735 127.79 214.807 127.559 214.831 127.321C214.855 127.082 214.832 126.842 214.762 126.612C214.692 126.383 214.577 126.17 214.424 125.986C214.271 125.802 214.083 125.65 213.87 125.54C213.073 125.064 212.332 124.501 211.66 123.86C210.719 122.937 209.631 122.176 208.44 121.61C208.629 121.121 208.699 120.594 208.645 120.073C208.591 119.551 208.415 119.05 208.13 118.61C208.05 118.45 207.97 118.28 207.9 118.1C207.741 117.637 207.466 117.223 207.102 116.896C206.738 116.568 206.297 116.339 205.82 116.23C205.694 115.533 205.343 114.897 204.82 114.42C204.378 113.917 203.757 113.605 203.09 113.55C202.937 112.945 202.618 112.394 202.17 111.96C201.89 111.65 201.72 111.45 201.74 111.31C201.778 111.019 201.755 110.723 201.673 110.44C201.591 110.158 201.452 109.896 201.264 109.67C201.077 109.444 200.845 109.259 200.582 109.126C200.32 108.994 200.033 108.917 199.74 108.9C199.552 108.869 199.361 108.853 199.17 108.85C198.856 108.84 198.543 108.894 198.251 109.009C197.958 109.124 197.693 109.298 197.47 109.52C197.522 109.15 197.496 108.774 197.394 108.414C197.293 108.055 197.117 107.72 196.879 107.433C196.641 107.145 196.346 106.91 196.012 106.742C195.678 106.575 195.313 106.479 194.94 106.46C194.571 106.485 194.211 106.587 193.884 106.759C193.557 106.931 193.269 107.17 193.04 107.46C192.855 107.306 192.65 107.179 192.43 107.08C192.559 106.931 192.663 106.762 192.74 106.58C192.849 106.296 192.895 105.991 192.874 105.687C192.853 105.383 192.766 105.087 192.62 104.82C192.3 104.13 191.75 102.98 190.5 102.98C190.05 102.994 189.614 103.144 189.25 103.41C189.054 102.524 188.577 101.724 187.89 101.13C187.749 100.997 187.616 100.857 187.49 100.71C187.279 100.422 187.008 100.183 186.695 100.011C186.383 99.8379 186.036 99.7354 185.68 99.7101H185.41C185.282 99.2741 185.044 98.8782 184.72 98.5601C184.276 98.1355 183.757 97.7965 183.19 97.5601C182.43 97.1901 182.19 97.0201 182.07 96.5601C181.93 95.7401 181.01 95.5601 180.5 95.5601C180.24 95.5525 179.984 95.6183 179.76 95.7501C179.623 95.849 179.459 95.9015 179.29 95.9001C178.861 95.8477 178.444 95.719 178.06 95.52C177.415 95.1848 176.706 94.9905 175.98 94.95C175.788 94.9497 175.597 94.9698 175.41 95.01C175.068 94.5841 174.626 94.2484 174.124 94.0323C173.622 93.8161 173.075 93.7261 172.53 93.77C172.268 93.7703 172.007 93.7468 171.75 93.7C171.576 93.6609 171.398 93.6408 171.22 93.64H170.93C170.843 93.2765 170.679 92.9356 170.45 92.64C170.287 92.4027 170.069 92.208 169.815 92.0723C169.561 91.9365 169.278 91.8638 168.99 91.86C168.613 91.8763 168.244 91.9753 167.91 92.1501C167.834 92.1918 167.753 92.2254 167.67 92.2501C167.32 92.3728 166.951 92.437 166.58 92.44C166.198 92.4548 165.82 92.3499 165.5 92.14C164.567 91.3425 163.412 90.8504 162.19 90.73C161.636 90.7367 161.091 90.8738 160.6 91.13C160.395 90.7865 160.101 90.5048 159.749 90.3147C159.397 90.1246 159 90.0331 158.6 90.05C158.027 90.0669 157.464 90.2067 156.95 90.4601V90.32C156.823 89.7702 156.528 89.2739 156.104 88.9008C155.681 88.5278 155.151 88.2967 154.59 88.24C154.298 88.2376 154.01 88.3132 153.757 88.4591C153.504 88.605 153.294 88.8159 153.15 89.07C152.81 89.62 152.61 89.6201 152.47 89.6201C152.192 89.6004 151.917 89.5501 151.65 89.4701L151.2 89.36C151.045 89.3281 150.888 89.3113 150.73 89.3101C150.077 89.3486 149.454 89.5937 148.95 90.01C148.865 90.0774 148.766 90.1252 148.66 90.1501C148.66 90.1501 148.66 90.1501 148.66 90.1501C148.263 89.6247 147.747 89.2018 147.154 88.9166C146.561 88.6313 145.908 88.4919 145.25 88.51C144.665 88.4963 144.085 88.611 143.549 88.8459C143.013 89.0809 142.536 89.4305 142.15 89.8701L142.1 89.9301C141.905 89.6479 141.643 89.4182 141.338 89.2612C141.032 89.1042 140.693 89.0249 140.35 89.0301C139.915 89.0455 139.486 89.1333 139.08 89.29L136.89 90.01C136.01 90.31 135.14 90.61 134.25 90.88C133.805 90.9901 133.393 91.2063 133.05 91.51C132.862 91.2022 132.592 90.9529 132.27 90.79L132.09 90.7C131.717 90.4469 131.28 90.3047 130.83 90.29C130.455 90.2918 130.087 90.3993 129.77 90.6C129.55 90.74 129.41 90.79 129.47 90.8C129.199 90.7505 128.925 90.7238 128.65 90.7201C128.144 90.6961 127.642 90.8255 127.21 91.0914C126.778 91.3572 126.437 91.7471 126.23 92.2101C126.063 92.5455 125.978 92.9154 125.98 93.29H125.75H125.44C125.147 93.2293 124.849 93.1958 124.55 93.19C124.204 93.1747 123.86 93.2463 123.549 93.3983C123.238 93.5502 122.97 93.7778 122.77 94.0601H122.35C122.054 94.0482 121.76 94.0114 121.47 93.95C121.071 93.8717 120.666 93.8282 120.26 93.82C119.899 93.7985 119.538 93.8655 119.208 94.0154C118.879 94.1653 118.591 94.3935 118.37 94.6801C117.675 95.4821 116.732 96.0279 115.69 96.23C115.236 96.3922 114.811 96.6251 114.43 96.92L113.92 97.2801C113.5 97.1285 113.057 97.0474 112.61 97.04C112.173 97.03 111.742 97.1464 111.37 97.3752C110.997 97.6041 110.699 97.9356 110.51 98.33C110.344 98.6603 110.252 99.0228 110.24 99.3923C110.227 99.7619 110.296 100.13 110.44 100.47C109.929 100.466 109.426 100.597 108.981 100.85C108.537 101.102 108.167 101.468 107.91 101.91C107.59 102.51 107.36 102.51 107.26 102.51C106.913 102.46 106.575 102.355 106.26 102.2C105.914 102.05 105.556 101.93 105.19 101.84H104.97C104.642 101.764 104.307 101.721 103.97 101.71C103.26 101.71 102.37 102.04 102.17 103.64C102.17 103.64 102.17 103.7 102.17 103.72C101.878 103.615 101.57 103.561 101.26 103.56C100.942 103.55 100.624 103.604 100.327 103.72C100.03 103.835 99.7589 104.008 99.53 104.23C99.3743 104.389 99.2531 104.579 99.1739 104.787C99.0948 104.995 99.0594 105.218 99.07 105.44C99.0816 105.506 99.0816 105.574 99.07 105.64C98.97 105.725 98.859 105.795 98.7401 105.85C98.4058 106.019 98.1044 106.245 97.85 106.52C97.4754 106.971 97.1249 107.442 96.8001 107.93C96.365 108.608 95.8477 109.229 95.26 109.78C95.107 109.901 94.9808 110.052 94.8895 110.224C94.7982 110.396 94.7439 110.586 94.73 110.78H94.6501C94.3304 110.768 94.0117 110.822 93.714 110.939C93.4162 111.056 93.146 111.234 92.9201 111.46C92.776 111.62 92.6677 111.809 92.6021 112.014C92.5366 112.219 92.5155 112.436 92.54 112.65C92.612 113.258 92.652 113.868 92.66 114.48C92.3576 114.291 92.0152 114.174 91.66 114.14H91.35C90.7227 114.145 90.1214 114.392 89.6722 114.83C89.2231 115.268 88.9607 115.863 88.94 116.49C88.94 116.84 88.9401 116.89 88.1801 117.3C87.9945 117.363 87.8038 117.41 87.6101 117.44C87.224 117.451 86.8449 117.546 86.4994 117.719C86.1539 117.892 85.8504 118.138 85.6101 118.44C85.4784 118.678 85.4011 118.942 85.3838 119.214C85.3665 119.485 85.4096 119.757 85.51 120.01C85.68 120.54 85.5701 120.73 84.6801 121.44C84.2554 121.705 83.8915 122.056 83.6123 122.472C83.3332 122.887 83.1449 123.357 83.06 123.85V123.85C82.8775 124.004 82.6837 124.145 82.48 124.27C81.8669 124.563 81.3612 125.041 81.0346 125.637C80.708 126.232 80.577 126.916 80.66 127.59C80.9 129.81 79.83 130.48 79 130.8C78.3572 131.017 77.8265 131.479 77.5246 132.087C77.2228 132.694 77.1744 133.397 77.3901 134.04C77.49 134.444 77.49 134.866 77.3901 135.27C77.3254 135.502 77.2819 135.74 77.26 135.98C76.9858 135.992 76.7169 136.06 76.4701 136.18C75.9044 136.361 75.4211 136.736 75.1062 137.24C74.7913 137.743 74.6651 138.342 74.7501 138.93C74.7712 139.036 74.756 139.146 74.707 139.242C74.658 139.338 74.5781 139.415 74.48 139.46C74.0792 139.597 73.7262 139.846 73.4629 140.178C73.1997 140.51 73.0373 140.91 72.9952 141.332C72.9531 141.753 73.0329 142.178 73.2252 142.555C73.4176 142.932 73.7143 143.247 74.0801 143.46C73.9815 143.615 73.8711 143.762 73.7501 143.9C73.3951 144.23 73.1333 144.648 72.9911 145.111C72.8489 145.575 72.8313 146.068 72.94 146.54C72.5429 146.706 72.2172 147.007 72.02 147.39C71.8935 147.738 71.852 148.111 71.899 148.478C71.9459 148.845 72.08 149.195 72.29 149.5C72.3463 149.6 72.3964 149.704 72.44 149.81C72.496 150.119 72.6189 150.413 72.8 150.67C72.7574 150.681 72.7127 150.681 72.6701 150.67V150.67C72.5104 150.655 72.3497 150.655 72.19 150.67C71.7481 150.68 71.323 150.842 70.9859 151.128C70.6489 151.414 70.4202 151.807 70.3383 152.242C70.2563 152.676 70.326 153.126 70.5356 153.515C70.7453 153.904 71.0822 154.209 71.49 154.38L71.7201 154.49L71.37 154.81C70.9733 155.134 70.7159 155.597 70.6508 156.105C70.5856 156.613 70.7178 157.127 71.02 157.54C71.0751 157.632 71.122 157.729 71.16 157.83C71.2149 158.074 71.3095 158.307 71.44 158.52C70.6954 158.819 70.0578 159.334 69.6101 160C69.4525 160.195 69.3417 160.423 69.2863 160.668C69.2308 160.912 69.2321 161.166 69.29 161.41C69.3621 161.691 69.4942 161.952 69.6772 162.177C69.8602 162.401 70.0898 162.583 70.35 162.71C70.46 162.76 70.52 162.81 70.54 162.81C70.4991 162.958 70.4198 163.093 70.3101 163.2C70.0361 163.439 69.8193 163.737 69.6757 164.071C69.532 164.405 69.4652 164.767 69.48 165.13C69.55 165.535 69.7105 165.919 69.9494 166.253C70.1884 166.587 70.4996 166.863 70.8601 167.06L70.95 167.12C70.7025 167.431 70.5378 167.799 70.4714 168.191C70.4049 168.583 70.4389 168.985 70.57 169.36C70.7731 169.742 71.0694 170.065 71.4314 170.301C71.7933 170.537 72.2091 170.678 72.6401 170.71C72.7189 170.726 72.7959 170.749 72.87 170.78C73.1417 170.903 73.4328 170.977 73.73 171H74.4C74.78 171 75.1601 171.06 75.5301 171.06C76.0942 171.072 76.654 170.959 77.1692 170.729C77.6845 170.499 78.1424 170.158 78.51 169.73C79.1083 169.902 79.6879 170.133 80.2401 170.42C81.2754 170.999 82.4265 171.341 83.6101 171.42C84.3488 171.414 85.0755 171.233 85.73 170.89H86.06C88.4784 170.931 90.8737 170.415 93.06 169.38C93.2042 169.433 93.3343 169.519 93.44 169.63C93.4198 169.957 93.4648 170.285 93.5723 170.594C93.6799 170.903 93.8479 171.188 94.0666 171.432C94.2853 171.676 94.5503 171.874 94.8462 172.014C95.142 172.155 95.4629 172.235 95.79 172.25C96.1118 172.243 96.427 172.158 96.709 172.003C96.991 171.849 97.2315 171.628 97.41 171.36L97.54 171.2C97.6314 171.237 97.7185 171.284 97.8001 171.34C98.3496 171.687 98.9925 171.857 99.6418 171.827C100.291 171.796 100.915 171.567 101.43 171.17L101.75 170.95C101.931 171.147 102.15 171.305 102.394 171.413C102.639 171.522 102.903 171.579 103.17 171.58C103.68 171.563 104.173 171.388 104.58 171.08C104.641 171.043 104.705 171.01 104.77 170.98C104.863 171.052 104.938 171.144 104.99 171.25C105.145 171.595 105.394 171.889 105.709 172.098C106.024 172.306 106.392 172.422 106.77 172.43C107.125 172.404 107.469 172.301 107.78 172.128C108.091 171.956 108.361 171.717 108.57 171.43C108.68 171.3 109.06 170.9 109.13 170.82C109.329 171.07 109.581 171.272 109.869 171.412C110.156 171.552 110.471 171.627 110.79 171.63C111.137 171.636 111.481 171.557 111.79 171.4C112.072 171.314 112.366 171.276 112.66 171.29C113.357 171.322 114.05 171.159 114.66 170.82L114.72 170.92C114.849 171.243 115.065 171.523 115.344 171.729C115.623 171.936 115.954 172.061 116.3 172.09C116.722 172.076 117.127 171.921 117.45 171.65C117.808 171.382 118.128 171.066 118.4 170.71C118.587 171.079 118.87 171.39 119.22 171.61C119.572 171.858 119.99 171.994 120.42 172C120.83 171.971 121.227 171.843 121.576 171.625C121.925 171.407 122.215 171.106 122.42 170.75C122.751 170.943 123.127 171.044 123.51 171.04C124.15 170.998 124.769 170.795 125.31 170.45L125.42 170.39C125.709 170.208 126.022 170.066 126.35 169.97C127.75 171.234 129.487 172.064 131.35 172.36C131.51 172.376 131.67 172.376 131.83 172.36C132.203 172.284 132.549 172.108 132.83 171.85C133.155 172.069 133.538 172.187 133.93 172.19C134.137 172.186 134.343 172.152 134.54 172.09C135.808 171.745 137.116 171.567 138.43 171.56H139.07C139.556 171.564 140.037 171.461 140.48 171.259C140.922 171.057 141.315 170.76 141.63 170.39L141.92 170.94C142.681 172.73 143.881 174.298 145.41 175.5C145.187 176.129 144.783 176.679 144.25 177.08C143.777 177.164 143.332 177.366 142.956 177.666C142.581 177.967 142.286 178.357 142.1 178.8C142.002 179.128 141.985 179.476 142.051 179.812C142.118 180.148 142.265 180.463 142.48 180.73L142.36 180.89C142.159 181.104 142.006 181.358 141.909 181.636C141.813 181.913 141.776 182.207 141.8 182.5C141.852 182.756 141.956 182.998 142.105 183.211C142.255 183.424 142.447 183.605 142.67 183.74C142.715 183.775 142.755 183.815 142.79 183.86C142.966 184.079 143.179 184.266 143.42 184.41L143.51 184.46C142.832 184.879 142.344 185.547 142.15 186.32C141.724 188.321 141.636 190.38 141.89 192.41C141.953 192.755 142.057 193.09 142.2 193.41C142.346 193.698 142.437 194.009 142.47 194.33C142.435 194.746 142.531 195.162 142.744 195.521C142.958 195.88 143.278 196.163 143.66 196.33C143.468 196.685 143.301 197.052 143.16 197.43C142.83 198.28 142.63 198.73 142.05 198.94C141.18 199.25 141.33 200.17 141.38 200.51C141.389 200.613 141.389 200.717 141.38 200.82C141.441 201.501 141.675 202.155 142.06 202.72C142.55 203.59 142.57 203.72 142.19 204.12C142.05 204.266 141.949 204.446 141.898 204.642C141.848 204.838 141.848 205.044 141.9 205.24C142.054 205.677 142.374 206.036 142.79 206.24C142.583 206.462 142.423 206.724 142.318 207.009C142.214 207.294 142.167 207.597 142.18 207.9C142.198 208.169 142.273 208.432 142.4 208.67C142.125 208.851 141.893 209.089 141.72 209.369C141.547 209.649 141.438 209.963 141.4 210.29C141.03 212.77 141.13 214.14 141.74 214.88C141.878 215.049 142.05 215.188 142.245 215.288C142.439 215.388 142.652 215.446 142.87 215.46C143.6 215.46 143.98 215.59 144.2 215.83H143.85C143.522 215.844 143.204 215.944 142.927 216.12C142.65 216.295 142.423 216.54 142.27 216.83L142.17 216.97C141.622 217.757 141.387 218.719 141.51 219.67C141.542 219.956 141.542 220.244 141.51 220.53C141.407 221.334 141.513 222.15 141.82 222.9C142.07 223.65 142.16 223.99 141.98 224.34C141.856 224.641 141.856 224.979 141.98 225.28C142.125 225.587 142.345 225.852 142.62 226.05C141.697 228.063 141.408 230.309 141.79 232.49C141.193 232.721 140.686 233.137 140.343 233.676C139.999 234.216 139.837 234.852 139.88 235.49C139.88 235.76 139.83 236.01 139.79 236.19C139.67 236.545 139.625 236.921 139.657 237.295C139.69 237.668 139.8 238.031 139.98 238.36C139.414 238.426 138.887 238.681 138.484 239.084C138.081 239.487 137.826 240.014 137.76 240.58C137.725 240.812 137.725 241.048 137.76 241.28C137.522 241.336 137.288 241.41 137.06 241.5C136.805 241.607 136.561 241.738 136.33 241.89C136.195 241.984 136.051 242.064 135.9 242.13C135.852 242.116 135.808 242.092 135.77 242.06C135.116 241.673 134.357 241.502 133.6 241.57C132.06 241.57 128.77 242.03 127.74 243.16C127.555 243.365 127.403 243.598 127.29 243.85C126.61 243.109 125.787 242.511 124.872 242.094C123.956 241.677 122.966 241.447 121.96 241.42C121.415 241.42 120.871 241.484 120.34 241.61H120.12C119.638 241.578 119.168 241.445 118.74 241.22C118.1 240.93 117.88 240.41 117.53 239.54C117.266 238.749 116.837 238.022 116.27 237.41C115.73 236.772 115.313 236.04 115.04 235.25C114.561 233.673 113.518 232.327 112.11 231.47C112.127 230.945 112.073 230.421 111.95 229.91C111.767 229.416 111.767 228.874 111.95 228.38C112.325 227.737 112.459 226.982 112.329 226.25C112.199 225.517 111.813 224.855 111.24 224.38C110.756 223.904 110.109 223.629 109.43 223.61C109.294 223.6 109.157 223.6 109.02 223.61C108.888 223.23 108.644 222.899 108.32 222.66C107.759 222.238 107.082 222 106.38 221.98C106.094 221.981 105.811 222.028 105.54 222.12C105.077 222.289 104.683 222.608 104.422 223.027C104.161 223.446 104.048 223.94 104.1 224.43C104.152 224.707 104.1 224.994 103.954 225.235C103.809 225.477 103.579 225.657 103.31 225.74C102.897 225.878 102.529 226.125 102.244 226.453C101.959 226.782 101.768 227.182 101.69 227.61C101.668 227.86 101.696 228.112 101.774 228.351C101.851 228.59 101.976 228.81 102.14 229C101.863 229.176 101.629 229.412 101.456 229.691C101.283 229.969 101.175 230.284 101.14 230.61C101.09 231.61 101.96 232.37 102.81 232.93C102.918 232.999 103.032 233.06 103.15 233.11L103.49 233.28L103.33 233.35C103.08 233.487 102.881 233.701 102.764 233.961C102.646 234.221 102.617 234.512 102.68 234.79C102.701 234.98 102.768 235.161 102.874 235.319C102.98 235.478 103.123 235.608 103.29 235.7C103.29 235.78 103.2 235.85 103.16 235.92C103.011 236.149 102.926 236.414 102.916 236.687C102.905 236.96 102.969 237.23 103.1 237.47C103.272 237.739 103.514 237.956 103.798 238.101C104.083 238.245 104.401 238.31 104.72 238.29H105.06C104.833 238.496 104.667 238.762 104.58 239.056C104.494 239.351 104.49 239.664 104.57 239.96C104.898 240.868 105.477 241.664 106.24 242.256C107.003 242.847 107.919 243.209 108.88 243.3C108.662 243.86 108.613 244.472 108.74 245.06C108.875 245.605 109.186 246.09 109.626 246.439C110.066 246.788 110.609 246.982 111.17 246.99L111.53 247.06C111.727 247.107 111.928 247.131 112.13 247.13C112.565 247.135 112.993 247.014 113.36 246.78C113.627 247.491 113.986 248.164 114.43 248.78C114.647 249.144 114.936 249.46 115.28 249.708C115.624 249.956 116.016 250.13 116.43 250.22C117.361 250.374 118.194 250.888 118.75 251.65C118.962 251.905 119.227 252.111 119.525 252.256C119.823 252.401 120.149 252.481 120.48 252.49C120.766 252.49 121.05 252.428 121.31 252.309C121.571 252.19 121.802 252.016 121.99 251.8C122.184 252.026 122.414 252.219 122.67 252.37C123.031 252.58 123.442 252.691 123.86 252.69C124.278 252.66 124.679 252.518 125.022 252.279C125.366 252.039 125.638 251.712 125.81 251.33C125.898 251.075 126.045 250.845 126.24 250.659C126.435 250.473 126.672 250.336 126.93 250.26C126.44 251.41 127.39 252.44 127.78 252.86L127.96 253.07C128.094 253.232 128.262 253.363 128.452 253.453C128.642 253.543 128.85 253.59 129.06 253.59C129.403 253.576 129.734 253.456 130.006 253.247C130.278 253.037 130.479 252.748 130.58 252.42C130.645 252.227 130.732 252.043 130.84 251.87C131.154 251.963 131.444 252.123 131.69 252.34C132.107 252.668 132.619 252.854 133.15 252.87C133.561 252.867 133.96 252.728 134.284 252.475C134.608 252.222 134.838 251.868 134.94 251.47C135.121 251.007 135.223 250.517 135.24 250.02C135.42 250.035 135.6 250.035 135.78 250.02C136.567 250.002 137.336 249.778 138.01 249.37C138.516 249.711 139.11 249.895 139.72 249.9C140.372 249.908 141.002 249.663 141.476 249.215C141.95 248.767 142.232 248.152 142.26 247.5C142.26 247.01 142.43 246.91 143.18 246.59L143.65 246.38C143.721 246.344 143.794 246.314 143.87 246.29C144.224 246.198 144.541 246.003 144.782 245.728C145.023 245.453 145.176 245.113 145.22 244.75C145.22 243.91 145.73 243.58 146.71 242.98C147.181 242.721 147.62 242.409 148.02 242.05L148.17 241.98C148.371 241.912 148.557 241.804 148.715 241.662C148.873 241.52 149 241.348 149.089 241.155C149.178 240.962 149.227 240.753 149.232 240.541C149.237 240.328 149.199 240.117 149.12 239.92C149.084 239.783 149.064 239.642 149.06 239.5C149.06 239.36 149.06 239.18 148.98 238.97C149.336 238.891 149.674 238.748 149.98 238.55C150.458 238.241 150.812 237.774 150.98 237.23C151.072 236.928 151.097 236.609 151.052 236.296C151.007 235.983 150.894 235.684 150.72 235.42C150.726 235.319 150.743 235.218 150.77 235.12C150.87 234.797 150.894 234.454 150.84 234.12C150.84 233.97 151.1 233.54 151.27 233.28C151.631 232.88 151.872 232.387 151.968 231.857C152.063 231.327 152.009 230.781 151.81 230.28C152.154 230.067 152.412 229.74 152.54 229.357C152.668 228.973 152.657 228.557 152.51 228.18C152.472 228.052 152.442 227.922 152.42 227.79C152.31 227.26 152.09 226.26 151.26 225.98C151.552 225.622 151.728 225.182 151.764 224.721C151.799 224.26 151.693 223.799 151.46 223.4C151.37 223.21 151.34 223.11 151.32 223.08C151.383 223.038 151.45 223.001 151.52 222.97C151.804 222.847 152.059 222.665 152.267 222.436C152.475 222.207 152.631 221.937 152.726 221.642C152.821 221.347 152.851 221.036 152.816 220.729C152.78 220.421 152.679 220.125 152.52 219.86C152.326 219.359 151.975 218.935 151.52 218.65C151.86 218.457 152.159 218.198 152.4 217.89C152.562 217.704 152.683 217.486 152.756 217.25C152.828 217.014 152.85 216.765 152.82 216.52C152.256 216.024 151.85 215.372 151.655 214.646C151.459 213.92 151.482 213.153 151.72 212.44L151.51 212.15C150.63 210.82 150.44 209.88 150.87 208.91C151.042 208.555 151.121 208.163 151.1 207.77C151.079 207.376 150.959 206.994 150.75 206.66C151.132 206.305 151.414 205.857 151.57 205.36C151.978 205.244 152.353 205.033 152.664 204.745C152.975 204.456 153.214 204.098 153.36 203.7C153.458 203.162 153.424 202.608 153.262 202.086C153.1 201.564 152.815 201.088 152.43 200.7C152.371 200.642 152.326 200.571 152.299 200.493C152.271 200.415 152.261 200.332 152.27 200.25C152.286 199.648 152.111 199.056 151.77 198.56C152.158 198.285 152.463 197.908 152.65 197.47C152.749 197.268 152.806 197.047 152.816 196.822C152.827 196.597 152.791 196.372 152.712 196.161C152.632 195.95 152.51 195.758 152.353 195.596C152.197 195.434 152.008 195.306 151.8 195.22L151.65 195.12C150.9 194.55 150.97 194.41 151.13 194.12C151.283 193.76 151.341 193.367 151.299 192.979C151.257 192.59 151.116 192.219 150.89 191.9C150.72 191.67 150.73 191.49 150.99 190.71C151.288 190.024 151.378 189.267 151.25 188.53C151.523 188.287 151.741 187.988 151.89 187.653C152.038 187.318 152.113 186.956 152.11 186.59C152.045 186.118 151.835 185.678 151.51 185.33C151.75 185.158 151.943 184.927 152.07 184.66C152.207 184.245 152.239 183.802 152.164 183.371C152.089 182.94 151.909 182.535 151.64 182.19C151.539 182.026 151.449 181.856 151.37 181.68C151.304 181.47 151.221 181.266 151.12 181.07C151.409 181.026 151.684 180.911 151.919 180.737C152.154 180.563 152.343 180.334 152.47 180.07C152.663 179.759 152.77 179.403 152.78 179.038C152.791 178.673 152.705 178.311 152.53 177.99C152.446 177.759 152.406 177.515 152.41 177.27C152.408 176.54 152.154 175.834 151.69 175.27C151.928 174.702 151.998 174.077 151.89 173.47C151.873 173.277 151.873 173.083 151.89 172.89C152.216 172.654 152.444 172.307 152.53 171.915C152.617 171.522 152.556 171.111 152.36 170.76H152.43C152.66 170.708 152.894 170.678 153.13 170.67C153.334 170.664 153.532 170.74 153.68 170.88C154.007 171.157 154.422 171.309 154.85 171.31C155.295 171.301 155.727 171.159 156.09 170.9C156.636 171.314 157.305 171.532 157.99 171.52H158.53C159.045 172.089 159.764 172.43 160.53 172.47C161.91 172.47 162.53 171.07 162.75 170.55C162.852 170.375 162.992 170.224 163.16 170.11L163.67 170.21C163.787 170.219 163.904 170.219 164.02 170.21H164.08C164.089 170.256 164.089 170.304 164.08 170.35C164.097 170.818 164.273 171.265 164.578 171.62C164.883 171.974 165.3 172.214 165.76 172.3C165.883 172.315 166.007 172.315 166.13 172.3C166.444 172.289 166.749 172.189 167.009 172.012C167.269 171.835 167.474 171.588 167.6 171.3C167.617 171.26 167.641 171.223 167.67 171.19C167.75 171.08 167.82 170.96 167.9 170.84C167.98 170.72 168.02 170.66 168.08 170.59C169.291 170.868 170.528 171.022 171.77 171.05C172.691 171.057 173.608 170.925 174.49 170.66C174.708 170.97 174.991 171.23 175.319 171.42C175.647 171.609 176.012 171.726 176.39 171.76C176.819 171.76 177.233 171.6 177.55 171.31C177.72 171.562 177.949 171.769 178.218 171.912C178.486 172.055 178.786 172.13 179.09 172.13C179.44 172.132 179.785 172.043 180.09 171.87C180.349 171.719 180.641 171.637 180.94 171.63C181.376 171.669 181.8 171.791 182.19 171.99C182.509 172.115 182.848 172.18 183.19 172.18C183.64 172.171 184.078 172.036 184.454 171.79C184.831 171.545 185.131 171.198 185.32 170.79L185.67 170.9C185.999 170.966 186.334 170.997 186.67 170.99H186.96C187.57 170.99 187.64 171.06 187.76 171.25C187.88 171.429 188.045 171.573 188.238 171.67C188.43 171.766 188.645 171.811 188.86 171.8C189.261 171.812 189.652 171.677 189.96 171.42C190.174 171.287 190.406 171.185 190.65 171.12C191.38 170.944 192.027 170.52 192.48 169.92C193.53 170.557 194.743 170.873 195.97 170.83C196.488 170.828 197.006 170.795 197.52 170.73L197.57 170.79C197.775 171.118 198.053 171.393 198.383 171.594C198.713 171.796 199.085 171.917 199.47 171.95C199.921 171.935 200.355 171.777 200.71 171.5C201.091 171.245 201.428 170.931 201.71 170.57C201.817 170.659 201.931 170.739 202.05 170.81C202.165 170.876 202.275 170.95 202.38 171.03C202.846 171.421 203.423 171.655 204.03 171.7C204.449 171.698 204.855 171.554 205.18 171.29C205.232 171.246 205.294 171.215 205.36 171.2C205.52 171.231 205.675 171.285 205.82 171.36C206.415 171.67 207.07 171.847 207.74 171.88C208.211 171.885 208.672 171.745 209.061 171.478C209.449 171.211 209.745 170.831 209.91 170.39C210.353 170.971 210.92 171.446 211.57 171.78C211.809 171.889 212.068 171.947 212.33 171.95C212.684 171.921 213.028 171.817 213.338 171.645C213.649 171.472 213.919 171.235 214.13 170.95C214.95 170.07 215.25 169.95 215.34 169.95C215.43 169.95 215.76 170.06 216.68 171.05C216.915 171.329 217.205 171.555 217.532 171.715C217.859 171.875 218.216 171.966 218.58 171.98C218.891 171.977 219.197 171.905 219.477 171.77C219.757 171.636 220.004 171.441 220.2 171.2C220.225 171.162 220.255 171.129 220.29 171.1L220.47 171.24C220.849 171.596 221.341 171.808 221.86 171.84C222.219 171.844 222.57 171.732 222.86 171.52C223.142 171.305 223.346 171.005 223.441 170.664C223.537 170.323 223.519 169.96 223.39 169.63V169.5C223.353 169.364 223.365 169.22 223.423 169.092C223.481 168.964 223.583 168.861 223.71 168.8C224.256 168.432 224.679 167.908 224.924 167.296C225.168 166.684 225.223 166.013 225.08 165.37C225.035 164.979 224.887 164.608 224.649 164.295C224.412 163.982 224.094 163.738 223.73 163.59C224.055 163.483 224.351 163.303 224.595 163.064C224.84 162.824 225.026 162.532 225.14 162.21C225.197 161.982 225.196 161.744 225.136 161.517C225.077 161.289 224.961 161.081 224.8 160.91C224.553 160.656 224.341 160.37 224.17 160.06C224.386 159.885 224.625 159.74 224.88 159.63C225.043 159.556 225.184 159.442 225.29 159.298C225.397 159.155 225.466 158.987 225.49 158.81C225.53 158.626 225.518 158.435 225.454 158.258C225.39 158.081 225.278 157.926 225.13 157.81C224.62 157.48 224.51 157.01 224.45 156.23ZM214.21 158.97L214.02 159.34C213.794 159.778 213.665 160.259 213.643 160.751C213.62 161.243 213.705 161.734 213.89 162.19C212.511 162.043 211.129 162.441 210.04 163.3C209.831 162.975 209.548 162.704 209.214 162.51C208.881 162.315 208.506 162.202 208.12 162.18C207.742 162.194 207.373 162.304 207.049 162.5C206.726 162.696 206.457 162.971 206.27 163.3C206.096 163.536 205.891 163.748 205.66 163.93C205.626 163.694 205.556 163.464 205.45 163.25C205.274 162.819 204.975 162.448 204.592 162.184C204.208 161.919 203.756 161.772 203.29 161.76H203.02C202.875 161.429 202.643 161.144 202.349 160.935C202.055 160.725 201.71 160.599 201.35 160.57C200.85 160.57 200.15 160.81 199.64 161.95C199.454 161.883 199.258 161.849 199.06 161.85C198.736 161.873 198.421 161.968 198.137 162.127C197.854 162.286 197.609 162.506 197.42 162.77C197.324 162.878 197.217 162.975 197.1 163.06C196.933 162.898 196.785 162.717 196.66 162.52C196.272 161.899 195.735 161.385 195.097 161.025C194.46 160.665 193.742 160.471 193.01 160.46C192.649 160.462 192.289 160.509 191.94 160.6C191.398 160.767 190.837 160.868 190.27 160.9C190.082 160.9 189.894 160.88 189.71 160.84C189.509 160.801 189.305 160.781 189.1 160.78C188.803 160.763 188.508 160.823 188.241 160.955C187.975 161.086 187.747 161.284 187.58 161.53C187.444 161.741 187.351 161.977 187.307 162.224C187.262 162.471 187.267 162.725 187.32 162.97C187.162 162.903 187.008 162.826 186.86 162.74C185.812 162.141 184.657 161.754 183.46 161.6H183.1C182.629 161.62 182.168 161.743 181.75 161.96C181.647 162.019 181.536 162.063 181.42 162.09V162.09C181.225 161.873 180.988 161.697 180.723 161.574C180.459 161.45 180.172 161.381 179.88 161.37C179.538 161.387 179.206 161.487 178.912 161.661C178.617 161.836 178.37 162.079 178.19 162.37C177.955 162.642 177.783 162.962 177.687 163.307C177.59 163.653 177.571 164.016 177.63 164.37C176.311 163.995 175.154 163.193 174.34 162.09C174.118 161.714 173.81 161.395 173.442 161.161C173.074 160.926 172.655 160.782 172.22 160.74C171.953 160.738 171.689 160.802 171.453 160.928C171.218 161.054 171.017 161.237 170.87 161.46C170.809 161.572 170.715 161.662 170.6 161.718C170.485 161.774 170.356 161.792 170.23 161.77H169.7C169.451 161.738 169.201 161.722 168.95 161.72C168.297 161.7 167.655 161.901 167.13 162.29C167.039 162.362 166.926 162.401 166.81 162.4C166.378 162.335 165.962 162.193 165.58 161.98C164.883 161.6 164.112 161.378 163.32 161.33C162.716 161.329 162.126 161.514 161.63 161.86C161.457 161.846 161.283 161.846 161.11 161.86C160.764 161.852 160.421 161.931 160.112 162.088C159.803 162.245 159.538 162.476 159.34 162.76L159.24 162.88C159.072 162.782 158.912 162.672 158.76 162.55L158.65 162.46C158.169 162.01 157.548 161.738 156.89 161.69C156.539 161.691 156.194 161.784 155.89 161.96C155.326 162.236 154.887 162.715 154.66 163.3C154.585 163.229 154.53 163.139 154.5 163.04C154.508 162.71 154.451 162.382 154.332 162.075C154.213 161.767 154.035 161.486 153.808 161.247C153.58 161.009 153.308 160.817 153.006 160.684C152.705 160.55 152.38 160.478 152.05 160.47C151.45 160.486 150.864 160.658 150.35 160.97C150.247 161.019 150.133 161.04 150.02 161.03C149.837 161.04 149.653 161.04 149.47 161.03C149.22 161.03 148.97 161.03 148.72 161.03C148.138 161.015 147.567 161.187 147.09 161.52C146.711 161.151 146.209 160.934 145.68 160.91C145.38 160.918 145.086 160.996 144.822 161.138C144.558 161.281 144.331 161.484 144.16 161.73C143.959 161.964 143.806 162.236 143.712 162.529C143.618 162.823 143.583 163.133 143.61 163.44C143.395 163.094 143.103 162.804 142.755 162.592C142.408 162.38 142.016 162.253 141.61 162.22C141.409 162.224 141.211 162.257 141.02 162.32C140.927 162.333 140.833 162.333 140.74 162.32C140.478 162.313 140.218 162.286 139.96 162.24C139.596 162.178 139.229 162.141 138.86 162.13C138.43 162.11 138.002 162.197 137.615 162.384C137.227 162.571 136.892 162.851 136.64 163.2C136.346 163.085 136.035 163.021 135.72 163.01C135.479 162.148 134.918 161.411 134.15 160.95C133.952 160.848 133.733 160.793 133.51 160.79C133.21 160.816 132.922 160.922 132.677 161.098C132.432 161.274 132.24 161.513 132.12 161.79C131.419 162.453 130.485 162.812 129.52 162.79C129.223 162.816 128.925 162.746 128.67 162.59C126.97 160.98 124.98 160.9 123.23 160.82C122.719 160.809 122.208 160.772 121.7 160.71C121.572 160.694 121.445 160.67 121.32 160.64C120.913 160.544 120.498 160.49 120.08 160.48C119.637 160.462 119.196 160.542 118.788 160.715C118.38 160.888 118.015 161.149 117.72 161.48C117.499 161.788 117.215 162.045 116.888 162.237C116.561 162.428 116.197 162.548 115.82 162.59C114.998 162.488 114.25 162.063 113.74 161.41C113.74 161.41 112.69 160.41 111.98 160.41C111.825 160.41 111.672 160.443 111.53 160.507C111.389 160.57 111.263 160.664 111.16 160.78C110.6 161.43 109.9 161.49 108.72 161.54C107.849 161.525 106.983 161.677 106.17 161.99L105.96 162.09L105.79 162.17L105.22 162.07C104.233 161.864 103.228 161.747 102.22 161.72V161.72C101.824 161.693 101.427 161.748 101.053 161.883C100.68 162.017 100.338 162.227 100.05 162.5C99.6958 162.043 99.2495 161.664 98.7401 161.39C98.5362 161.286 98.3449 161.158 98.1701 161.01C98.0263 160.86 97.8541 160.741 97.6635 160.658C97.4729 160.576 97.2677 160.532 97.06 160.53C96.8158 160.541 96.5763 160.602 96.3562 160.708C96.1361 160.815 95.9401 160.965 95.78 161.15C95.1908 161.254 94.6507 161.545 94.2401 161.98L94.06 162.13C94.0205 162.07 93.9871 162.007 93.9601 161.94C93.8086 161.689 93.5963 161.481 93.3428 161.334C93.0894 161.187 92.8029 161.107 92.51 161.1C92.2292 161.104 91.958 161.203 91.7401 161.38C91.2795 161.72 90.756 161.964 90.2001 162.1C89.6909 162.25 89.1958 162.444 88.72 162.68C88.6905 162.573 88.6503 162.469 88.6 162.37C88.4704 162.003 88.2309 161.686 87.9142 161.46C87.5974 161.235 87.2189 161.113 86.8301 161.11C86.3359 161.133 85.855 161.277 85.4301 161.53L85.32 161.58C84.7606 161.185 84.0947 160.969 83.41 160.96C82.5085 161.019 81.6356 161.3 80.87 161.78C80.62 161.91 80.38 162.04 80.13 162.15C79.9563 162.222 79.789 162.309 79.63 162.41L79.54 161.83C79.37 160.83 79.34 160.41 79.97 159.93C80.5822 159.415 80.9938 158.701 81.1327 157.913C81.2716 157.125 81.1291 156.313 80.73 155.62C80.5511 155.341 80.4751 155.009 80.5153 154.68C80.5555 154.352 80.7093 154.047 80.95 153.82C81.3949 153.433 81.7527 152.956 82 152.42C82.1446 152.125 82.326 151.849 82.54 151.6C82.8404 151.23 83.0204 150.777 83.0562 150.301C83.0919 149.826 82.9816 149.351 82.7401 148.94C82.562 148.504 82.3265 148.094 82.04 147.72C83.0295 147.153 83.827 146.303 84.3301 145.28C84.5717 144.871 84.6847 144.398 84.6544 143.924C84.6241 143.45 84.4519 142.995 84.16 142.62L84.0501 142.43C84.0001 142.34 83.91 142.19 83.84 142.05H83.9001C84.2074 142.047 84.5094 141.969 84.7796 141.823C85.0498 141.677 85.28 141.466 85.4501 141.21C85.569 141.008 85.6358 140.78 85.6445 140.546C85.6533 140.312 85.6036 140.08 85.5 139.87C85.4494 139.73 85.4093 139.586 85.38 139.44H85.4301C85.7258 139.44 86.0164 139.363 86.2739 139.218C86.5314 139.072 86.7471 138.863 86.9001 138.61L87.04 138.4C87.3829 138.015 87.5978 137.533 87.6551 137.021C87.7124 136.509 87.6093 135.991 87.3601 135.54C87.2567 135.361 87.176 135.169 87.12 134.97C87.243 134.956 87.3671 134.956 87.4901 134.97H87.6401C88.093 134.988 88.5399 134.862 88.9171 134.611C89.2942 134.359 89.5823 133.995 89.7401 133.57C89.862 133.243 89.8882 132.887 89.8156 132.545C89.743 132.204 89.5746 131.89 89.3301 131.64C89.8363 131.436 90.2553 131.062 90.5147 130.581C90.774 130.101 90.8572 129.545 90.75 129.01C90.7475 128.744 90.6872 128.482 90.5732 128.242C90.4593 128.002 90.2944 127.79 90.09 127.62C90.3177 127.374 90.5005 127.089 90.63 126.78C90.7077 126.591 90.7615 126.393 90.79 126.19C91.2184 126.521 91.7312 126.726 92.2701 126.78H92.48C92.8231 126.782 93.1615 126.701 93.4668 126.545C93.7721 126.388 94.0353 126.161 94.2343 125.882C94.4333 125.602 94.5622 125.279 94.6102 124.939C94.6582 124.6 94.6239 124.254 94.51 123.93C94.5196 123.78 94.5196 123.63 94.51 123.48C94.6859 123.438 94.8568 123.378 95.0201 123.3C95.5235 123.058 95.9371 122.662 96.2012 122.169C96.4654 121.677 96.5665 121.114 96.4901 120.56C96.4901 120.49 96.4901 120.37 96.4901 120.26H96.6701C97.0502 120.283 97.4309 120.223 97.7851 120.083C98.1394 119.943 98.4585 119.727 98.72 119.45C98.8982 119.203 99.0202 118.921 99.0772 118.622C99.1342 118.323 99.125 118.015 99.0501 117.72C99.1218 117.543 99.2196 117.378 99.34 117.23C99.4847 117.024 99.6118 116.807 99.72 116.58C100.086 116.737 100.482 116.815 100.88 116.81H101.19C101.822 116.724 102.426 116.5 102.962 116.154C103.498 115.809 103.951 115.35 104.29 114.81C104.573 114.381 104.941 114.013 105.37 113.73C105.628 113.596 105.827 113.372 105.93 113.1V113.1C106.146 113.1 106.358 113.048 106.549 112.949C106.741 112.85 106.906 112.706 107.03 112.53C107.358 112.153 107.731 111.818 108.14 111.53C109.015 110.942 109.707 110.121 110.14 109.16C110.146 109.137 110.146 109.113 110.14 109.09C110.377 109.158 110.623 109.192 110.87 109.19C111.348 109.19 111.818 109.065 112.233 108.828C112.649 108.592 112.996 108.251 113.24 107.84C113.325 107.685 113.392 107.521 113.44 107.35C113.804 107.345 114.163 107.259 114.49 107.1L115.07 106.86C116.368 106.483 117.473 105.624 118.16 104.46C118.461 104.647 118.806 104.75 119.16 104.76C119.527 104.728 119.882 104.611 120.196 104.418C120.51 104.225 120.775 103.963 120.97 103.65L121.25 103.31C121.502 103.235 121.735 103.107 121.933 102.935C122.132 102.762 122.291 102.549 122.4 102.31C122.792 102.492 123.218 102.588 123.65 102.59C124.08 102.576 124.504 102.475 124.894 102.293C125.284 102.111 125.633 101.851 125.92 101.53C126.129 101.31 126.409 101.168 126.71 101.13C126.77 101.13 126.93 101.13 127.16 101.43C127.311 101.65 127.513 101.83 127.747 101.957C127.982 102.084 128.243 102.154 128.51 102.16C128.76 102.157 129.006 102.091 129.224 101.969C129.442 101.847 129.627 101.672 129.76 101.46L129.97 101.21C130.262 100.9 130.487 100.532 130.63 100.13C130.831 100.476 131.099 100.777 131.419 101.018C131.738 101.258 132.102 101.432 132.49 101.53C132.689 101.582 132.894 101.609 133.1 101.61C133.507 101.638 133.911 101.523 134.243 101.286C134.575 101.049 134.814 100.704 134.92 100.31C135.06 99.7001 135.23 99.58 135.29 99.57C135.659 99.6252 136.019 99.7294 136.36 99.88L136.94 100.09C137.172 100.169 137.415 100.209 137.66 100.21C137.999 100.221 138.333 100.133 138.621 99.9546C138.909 99.7767 139.138 99.5177 139.28 99.2101C139.409 98.9238 139.45 98.6058 139.398 98.2961C139.347 97.9865 139.205 97.6991 138.99 97.4701C138.898 97.3543 138.83 97.2211 138.79 97.0785C138.751 96.9359 138.741 96.7867 138.76 96.64C138.904 96.6925 139.057 96.7196 139.21 96.7201C140.119 96.7962 140.994 97.095 141.76 97.5901C142.489 98.0176 143.269 98.3535 144.08 98.5901C144.176 98.5999 144.274 98.5999 144.37 98.5901C144.483 98.6004 144.597 98.6004 144.71 98.5901C144.832 99.0446 145.088 99.4519 145.445 99.7587C145.801 100.066 146.242 100.258 146.71 100.31C146.883 100.325 147.057 100.325 147.23 100.31C147.776 100.312 148.31 100.154 148.767 99.8554C149.224 99.5568 149.583 99.1307 149.8 98.63C149.89 98.46 150.07 98.0801 150.08 98.0601C150.16 98.3501 150.25 98.63 150.34 98.89L150.44 99.16C150.565 99.4866 150.782 99.7704 151.064 99.9778C151.346 100.185 151.681 100.307 152.03 100.33C152.233 100.328 152.431 100.274 152.607 100.172C152.782 100.071 152.928 99.9251 153.03 99.7501C153.368 99.3081 153.816 98.9632 154.33 98.7501C154.675 98.5706 155.009 98.3702 155.33 98.1501C155.435 98.6053 155.633 99.0341 155.91 99.41C155.985 99.5054 156.049 99.6095 156.1 99.7201C156.189 100.029 156.375 100.301 156.631 100.496C156.886 100.691 157.199 100.797 157.52 100.8C158.018 100.762 158.491 100.566 158.87 100.24L159.1 100.08C159.25 99.99 159.4 99.8701 159.56 99.7501L159.8 99.5601L159.92 99.7201C160.095 100.022 160.345 100.274 160.647 100.449C160.949 100.625 161.291 100.718 161.64 100.72C162.052 100.696 162.453 100.58 162.813 100.379C163.173 100.178 163.483 99.898 163.72 99.5601C163.768 99.4855 163.833 99.4231 163.909 99.378C163.986 99.3328 164.072 99.3061 164.16 99.3C164.246 99.3056 164.329 99.3347 164.399 99.384C164.47 99.4334 164.525 99.5012 164.56 99.58C165.62 101.38 167.23 103.45 170.26 103.45H170.49L170.7 103.78C170.889 104.133 171.147 104.445 171.459 104.697C171.77 104.949 172.129 105.135 172.514 105.246C172.899 105.357 173.302 105.39 173.7 105.342C174.098 105.295 174.482 105.168 174.83 104.97C175.144 104.827 175.485 104.755 175.83 104.76C176.143 104.74 176.456 104.794 176.745 104.917C177.033 105.04 177.288 105.23 177.49 105.47C177.708 105.86 178.026 106.186 178.41 106.414C178.795 106.643 179.233 106.765 179.68 106.77C180.021 106.767 180.359 106.706 180.68 106.59C180.576 106.969 180.551 107.366 180.608 107.755C180.665 108.144 180.802 108.517 181.01 108.85C181.318 109.25 181.72 109.568 182.181 109.776C182.641 109.983 183.146 110.074 183.65 110.04C184.707 111.246 186.176 112.013 187.77 112.19C188.18 112.28 188.58 112.37 188.96 112.49C189.044 112.51 189.124 112.54 189.2 112.58L189.12 112.87C188.971 113.198 188.894 113.555 188.894 113.915C188.894 114.275 188.971 114.632 189.12 114.96C189.254 115.179 189.433 115.368 189.645 115.512C189.857 115.657 190.097 115.755 190.35 115.8C190.573 115.851 190.801 115.878 191.03 115.88C191.332 115.88 191.632 115.833 191.92 115.74C192.012 115.993 192.132 116.235 192.28 116.46C193.081 117.619 194.257 118.466 195.61 118.86L196.61 119.27C197.95 119.8 197.97 119.83 197.61 120.7C197.42 121.22 197.61 121.76 198.05 122.58C198.05 122.58 199.94 126.13 201.05 126.42C201.376 126.508 201.712 126.551 202.05 126.55C202.347 126.554 202.642 126.503 202.92 126.4C202.838 126.585 202.768 126.776 202.71 126.97C202.56 127.399 202.506 127.856 202.551 128.309C202.596 128.761 202.739 129.198 202.97 129.59C203.167 129.879 203.426 130.119 203.73 130.292C204.033 130.465 204.372 130.567 204.72 130.59C204.931 130.585 205.14 130.624 205.335 130.705C205.529 130.786 205.705 130.907 205.85 131.06C205.97 131.27 205.9 131.66 205.67 132.14C205.439 132.49 205.301 132.893 205.269 133.312C205.238 133.73 205.314 134.149 205.49 134.53C205.669 134.797 205.917 135.01 206.207 135.148C206.498 135.285 206.82 135.341 207.14 135.31C207.293 135.319 207.447 135.319 207.6 135.31H207.89H208.02C208.07 135.46 208.13 135.61 208.19 135.75C208.432 136.2 208.526 136.714 208.46 137.22C208.11 138.92 209.36 140.61 210.37 141.43C210.03 141.704 209.771 142.066 209.621 142.477C209.471 142.887 209.436 143.331 209.52 143.76C209.596 144.156 209.807 144.514 210.117 144.773C210.427 145.032 210.816 145.176 211.22 145.18H211.91C211.862 145.421 211.799 145.658 211.72 145.89C211.67 146.07 211.61 146.24 211.57 146.4C211.439 146.736 211.376 147.094 211.383 147.454C211.391 147.814 211.469 148.169 211.614 148.498C211.759 148.828 211.967 149.126 212.228 149.375C212.488 149.624 212.794 149.82 213.13 149.95C213.223 149.994 213.314 150.044 213.4 150.1C213.371 150.179 213.331 150.253 213.28 150.32C212.97 150.652 212.762 151.066 212.68 151.513C212.599 151.959 212.647 152.42 212.82 152.84C213.033 153.219 213.348 153.53 213.731 153.738C214.113 153.945 214.546 154.039 214.98 154.01C215.13 154.01 215.14 154.01 215.36 154.39L215.51 154.62C215.474 154.892 215.474 155.168 215.51 155.44H215.33C214.96 155.442 214.597 155.547 214.283 155.743C213.969 155.939 213.715 156.218 213.55 156.55C213.368 156.968 213.333 157.436 213.453 157.876C213.574 158.317 213.841 158.702 214.21 158.97V158.97Z" fill="#FFFFFF"/>
<path d="M68.9999 90.4599C68.9909 90.8164 69.0723 91.1695 69.2367 91.486C69.4011 91.8025 69.643 92.0722 69.9399 92.2699C70.1399 92.4199 70.1699 92.4999 70.1699 92.4999C70.153 92.6629 70.1194 92.8237 70.0699 92.9799C69.9922 93.2348 69.9353 93.4957 69.8999 93.7599C69.8528 94.0245 69.7757 94.2828 69.6699 94.5299C69.3399 95.4399 68.6699 97.2999 70.8499 98.4799C70.4529 98.7674 70.1544 99.1705 69.9951 99.6341C69.8358 100.098 69.8235 100.599 69.9599 101.07C69.9585 102.149 70.3659 103.189 71.0999 103.98C71.3459 104.276 71.6507 104.518 71.995 104.69C72.3392 104.862 72.7155 104.961 73.0999 104.98C73.3961 104.981 73.6891 104.92 73.9599 104.8C74.2899 104.66 74.6299 104.55 74.9599 104.44C76.4199 103.97 78.4299 103.33 78.7599 100.57C78.8003 100.159 78.7766 99.7438 78.6899 99.3399C78.6199 98.9299 78.5999 98.7499 78.6899 98.6199C78.9473 98.1784 79.0422 97.6609 78.9582 97.1569C78.8742 96.6528 78.6166 96.194 78.2299 95.8599C79.3999 95.6899 79.57 94.5099 79.65 93.9899C79.7058 93.4155 79.6235 92.836 79.4099 92.2999C79.2999 91.9699 79.2299 91.7599 79.2799 91.6199C79.8834 90.1874 79.9014 88.5754 79.33 87.1299C79.8107 86.9593 80.2172 86.627 80.4799 86.1899C80.6108 85.9328 80.679 85.6484 80.679 85.3599C80.679 85.0714 80.6108 84.787 80.4799 84.5299L80.4099 84.3799C80.2177 83.8628 79.9331 83.3851 79.5699 82.9699C79.8527 82.7207 80.0773 82.4124 80.2276 82.0668C80.378 81.7211 80.4505 81.3467 80.4399 80.9699C80.4871 80.2526 80.3892 79.5331 80.1521 78.8544C79.915 78.1757 79.5435 77.5518 79.0599 77.0199C78.3966 76.3529 77.525 75.9329 76.5899 75.8299C76.6399 75.7199 76.6799 75.6099 76.7299 75.4899C77.2902 75.4944 77.8327 75.2933 78.2547 74.9248C78.6768 74.5562 78.949 74.0457 79.02 73.4899C79.1419 72.95 79.0766 72.3848 78.835 71.8869C78.5933 71.389 78.1895 70.9881 77.6899 70.7499C78.7026 70.1497 79.4977 69.2424 79.96 68.1599C80.52 67.0599 81.0999 65.5599 80.6299 64.5899C80.4955 64.3296 80.3237 64.0904 80.1199 63.8799C80.055 63.817 79.9979 63.7465 79.9499 63.6699C79.873 63.5552 79.7896 63.445 79.6999 63.3399C80.8099 61.3999 80.0699 59.5699 79.2899 58.1899C78.9399 57.5699 78.76 56.8699 79.83 55.9499C80.1941 55.6204 80.4665 55.2022 80.6208 54.736C80.775 54.2697 80.8058 53.7715 80.71 53.2899C80.6824 52.8469 80.5082 52.4257 80.2149 52.0926C79.9216 51.7595 79.5258 51.5334 79.0899 51.4499L78.8 51.3999C78.7954 51.3467 78.7954 51.2931 78.8 51.2399L78.9199 50.7599C79.2099 49.5199 79.3799 49.3799 79.9199 49.3799H80.1999H80.46C80.911 49.3742 81.3438 49.2012 81.6746 48.8945C82.0053 48.5878 82.2103 48.1692 82.2499 47.7199C82.3551 47.3601 82.3307 46.9748 82.1808 46.6312C82.0309 46.2876 81.7652 46.0076 81.43 45.8399C81.15 45.7499 80.9299 45.4899 80.5999 45.0799C80.3791 44.7904 80.135 44.5195 79.8699 44.2699C80.0248 44.0908 80.1559 43.8925 80.2599 43.6799C80.4705 43.2686 80.5366 42.7985 80.4477 42.3451C80.3589 41.8916 80.1202 41.4813 79.77 41.1799C79.49 40.8899 79.27 40.5399 79.77 39.7399C80.1346 39.1808 80.2635 38.5003 80.1286 37.8466C79.9938 37.1929 79.6061 36.619 79.05 36.2499C78.6715 35.8874 78.2012 35.6349 77.6899 35.5199C77.8776 35.1244 77.9303 34.6782 77.8399 34.2499C77.7226 33.6023 77.3762 33.0186 76.8639 32.6054C76.3516 32.1923 75.7077 31.9774 75.0499 31.9999C74.2851 31.9974 73.5483 32.2872 72.9899 32.8099C72.8699 32.9199 72.7999 32.9799 72.7399 32.9899H72.5099C71.9659 32.9868 71.4374 33.171 71.0132 33.5115C70.5889 33.852 70.2947 34.3281 70.1799 34.8599C70.0679 35.4013 70.1422 35.9648 70.391 36.4586C70.6397 36.9524 71.0482 37.3476 71.5499 37.5799L71.4599 37.6699C71.07 38.0651 70.7622 38.5338 70.5545 39.0487C70.3468 39.5637 70.2433 40.1147 70.2499 40.6699V40.8199C70.3016 41.6082 70.5491 42.3713 70.97 43.0399C70.8375 43.2303 70.7205 43.4309 70.6199 43.6399C70.525 43.833 70.4182 44.0201 70.2999 44.1999C70.1358 44.2198 69.9787 44.2782 69.8415 44.3703C69.7042 44.4624 69.5906 44.5856 69.5099 44.7299C69.4346 44.8733 69.3953 45.0329 69.3953 45.1949C69.3953 45.3569 69.4346 45.5165 69.5099 45.6599C69.5067 45.809 69.4832 45.9571 69.4399 46.0999C69.24 46.6547 69.2639 47.2657 69.5066 47.8032C69.7492 48.3408 70.1916 48.7628 70.7399 48.9799V48.9799C70.6877 49.0502 70.6309 49.117 70.5699 49.1799C69.3999 50.2799 69 51.3199 69.36 52.2899C69.4888 52.6554 69.7304 52.9705 70.0499 53.1899C69.8777 53.3407 69.7172 53.5045 69.5699 53.6799C69.375 53.8962 69.2357 54.1568 69.1643 54.4391C69.0929 54.7214 69.0914 55.0169 69.1599 55.2999C69.2838 55.6513 69.4832 55.9713 69.7441 56.2374C70.005 56.5035 70.321 56.7091 70.6699 56.8399C70.9466 58.3187 70.9023 59.8397 70.5399 61.2999C70.4278 61.7091 70.4119 62.1387 70.4935 62.555C70.575 62.9714 70.7518 63.3632 71.0099 63.6999C71.0815 63.8001 71.1619 63.8938 71.2499 63.9799C70.9531 64.1089 70.6887 64.3023 70.476 64.5462C70.2632 64.7901 70.1074 65.0783 70.0199 65.3899C69.9399 65.6899 69.8499 65.9999 69.7599 66.2999C69.2399 68.0399 68.6499 70.0099 69.4399 72.2199C69.6254 72.6875 69.9083 73.1102 70.2699 73.4599L70.5099 73.7399C70.3223 74.5573 70.1853 75.3856 70.0999 76.2199C70.0352 76.9296 69.925 77.6343 69.7699 78.3299C69.3784 79.9658 69.2402 81.6521 69.36 83.3299C69.3851 83.7898 69.5541 84.2303 69.8429 84.5891C70.1318 84.9479 70.526 85.207 70.97 85.3299L70.9099 85.3799C70.6034 85.5826 70.3446 85.8494 70.1512 86.1619C69.9578 86.4744 69.8346 86.8251 69.7899 87.1899C69.7856 87.6464 69.9295 88.0921 70.1999 88.4599C69.8596 88.6785 69.5742 88.9727 69.3661 89.3196C69.158 89.6665 69.0327 90.0567 68.9999 90.4599V90.4599Z" fill="#FFFFFF"/>
<path d="M142.13 52.5499C142.97 53.0499 143 53.5499 142.27 54.8599L142.11 55.1599C141.739 55.9199 141.536 56.7512 141.515 57.5968C141.494 58.4424 141.656 59.2826 141.99 60.0599C142.1 60.4099 142.23 60.7599 142.36 61.0599C142.49 61.3599 142.63 61.7999 142.74 62.1799C142.222 62.3817 141.803 62.7781 141.573 63.2845C141.343 63.7908 141.321 64.367 141.51 64.8899C141.54 65.0216 141.56 65.1553 141.57 65.2899C141.582 65.8607 141.802 66.4075 142.188 66.8275C142.575 67.2474 143.102 67.5114 143.67 67.5699C143.469 68.1381 143.497 68.7626 143.75 69.3099C143.466 69.3685 143.193 69.4696 142.94 69.6099C142.528 69.8032 142.171 70.0967 141.902 70.4636C141.633 70.8305 141.461 71.259 141.4 71.7099C141.34 72.2799 141.47 73.2799 143.04 73.5599H143.19H143.34C143.335 73.6885 143.315 73.816 143.28 73.9399C143.177 74.2992 143.153 74.6767 143.21 75.0462C143.267 75.4157 143.403 75.7684 143.61 76.0799C143.843 76.378 144.138 76.6218 144.475 76.7945C144.812 76.9671 145.182 77.0645 145.56 77.0799C145.58 77.5871 145.784 78.0699 146.133 78.4379C146.483 78.8059 146.954 79.0341 147.46 79.0799H147.73C148.114 79.068 148.483 78.932 148.782 78.6921C149.082 78.4522 149.295 78.1215 149.39 77.7499C149.411 77.6842 149.437 77.6205 149.47 77.5599L150.04 76.6499C150.91 75.2699 151.81 73.8399 152.77 72.5199C152.991 72.2564 153.155 71.9493 153.25 71.6185C153.344 71.2877 153.368 70.9406 153.32 70.5999C153.2 70.1274 152.912 69.7149 152.51 69.4399C152.752 69.2362 152.943 68.9796 153.07 68.69C153.196 68.4004 153.255 68.0856 153.24 67.7699C153.204 67.4919 153.107 67.2251 152.957 66.9885C152.807 66.7518 152.606 66.5509 152.37 66.3999C152.6 65.4399 152.457 64.4286 151.97 63.5699L151.77 63.0999C151.4 62.0999 151.65 61.5899 152.29 60.3699C152.652 59.4089 152.694 58.3568 152.41 57.3699C152.308 56.9032 152.251 56.4276 152.24 55.9499C152.221 55.5305 152.063 55.1294 151.79 54.8099C152.019 54.5737 152.165 54.2696 152.207 53.9432C152.248 53.6169 152.183 53.2859 152.02 52.9999C151.53 52.1499 151.65 51.2999 152.48 49.8899C152.833 49.29 153.041 48.6156 153.086 47.9208C153.131 47.2261 153.013 46.5305 152.74 45.8899C152.66 45.6566 152.57 45.4166 152.47 45.1699C152.14 44.3699 151.91 43.7299 152.16 43.4699C154.71 40.7599 152.75 38.6599 151.9 37.8099C152.112 37.6334 152.283 37.4135 152.402 37.165C152.521 36.9166 152.585 36.6454 152.59 36.3699C152.594 36.0444 152.501 35.7251 152.323 35.4527C152.145 35.1802 151.89 34.9669 151.59 34.8399C151.282 34.5765 151.03 34.2533 150.85 33.8899C150.33 33.0499 149.62 31.8899 148.23 31.8899C147.526 31.9209 146.848 32.1689 146.29 32.5999H146.04H145.59C144.975 32.519 144.351 32.6626 143.833 33.0042C143.315 33.3458 142.938 33.8626 142.77 34.4599C142.573 34.8631 142.516 35.321 142.611 35.76C142.705 36.199 142.944 36.5934 143.29 36.8799L143.21 36.9499C143.11 37.0499 142.99 37.1399 142.87 37.2399C142.31 37.6899 141.54 38.3099 141.68 39.2399C141.747 39.5463 141.885 39.8326 142.083 40.0758C142.281 40.319 142.534 40.5123 142.82 40.6399C141.905 41.8769 141.429 43.3844 141.469 44.9228C141.509 46.4611 142.062 47.9419 143.04 49.1299C142.49 49.2799 141.36 49.7099 141.18 50.7199C141.095 51.0881 141.144 51.4744 141.318 51.8098C141.492 52.1451 141.78 52.4075 142.13 52.5499V52.5499Z" fill="#FFFFFF"/>
<path d="M178.37 57.65C178.273 58.0046 178.121 58.342 177.92 58.65C177.58 59.1841 177.461 59.83 177.59 60.45C177.651 60.6493 177.752 60.8343 177.886 60.994C178.02 61.1537 178.185 61.285 178.37 61.38C178.459 61.4188 178.54 61.4729 178.61 61.54C178.592 61.7456 178.545 61.9477 178.47 62.14C178.37 62.4132 178.293 62.6941 178.24 62.98C178.24 63.05 178.24 63.12 178.18 63.2C178.023 63.5194 177.96 63.8765 177.997 64.2303C178.034 64.5841 178.17 64.9202 178.39 65.2C178.62 65.49 178.55 65.86 178.3 66.59L178.22 66.8C177.77 68.17 177.42 69.24 178.02 70.07C178.296 70.3602 178.636 70.5812 179.013 70.715C179.39 70.8489 179.793 70.8917 180.19 70.84V70.84H181.09C181.075 70.9763 181.075 71.1138 181.09 71.25H180.83C180.581 71.2445 180.333 71.2905 180.103 71.3852C179.872 71.4798 179.664 71.621 179.49 71.8C179.32 71.9899 179.193 72.214 179.117 72.4572C179.041 72.7005 179.018 72.9572 179.05 73.21C179.15 74.42 179.32 76.66 181.44 77.5C182.126 77.8191 182.865 78.0057 183.62 78.05C184.096 78.0599 184.566 77.9393 184.978 77.7013C185.391 77.4634 185.73 77.1171 185.96 76.7H186.12C186.558 76.68 186.982 76.5409 187.347 76.2978C187.712 76.0546 188.003 75.7166 188.19 75.32C188.25 75.23 188.31 75.13 188.38 75.04C188.526 74.8658 188.634 74.6625 188.696 74.4436C188.758 74.2247 188.773 73.9951 188.74 73.77C188.683 73.5283 188.573 73.302 188.42 73.1069C188.266 72.9117 188.072 72.7524 187.85 72.64H187.78C187.345 72.0906 187.094 71.4178 187.064 70.7175C187.033 70.0173 187.224 69.3253 187.61 68.74C188.176 67.9864 188.55 67.1065 188.699 66.1762C188.849 65.2459 188.77 64.2932 188.47 63.4C188.103 62.2066 188.055 60.9379 188.33 59.7201C188.57 58.4001 188.63 57.23 187.09 56.21C186.89 56.08 186.81 55.92 186.83 55.86C187.35 55.3267 187.723 54.6677 187.912 53.9474C188.101 53.2271 188.1 52.4701 187.91 51.7501C187.79 51.3937 187.618 51.0568 187.4 50.7501C187.723 50.6811 188.019 50.524 188.258 50.2963C188.496 50.0685 188.667 49.779 188.75 49.46L188.88 49.09C189.28 47.98 190.07 45.77 187.88 44.51C188.185 43.4546 188.254 42.3449 188.08 41.26L188.03 40.7501C188.098 40.4963 188.203 40.2538 188.34 40.03C188.574 39.6929 188.737 39.3113 188.818 38.9088C188.899 38.5063 188.896 38.0915 188.81 37.69C188.67 37.2541 188.402 36.8707 188.04 36.59C188.11 36.1445 188.062 35.6884 187.9 35.2673C187.739 34.8462 187.47 34.4748 187.12 34.19L186.9 33.96C186.632 33.6366 186.293 33.3785 185.91 33.2053C185.527 33.032 185.11 32.9482 184.69 32.96C184.439 32.9618 184.189 32.9785 183.94 33.01H183.42C183.341 33.0218 183.26 33.0218 183.18 33.01L182.78 32.9C182.435 32.7815 182.075 32.7109 181.71 32.69C181.487 32.6838 181.265 32.7293 181.062 32.8229C180.859 32.9166 180.68 33.0559 180.54 33.23C180.391 33.4467 180.285 33.6907 180.231 33.9481C180.176 34.2055 180.172 34.4712 180.22 34.73C179.22 34.98 177.98 35.39 177.68 36.52C177.619 36.9816 177.679 37.4512 177.854 37.8826C178.029 38.314 178.314 38.6922 178.68 38.98C178.666 39.3793 178.699 39.7788 178.78 40.17C178.91 40.94 178.91 40.94 178.52 41.09C177.73 41.39 177.75 42.28 177.76 42.61C177.811 43.3143 177.948 44.0096 178.17 44.68C178.52 45.86 178.69 46.57 178.17 47.38C178.058 47.5647 177.991 47.773 177.974 47.9882C177.956 48.2035 177.989 48.4198 178.07 48.62C178.241 48.9722 178.484 49.2843 178.784 49.5358C179.084 49.7874 179.434 49.9729 179.81 50.08H179.88C179.692 50.1848 179.523 50.3199 179.38 50.48C179.176 50.7394 179.033 51.0409 178.96 51.3627C178.888 51.6844 178.888 52.0183 178.96 52.34C178.96 52.59 178.96 52.64 178.96 52.68C178.779 52.9257 178.653 53.2069 178.589 53.5052C178.525 53.8035 178.525 54.1119 178.59 54.41C178.891 54.5774 179.138 54.8266 179.302 55.1286C179.467 55.4306 179.543 55.7731 179.521 56.1164C179.499 56.4597 179.38 56.7897 179.178 57.0682C178.976 57.3468 178.7 57.5623 178.38 57.69L178.37 57.65Z" fill="#FFFFFF"/>
<path d="M106.51 56.24C106.31 56.6424 106.206 57.0856 106.206 57.5349C106.206 57.9843 106.31 58.4276 106.51 58.83C106.787 59.3436 106.899 59.9303 106.83 60.5099C106.56 61.3599 105.93 63.33 107.7 64.64C106.929 65.0993 106.294 65.755 105.86 66.5399C105.497 67.08 105.281 67.706 105.236 68.3553C105.19 69.0045 105.316 69.6544 105.6 70.24C105.896 70.7814 106.369 71.2049 106.94 71.4399C106.881 71.5868 106.831 71.7371 106.79 71.89L106.74 72.05C106.538 72.7796 106.538 73.5503 106.74 74.28C106.784 74.4781 106.817 74.6783 106.84 74.8799V75.0099C106.91 75.7799 107.1 77.84 109 77.84H109.32C109.814 77.788 110.276 77.5693 110.63 77.22C110.773 77.3995 110.937 77.5607 111.12 77.7C111.558 78.0478 112.1 78.2381 112.66 78.24C113.018 78.2411 113.371 78.1596 113.692 78.0017C114.012 77.8439 114.293 77.614 114.51 77.33C114.61 77.21 114.72 77.0999 114.83 76.9799C115.348 76.6005 115.713 76.0468 115.856 75.4205C115.999 74.7941 115.912 74.1371 115.61 73.5699C114.94 72.4199 114.96 71.7099 115.71 70.8499C116.193 70.2955 116.459 69.5852 116.46 68.8499C116.439 68.5724 116.35 68.3044 116.2 68.0699L116.25 68C116.556 67.6657 116.78 67.2651 116.905 66.8296C117.03 66.3941 117.052 65.9355 116.97 65.49C116.814 65.0451 116.506 64.6697 116.1 64.43C116.381 63.6903 116.412 62.8792 116.19 62.12L116.13 61.83C116.075 61.5411 115.988 61.2594 115.87 60.99C115.824 60.8857 115.784 60.7788 115.75 60.67C116.035 60.3948 116.256 60.0606 116.397 59.6909C116.539 59.3212 116.598 58.9249 116.57 58.53C116.41 57.43 115.42 56.8499 114.57 56.3499L114.39 56.21C114.722 56.0994 115.039 55.9447 115.33 55.75C116.59 54.94 116.98 52.84 117.06 52.22C117.19 51.639 117.202 51.0378 117.096 50.4521C116.989 49.8664 116.766 49.308 116.44 48.81C116.313 48.6668 116.16 48.5482 115.99 48.46C116.403 48.3409 116.753 48.0652 116.966 47.6916C117.179 47.3181 117.238 46.8761 117.13 46.46C116.983 45.9312 116.665 45.4663 116.225 45.1386C115.785 44.8108 115.248 44.6389 114.7 44.65H114.57C114.848 44.1462 115.085 43.6212 115.28 43.08C115.493 42.3376 115.873 41.6536 116.39 41.08C116.686 40.8632 116.915 40.5667 117.05 40.2251C117.184 39.8834 117.219 39.5106 117.15 39.15C117.048 38.7973 116.847 38.4815 116.57 38.2404C116.293 37.9992 115.953 37.8428 115.59 37.7899C115.447 37.6713 115.325 37.5293 115.23 37.37C115.105 37.1879 114.968 37.0142 114.82 36.8499C114.922 36.4156 114.916 35.9631 114.805 35.5312C114.694 35.0993 114.479 34.7009 114.18 34.37C114.046 34.2001 113.932 34.0156 113.84 33.8199C113.41 32.3499 112.43 32.2 112.03 32.2C111.68 32.2159 111.339 32.315 111.034 32.4888C110.73 32.6627 110.471 32.9065 110.28 33.2C110.06 33.49 109.87 33.52 109.33 33.56H109.22C109.035 33.5252 108.848 33.5084 108.66 33.5099C108.06 33.5147 107.48 33.7293 107.022 34.1165C106.563 34.5037 106.255 35.0391 106.15 35.6299C106.089 35.8274 106.008 36.0183 105.91 36.2L105.85 36.3C105.559 36.6579 105.414 37.1131 105.446 37.5735C105.477 38.0339 105.682 38.4652 106.02 38.78L106.5 39.2C106.232 39.4726 106.058 39.8224 106 40.2C105.953 40.4982 105.98 40.8034 106.077 41.0892C106.175 41.3749 106.34 41.6326 106.56 41.84C106.314 42.31 106.172 42.8271 106.143 43.3566C106.114 43.8861 106.198 44.4157 106.39 44.9099C106.489 45.235 106.55 45.5707 106.57 45.9099C106.57 46.0699 106.57 46.26 106.62 46.45C106.62 46.45 106.62 46.5099 106.62 46.5399C106.263 47.0723 106.072 47.6989 106.072 48.34C106.072 48.9811 106.263 49.6076 106.62 50.14C106.812 50.4673 106.932 50.8323 106.97 51.21C106.597 51.2625 106.245 51.4133 105.95 51.6471C105.654 51.8808 105.427 52.189 105.29 52.5399C105.188 52.9527 105.208 53.3862 105.349 53.7875C105.489 54.1888 105.743 54.5406 106.08 54.8C106.84 55.63 106.77 55.83 106.51 56.24Z" fill="#FFFFFF"/>
<path d="M225.38 89.88C225.626 89.4418 225.747 88.9447 225.731 88.4425C225.716 87.9403 225.563 87.4519 225.29 87.03C225.07 86.6977 224.811 86.3923 224.52 86.12C224.05 85.64 223.93 85.49 223.96 85.12C223.981 84.9409 223.964 84.7594 223.911 84.5872C223.858 84.4149 223.769 84.2558 223.65 84.12V84.12C224.055 84.083 224.444 83.9444 224.781 83.7172C225.119 83.49 225.393 83.1814 225.58 82.82C225.697 82.5526 225.736 82.2573 225.691 81.9687C225.647 81.6801 225.522 81.41 225.33 81.19L225.08 80.88C224.716 80.3591 224.254 79.9142 223.72 79.57C223.979 79.1276 224.133 78.6315 224.17 78.12C224.17 77.96 224.17 77.8 224.24 77.65C224.7 75.65 223.87 74.3 223.07 73.04L222.86 72.71C222.644 72.3621 222.407 72.0281 222.15 71.71C222.751 71.5382 223.306 71.2358 223.776 70.8243C224.246 70.4129 224.62 69.9026 224.87 69.33C225.052 68.8995 225.078 68.4187 224.943 67.9712C224.808 67.5236 224.52 67.1375 224.13 66.88C224.594 66.5988 224.928 66.1461 225.06 65.62C225.106 65.3839 225.1 65.1403 225.041 64.9069C224.983 64.6735 224.873 64.456 224.72 64.27C224.53 64.02 224.55 63.77 224.65 63.13C224.787 62.4851 224.77 61.817 224.6 61.18C224.587 61.0938 224.587 61.0062 224.6 60.92C224.608 60.55 224.521 60.1841 224.345 59.8581C224.17 59.5321 223.913 59.2571 223.6 59.06C223.273 58.8752 222.905 58.7755 222.53 58.77C222.91 58.6158 223.254 58.3853 223.541 58.093C223.828 57.8006 224.052 57.4524 224.2 57.07C224.339 56.5557 224.354 56.0158 224.245 55.4945C224.135 54.9731 223.904 54.485 223.57 54.07C223.285 53.6263 223.082 53.1353 222.97 52.62C223.535 52.4557 224.039 52.1288 224.42 51.68C224.717 51.4353 224.96 51.1308 225.132 50.7862C225.305 50.4417 225.403 50.0648 225.42 49.68C225.392 49.3896 225.307 49.1075 225.17 48.85C225.033 48.5925 224.846 48.3649 224.62 48.18C224.98 47.7746 225.2 47.2636 225.247 46.7231C225.294 46.1826 225.165 45.6414 224.88 45.18C224.794 45.0045 224.726 44.82 224.68 44.63C224.605 44.2919 224.439 43.9806 224.2 43.73C224.365 43.0526 224.446 42.3573 224.44 41.66C224.44 40.43 224.55 39.66 225.26 38.99C225.582 38.7265 225.814 38.3691 225.923 37.9676C226.033 37.5661 226.014 37.1405 225.87 36.75C225.687 36.3084 225.38 35.9296 224.986 35.6596C224.592 35.3897 224.128 35.2404 223.65 35.23C223.661 35.0435 223.661 34.8565 223.65 34.67C223.645 34.6201 223.645 34.5699 223.65 34.52C223.678 34.2327 223.611 33.944 223.459 33.6984C223.307 33.4527 223.079 33.2636 222.81 33.16C221.7 32.85 220.59 32.56 219.48 32.27L218.75 32.08C218.661 32.0655 218.569 32.0655 218.48 32.08C218.273 32.0784 218.07 32.1413 217.9 32.26C217.776 32.3405 217.67 32.4462 217.589 32.5702C217.508 32.6942 217.454 32.8338 217.43 32.98C217.232 33.5328 216.886 34.0206 216.43 34.39C215.726 34.9816 215.264 35.8106 215.13 36.72C215.096 37.2096 215.036 37.697 214.95 38.18C214.664 39.3664 214.664 40.6036 214.95 41.79C215.26 43.1448 215.311 44.5462 215.1 45.92V46.23C215.055 46.759 215.055 47.291 215.1 47.82C215.216 48.5446 215.151 49.2869 214.91 49.98C214.819 50.2177 214.784 50.4732 214.809 50.7264C214.833 50.9797 214.916 51.2239 215.05 51.44C215.129 51.6036 215.241 51.7492 215.378 51.8679C215.516 51.9865 215.677 52.0757 215.85 52.13C215.68 52.4368 215.584 52.7793 215.57 53.13C215.553 53.2897 215.519 53.4472 215.47 53.6C215.341 54.0141 215.28 54.4464 215.29 54.88C214.997 54.9221 214.719 55.0353 214.481 55.2096C214.242 55.3839 214.049 55.6141 213.92 55.88C213.792 56.2466 213.769 56.6421 213.856 57.0207C213.943 57.3994 214.135 57.7458 214.41 58.02C214.596 58.3259 214.718 58.6659 214.77 59.02C214.888 59.7948 215.236 60.5162 215.77 61.09C214.07 62.42 214.56 64.18 214.87 65.27C215.02 65.6904 215.098 66.1334 215.1 66.58C215.069 66.7721 215.069 66.9679 215.1 67.16C214.6 67.56 214.1 68.31 214.89 69.56C214.89 69.62 214.96 69.67 214.98 69.72C215.074 69.9245 215.212 70.1053 215.385 70.2489C215.558 70.3926 215.762 70.4955 215.98 70.55C215.652 70.9309 215.418 71.3839 215.298 71.8723C215.178 72.3606 215.175 72.8704 215.29 73.36C215.302 73.7809 215.459 74.1848 215.734 74.5036C216.009 74.8224 216.385 75.0366 216.8 75.11C216.237 75.2233 215.689 75.4046 215.17 75.65C214.84 75.7697 214.543 75.9678 214.306 76.2273C214.069 76.4869 213.899 76.8001 213.81 77.14C213.745 77.4717 213.748 77.8133 213.821 78.1436C213.893 78.4738 214.032 78.7858 214.23 79.06C213.968 79.5269 213.892 80.0752 214.016 80.5959C214.14 81.1166 214.456 81.5715 214.9 81.87C214.628 82.002 214.39 82.1938 214.203 82.4311C214.016 82.6683 213.885 82.9449 213.82 83.24C213.793 83.6311 213.862 84.0228 214.023 84.3804C214.183 84.7381 214.43 85.0505 214.74 85.29C215.09 85.61 215.08 85.96 214.87 86.99L214.82 87.29C214.76 87.57 214.67 87.85 214.58 88.13C214.24 89.25 213.66 91.07 215.52 92.4C215.52 92.6 215.52 92.8 215.47 93C215.435 94.2593 215.226 95.5077 214.85 96.71L214.72 97.04C214.394 97.549 214.28 98.165 214.401 98.757C214.522 99.3491 214.87 99.8704 215.37 100.21C215.241 100.692 215.22 101.197 215.31 101.689C215.4 102.18 215.598 102.645 215.89 103.05C216.133 103.51 216.475 103.911 216.892 104.222C217.309 104.534 217.79 104.748 218.3 104.85H218.45C219.9 104.85 222.15 102.3 222.17 102.28C222.686 101.796 223 101.135 223.05 100.43C223.481 100.385 223.895 100.237 224.256 99.998C224.618 99.7593 224.917 99.437 225.128 99.0585C225.338 98.6799 225.455 98.2562 225.468 97.8231C225.48 97.39 225.388 96.9602 225.2 96.57C225.073 96.3273 224.897 96.1132 224.684 95.9412C224.47 95.7692 224.224 95.6428 223.96 95.57C223.827 95.5344 223.697 95.491 223.57 95.44C223.64 95.33 223.72 95.21 223.79 95.12C223.86 95.03 224.07 94.71 224.19 94.51C224.349 94.1939 224.463 93.8574 224.53 93.51C224.53 93.38 224.59 93.25 224.63 93.13C224.811 92.781 224.906 92.3934 224.906 92C224.906 91.6066 224.811 91.2191 224.63 90.87C224.596 90.8215 224.559 90.7747 224.52 90.73C224.867 90.5151 225.161 90.2245 225.38 89.88V89.88ZM218.17 74.97H218.3C218.305 75.0333 218.305 75.0968 218.3 75.16C218.305 75.2099 218.305 75.2601 218.3 75.31C218.095 75.2263 217.88 75.1725 217.66 75.15C217.833 75.0997 218.003 75.0396 218.17 74.97Z" fill="#FFFFFF"/>
</svg>
