<svg width="205" height="205" viewBox="0 0 205 205" fill="none"
  xmlns="http://www.w3.org/2000/svg">
  <path d="M205 0H0V205H205V0Z" fill="#E3243C"/>
  <path d="M28.6231 26.9575H28.6744V58.6044H35.6187V17.2712H30.0837L23.6775 24.7537V32.0056H23.7544L28.6231 26.9575Z" fill="white"/>
  <path d="M157.85 97.8106C157.85 96.6854 158.184 95.5856 158.809 94.6501C159.434 93.7146 160.322 92.9854 161.362 92.5548C162.401 92.1243 163.545 92.0116 164.649 92.2311C165.752 92.4507 166.766 92.9924 167.561 93.788C168.357 94.5836 168.899 95.5972 169.118 96.7007C169.338 97.8043 169.225 98.9481 168.795 99.9875C168.364 101.027 167.635 101.915 166.699 102.541C165.764 103.166 164.664 103.499 163.539 103.499C162.032 103.493 160.589 102.891 159.524 101.826C158.458 100.76 157.857 99.3172 157.85 97.8106Z" fill="white"/>
  <path d="M170.099 105.677C171.966 105.878 173.696 106.754 174.961 108.142C176.226 109.53 176.939 111.333 176.966 113.211V128.945C176.966 129.529 176.734 130.09 176.321 130.503C175.907 130.917 175.347 131.149 174.762 131.149C174.178 131.149 173.617 130.917 173.204 130.503C172.791 130.09 172.559 129.529 172.559 128.945V115.441C172.559 114.928 172.405 114.236 171.482 114.236C170.56 114.236 170.714 114.928 170.688 115.338V155.851C170.617 156.641 170.253 157.376 169.667 157.912C169.081 158.447 168.317 158.744 167.523 158.744C166.73 158.744 165.965 158.447 165.38 157.912C164.794 157.376 164.43 156.641 164.359 155.851V132.558C164.37 132.436 164.355 132.313 164.314 132.198C164.274 132.083 164.208 131.978 164.123 131.89C164.038 131.802 163.935 131.734 163.82 131.69C163.706 131.646 163.584 131.628 163.462 131.636C163.339 131.628 163.215 131.647 163.1 131.691C162.985 131.734 162.88 131.802 162.793 131.889C162.706 131.976 162.638 132.081 162.594 132.196C162.551 132.312 162.532 132.435 162.539 132.558V155.902C162.539 156.738 162.207 157.54 161.616 158.131C161.025 158.722 160.223 159.054 159.387 159.054C158.552 159.054 157.75 158.722 157.159 158.131C156.568 157.54 156.236 156.738 156.236 155.902V115.338C156.236 114.928 156.056 114.236 155.441 114.236C154.826 114.236 154.365 114.928 154.365 115.441V128.945C154.365 129.529 154.133 130.09 153.72 130.503C153.306 130.917 152.746 131.149 152.161 131.149C151.577 131.149 151.016 130.917 150.603 130.503C150.19 130.09 149.958 129.529 149.958 128.945V113.211C149.984 111.333 150.698 109.53 151.963 108.142C153.228 106.754 154.958 105.878 156.825 105.677H170.099Z" fill="white"/>
  <path d="M124.102 100.783C124.102 99.7177 123.786 98.6763 123.193 97.7908C122.601 96.9053 121.759 96.2155 120.774 95.809C119.789 95.4025 118.706 95.2974 117.661 95.5072C116.617 95.7169 115.658 96.232 114.906 96.9871C114.155 97.7423 113.644 98.7035 113.44 99.749C113.235 100.795 113.345 101.877 113.756 102.86C114.168 103.843 114.861 104.682 115.75 105.27C116.638 105.858 117.681 106.169 118.746 106.164C119.452 106.164 120.15 106.025 120.802 105.754C121.453 105.483 122.045 105.087 122.542 104.587C123.04 104.087 123.434 103.493 123.702 102.84C123.969 102.188 124.105 101.489 124.102 100.783Z" fill="white"/>
  <path d="M107.907 112.955L103.474 127.433C103.474 127.433 102.679 129.996 104.934 130.764C107.189 131.533 107.881 128.817 107.881 128.817L111.469 116.696C111.469 116.696 111.674 115.748 112.366 115.953C113.058 116.158 112.801 117.157 112.801 117.157L106.549 139.912H112.366V156.184C112.432 156.882 112.757 157.53 113.276 158.002C113.795 158.473 114.471 158.735 115.172 158.735C115.873 158.735 116.549 158.473 117.067 158.002C117.586 157.53 117.911 156.882 117.978 156.184V139.989H119.566V156.261C119.566 157.002 119.861 157.712 120.384 158.236C120.908 158.76 121.619 159.054 122.359 159.054C123.1 159.054 123.811 158.76 124.335 158.236C124.858 157.712 125.153 157.002 125.153 156.261V139.989H130.995L124.691 117.183C124.691 117.183 124.435 116.184 125.127 115.979C125.819 115.774 126.024 116.722 126.024 116.722L129.637 128.842C129.637 128.842 130.329 131.405 132.558 130.79C134.788 130.175 134.044 127.459 134.044 127.459L129.56 112.904C129.56 112.904 127.971 108.701 124.435 108.701H113.058C109.521 108.701 107.933 112.904 107.933 112.904" fill="white"/>
  <path d="M91.9168 100.783C91.9168 99.7177 91.6005 98.6763 91.0081 97.7908C90.4157 96.9053 89.5737 96.2155 88.5889 95.809C87.6041 95.4025 86.5208 95.2974 85.4763 95.5072C84.4317 95.7169 83.473 96.232 82.7214 96.9871C81.9699 97.7423 81.4593 98.7035 81.2546 99.749C81.0499 100.795 81.1601 101.877 81.5713 102.86C81.9825 103.843 82.6763 104.682 83.5646 105.27C84.4529 105.858 85.4958 106.169 86.5612 106.164C87.2667 106.164 87.9652 106.025 88.6166 105.754C89.2681 105.483 89.8597 105.087 90.3573 104.587C90.855 104.087 91.2489 103.493 91.5166 102.84C91.7842 102.188 91.9202 101.489 91.9168 100.783Z" fill="white"/>
  <path d="M75.722 112.955L71.2631 127.433C71.2631 127.433 70.4688 129.996 72.7238 130.764C74.9788 131.533 75.6451 128.817 75.6451 128.817L79.2581 116.696C79.2581 116.696 79.4632 115.748 80.155 115.953C80.8469 116.158 80.5907 117.157 80.5907 117.157L74.3382 139.912H80.155V156.184C80.2218 156.882 80.5463 157.53 81.0651 158.002C81.584 158.473 82.2599 158.735 82.961 158.735C83.6621 158.735 84.3381 158.473 84.8569 158.002C85.3757 157.53 85.7001 156.882 85.7669 156.184V139.989H87.3556V156.261C87.3556 157.002 87.65 157.712 88.1738 158.236C88.6976 158.76 89.408 159.054 90.1488 159.054C90.8895 159.054 91.6 158.76 92.1238 158.236C92.6476 157.712 92.942 157.002 92.942 156.261V139.989H98.7845L92.5063 117.183C92.5063 117.183 92.2501 116.184 92.942 115.979C93.6338 115.774 93.8388 116.722 93.8388 116.722L97.4519 128.842C97.4519 128.842 98.1438 131.405 100.373 130.79C102.603 130.175 101.834 127.459 101.834 127.459L97.375 112.904C97.375 112.904 95.7863 108.701 92.25 108.701H80.8725C77.3363 108.701 75.7475 112.904 75.7475 112.904" fill="white"/>
  <path d="M142.168 130.867C143.054 130.867 143.921 130.604 144.659 130.111C145.396 129.618 145.971 128.918 146.311 128.099C146.65 127.279 146.739 126.378 146.566 125.508C146.393 124.638 145.966 123.839 145.338 123.212C144.711 122.585 143.912 122.157 143.042 121.984C142.173 121.811 141.271 121.9 140.451 122.24C139.632 122.579 138.932 123.154 138.439 123.891C137.946 124.629 137.683 125.496 137.683 126.383C137.68 126.972 137.793 127.557 138.018 128.103C138.242 128.648 138.572 129.144 138.989 129.561C139.406 129.978 139.902 130.308 140.447 130.533C140.993 130.757 141.578 130.87 142.168 130.867Z" fill="white"/>
  <path d="M131.431 144.756C131.24 145.127 131.204 145.558 131.328 145.955C131.453 146.353 131.729 146.686 132.097 146.882C132.432 147.039 132.814 147.063 133.166 146.949C133.518 146.835 133.814 146.591 133.993 146.267L136.427 138.58C136.427 138.58 136.863 138.067 136.863 138.58V156.825C136.829 157.146 136.863 157.472 136.963 157.779C137.063 158.087 137.226 158.37 137.442 158.61C137.658 158.851 137.923 159.043 138.218 159.174C138.513 159.306 138.833 159.374 139.157 159.374C139.48 159.374 139.8 159.306 140.095 159.174C140.39 159.043 140.655 158.851 140.871 158.61C141.087 158.37 141.251 158.087 141.35 157.779C141.45 157.472 141.484 157.146 141.45 156.825V149.624C141.45 149.624 141.322 148.599 142.142 148.599C142.962 148.599 142.834 149.624 142.834 149.624V156.825C142.834 157.437 143.077 158.023 143.509 158.456C143.942 158.888 144.528 159.131 145.14 159.131C145.752 159.131 146.338 158.888 146.771 158.456C147.203 158.023 147.446 157.437 147.446 156.825V138.58C147.446 138.042 147.728 138.426 147.728 138.426L149.624 143.73C149.892 144.62 150.253 145.479 150.701 146.293C151.042 146.428 151.418 146.45 151.772 146.355C152.127 146.261 152.442 146.055 152.672 145.769C152.901 145.482 153.032 145.129 153.047 144.763C153.061 144.396 152.957 144.034 152.751 143.73C152.751 143.577 149.906 136.709 149.573 135.761C148.574 132.814 146.729 132.84 144.961 132.789C143.193 132.737 142.142 132.789 142.142 132.789C142.142 132.789 141.014 132.789 138.682 132.789C136.351 132.789 135.608 134.044 133.045 140.681C132.686 141.629 131.431 144.704 131.431 144.884V144.756Z" fill="white"/>
  <path d="M43.9212 97.8106C43.9161 96.6917 43.5796 95.5993 42.9543 94.6714C42.329 93.7435 41.4427 93.0216 40.4075 92.5968C39.3723 92.1721 38.2344 92.0637 37.1376 92.2851C36.0408 92.5065 35.0341 93.0479 34.2446 93.8409C33.4552 94.6339 32.9184 95.643 32.7019 96.7408C32.4855 97.8387 32.5991 98.976 33.0284 100.009C33.4578 101.043 34.1837 101.926 35.1145 102.547C36.0452 103.168 37.139 103.499 38.258 103.499C39.7623 103.493 41.2027 102.89 42.264 101.824C43.3253 100.758 43.9212 99.3149 43.9212 97.8106Z" fill="white"/>
  <path d="M31.7237 105.677C29.8563 105.878 28.1268 106.754 26.8616 108.142C25.5964 109.53 24.8831 111.333 24.8562 113.211V128.945C24.8562 129.529 25.0884 130.09 25.5017 130.503C25.915 130.917 26.4754 131.149 27.0599 131.149C27.6444 131.149 28.2049 130.917 28.6182 130.503C29.0315 130.09 29.2637 129.529 29.2637 128.945V115.441C29.2637 114.928 29.4174 114.236 30.3399 114.236C31.2624 114.236 31.1087 114.928 31.1343 115.338V155.851C31.2055 156.641 31.5697 157.376 32.1554 157.912C32.741 158.447 33.5056 158.744 34.299 158.744C35.0924 158.744 35.857 158.447 36.4427 157.912C37.0283 157.376 37.3925 156.641 37.4637 155.851V132.558C37.4523 132.436 37.4675 132.313 37.5082 132.198C37.5488 132.083 37.6141 131.978 37.6994 131.89C37.7846 131.802 37.8878 131.734 38.002 131.69C38.1161 131.646 38.2385 131.628 38.3605 131.636C38.4826 131.628 38.6049 131.646 38.7191 131.69C38.8333 131.734 38.9366 131.802 39.0218 131.89C39.1071 131.978 39.1723 132.083 39.2129 132.198C39.2536 132.313 39.2688 132.436 39.2574 132.558V155.902C39.3286 156.693 39.6928 157.428 40.2784 157.963C40.8641 158.498 41.6287 158.795 42.4221 158.795C43.2155 158.795 43.9802 158.498 44.5658 157.963C45.1514 157.428 45.5156 156.693 45.5868 155.902V115.338C45.5868 114.928 45.7406 114.236 46.3812 114.236C47.0218 114.236 47.4575 114.928 47.4575 115.441V128.945C47.4575 129.529 47.6896 130.09 48.1029 130.503C48.5161 130.917 49.0767 131.149 49.6612 131.149C50.2456 131.149 50.8062 130.917 51.2195 130.503C51.6328 130.09 51.8649 129.529 51.8649 128.945V113.211C51.8373 111.329 51.1204 109.523 49.85 108.134C48.5795 106.746 46.8438 105.872 44.9718 105.677H31.7237Z" fill="white"/>
  <path d="M26.7012 131.226L21.6531 157.927" stroke="white" stroke-width="1.31" stroke-miterlimit="10" stroke-linecap="round"/>
  <path d="M54.4532 128.535C54.3061 128.301 54.1021 128.107 53.8602 127.973C53.6182 127.838 53.3462 127.767 53.0694 127.766C52.6389 127.766 52.2256 127.936 51.9187 128.238C51.6119 128.54 51.4362 128.95 51.4294 129.381C51.4569 129.627 51.5172 129.868 51.6088 130.098L56.1188 138.273C56.2686 138.613 56.3554 138.978 56.375 139.349V156.851C56.375 157.435 56.6072 157.996 57.0205 158.409C57.4338 158.822 57.9944 159.054 58.5788 159.054C59.1633 159.054 59.7238 158.822 60.1371 158.409C60.5504 157.996 60.7826 157.435 60.7826 156.851V149.958C60.7826 149.958 60.6545 148.958 61.4488 148.958C62.2432 148.958 62.0895 149.958 62.0895 149.958V156.851C62.1483 157.398 62.4072 157.903 62.8163 158.271C63.2255 158.638 63.756 158.841 64.306 158.841C64.8559 158.841 65.3865 158.638 65.7956 158.271C66.2048 157.903 66.4637 157.398 66.5225 156.851V139.349C66.5422 138.978 66.629 138.613 66.7788 138.273L70.9557 130.739C71.169 130.303 71.3406 129.849 71.4682 129.381C71.4615 128.95 71.2857 128.54 70.9789 128.238C70.6721 127.936 70.2587 127.766 69.8282 127.766C69.5514 127.767 69.2794 127.838 69.0374 127.973C68.7955 128.107 68.5914 128.301 68.4444 128.535C68.4444 128.663 66.2151 132.379 65.5232 133.071C65.3526 133.271 65.1406 133.432 64.9016 133.543C64.6627 133.654 64.4027 133.711 64.1394 133.711H58.7326C58.4693 133.711 58.2093 133.654 57.9704 133.543C57.7315 133.432 57.5194 133.271 57.3488 133.071C56.6569 132.379 54.5813 128.663 54.4275 128.535H54.4532Z" fill="white"/>
  <path d="M61.4744 130.867C62.3614 130.867 63.2284 130.604 63.9659 130.111C64.7033 129.618 65.278 128.918 65.6175 128.099C65.9569 127.279 66.0457 126.378 65.8727 125.508C65.6997 124.638 65.2726 123.839 64.6454 123.212C64.0183 122.585 63.2192 122.157 62.3494 121.984C61.4795 121.811 60.5778 121.9 59.7584 122.24C58.939 122.579 58.2386 123.154 57.7459 123.891C57.2531 124.629 56.9901 125.496 56.9901 126.383C56.9867 126.972 57.1004 127.557 57.3245 128.103C57.5487 128.648 57.8789 129.144 58.2959 129.561C58.713 129.978 59.2088 130.308 59.7544 130.533C60.3 130.757 60.8846 130.87 61.4744 130.867Z" fill="white"/>
  <path d="M61.4745 137.145L66.5226 140.835L68.9313 149.676H61.4745H54.0176L56.4263 140.835L61.4745 137.145Z" fill="white"/>
  <path d="M61.0901 23.1138V33.9787H58.5276V16.7075H61.3976L64.5238 26.5987V16.7075H66.9326V33.9787H64.3701L61.0901 23.1138Z" fill="white"/>
  <path d="M68.7006 29.5199V21.1662C68.6543 20.5608 68.7336 19.9524 68.9335 19.3792C69.1334 18.8059 69.4496 18.2802 69.8622 17.8349C70.2748 17.3895 70.7749 17.0342 71.3312 16.7913C71.8876 16.5483 72.4881 16.4229 73.0952 16.4229C73.7023 16.4229 74.3029 16.5483 74.8593 16.7913C75.4157 17.0342 75.9158 17.3895 76.3284 17.8349C76.741 18.2802 77.0572 18.8059 77.257 19.3792C77.4569 19.9524 77.5362 20.5608 77.4899 21.1662V29.5199C77.5362 30.1253 77.4569 30.7336 77.257 31.3068C77.0572 31.8801 76.741 32.4059 76.3284 32.8512C75.9158 33.2966 75.4157 33.6518 74.8593 33.8948C74.3029 34.1378 73.7023 34.2632 73.0952 34.2632C72.4881 34.2632 71.8876 34.1378 71.3312 33.8948C70.7749 33.6518 70.2748 33.2966 69.8622 32.8512C69.4496 32.4059 69.1334 31.8801 68.9335 31.3068C68.7336 30.7336 68.6543 30.1253 68.7006 29.5199ZM74.5944 29.9812V20.7049C74.5944 19.6543 74.1331 18.9111 73.0825 18.9111C72.0319 18.9111 71.5962 19.6543 71.5962 20.7049V30.058C71.5962 31.083 72.0575 31.8262 73.0825 31.8262C74.1075 31.8262 74.5944 31.0062 74.5944 30.058V29.9812Z" fill="white"/>
  <path d="M58.6299 40.8975H62.9349C65.8817 40.8975 66.9324 42.358 66.9324 44.7668V48.4056C66.9324 50.8399 65.8817 52.3262 62.9349 52.3262H61.5512V58.2456H58.6299V40.8975ZM61.5512 43.2806V50.0712H62.6017C62.7972 50.1018 62.9971 50.0858 63.1852 50.0246C63.3733 49.9633 63.5443 49.8585 63.6842 49.7186C63.8241 49.5787 63.9289 49.4077 63.9902 49.2196C64.0515 49.0315 64.0674 48.8316 64.0367 48.6362V44.6643C64.0367 43.7162 63.6011 43.2806 62.6017 43.2806H61.5512Z" fill="white"/>
  <path d="M68.4442 53.7101V45.4332C68.3979 44.8279 68.4773 44.2195 68.6772 43.6463C68.877 43.073 69.1932 42.5473 69.6058 42.1019C70.0184 41.6566 70.5185 41.3013 71.0749 41.0583C71.6313 40.8154 72.2319 40.6899 72.839 40.6899C73.4461 40.6899 74.0466 40.8154 74.603 41.0583C75.1593 41.3013 75.6594 41.6566 76.072 42.1019C76.4846 42.5473 76.8008 43.073 77.0007 43.6463C77.2006 44.2195 77.2799 44.8279 77.2336 45.4332V53.787C77.2799 54.3923 77.2006 55.0007 77.0007 55.5739C76.8008 56.1472 76.4846 56.673 76.072 57.1183C75.6594 57.5636 75.1593 57.9189 74.603 58.1619C74.0466 58.4049 73.4461 58.5303 72.839 58.5303C72.2319 58.5303 71.6313 58.4049 71.0749 58.1619C70.5185 57.9189 70.0184 57.5636 69.6058 57.1183C69.1932 56.673 68.877 56.1472 68.6772 55.5739C68.4773 55.0007 68.3979 54.3923 68.4442 53.787V53.7101ZM74.338 54.1714V44.8951C74.338 43.8445 73.8768 43.127 72.8261 43.127C71.7755 43.127 71.3398 43.8445 71.3398 44.8951V54.1714C71.3398 55.222 71.8011 55.9651 72.8261 55.9651C73.8511 55.9651 74.338 55.222 74.338 54.1714Z" fill="white"/>
  <path d="M87.6886 40.8975L84.383 58.2456H81.2312L77.8486 40.8975H80.7955L82.7942 52.9412L84.8186 40.8975H87.6886Z" fill="white"/>
  <path d="M88.8674 40.8975H95.7862V43.2806H91.7631V48.2005H94.6331V50.5581H91.7631V55.8112H95.7862V58.2456H88.8674V40.8975Z" fill="white"/>
  <path d="M100.271 50.2506V58.2456H97.3494V40.9744H101.603C104.524 40.9744 105.601 42.4349 105.601 44.8437V47.0731C105.601 48.9181 104.934 50.02 103.269 50.4043L106.036 58.2456H102.961L100.271 50.2506ZM100.271 43.2806V48.6362H101.244C101.435 48.6615 101.63 48.6424 101.812 48.5805C101.995 48.5186 102.161 48.4156 102.297 48.2793C102.433 48.143 102.536 47.9772 102.598 47.7947C102.66 47.6122 102.679 47.4179 102.654 47.2269V44.6644C102.654 43.7162 102.218 43.2806 101.244 43.2806H100.271Z" fill="white"/>
  <path d="M106.574 40.8975H114.262V43.2806H111.853V58.2456H108.932V43.3574H106.523L106.574 40.8975Z" fill="white"/>
  <path d="M121.411 51.6087V58.2456H118.516V51.6856L115.261 40.9744H118.311L120.053 47.5344L121.821 40.9744H124.589L121.411 51.6087Z" fill="white"/>
</svg>
