<svg width="205" height="205" viewBox="0 0 205 205" fill="none"
  xmlns="http://www.w3.org/2000/svg">
  <path d="M205 0H0V205H205V0Z" fill="#DD1768"/>
  <path d="M68.9569 25.83L71.5194 33.7224H74.492L71.8014 25.9068C73.4158 25.5225 74.0563 24.4462 74.0563 22.6012V20.3718C74.0563 17.9631 73.0057 16.5281 70.1614 16.5281H66.0613V33.7224H68.8801L68.9569 25.83ZM68.9569 18.8856H69.905C70.8532 18.8856 71.2889 19.3468 71.2889 20.295V22.8575C71.3187 23.0471 71.3037 23.2411 71.2451 23.4239C71.1865 23.6067 71.0858 23.7732 70.9514 23.9102C70.8169 24.0472 70.6523 24.1508 70.4706 24.2127C70.2889 24.2746 70.0952 24.2931 69.905 24.2668H68.9569V18.8856Z" fill="white"/>
  <path d="M82.6407 31.365H78.7201V26.1375H81.5132V23.8056H78.7201V18.8856H82.6407V16.5281H75.9014V33.7225H82.6407V31.365Z" fill="white"/>
  <path d="M88.7652 16.5281H84.4089V33.7224H88.7652C91.789 33.7224 92.8652 31.7493 92.8652 29.11V21.1405C92.8652 18.578 91.789 16.5281 88.7652 16.5281ZM90.0208 29.6224C90.0208 30.6474 89.5852 31.365 88.4321 31.365H87.2276V18.8856H88.3808C89.5339 18.8856 89.9695 19.6031 89.9695 20.6024L90.0208 29.6224Z" fill="white"/>
  <path d="M97.5289 16.5281H94.7101V29.5455C94.6196 30.126 94.6643 30.7196 94.8407 31.28C95.0171 31.8403 95.3205 32.3524 95.7272 32.7764C96.1338 33.2004 96.6328 33.5249 97.1853 33.7245C97.7379 33.9242 98.3289 33.9936 98.9126 33.9275C101.783 33.9275 102.91 32.2105 102.91 29.5455V16.5281H100.348V29.8275C100.348 30.8268 99.9633 31.5187 98.9639 31.5187C97.9646 31.5187 97.5802 30.8268 97.5802 29.8275L97.5289 16.5281Z" fill="white"/>
  <path d="M104.755 20.9614V29.2895C104.755 31.852 106.011 33.9276 108.983 33.9276C111.956 33.9276 112.955 32.1082 112.955 29.6482V26.6757H110.393V29.8532C110.393 30.8526 110.034 31.5188 109.034 31.5188C108.035 31.5188 107.599 30.7757 107.599 29.7507V20.5001C107.599 19.4751 108.009 18.7319 109.034 18.7319C110.059 18.7319 110.393 19.347 110.393 20.3976V22.6525H112.955V20.6282C112.955 18.0657 112.109 16.3232 108.983 16.3232C105.857 16.3232 104.755 18.2707 104.755 20.9614Z" fill="white"/>
  <path d="M114.749 33.7225H121.488V31.365H117.568V26.1375H120.361V23.8056H117.568V18.8856H121.488V16.5281H114.749V33.7225Z" fill="white"/>
  <path d="M123.231 16.5281V33.7224H127.613C130.611 33.7224 131.687 31.7493 131.687 29.11V21.1405C131.687 18.578 130.611 16.5281 127.613 16.5281H123.231ZM128.868 20.6024V29.6224C128.868 30.6474 128.407 31.365 127.254 31.365H126.075V18.8856H127.254C127.479 18.8681 127.706 18.9013 127.917 18.983C128.128 19.0646 128.317 19.1925 128.472 19.3572C128.627 19.522 128.743 19.7193 128.812 19.9348C128.88 20.1503 128.9 20.3785 128.868 20.6024Z" fill="white"/>
  <path d="M68.9313 41.1282H66.1125V58.3226H68.9313V41.1282Z" fill="white"/>
  <path d="M78.9507 41.1282H76.5932V50.9938L73.5439 41.1282H70.7764V58.3226H73.1595V47.5088L76.4651 58.3226H78.9507V41.1282Z" fill="white"/>
  <path d="M87.2789 43.4857V41.1282H80.5396V58.3226H87.2789V55.9651H83.3583V50.7375H86.1514V48.4057H83.3583V43.4857H87.2789Z" fill="white"/>
  <path d="M92.5833 40.923C89.6108 40.923 88.3294 42.8705 88.3294 45.5611V53.8892C88.1806 54.8998 88.4322 55.9286 89.0304 56.7566C89.6287 57.5845 90.5264 58.1464 91.5326 58.3224V59.5011L96.8626 60.5005V58.2455L94.787 57.8355C95.4918 57.4385 96.0644 56.843 96.4334 56.1231C96.8025 55.4033 96.9517 54.5908 96.8626 53.7868V45.4587C96.8626 42.7681 95.5814 40.8206 92.5833 40.8206V40.923ZM94.0439 54.4018C94.0439 55.4012 93.5826 56.1699 92.5833 56.1699C91.5839 56.1699 91.1483 55.4012 91.1483 54.4018V44.9974C91.1483 43.9724 91.5839 43.2293 92.5833 43.2293C93.5826 43.2293 94.0439 43.9724 94.0439 44.9974V54.4018Z" fill="white"/>
  <path d="M98.4513 41.1282V54.1456C98.3608 54.7261 98.4055 55.3196 98.5819 55.88C98.7583 56.4404 99.0616 56.9525 99.4682 57.3765C99.8749 57.8005 100.374 58.1249 100.926 58.3246C101.479 58.5242 102.07 58.5936 102.654 58.5275C105.524 58.5275 106.651 56.8106 106.651 54.1456V41.1282H104.089V54.4276C104.089 55.4269 103.705 56.1188 102.705 56.1188C101.706 56.1188 101.321 55.4269 101.321 54.4276V41.1282H98.4513Z" fill="white"/>
  <path d="M110.726 41.1282L107.548 58.2457H110.111L110.597 55.0938H113.596L114.108 58.2457H117.004L114.006 41.1282H110.726ZM111.11 52.8644L112.212 45.9713L113.339 52.8644H111.11Z" fill="white"/>
  <path d="M118.285 41.1282V58.3226H124.461V55.9651H121.104V41.1282H118.285Z" fill="white"/>
  <path d="M128.535 41.1282H125.716V58.3226H128.535V41.1282Z" fill="white"/>
  <path d="M135.018 58.3226V43.4857H137.35V41.1282H129.842V43.4857H132.174V58.3226H135.018Z" fill="white"/>
  <path d="M141.45 41.1282H138.631V58.3226H141.45V41.1282Z" fill="white"/>
  <path d="M149.804 55.9651H145.883V50.7375H148.676V48.4057H145.883V43.4857H149.804V41.1282H143.064V58.3226H149.804V55.9651Z" fill="white"/>
  <path d="M150.931 52.3263V54.6325C150.867 55.1661 150.927 55.7074 151.105 56.2144C151.283 56.7215 151.575 57.1809 151.959 57.5572C152.343 57.9335 152.808 58.2168 153.318 58.385C153.829 58.5532 154.371 58.6019 154.903 58.5275C155.452 58.5955 156.01 58.5391 156.534 58.3625C157.059 58.1859 157.537 57.8937 157.933 57.5073C158.329 57.121 158.633 56.6505 158.823 56.1307C159.013 55.6109 159.083 55.0551 159.029 54.5044V53.6587C159.007 52.7922 158.79 51.9418 158.395 51.1701C158.001 50.3984 157.438 49.7252 156.748 49.2L154.929 47.3807C154.109 46.5607 153.596 45.9969 153.596 45.0488V44.69C153.569 44.504 153.584 44.3144 153.639 44.1349C153.695 43.9554 153.791 43.7907 153.919 43.653C154.046 43.5152 154.203 43.408 154.378 43.3391C154.553 43.2703 154.741 43.2415 154.929 43.255C155.826 43.255 156.261 43.7419 156.261 44.7413V46.2275H158.824V44.8437C158.902 44.3085 158.854 43.7623 158.683 43.249C158.512 42.7358 158.223 42.2699 157.839 41.8886C157.455 41.5073 156.988 41.2214 156.473 41.0537C155.959 40.886 155.412 40.8413 154.878 40.9231C154.358 40.8607 153.83 40.9147 153.334 41.0809C152.837 41.2472 152.384 41.5216 152.006 41.8845C151.628 42.2474 151.336 42.6896 151.15 43.1792C150.964 43.6688 150.89 44.1936 150.931 44.7156V45.2794C150.943 46.1741 151.162 47.0539 151.571 47.8497C151.98 48.6455 152.568 49.3358 153.289 49.8663L154.929 51.5831C155.33 51.877 155.653 52.2636 155.872 52.7099C156.091 53.1562 156.198 53.6488 156.184 54.1456V54.8119C156.184 55.7088 155.8 56.3238 154.903 56.3238C154.006 56.3238 153.519 55.76 153.519 54.8119V52.4544L150.931 52.3263Z" fill="white"/>
  <path d="M21.0894 26.3425V58.3481H27.9569V16.5537H22.4732L16.1438 24.1131V31.4675H16.2207L21.0125 26.3425H21.0894Z" fill="white"/>
  <path d="M52.9927 47.56V27.3419C52.9927 20.8075 49.8152 16.0669 42.7427 16.0669C35.6702 16.0669 32.4927 20.8075 32.4927 27.3419V47.56C32.4927 54.0431 35.6958 58.835 42.7427 58.835C49.7896 58.835 52.9927 54.0431 52.9927 47.56ZM39.5652 48.6619V26.24C39.5652 23.6775 40.4876 21.9094 42.8195 21.9094C45.1513 21.9094 46.1252 23.7031 46.1252 26.24V48.6619C46.1252 51.2244 45.2282 52.9925 42.8195 52.9925C40.4107 52.9925 39.5652 51.1988 39.5652 48.6619Z" fill="white"/>
  <path d="M134.429 109.906L153.186 128.689L134.429 147.446V109.906Z" fill="white"/>
  <path d="M66.5995 109.906L47.842 128.689L66.5995 147.446V109.906Z" fill="white"/>
  <path d="M82.1282 95.6838L100.886 76.9263L119.643 95.6838H82.1282Z" fill="white"/>
  <path d="M83.7427 162.795L102.5 181.579L121.258 162.795H83.7427Z" fill="white"/>
  <path d="M120.745 134.762H81.0519C80.9384 134.768 80.8311 134.816 80.7507 134.896C80.6703 134.977 80.6224 135.084 80.6162 135.198V144.423C80.6224 144.536 80.6703 144.643 80.7507 144.724C80.8311 144.804 80.9384 144.852 81.0519 144.858H120.745C120.859 144.852 120.966 144.804 121.046 144.724C121.127 144.643 121.174 144.536 121.181 144.423V135.121C121.174 135.007 121.127 134.9 121.046 134.819C120.966 134.739 120.859 134.691 120.745 134.685" fill="white"/>
  <path d="M121.181 113.134C121.174 113.021 121.127 112.914 121.046 112.833C120.966 112.753 120.859 112.705 120.745 112.699H81.0519C80.9384 112.705 80.8311 112.753 80.7507 112.833C80.6703 112.914 80.6224 113.021 80.6162 113.134V122.308C80.6224 122.422 80.6703 122.529 80.7507 122.609C80.8311 122.69 80.9384 122.738 81.0519 122.744H120.745C120.859 122.738 120.966 122.69 121.046 122.609C121.127 122.529 121.174 122.422 121.181 122.308V113.134Z" fill="white"/>
  <path d="M121.283 111.494H80.5396V122.539H121.283V111.494Z" fill="white"/>
  <path d="M121.283 135.531H80.5396V146.575H121.283V135.531Z" fill="white"/>
</svg>
